999
dxflib 3.17.0.0
  0
SECTION
  2
HEADER
  9
$ACADVER
  1
AC1015
  9
$HANDSEED
  5
FFFF
  9
$DIMADEC
 70
0
  9
$DIMASZ
 40
2.5
  9
$DIMAUNIT
 70
0
  9
$DIMAZIN
 70
2
  9
$DIMDEC
 70
4
  9
$DIMDLI
 40
5.0
  9
$DIMDSEP
 70
46
  9
$DIMEXE
 40
1.25
  9
$DIMEXO
 40
0.625
  9
$DIMGAP
 40
0.625
  9
$DIMLUNIT
 70
2
  9
$DIMSCALE
 40
1.0
  9
$DIMTSZ
 40
0.0
  9
$DIMTXT
 40
2.5
  9
$DIMZIN
 70
8
  9
$DWGCODEPAGE
  3
ANSI_1252
  9
$INSUNITS
 70
4
  9
$LTSCALE
 40
1.0
  9
$MAXACTVP
 70
64
  9
$MEASUREMENT
 70
1
  9
$PDMODE
 70
0
  9
$PDSIZE
 40
0.0
  0
ENDSEC
  0
SECTION
  2
TABLES
  0
TABLE
  2
VPORT
  5
8
100
AcDbSymbolTable
 70
1
  0
VPORT
  5
30
100
AcDbSymbolTableRecord
100
AcDbViewportTableRecord
  2
*Active
 70
0
 10
0.0
 20
0.0
 11
1.0
 21
1.0
 12
286.3055555555554861
 22
148.5
 13
0.0
 23
0.0
 14
10.0
 24
10.0
 15
10.0
 25
10.0
 16
0.0
 26
0.0
 36
1.0
 17
0.0
 27
0.0
 37
0.0
 40
297.0
 41
1.92798353909465
 42
50.0
 43
0.0
 44
0.0
 50
0.0
 51
0.0
 71
0
 72
100
 73
1
 74
3
 75
1
 76
1
 77
0
 78
0
281
0
 65
1
110
0.0
120
0.0
130
0.0
111
1.0
121
0.0
131
0.0
112
0.0
122
1.0
132
0.0
 79
0
146
0.0
  0
ENDTAB
  0
TABLE
  2
LTYPE
  5
5
100
AcDbSymbolTable
 70
41
  0
LTYPE
  5
16
100
AcDbSymbolTableRecord
100
AcDbLinetypeTableRecord
  2
Continuous
 70
0
  3
Solid line
 72
65
 73
0
 40
0.0
  0
LTYPE
  5
31
100
AcDbSymbolTableRecord
100
AcDbLinetypeTableRecord
  2
ACAD_ISO02W100
 70
0
  3
ISO dash __ __ __ __ __ __ __ __ __ __ __ __ __
 72
65
 73
2
 40
15.0
 49
12.0
 74
0
 49
-3.0
 74
0
  0
LTYPE
  5
32
100
AcDbSymbolTableRecord
100
AcDbLinetypeTableRecord
  2
DASHDOT
 70
0
  3
Dash dot __ . __ . __ . __ . __ . __ . __ . __
 72
65
 73
4
 40
25.3999999999999986
 49
12.6999999999999993
 74
0
 49
-6.3499999999999996
 74
0
 49
0.0
 74
0
 49
-6.3499999999999996
 74
0
  0
LTYPE
  5
33
100
AcDbSymbolTableRecord
100
AcDbLinetypeTableRecord
  2
DOT2
 70
0
  3
Dot (.5x) ........................................
 72
65
 73
2
 40
3.1749999999999998
 49
0.0
 74
0
 49
-3.1749999999999998
 74
0
  0
LTYPE
  5
34
100
AcDbSymbolTableRecord
100
AcDbLinetypeTableRecord
  2
ACAD_ISO11W100
 70
0
  3
ISO double-dash dot __ __ . __ __ . __ __ . __ _
 72
65
 73
6
 40
33.0
 49
12.0
 74
0
 49
-3.0
 74
0
 49
12.0
 74
0
 49
-3.0
 74
0
 49
0.0
 74
0
 49
-3.0
 74
0
  0
LTYPE
  5
35
100
AcDbSymbolTableRecord
100
AcDbLinetypeTableRecord
  2
CENTERX2
 70
0
  3
Center (2x) ________  __  ________  __  _____
 72
65
 73
4
 40
101.6000000000000085
 49
63.5
 74
0
 49
-12.6999999999999993
 74
0
 49
12.6999999999999993
 74
0
 49
-12.6999999999999993
 74
0
  0
LTYPE
  5
36
100
AcDbSymbolTableRecord
100
AcDbLinetypeTableRecord
  2
ACAD_ISO06W100
 70
0
  3
ISO long-dash triple-dot ____ ... ____ ... ____
 72
65
 73
8
 40
36.0
 49
24.0
 74
0
 49
-3.0
 74
0
 49
0.0
 74
0
 49
-3.0
 74
0
 49
0.0
 74
0
 49
-3.0
 74
0
 49
0.0
 74
0
 49
-3.0
 74
0
  0
LTYPE
  5
37
100
AcDbSymbolTableRecord
100
AcDbLinetypeTableRecord
  2
HIDDEN2
 70
0
  3
Hidden (.5x) _ _ _ _ _ _ _ _ _ _ _ _ _ _ _ _ _ 
 72
65
 73
2
 40
4.7624999999999993
 49
3.1749999999999998
 74
0
 49
-1.5874999999999999
 74
0
  0
LTYPE
  5
38
100
AcDbSymbolTableRecord
100
AcDbLinetypeTableRecord
  2
PHANTOMX2
 70
0
  3
Phantom (2x) ____________    ____    ____   _
 72
65
 73
6
 40
127.0000000000000142
 49
63.5
 74
0
 49
-12.6999999999999993
 74
0
 49
12.6999999999999993
 74
0
 49
-12.6999999999999993
 74
0
 49
12.6999999999999993
 74
0
 49
-12.6999999999999993
 74
0
  0
LTYPE
  5
39
100
AcDbSymbolTableRecord
100
AcDbLinetypeTableRecord
  2
ACAD_ISO03W100
 70
0
  3
ISO dash space __    __    __    __    __    __
 72
65
 73
2
 40
30.0
 49
12.0
 74
0
 49
-18.0
 74
0
  0
LTYPE
  5
3A
100
AcDbSymbolTableRecord
100
AcDbLinetypeTableRecord
  2
DASHED
 70
0
  3
Dashed __ __ __ __ __ __ __ __ __ __ __ __ __ _
 72
65
 73
2
 40
19.0499999999999972
 49
12.6999999999999993
 74
0
 49
-6.3499999999999996
 74
0
  0
LTYPE
  5
3B
100
AcDbSymbolTableRecord
100
AcDbLinetypeTableRecord
  2
BORDER
 70
0
  3
Border __ __ . __ __ . __ __ . __ __ . __ __ .
 72
65
 73
6
 40
44.4499999999999957
 49
12.6999999999999993
 74
0
 49
-6.3499999999999996
 74
0
 49
12.6999999999999993
 74
0
 49
-6.3499999999999996
 74
0
 49
0.0
 74
0
 49
-6.3499999999999996
 74
0
  0
LTYPE
  5
3C
100
AcDbSymbolTableRecord
100
AcDbLinetypeTableRecord
  2
ACAD_ISO07W100
 70
0
  3
ISO dot . . . . . . . . . . . . . . . . . . . . 
 72
65
 73
2
 40
3.0
 49
0.0
 74
0
 49
-3.0
 74
0
  0
LTYPE
  5
3D
100
AcDbSymbolTableRecord
100
AcDbLinetypeTableRecord
  2
PHANTOM2
 70
0
  3
Phantom (.5x) ___ _ _ ___ _ _ ___ _ _ ___ _ _
 72
65
 73
6
 40
31.7500000000000036
 49
15.875
 74
0
 49
-3.1749999999999998
 74
0
 49
3.1749999999999998
 74
0
 49
-3.1749999999999998
 74
0
 49
3.1749999999999998
 74
0
 49
-3.1749999999999998
 74
0
  0
LTYPE
  5
3E
100
AcDbSymbolTableRecord
100
AcDbLinetypeTableRecord
  2
ACAD_ISO05W100
 70
0
  3
ISO long-dash double-dot ____ .. ____ .. ____ . 
 72
65
 73
6
 40
33.0
 49
24.0
 74
0
 49
-3.0
 74
0
 49
0.0
 74
0
 49
-3.0
 74
0
 49
0.0
 74
0
 49
-3.0
 74
0
  0
LTYPE
  5
14
100
AcDbSymbolTableRecord
100
AcDbLinetypeTableRecord
  2
BYBLOCK
 70
0
  3

 72
65
 73
0
 40
0.0
  0
LTYPE
  5
3F
100
AcDbSymbolTableRecord
100
AcDbLinetypeTableRecord
  2
BORDERX2
 70
0
  3
Border (2x) ____  ____  .  ____  ____  .  ___
 72
65
 73
6
 40
88.8999999999999915
 49
25.3999999999999986
 74
0
 49
-12.6999999999999993
 74
0
 49
25.3999999999999986
 74
0
 49
-12.6999999999999993
 74
0
 49
0.0
 74
0
 49
-12.6999999999999993
 74
0
  0
LTYPE
  5
40
100
AcDbSymbolTableRecord
100
AcDbLinetypeTableRecord
  2
DASHDOTX2
 70
0
  3
Dash dot (2x) ____  .  ____  .  ____  .  ___
 72
65
 73
4
 40
50.7999999999999972
 49
25.3999999999999986
 74
0
 49
-12.6999999999999993
 74
0
 49
0.0
 74
0
 49
-12.6999999999999993
 74
0
  0
LTYPE
  5
41
100
AcDbSymbolTableRecord
100
AcDbLinetypeTableRecord
  2
CENTER
 70
0
  3
Center ____ _ ____ _ ____ _ ____ _ ____ _ ____
 72
65
 73
4
 40
50.8000000000000043
 49
31.75
 74
0
 49
-6.3499999999999996
 74
0
 49
6.3499999999999996
 74
0
 49
-6.3499999999999996
 74
0
  0
LTYPE
  5
42
100
AcDbSymbolTableRecord
100
AcDbLinetypeTableRecord
  2
DIVIDEX2
 70
0
  3
Divide (2x) ________  .  .  ________  .  .  _
 72
65
 73
6
 40
63.5
 49
25.3999999999999986
 74
0
 49
-12.6999999999999993
 74
0
 49
0.0
 74
0
 49
-12.6999999999999993
 74
0
 49
0.0
 74
0
 49
-12.6999999999999993
 74
0
  0
LTYPE
  5
43
100
AcDbSymbolTableRecord
100
AcDbLinetypeTableRecord
  2
ACAD_ISO09W100
 70
0
  3
ISO long-dash double-short-dash ____ __ __ ____
 72
65
 73
6
 40
45.0
 49
24.0
 74
0
 49
-3.0
 74
0
 49
6.0
 74
0
 49
-3.0
 74
0
 49
6.0
 74
0
 49
-3.0
 74
0
  0
LTYPE
  5
44
100
AcDbSymbolTableRecord
100
AcDbLinetypeTableRecord
  2
ACAD_ISO14W100
 70
0
  3
ISO dash triple-dot __ . . . __ . . . __ . . . _
 72
65
 73
8
 40
24.0
 49
12.0
 74
0
 49
-3.0
 74
0
 49
0.0
 74
0
 49
-3.0
 74
0
 49
0.0
 74
0
 49
-3.0
 74
0
 49
0.0
 74
0
 49
-3.0
 74
0
  0
LTYPE
  5
45
100
AcDbSymbolTableRecord
100
AcDbLinetypeTableRecord
  2
HIDDEN
 70
0
  3
Hidden __ __ __ __ __ __ __ __ __ __ __ __ __ __
 72
65
 73
2
 40
9.5249999999999986
 49
6.3499999999999996
 74
0
 49
-3.1749999999999998
 74
0
  0
LTYPE
  5
46
100
AcDbSymbolTableRecord
100
AcDbLinetypeTableRecord
  2
ACAD_ISO08W100
 70
0
  3
ISO long-dash short-dash ____ __ ____ __ ____ _
 72
65
 73
4
 40
36.0
 49
24.0
 74
0
 49
-3.0
 74
0
 49
6.0
 74
0
 49
-3.0
 74
0
  0
LTYPE
  5
47
100
AcDbSymbolTableRecord
100
AcDbLinetypeTableRecord
  2
DOTX2
 70
0
  3
Dot (2x) .  .  .  .  .  .  .  .  .  .  .  .  .  .
 72
65
 73
2
 40
12.6999999999999993
 49
0.0
 74
0
 49
-12.6999999999999993
 74
0
  0
LTYPE
  5
15
100
AcDbSymbolTableRecord
100
AcDbLinetypeTableRecord
  2
BYLAYER
 70
0
  3

 72
65
 73
0
 40
0.0
  0
LTYPE
  5
48
100
AcDbSymbolTableRecord
100
AcDbLinetypeTableRecord
  2
ACAD_ISO13W100
 70
0
  3
ISO double-dash double-dot __ __ . . __ __ . . _
 72
65
 73
8
 40
36.0
 49
12.0
 74
0
 49
-3.0
 74
0
 49
12.0
 74
0
 49
-3.0
 74
0
 49
0.0
 74
0
 49
-3.0
 74
0
 49
0.0
 74
0
 49
-3.0
 74
0
  0
LTYPE
  5
49
100
AcDbSymbolTableRecord
100
AcDbLinetypeTableRecord
  2
ACAD_ISO12W100
 70
0
  3
ISO dash double-dot __ . . __ . . __ . . __ . . 
 72
65
 73
6
 40
21.0
 49
12.0
 74
0
 49
-3.0
 74
0
 49
0.0
 74
0
 49
-3.0
 74
0
 49
0.0
 74
0
 49
-3.0
 74
0
  0
LTYPE
  5
4A
100
AcDbSymbolTableRecord
100
AcDbLinetypeTableRecord
  2
HIDDENX2
 70
0
  3
Hidden (2x) ____ ____ ____ ____ ____ ____ ____ 
 72
65
 73
2
 40
19.0499999999999972
 49
12.6999999999999993
 74
0
 49
-6.3499999999999996
 74
0
  0
LTYPE
  5
4B
100
AcDbSymbolTableRecord
100
AcDbLinetypeTableRecord
  2
BORDER2
 70
0
  3
Border (.5x) __.__.__.__.__.__.__.__.__.__.__.
 72
65
 73
6
 40
22.2249999999999979
 49
6.3499999999999996
 74
0
 49
-3.1749999999999998
 74
0
 49
6.3499999999999996
 74
0
 49
-3.1749999999999998
 74
0
 49
0.0
 74
0
 49
-3.1749999999999998
 74
0
  0
LTYPE
  5
4C
100
AcDbSymbolTableRecord
100
AcDbLinetypeTableRecord
  2
ACAD_ISO10W100
 70
0
  3
ISO dash dot __ . __ . __ . __ . __ . __ . __ . 
 72
65
 73
4
 40
18.0
 49
12.0
 74
0
 49
-3.0
 74
0
 49
0.0
 74
0
 49
-3.0
 74
0
  0
LTYPE
  5
4D
100
AcDbSymbolTableRecord
100
AcDbLinetypeTableRecord
  2
DASHEDX2
 70
0
  3
Dashed (2x) ____  ____  ____  ____  ____  ___
 72
65
 73
2
 40
38.0999999999999943
 49
25.3999999999999986
 74
0
 49
-12.6999999999999993
 74
0
  0
LTYPE
  5
4E
100
AcDbSymbolTableRecord
100
AcDbLinetypeTableRecord
  2
CENTER2
 70
0
  3
Center (.5x) ___ _ ___ _ ___ _ ___ _ ___ _ ___
 72
65
 73
4
 40
28.5750000000000028
 49
19.0500000000000007
 74
0
 49
-3.1749999999999998
 74
0
 49
3.1749999999999998
 74
0
 49
-3.1749999999999998
 74
0
  0
LTYPE
  5
4F
100
AcDbSymbolTableRecord
100
AcDbLinetypeTableRecord
  2
PHANTOM
 70
0
  3
Phantom ______  __  __  ______  __  __  ______ 
 72
65
 73
6
 40
63.5000000000000071
 49
31.75
 74
0
 49
-6.3499999999999996
 74
0
 49
6.3499999999999996
 74
0
 49
-6.3499999999999996
 74
0
 49
6.3499999999999996
 74
0
 49
-6.3499999999999996
 74
0
  0
LTYPE
  5
50
100
AcDbSymbolTableRecord
100
AcDbLinetypeTableRecord
  2
DASHED2
 70
0
  3
Dashed (.5x) _ _ _ _ _ _ _ _ _ _ _ _ _ _ _ _ _ 
 72
65
 73
2
 40
9.5249999999999986
 49
6.3499999999999996
 74
0
 49
-3.1749999999999998
 74
0
  0
LTYPE
  5
51
100
AcDbSymbolTableRecord
100
AcDbLinetypeTableRecord
  2
ACAD_ISO15W100
 70
0
  3
ISO double-dash triple-dot __ __ . . . __ __ . .
 72
65
 73
10
 40
39.0
 49
12.0
 74
0
 49
-3.0
 74
0
 49
12.0
 74
0
 49
-3.0
 74
0
 49
0.0
 74
0
 49
-3.0
 74
0
 49
0.0
 74
0
 49
-3.0
 74
0
 49
0.0
 74
0
 49
-3.0
 74
0
  0
LTYPE
  5
52
100
AcDbSymbolTableRecord
100
AcDbLinetypeTableRecord
  2
DASHDOT2
 70
0
  3
Dash dot (.5x) _._._._._._._._._._._._._._._.
 72
65
 73
4
 40
12.6999999999999993
 49
6.3499999999999996
 74
0
 49
-3.1749999999999998
 74
0
 49
0.0
 74
0
 49
-3.1749999999999998
 74
0
  0
LTYPE
  5
53
100
AcDbSymbolTableRecord
100
AcDbLinetypeTableRecord
  2
ACAD_ISO04W100
 70
0
  3
ISO long-dash dot ____ . ____ . ____ . ____ . _
 72
65
 73
4
 40
30.0
 49
24.0
 74
0
 49
-3.0
 74
0
 49
0.0
 74
0
 49
-3.0
 74
0
  0
LTYPE
  5
54
100
AcDbSymbolTableRecord
100
AcDbLinetypeTableRecord
  2
DIVIDE
 70
0
  3
Divide ____ . . ____ . . ____ . . ____ . . ____
 72
65
 73
6
 40
31.75
 49
12.6999999999999993
 74
0
 49
-6.3499999999999996
 74
0
 49
0.0
 74
0
 49
-6.3499999999999996
 74
0
 49
0.0
 74
0
 49
-6.3499999999999996
 74
0
  0
LTYPE
  5
55
100
AcDbSymbolTableRecord
100
AcDbLinetypeTableRecord
  2
DOT
 70
0
  3
Dot . . . . . . . . . . . . . . . . . . . . . . . .
 72
65
 73
2
 40
6.3499999999999996
 49
0.0
 74
0
 49
-6.3499999999999996
 74
0
  0
LTYPE
  5
56
100
AcDbSymbolTableRecord
100
AcDbLinetypeTableRecord
  2
DIVIDE2
 70
0
  3
Divide (.5x) __..__..__..__..__..__..__..__.._
 72
65
 73
6
 40
15.875
 49
6.3499999999999996
 74
0
 49
-3.1749999999999998
 74
0
 49
0.0
 74
0
 49
-3.1749999999999998
 74
0
 49
0.0
 74
0
 49
-3.1749999999999998
 74
0
  0
ENDTAB
  0
TABLE
  2
LAYER
  5
2
100
AcDbSymbolTable
 70
3
  0
LAYER
  5
57
100
AcDbSymbolTableRecord
100
AcDbLayerTableRecord
  2
Pomozne
 70
0
 62
7
420
0
  6
DOT
370
5
390
F
  0
LAYER
  5
58
100
AcDbSymbolTableRecord
100
AcDbLayerTableRecord
  2
Omejitve
 70
0
 62
252
420
10526884
  6
Continuous
370
25
390
F
  0
LAYER
  5
10
100
AcDbSymbolTableRecord
100
AcDbLayerTableRecord
  2
0
 70
0
 62
7
420
16777215
  6
Continuous
370
50
390
F
  0
ENDTAB
  0
TABLE
  2
STYLE
  5
3
100
AcDbSymbolTable
 70
1
  0
STYLE
  5
59
100
AcDbSymbolTableRecord
100
AcDbTextStyleTableRecord
  2
Standard
 70
0
 40
0.0
 41
1.0
 50
0.0
 71
0
 42
2.5
  3

  4

1001
ACAD
1000
txt
1071
0
  0
ENDTAB
  0
TABLE
  2
VIEW
  5
6
100
AcDbSymbolTable
 70
0
  0
ENDTAB
  0
TABLE
  2
UCS
  5
7
100
AcDbSymbolTable
 70
0
  0
ENDTAB
  0
TABLE
  2
APPID
  5
9
100
AcDbSymbolTable
 70
1
  0
APPID
  5
12
100
AcDbSymbolTableRecord
100
AcDbRegAppTableRecord
  2
ACAD
 70
0
  0
APPID
  5
5A
100
AcDbSymbolTableRecord
100
AcDbRegAppTableRecord
  2
QCAD
 70
0
  0
ENDTAB
  0
TABLE
  2
DIMSTYLE
  5
A
100
AcDbSymbolTable
 70
1
100
AcDbDimStyleTable
 71
0
  0
DIMSTYLE
105
27
100
AcDbSymbolTableRecord
100
AcDbDimStyleTableRecord
  2
Standard
 41
2.5
 42
0.625
 43
3.75
 44
1.25
 70
0
 73
0
 74
0
 77
1
 78
8
140
2.5
141
2.5
143
0.03937007874016
147
0.625
171
3
172
1
271
2
272
2
274
3
278
44
283
0
284
8
340
59
  0
ENDTAB
  0
TABLE
  2
BLOCK_RECORD
  5
1
100
AcDbSymbolTable
 70
1
  0
BLOCK_RECORD
  5
1F
100
AcDbSymbolTableRecord
100
AcDbBlockTableRecord
  2
*Model_Space
340
22
  0
BLOCK_RECORD
  5
1B
100
AcDbSymbolTableRecord
100
AcDbBlockTableRecord
  2
*Paper_Space
340
1E
  0
BLOCK_RECORD
  5
23
100
AcDbSymbolTableRecord
100
AcDbBlockTableRecord
  2
*Paper_Space0
340
26
  0
ENDTAB
  0
ENDSEC
  0
SECTION
  2
BLOCKS
  0
BLOCK
  5
20
100
AcDbEntity
  8
0
100
AcDbBlockBegin
  2
*Model_Space
 70
0
 10
0.0
 20
0.0
 30
0.0
  3
*Model_Space
  1

  0
ENDBLK
  5
21
100
AcDbEntity
  8
0
100
AcDbBlockEnd
  0
BLOCK
  5
1C
100
AcDbEntity
 67
1
  8
0
100
AcDbBlockBegin
  2
*Paper_Space
 70
0
 10
0.0
 20
0.0
 30
0.0
  3
*Paper_Space
  1

  0
ENDBLK
  5
1D
100
AcDbEntity
 67
1
  8
0
100
AcDbBlockEnd
  0
BLOCK
  5
24
100
AcDbEntity
  8
0
100
AcDbBlockBegin
  2
*Paper_Space0
 70
0
 10
0.0
 20
0.0
 30
0.0
  3
*Paper_Space0
  1

  0
ENDBLK
  5
25
100
AcDbEntity
  8
0
100
AcDbBlockEnd
  0
ENDSEC
  0
SECTION
  2
ENTITIES
  0
ARC
  5
5B
100
AcDbEntity
  8
0
 62
256
370
-1
 48
1.0
  6
BYLAYER
100
AcDbCircle
 10
0.0
 20
0.0
 30
0.0
 40
75.0
100
AcDbArc
 50
90.7639663640218117
 51
134.2360336359782025
  0
ARC
  5
5C
100
AcDbEntity
  8
0
 62
256
370
-1
 48
1.0
  6
BYLAYER
100
AcDbCircle
 10
0.0
 20
0.0
 30
0.0
 40
75.0
100
AcDbArc
 50
135.7639663640218259
 51
179.2360336359782025
  0
ARC
  5
5D
100
AcDbEntity
  8
0
 62
256
370
-1
 48
1.0
  6
BYLAYER
100
AcDbCircle
 10
0.0
 20
0.0
 30
0.0
 40
75.0
100
AcDbArc
 50
180.7639663640217975
 51
224.2360336359782025
  0
ARC
  5
5E
100
AcDbEntity
  8
0
 62
256
370
-1
 48
1.0
  6
BYLAYER
100
AcDbCircle
 10
0.0
 20
0.0
 30
0.0
 40
75.0
100
AcDbArc
 50
270.7639663640218259
 51
314.2360336359781741
  0
ARC
  5
5F
100
AcDbEntity
  8
0
 62
256
370
-1
 48
1.0
  6
BYLAYER
100
AcDbCircle
 10
0.0
 20
0.0
 30
0.0
 40
75.0
100
AcDbArc
 50
225.7639663640217975
 51
269.2360336359782309
  0
ARC
  5
60
100
AcDbEntity
  8
0
 62
256
370
-1
 48
1.0
  6
BYLAYER
100
AcDbCircle
 10
0.0
 20
0.0
 30
0.0
 40
75.0
100
AcDbArc
 50
0.7639663640218228
 51
44.2360336359781812
  0
ARC
  5
61
100
AcDbEntity
  8
0
 62
256
370
-1
 48
1.0
  6
BYLAYER
100
AcDbCircle
 10
0.0
 20
0.0
 30
0.0
 40
75.0
100
AcDbArc
 50
315.7639663640218259
 51
359.2360336359782309
  0
ARC
  5
62
100
AcDbEntity
  8
0
 62
256
370
-1
 48
1.0
  6
BYLAYER
100
AcDbCircle
 10
0.0
 20
0.0
 30
0.0
 40
75.0
100
AcDbArc
 50
45.7639663640218259
 51
89.2360336359782167
  0
CIRCLE
  5
63
100
AcDbEntity
  8
Pomozne
 62
256
370
-1
 48
1.0
  6
BYLAYER
100
AcDbCircle
 10
0.0
 20
0.0
 30
0.0
 40
4.0
  0
ARC
  5
64
100
AcDbEntity
  8
0
 62
256
370
-1
 48
1.0
  6
BYLAYER
100
AcDbCircle
 10
0.0
 20
0.0
 30
0.0
 40
60.0
100
AcDbArc
 50
89.0450261262150917
 51
90.9549738737849083
  0
ARC
  5
65
100
AcDbEntity
  8
0
 62
256
370
-1
 48
1.0
  6
BYLAYER
100
AcDbCircle
 10
0.0
 20
0.0
 30
0.0
 40
60.0
100
AcDbArc
 50
134.0450261262150775
 51
135.9549738737849225
  0
ARC
  5
66
100
AcDbEntity
  8
0
 62
256
370
-1
 48
1.0
  6
BYLAYER
100
AcDbCircle
 10
0.0
 20
0.0
 30
0.0
 40
60.0
100
AcDbArc
 50
134.0450261262150775
 51
135.9549738737849225
  0
ARC
  5
67
100
AcDbEntity
  8
0
 62
256
370
-1
 48
1.0
  6
BYLAYER
100
AcDbCircle
 10
0.0
 20
0.0
 30
0.0
 40
60.0
100
AcDbArc
 50
179.0450261262150775
 51
180.9549738737849225
  0
ARC
  5
68
100
AcDbEntity
  8
0
 62
256
370
-1
 48
1.0
  6
BYLAYER
100
AcDbCircle
 10
0.0
 20
0.0
 30
0.0
 40
60.0
100
AcDbArc
 50
269.0450261262150775
 51
270.9549738737849225
  0
ARC
  5
69
100
AcDbEntity
  8
0
 62
256
370
-1
 48
1.0
  6
BYLAYER
100
AcDbCircle
 10
0.0
 20
0.0
 30
0.0
 40
60.0
100
AcDbArc
 50
224.0450261262150775
 51
225.9549738737849225
  0
ARC
  5
6A
100
AcDbEntity
  8
0
 62
256
370
-1
 48
1.0
  6
BYLAYER
100
AcDbCircle
 10
0.0
 20
0.0
 30
0.0
 40
60.0
100
AcDbArc
 50
359.0450261262150775
 51
0.9549738737849194
  0
ARC
  5
6B
100
AcDbEntity
  8
0
 62
256
370
-1
 48
1.0
  6
BYLAYER
100
AcDbCircle
 10
0.0
 20
0.0
 30
0.0
 40
60.0
100
AcDbArc
 50
314.0450261262150775
 51
315.9549738737849225
  0
ARC
  5
6C
100
AcDbEntity
  8
0
 62
256
370
-1
 48
1.0
  6
BYLAYER
100
AcDbCircle
 10
0.0
 20
0.0
 30
0.0
 40
60.0
100
AcDbArc
 50
44.0450261262150775
 51
45.9549738737849225
  0
CIRCLE
  5
6D
100
AcDbEntity
  8
Omejitve
 62
256
370
-1
 48
1.0
  6
BYLAYER
100
AcDbCircle
 10
0.0
 20
0.0
 30
0.0
 40
45.0
  0
CIRCLE
  5
6E
100
AcDbEntity
  8
Omejitve
 62
256
370
-1
 48
1.0
  6
BYLAYER
100
AcDbCircle
 10
0.0
 20
0.0
 30
0.0
 40
25.0
  0
LINE
  5
6F
100
AcDbEntity
  8
Pomozne
 62
256
370
-1
 48
1.0
  6
BYLAYER
100
AcDbLine
 10
-45.0
 20
0.0
 30
0.0
 11
-25.0
 21
-0.0000000000000024
 31
0.0
  0
LINE
  5
70
100
AcDbEntity
  8
Pomozne
 62
256
370
-1
 48
1.0
  6
BYLAYER
100
AcDbLine
 10
-31.8198051533946469
 20
-31.8198051533946362
 30
0.0
 11
-17.6776695296636923
 21
-17.6776695296636852
 31
0.0
  0
LINE
  5
71
100
AcDbEntity
  8
Omejitve
 62
256
370
-1
 48
1.0
  6
BYLAYER
100
AcDbLine
 10
-41.5745789630079088
 20
-17.2207544564290345
 30
0.0
 11
-23.0969883127821696
 21
-9.5670858091272422
 31
0.0
  0
LINE
  5
72
100
AcDbEntity
  8
Omejitve
 62
256
370
-1
 48
1.0
  6
BYLAYER
100
AcDbLine
 10
-17.2207544564290664
 20
-41.5745789630079017
 30
0.0
 11
-9.5670858091272581
 21
-23.0969883127821625
 31
0.0
  0
LINE
  5
73
100
AcDbEntity
  8
Pomozne
 62
256
370
-1
 48
1.0
  6
BYLAYER
100
AcDbLine
 10
-17.6776695296636852
 20
17.6776695296636888
 30
0.0
 11
-31.8198051533946362
 21
31.8198051533946398
 31
0.0
  0
LINE
  5
74
100
AcDbEntity
  8
Omejitve
 62
256
370
-1
 48
1.0
  6
BYLAYER
100
AcDbLine
 10
-9.5670858091272439
 20
23.0969883127821696
 30
0.0
 11
-17.220754456429038
 21
41.5745789630079017
 31
0.0
  0
LINE
  5
75
100
AcDbEntity
  8
Omejitve
 62
256
370
-1
 48
1.0
  6
BYLAYER
100
AcDbLine
 10
-23.096988312782166
 20
9.5670858091272457
 30
0.0
 11
-41.5745789630079017
 21
17.2207544564290451
 31
0.0
  0
LINE
  5
76
100
AcDbEntity
  8
Pomozne
 62
256
370
-1
 48
1.0
  6
BYLAYER
100
AcDbLine
 10
25.0
 20
0.0
 30
0.0
 11
45.0
 21
0.0
 31
0.0
  0
LINE
  5
77
100
AcDbEntity
  8
Pomozne
 62
256
370
-1
 48
1.0
  6
BYLAYER
100
AcDbLine
 10
17.6776695296636888
 20
17.6776695296636852
 30
0.0
 11
31.8198051533946398
 21
31.8198051533946362
 31
0.0
  0
LINE
  5
78
100
AcDbEntity
  8
Omejitve
 62
256
370
-1
 48
1.0
  6
BYLAYER
100
AcDbLine
 10
23.0969883127821696
 20
9.5670858091272439
 30
0.0
 11
41.5745789630079017
 21
17.2207544564290416
 31
0.0
  0
LINE
  5
79
100
AcDbEntity
  8
Omejitve
 62
256
370
-1
 48
1.0
  6
BYLAYER
100
AcDbLine
 10
9.5670858091272493
 20
23.0969883127821625
 30
0.0
 11
17.2207544564290416
 21
41.5745789630079017
 31
0.0
  0
LINE
  5
7A
100
AcDbEntity
  8
Pomozne
 62
256
370
-1
 48
1.0
  6
BYLAYER
100
AcDbLine
 10
0.0
 20
-25.0
 30
0.0
 11
-0.0000000000000037
 21
-45.0
 31
0.0
  0
LINE
  5
7B
100
AcDbEntity
  8
Pomozne
 62
256
370
-1
 48
1.0
  6
BYLAYER
100
AcDbLine
 10
17.6776695296636852
 20
-17.6776695296636923
 30
0.0
 11
31.8198051533946291
 21
-31.8198051533946469
 31
0.0
  0
LINE
  5
7C
100
AcDbEntity
  8
Omejitve
 62
256
370
-1
 48
1.0
  6
BYLAYER
100
AcDbLine
 10
9.5670858091272493
 20
-23.096988312782166
 30
0.0
 11
17.2207544564290487
 21
-41.5745789630079017
 31
0.0
  0
LINE
  5
7D
100
AcDbEntity
  8
Omejitve
 62
256
370
-1
 48
1.0
  6
BYLAYER
100
AcDbLine
 10
23.0969883127821625
 20
-9.5670858091272599
 30
0.0
 11
41.5745789630078946
 21
-17.2207544564290664
 31
0.0
  0
LINE
  5
7E
100
AcDbEntity
  8
0
 62
256
370
-1
 48
1.0
  6
BYLAYER
100
AcDbLine
 10
-1.0
 20
74.9933330370107001
 30
0.0
 11
-1.0
 21
59.991666087882578
 31
0.0
  0
LINE
  5
7F
100
AcDbEntity
  8
0
 62
256
370
-1
 48
1.0
  6
BYLAYER
100
AcDbLine
 10
-53.7354011154379663
 20
52.3211875530648456
 30
0.0
 11
-43.127620686607365
 21
41.7134071242342657
 31
0.0
  0
LINE
  5
80
100
AcDbEntity
  8
0
 62
256
370
-1
 48
1.0
  6
BYLAYER
100
AcDbLine
 10
-74.9933330370107001
 20
-1.0000000000000167
 30
0.0
 11
-59.991666087882578
 21
-0.9999999999999989
 31
0.0
  0
LINE
  5
81
100
AcDbEntity
  8
0
 62
256
370
-1
 48
1.0
  6
BYLAYER
100
AcDbLine
 10
1.000000000000012
 20
-74.9933330370107001
 30
0.0
 11
0.9999999999999951
 21
-59.991666087882578
 31
0.0
  0
LINE
  5
82
100
AcDbEntity
  8
0
 62
256
370
-1
 48
1.0
  6
BYLAYER
100
AcDbLine
 10
-52.3211875530648527
 20
-53.7354011154379663
 30
0.0
 11
-41.7134071242342657
 21
-43.1276206866073579
 31
0.0
  0
LINE
  5
83
100
AcDbEntity
  8
0
 62
256
370
-1
 48
1.0
  6
BYLAYER
100
AcDbLine
 10
74.9933330370107001
 20
1.0000000000000073
 30
0.0
 11
59.991666087882578
 21
0.9999999999999916
 31
0.0
  0
LINE
  5
84
100
AcDbEntity
  8
0
 62
256
370
-1
 48
1.0
  6
BYLAYER
100
AcDbLine
 10
53.7354011154379592
 20
-52.3211875530648527
 30
0.0
 11
43.1276206866073579
 21
-41.7134071242342657
 31
0.0
  0
LINE
  5
85
100
AcDbEntity
  8
0
 62
256
370
-1
 48
1.0
  6
BYLAYER
100
AcDbLine
 10
52.3211875530648598
 20
53.7354011154379592
 30
0.0
 11
41.7134071242342728
 21
43.1276206866073508
 31
0.0
  0
LINE
  5
86
100
AcDbEntity
  8
0
 62
256
370
-1
 48
1.0
  6
BYLAYER
100
AcDbLine
 10
1.0
 20
59.9916660878825709
 30
0.0
 11
1.0
 21
74.9933330370107001
 31
0.0
  0
LINE
  5
87
100
AcDbEntity
  8
0
 62
256
370
-1
 48
1.0
  6
BYLAYER
100
AcDbLine
 10
-41.7134071242342443
 20
43.1276206866073579
 30
0.0
 11
-52.3211875530648598
 21
53.7354011154379592
 31
0.0
  0
LINE
  5
88
100
AcDbEntity
  8
0
 62
256
370
-1
 48
1.0
  6
BYLAYER
100
AcDbLine
 10
-59.9916660878825638
 20
1.0000000000000133
 30
0.0
 11
-74.9933330370107001
 21
1.0000000000000016
 31
0.0
  0
LINE
  5
89
100
AcDbEntity
  8
0
 62
256
370
-1
 48
1.0
  6
BYLAYER
100
AcDbLine
 10
-1.0000000000000169
 20
-59.9916660878825638
 30
0.0
 11
-0.9999999999999729
 21
-74.9933330370107001
 31
0.0
  0
LINE
  5
8A
100
AcDbEntity
  8
0
 62
256
370
-1
 48
1.0
  6
BYLAYER
100
AcDbLine
 10
-43.1276206866073579
 20
-41.7134071242342443
 30
0.0
 11
-53.7354011154379592
 21
-52.3211875530648598
 31
0.0
  0
LINE
  5
8B
100
AcDbEntity
  8
0
 62
256
370
-1
 48
1.0
  6
BYLAYER
100
AcDbLine
 10
59.9916660878825638
 20
-1.0000000000000207
 30
0.0
 11
74.9933330370107001
 21
-0.9999999999999776
 31
0.0
  0
LINE
  5
8C
100
AcDbEntity
  8
0
 62
256
370
-1
 48
1.0
  6
BYLAYER
100
AcDbLine
 10
41.7134071242342443
 20
-43.1276206866073579
 30
0.0
 11
52.3211875530648243
 21
-53.7354011154379805
 31
0.0
  0
LINE
  5
8D
100
AcDbEntity
  8
0
 62
256
370
-1
 48
1.0
  6
BYLAYER
100
AcDbLine
 10
43.127620686607365
 20
41.7134071242342372
 30
0.0
 11
53.7354011154379947
 21
52.3211875530648243
 31
0.0
  0
CIRCLE
  5
8E
100
AcDbEntity
  8
0
 62
256
370
-1
 48
1.0
  6
BYLAYER
100
AcDbCircle
 10
0.0000000000000013
 20
43.5
 30
0.0
 40
1.5
  0
CIRCLE
  5
8F
100
AcDbEntity
  8
0
 62
256
370
-1
 48
1.0
  6
BYLAYER
100
AcDbCircle
 10
-29.9393398282201773
 20
29.9393398282201808
 30
0.0
 40
1.5
  0
CIRCLE
  5
90
100
AcDbEntity
  8
0
 62
256
370
-1
 48
1.0
  6
BYLAYER
100
AcDbCircle
 10
-41.5
 20
0.000000000000001
 30
0.0
 40
1.5
  0
CIRCLE
  5
91
100
AcDbEntity
  8
0
 62
256
370
-1
 48
1.0
  6
BYLAYER
100
AcDbCircle
 10
-28.9393398282201808
 20
-28.9393398282201773
 30
0.0
 40
1.5
  0
CIRCLE
  5
92
100
AcDbEntity
  8
0
 62
256
370
-1
 48
1.0
  6
BYLAYER
100
AcDbCircle
 10
-0.0000000000000009
 20
-39.5
 30
0.0
 40
1.5
  0
CIRCLE
  5
93
100
AcDbEntity
  8
0
 62
256
370
-1
 48
1.0
  6
BYLAYER
100
AcDbCircle
 10
26.9393398282201773
 20
-26.9393398282201808
 30
0.0
 40
1.5
  0
CIRCLE
  5
94
100
AcDbEntity
  8
0
 62
256
370
-1
 48
1.0
  6
BYLAYER
100
AcDbCircle
 10
28.9393398282201808
 20
28.9393398282201773
 30
0.0
 40
1.5
  0
CIRCLE
  5
95
100
AcDbEntity
  8
0
 62
256
370
-1
 48
1.0
  6
BYLAYER
100
AcDbCircle
 10
38.5
 20
0.0000000000000006
 30
0.0
 40
1.5
  0
LINE
  5
96
100
AcDbEntity
  8
0
 62
256
370
-1
 48
1.0
  6
BYLAYER
100
AcDbLine
 10
0.0000000000000006
 20
35.0
 30
0.0
 11
-2.0
 21
29.0
 31
0.0
  0
LINE
  5
97
100
AcDbEntity
  8
0
 62
256
370
-1
 48
1.0
  6
BYLAYER
100
AcDbLine
 10
-23.9289321881345245
 20
23.9289321881345245
 30
0.0
 11
-18.2720779386421448
 21
21.1005050633883329
 31
0.0
  0
LINE
  5
98
100
AcDbEntity
  8
0
 62
256
370
-1
 48
1.0
  6
BYLAYER
100
AcDbLine
 10
-33.0
 20
-0.0000000000000024
 30
0.0
 11
-27.0
 21
2.0
 31
0.0
  0
LINE
  5
99
100
AcDbEntity
  8
0
 62
256
370
-1
 48
1.0
  6
BYLAYER
100
AcDbLine
 10
-22.9289321881345245
 20
-22.9289321881345245
 30
0.0
 11
-20.1005050633883329
 21
-17.2720779386421448
 31
0.0
  0
LINE
  5
9A
100
AcDbEntity
  8
0
 62
256
370
-1
 48
1.0
  6
BYLAYER
100
AcDbLine
 10
0.0000000000000031
 20
-31.0
 30
0.0
 11
-1.9999999999999989
 21
-25.0
 31
0.0
  0
LINE
  5
9B
100
AcDbEntity
  8
0
 62
256
370
-1
 48
1.0
  6
BYLAYER
100
AcDbLine
 10
20.9289321881345316
 20
-20.9289321881345174
 30
0.0
 11
15.0
 21
-20.0
 31
0.0
  0
LINE
  5
9C
100
AcDbEntity
  8
0
 62
256
370
-1
 48
1.0
  6
BYLAYER
100
AcDbLine
 10
22.928932188134528
 20
22.9289321881345209
 30
0.0
 11
20.1005050633883222
 21
17.2720779386421555
 31
0.0
  0
LINE
  5
9D
100
AcDbEntity
  8
0
 62
256
370
-1
 48
1.0
  6
BYLAYER
100
AcDbLine
 10
0.0000000000000006
 20
35.0
 30
0.0
 11
2.0
 21
29.0
 31
0.0
  0
LINE
  5
9E
100
AcDbEntity
  8
0
 62
256
370
-1
 48
1.0
  6
BYLAYER
100
AcDbLine
 10
-23.9289321881345245
 20
23.9289321881345245
 30
0.0
 11
-21.10050506338834
 21
18.2720779386421412
 31
0.0
  0
LINE
  5
9F
100
AcDbEntity
  8
0
 62
256
370
-1
 48
1.0
  6
BYLAYER
100
AcDbLine
 10
-33.0
 20
-0.0000000000000024
 30
0.0
 11
-27.0
 21
-2.000000000000008
 31
0.0
  0
LINE
  5
A0
100
AcDbEntity
  8
0
 62
256
370
-1
 48
1.0
  6
BYLAYER
100
AcDbLine
 10
-22.9289321881345245
 20
-22.9289321881345245
 30
0.0
 11
-17.2720779386421412
 21
-20.10050506338834
 31
0.0
  0
LINE
  5
A1
100
AcDbEntity
  8
0
 62
256
370
-1
 48
1.0
  6
BYLAYER
100
AcDbLine
 10
0.0000000000000031
 20
-31.0
 30
0.0
 11
2.0000000000000089
 21
-25.0
 31
0.0
  0
LINE
  5
A2
100
AcDbEntity
  8
0
 62
256
370
-1
 48
1.0
  6
BYLAYER
100
AcDbLine
 10
20.9289321881345316
 20
-20.9289321881345174
 30
0.0
 11
20.0
 21
-15.0
 31
0.0
  0
LINE
  5
A3
100
AcDbEntity
  8
0
 62
256
370
-1
 48
1.0
  6
BYLAYER
100
AcDbLine
 10
22.928932188134528
 20
22.9289321881345209
 30
0.0
 11
17.2720779386421306
 21
20.1005050633883542
 31
0.0
  0
LINE
  5
A4
100
AcDbEntity
  8
0
 62
256
370
-1
 48
1.0
  6
BYLAYER
100
AcDbLine
 10
30.0
 20
0.0000000000000037
 30
0.0
 11
25.0
 21
3.0
 31
0.0
  0
LINE
  5
A5
100
AcDbEntity
  8
0
 62
256
370
-1
 48
1.0
  6
BYLAYER
100
AcDbLine
 10
0.000000000000001
 20
42.0
 30
0.0
 11
0.0000000000000006
 21
35.0
 31
0.0
  0
LINE
  5
A6
100
AcDbEntity
  8
0
 62
256
370
-1
 48
1.0
  6
BYLAYER
100
AcDbLine
 10
-28.8786796564403545
 20
28.8786796564403581
 30
0.0
 11
-23.9289321881345245
 21
23.9289321881345245
 31
0.0
  0
LINE
  5
A7
100
AcDbEntity
  8
0
 62
256
370
-1
 48
1.0
  6
BYLAYER
100
AcDbLine
 10
-40.0
 20
0.0000000000000019
 30
0.0
 11
-33.0
 21
-0.0000000000000024
 31
0.0
  0
LINE
  5
A8
100
AcDbEntity
  8
0
 62
256
370
-1
 48
1.0
  6
BYLAYER
100
AcDbLine
 10
-27.8786796564403581
 20
-27.8786796564403545
 30
0.0
 11
-22.9289321881345245
 21
-22.9289321881345245
 31
0.0
  0
LINE
  5
A9
100
AcDbEntity
  8
0
 62
256
370
-1
 48
1.0
  6
BYLAYER
100
AcDbLine
 10
-0.0000000000000017
 20
-38.0
 30
0.0
 11
0.0000000000000031
 21
-31.0
 31
0.0
  0
LINE
  5
AA
100
AcDbEntity
  8
0
 62
256
370
-1
 48
1.0
  6
BYLAYER
100
AcDbLine
 10
25.8786796564403545
 20
-25.8786796564403581
 30
0.0
 11
20.9289321881345316
 21
-20.9289321881345174
 31
0.0
  0
LINE
  5
AB
100
AcDbEntity
  8
0
 62
256
370
-1
 48
1.0
  6
BYLAYER
100
AcDbLine
 10
27.8786796564403581
 20
27.8786796564403545
 30
0.0
 11
22.928932188134528
 21
22.9289321881345209
 31
0.0
  0
LINE
  5
AC
100
AcDbEntity
  8
0
 62
256
370
-1
 48
1.0
  6
BYLAYER
100
AcDbLine
 10
37.0
 20
0.0000000000000011
 30
0.0
 11
30.0
 21
0.0000000000000037
 31
0.0
  0
LINE
  5
AD
100
AcDbEntity
  8
0
 62
256
370
-1
 48
1.0
  6
BYLAYER
100
AcDbLine
 10
0.0
 20
39.0
 30
0.0
 11
-4.0
 21
44.0
 31
0.0
  0
LINE
  5
AE
100
AcDbEntity
  8
0
 62
256
370
-1
 48
1.0
  6
BYLAYER
100
AcDbLine
 10
0.0
 20
39.0
 30
0.0
 11
4.0000000000000027
 21
44.0
 31
0.0
  0
LINE
  5
AF
100
AcDbEntity
  8
0
 62
256
370
-1
 48
1.0
  6
BYLAYER
100
AcDbLine
 10
-26.7573593128807161
 20
26.7573593128807161
 30
0.0
 11
-25.0
 21
33.0
 31
0.0
  0
LINE
  5
B0
100
AcDbEntity
  8
0
 62
256
370
-1
 48
1.0
  6
BYLAYER
100
AcDbLine
 10
-26.7573593128807161
 20
26.7573593128807161
 30
0.0
 11
-33.0
 21
25.0
 31
0.0
  0
LINE
  5
B1
100
AcDbEntity
  8
0
 62
256
370
-1
 48
1.0
  6
BYLAYER
100
AcDbLine
 10
-37.0
 20
-0.0000000000000015
 30
0.0
 11
-38.0
 21
6.0
 31
0.0
  0
LINE
  5
B2
100
AcDbEntity
  8
0
 62
256
370
-1
 48
1.0
  6
BYLAYER
100
AcDbLine
 10
-37.0
 20
-0.0000000000000015
 30
0.0
 11
-38.0
 21
-6.0
 31
0.0
  0
LINE
  5
B3
100
AcDbEntity
  8
0
 62
256
370
-1
 48
1.0
  6
BYLAYER
100
AcDbLine
 10
-25.7573593128807161
 20
-25.7573593128807161
 30
0.0
 11
-28.0
 21
-21.0
 31
0.0
  0
LINE
  5
B4
100
AcDbEntity
  8
0
 62
256
370
-1
 48
1.0
  6
BYLAYER
100
AcDbLine
 10
-25.7573593128807161
 20
-25.7573593128807161
 30
0.0
 11
-21.0
 21
-28.0
 31
0.0
  0
LINE
  5
B5
100
AcDbEntity
  8
0
 62
256
370
-1
 48
1.0
  6
BYLAYER
100
AcDbLine
 10
0.0000000000000018
 20
-35.0
 30
0.0
 11
-4.0
 21
-31.0
 31
0.0
  0
LINE
  5
B6
100
AcDbEntity
  8
0
 62
256
370
-1
 48
1.0
  6
BYLAYER
100
AcDbLine
 10
0.0000000000000018
 20
-35.0
 30
0.0
 11
4.0
 21
-31.0
 31
0.0
  0
LINE
  5
B7
100
AcDbEntity
  8
0
 62
256
370
-1
 48
1.0
  6
BYLAYER
100
AcDbLine
 10
23.7573593128807197
 20
-23.757359312880709
 30
0.0
 11
18.0
 21
-25.0
 31
0.0
  0
LINE
  5
B8
100
AcDbEntity
  8
0
 62
256
370
-1
 48
1.0
  6
BYLAYER
100
AcDbLine
 10
23.7573593128807197
 20
-23.757359312880709
 30
0.0
 11
25.0
 21
-18.0
 31
0.0
  0
LINE
  5
B9
100
AcDbEntity
  8
0
 62
256
370
-1
 48
1.0
  6
BYLAYER
100
AcDbLine
 10
25.7573593128807161
 20
25.7573593128807126
 30
0.0
 11
31.0
 21
24.0
 31
0.0
  0
LINE
  5
BA
100
AcDbEntity
  8
0
 62
256
370
-1
 48
1.0
  6
BYLAYER
100
AcDbLine
 10
25.7573593128807161
 20
25.7573593128807126
 30
0.0
 11
24.0
 21
31.0
 31
0.0
  0
LINE
  5
BB
100
AcDbEntity
  8
0
 62
256
370
-1
 48
1.0
  6
BYLAYER
100
AcDbLine
 10
34.0
 20
0.0000000000000022
 30
0.0
 11
34.0
 21
-6.0
 31
0.0
  0
LINE
  5
BC
100
AcDbEntity
  8
0
 62
256
370
-1
 48
1.0
  6
BYLAYER
100
AcDbLine
 10
34.0
 20
0.0000000000000022
 30
0.0
 11
34.0
 21
6.0
 31
0.0
  0
LINE
  5
BD
100
AcDbEntity
  8
0
 62
256
370
-1
 48
1.0
  6
BYLAYER
100
AcDbLine
 10
30.0
 20
0.0
 30
0.0
 11
25.0
 21
-3.0
 31
0.0
  0
LINE
  5
BE
100
AcDbEntity
  8
0
 62
256
370
-1
 48
1.0
  6
BYLAYER
100
AcDbLine
 10
-2.0
 20
28.0
 30
0.0
 11
2.0
 21
28.0
 31
0.0
  0
LINE
  5
BF
100
AcDbEntity
  8
0
 62
256
370
-1
 48
1.0
  6
BYLAYER
100
AcDbLine
 10
-25.2641660801640064
 20
14.359993831294684
 30
0.0
 11
-22.4357389554178184
 21
17.1884209560408756
 31
0.0
  0
LINE
  5
C0
100
AcDbEntity
  8
0
 62
256
370
-1
 48
1.0
  6
BYLAYER
100
AcDbLine
 10
-28.0185121722125885
 20
-11.4739782076758239
 30
0.0
 11
-28.018512172212592
 21
-7.4739782076758239
 31
0.0
  0
LINE
  5
C1
100
AcDbEntity
  8
0
 62
256
370
-1
 48
1.0
  6
BYLAYER
100
AcDbLine
 10
22.4176911747729584
 20
17.2064687366857427
 30
0.0
 11
25.2461182995191464
 21
14.3780416119395511
 31
0.0
  0
LINE
  5
C2
100
AcDbEntity
  8
0
 62
256
370
-1
 48
1.0
  6
BYLAYER
100
AcDbLine
 10
27.981487827787408
 20
-9.0
 30
0.0
 11
27.981487827787408
 21
-11.5903117536472404
 31
0.0
  0
LINE
  5
C3
100
AcDbEntity
  8
0
 62
256
370
-1
 48
1.0
  6
BYLAYER
100
AcDbLine
 10
11.6056477392461108
 20
-28.0185121722125956
 30
0.0
 11
10.9725256046500306
 21
-28.0185121722125956
 31
0.0
  0
LINE
  5
C4
100
AcDbEntity
  8
0
 62
256
370
-1
 48
1.0
  6
BYLAYER
100
AcDbLine
 10
-11.6056477392461126
 20
-28.0185121722125814
 30
0.0
 11
-13.2093367094155543
 21
-26.4148232020431379
 31
0.0
  0
LINE
  5
C5
100
AcDbEntity
  8
0
 62
256
370
-1
 48
1.0
  6
BYLAYER
100
AcDbLine
 10
2.0
 20
28.0
 30
0.0
 11
2.0
 21
26.0
 31
0.0
  0
LINE
  5
C6
100
AcDbEntity
  8
0
 62
256
370
-1
 48
1.0
  6
BYLAYER
100
AcDbLine
 10
-22.4357389554178184
 20
17.1884209560408756
 30
0.0
 11
-21.0215253930447226
 21
15.7742073936677798
 31
0.0
  0
LINE
  5
C7
100
AcDbEntity
  8
0
 62
256
370
-1
 48
1.0
  6
BYLAYER
100
AcDbLine
 10
-28.018512172212592
 20
-7.4739782076758239
 30
0.0
 11
-26.018512172212592
 21
-7.4739782076758239
 31
0.0
  0
LINE
  5
C8
100
AcDbEntity
  8
0
 62
256
370
-1
 48
1.0
  6
BYLAYER
100
AcDbLine
 10
-13.2093367094155543
 20
-26.4148232020431379
 30
0.0
 11
-11.7951231470424602
 21
-25.0006096396700457
 31
0.0
  0
LINE
  5
C9
100
AcDbEntity
  8
0
 62
256
370
-1
 48
1.0
  6
BYLAYER
100
AcDbLine
 10
25.2461182995191464
 20
14.3780416119395511
 30
0.0
 11
23.8319047371460506
 21
12.9638280495664553
 31
0.0
  0
LINE
  5
CA
100
AcDbEntity
  8
0
 62
256
370
-1
 48
1.0
  6
BYLAYER
100
AcDbLine
 10
10.9725256046500306
 20
-28.0185121722125956
 30
0.0
 11
10.9725256046500306
 21
-26.4900201282321319
 31
0.0
  0
LINE
  5
CB
100
AcDbEntity
  8
0
 62
256
370
-1
 48
1.0
  6
BYLAYER
100
AcDbLine
 10
2.0
 20
26.0
 30
0.0
 11
-2.0
 21
26.0
 31
0.0
  0
LINE
  5
CC
100
AcDbEntity
  8
0
 62
256
370
-1
 48
1.0
  6
BYLAYER
100
AcDbLine
 10
-21.0215253930447226
 20
15.7742073936677798
 30
0.0
 11
-23.8499525177909142
 21
12.94578026892159
 31
0.0
  0
LINE
  5
CD
100
AcDbEntity
  8
0
 62
256
370
-1
 48
1.0
  6
BYLAYER
100
AcDbLine
 10
23.8319047371460506
 20
12.9638280495664553
 30
0.0
 11
21.0034776123998626
 21
15.7922551743126469
 31
0.0
  0
LINE
  5
CE
100
AcDbEntity
  8
0
 62
256
370
-1
 48
1.0
  6
BYLAYER
100
AcDbLine
 10
25.981487827787408
 20
-10.7618846289010506
 30
0.0
 11
25.981487827787408
 21
-8.9999999999999982
 31
0.0
  0
LINE
  5
CF
100
AcDbEntity
  8
0
 62
256
370
-1
 48
1.0
  6
BYLAYER
100
AcDbLine
 10
-11.7951231470424602
 20
-25.0006096396700457
 30
0.0
 11
-10.7772206144999263
 21
-26.0185121722125778
 31
0.0
  0
LINE
  5
D0
100
AcDbEntity
  8
0
 62
256
370
-1
 48
1.0
  6
BYLAYER
100
AcDbLine
 10
-26.018512172212592
 20
-7.4739782076758239
 30
0.0
 11
-26.0185121722125992
 21
-10.7772206144999121
 31
0.0
  0
LINE
  5
D1
100
AcDbEntity
  8
0
 62
256
370
-1
 48
1.0
  6
BYLAYER
100
AcDbLine
 10
-2.0
 20
26.0
 30
0.0
 11
-2.0
 21
28.0
 31
0.0
  0
LINE
  5
D2
100
AcDbEntity
  8
0
 62
256
370
-1
 48
1.0
  6
BYLAYER
100
AcDbLine
 10
-23.8499525177909142
 20
12.94578026892159
 30
0.0
 11
-25.2641660801640064
 21
14.359993831294684
 31
0.0
  0
LINE
  5
D3
100
AcDbEntity
  8
0
 62
256
370
-1
 48
1.0
  6
BYLAYER
100
AcDbLine
 10
21.0034776123998626
 20
15.7922551743126469
 30
0.0
 11
22.4176911747729584
 21
17.2064687366857427
 31
0.0
  0
LINE
  5
D4
100
AcDbEntity
  8
0
 62
256
370
-1
 48
1.0
  6
BYLAYER
100
AcDbLine
 10
25.981487827787408
 20
-8.9999999999999982
 30
0.0
 11
27.981487827787408
 21
-9.0
 31
0.0
  0
LINE
  5
D5
100
AcDbEntity
  8
0
 62
256
370
-1
 48
1.0
  6
BYLAYER
100
AcDbLine
 10
2.0
 20
28.0
 30
0.0
 11
4.0
 21
27.0
 31
0.0
  0
LINE
  5
D6
100
AcDbEntity
  8
0
 62
256
370
-1
 48
1.0
  6
BYLAYER
100
AcDbLine
 10
-22.4357389554178184
 20
17.1884209560408756
 30
0.0
 11
-20.3144186118581764
 21
17.8955277372274217
 31
0.0
  0
LINE
  5
D7
100
AcDbEntity
  8
0
 62
256
370
-1
 48
1.0
  6
BYLAYER
100
AcDbLine
 10
-28.018512172212592
 20
-7.4739782076758239
 30
0.0
 11
-27.018512172212592
 21
-5.4739782076758239
 31
0.0
  0
LINE
  5
D8
100
AcDbEntity
  8
0
 62
256
370
-1
 48
1.0
  6
BYLAYER
100
AcDbLine
 10
-13.2093367094155543
 20
-26.4148232020431379
 30
0.0
 11
-13.9164434906021022
 21
-24.293502858483496
 31
0.0
  0
LINE
  5
D9
100
AcDbEntity
  8
0
 62
256
370
-1
 48
1.0
  6
BYLAYER
100
AcDbLine
 10
10.9725256046500306
 20
-28.0185121722125956
 30
0.0
 11
8.9725256046500306
 21
-27.0185121722125956
 31
0.0
  0
LINE
  5
DA
100
AcDbEntity
  8
0
 62
256
370
-1
 48
1.0
  6
BYLAYER
100
AcDbLine
 10
25.2461182995191464
 20
14.3780416119395511
 30
0.0
 11
25.9532250807056926
 21
12.2567212683799074
 31
0.0
  0
LINE
  5
DB
100
AcDbEntity
  8
0
 62
256
370
-1
 48
1.0
  6
BYLAYER
100
AcDbLine
 10
4.0
 20
27.0
 30
0.0
 11
2.0
 21
26.0
 31
0.0
  0
LINE
  5
DC
100
AcDbEntity
  8
0
 62
256
370
-1
 48
1.0
  6
BYLAYER
100
AcDbLine
 10
-20.3144186118581764
 20
17.8955277372274217
 30
0.0
 11
-21.0215253930447226
 21
15.7742073936677798
 31
0.0
  0
LINE
  5
DD
100
AcDbEntity
  8
0
 62
256
370
-1
 48
1.0
  6
BYLAYER
100
AcDbLine
 10
-27.018512172212592
 20
-5.4739782076758239
 30
0.0
 11
-26.018512172212592
 21
-7.4739782076758239
 31
0.0
  0
LINE
  5
DE
100
AcDbEntity
  8
0
 62
256
370
-1
 48
1.0
  6
BYLAYER
100
AcDbLine
 10
-13.9164434906021022
 20
-24.293502858483496
 30
0.0
 11
-11.7951231470424602
 21
-25.0006096396700457
 31
0.0
  0
LINE
  5
DF
100
AcDbEntity
  8
0
 62
256
370
-1
 48
1.0
  6
BYLAYER
100
AcDbLine
 10
25.9532250807056926
 20
12.2567212683799074
 30
0.0
 11
23.8319047371460506
 21
12.9638280495664553
 31
0.0
  0
LINE
  5
E0
100
AcDbEntity
  8
0
 62
256
370
-1
 48
1.0
  6
BYLAYER
100
AcDbLine
 10
8.9725256046500306
 20
-27.0185121722125956
 30
0.0
 11
10.8107296532113928
 21
-26.0994101479319163
 31
0.0
  0
LINE
  5
E1
100
AcDbEntity
  8
0
 62
256
370
-1
 48
1.0
  6
BYLAYER
100
AcDbLine
 10
-2.0
 20
28.0
 30
0.0
 11
-3.0
 21
29.0
 31
0.0
  0
LINE
  5
E2
100
AcDbEntity
  8
0
 62
256
370
-1
 48
1.0
  6
BYLAYER
100
AcDbLine
 10
-25.2641660801640064
 20
14.359993831294684
 30
0.0
 11
-26.6783796425371058
 21
14.3599938312946858
 31
0.0
  0
LINE
  5
E3
100
AcDbEntity
  8
0
 62
256
370
-1
 48
1.0
  6
BYLAYER
100
AcDbLine
 10
22.4176911747729584
 20
17.2064687366857427
 30
0.0
 11
22.4176911747729584
 21
18.620682299058835
 31
0.0
  0
LINE
  5
E4
100
AcDbEntity
  8
0
 62
256
370
-1
 48
1.0
  6
BYLAYER
100
AcDbLine
 10
27.981487827787408
 20
-9.0
 30
0.0
 11
28.981487827787408
 21
-8.0
 31
0.0
  0
LINE
  5
E5
100
AcDbEntity
  8
0
 62
256
370
-1
 48
1.0
  6
BYLAYER
100
AcDbLine
 10
-28.0185121722125885
 20
-11.4739782076758239
 30
0.0
 11
-28.2432861224318579
 21
-11.6987521578950915
 31
0.0
  0
LINE
  5
E6
100
AcDbEntity
  8
0
 62
256
370
-1
 48
1.0
  6
BYLAYER
100
AcDbLine
 10
-3.0
 20
29.0
 30
0.0
 11
-3.0
 21
25.0
 31
0.0
  0
LINE
  5
E7
100
AcDbEntity
  8
0
 62
256
370
-1
 48
1.0
  6
BYLAYER
100
AcDbLine
 10
-26.6783796425371058
 20
14.3599938312946858
 30
0.0
 11
-23.8499525177909142
 21
11.5315667065484959
 31
0.0
  0
LINE
  5
E8
100
AcDbEntity
  8
0
 62
256
370
-1
 48
1.0
  6
BYLAYER
100
AcDbLine
 10
22.4176911747729584
 20
18.620682299058835
 30
0.0
 11
19.5892640500267667
 21
15.7922551743126469
 31
0.0
  0
LINE
  5
E9
100
AcDbEntity
  8
0
 62
256
370
-1
 48
1.0
  6
BYLAYER
100
AcDbLine
 10
28.981487827787408
 20
-8.0
 30
0.0
 11
24.981487827787408
 21
-7.9999999999999991
 31
0.0
  0
LINE
  5
EA
100
AcDbEntity
  8
0
 62
256
370
-1
 48
1.0
  6
BYLAYER
100
AcDbLine
 10
-3.0
 20
25.0
 30
0.0
 11
-2.0
 21
26.0
 31
0.0
  0
LINE
  5
EB
100
AcDbEntity
  8
0
 62
256
370
-1
 48
1.0
  6
BYLAYER
100
AcDbLine
 10
-23.8499525177909142
 20
11.5315667065484959
 30
0.0
 11
-23.8499525177909142
 21
12.94578026892159
 31
0.0
  0
LINE
  5
EC
100
AcDbEntity
  8
0
 62
256
370
-1
 48
1.0
  6
BYLAYER
100
AcDbLine
 10
19.5892640500267667
 20
15.7922551743126469
 30
0.0
 11
21.0034776123998626
 21
15.7922551743126469
 31
0.0
  0
LINE
  5
ED
100
AcDbEntity
  8
0
 62
256
370
-1
 48
1.0
  6
BYLAYER
100
AcDbLine
 10
24.981487827787408
 20
-7.9999999999999991
 30
0.0
 11
25.981487827787408
 21
-8.9999999999999982
 31
0.0
  0
CIRCLE
  5
EE
100
AcDbEntity
  8
0
 62
256
370
-1
 48
1.0
  6
BYLAYER
100
AcDbCircle
 10
-0.7999999999999998
 20
43.9999999999999929
 30
0.0
 40
0.2499999999999999
  0
CIRCLE
  5
EF
100
AcDbEntity
  8
0
 62
256
370
-1
 48
1.0
  6
BYLAYER
100
AcDbCircle
 10
-30.858578643762705
 20
29.7272077938642276
 30
0.0
 40
0.2499999999999999
  0
CIRCLE
  5
F0
100
AcDbEntity
  8
0
 62
256
370
-1
 48
1.0
  6
BYLAYER
100
AcDbCircle
 10
-41.9999999999999929
 20
-0.799999999999999
 30
0.0
 40
0.2499999999999999
  0
CIRCLE
  5
F1
100
AcDbEntity
  8
0
 62
256
370
-1
 48
1.0
  6
BYLAYER
100
AcDbCircle
 10
-28.727207793864217
 20
-29.8585786437626837
 30
0.0
 40
0.2499999999999999
  0
CIRCLE
  5
F2
100
AcDbEntity
  8
0
 62
256
370
-1
 48
1.0
  6
BYLAYER
100
AcDbCircle
 10
0.7999999999999984
 20
-39.9999999999999929
 30
0.0
 40
0.2499999999999999
  0
CIRCLE
  5
F3
100
AcDbEntity
  8
0
 62
256
370
-1
 48
1.0
  6
BYLAYER
100
AcDbCircle
 10
27.858578643762673
 20
-26.7272077938642063
 30
0.0
 40
0.2499999999999999
  0
CIRCLE
  5
F4
100
AcDbEntity
  8
0
 62
256
370
-1
 48
1.0
  6
BYLAYER
100
AcDbCircle
 10
38.9999999999999929
 20
0.8000000000000007
 30
0.0
 40
0.2499999999999999
  0
CIRCLE
  5
F5
100
AcDbEntity
  8
0
 62
256
370
-1
 48
1.0
  6
BYLAYER
100
AcDbCircle
 10
28.7272077938642134
 20
29.8585786437626837
 30
0.0
 40
0.2499999999999999
  0
CIRCLE
  5
F6
100
AcDbEntity
  8
0
 62
256
370
-1
 48
1.0
  6
BYLAYER
100
AcDbCircle
 10
0.7999999999999998
 20
43.9999999999999929
 30
0.0
 40
0.2499999999999999
  0
CIRCLE
  5
F7
100
AcDbEntity
  8
0
 62
256
370
-1
 48
1.0
  6
BYLAYER
100
AcDbCircle
 10
-29.7272077938642276
 20
30.8585786437627014
 30
0.0
 40
0.2499999999999999
  0
CIRCLE
  5
F8
100
AcDbEntity
  8
0
 62
256
370
-1
 48
1.0
  6
BYLAYER
100
AcDbCircle
 10
-41.9999999999999929
 20
0.8000000000000013
 30
0.0
 40
0.2499999999999999
  0
CIRCLE
  5
F9
100
AcDbEntity
  8
0
 62
256
370
-1
 48
1.0
  6
BYLAYER
100
AcDbCircle
 10
-29.8585786437626908
 20
-28.7272077938642063
 30
0.0
 40
0.2499999999999999
  0
CIRCLE
  5
FA
100
AcDbEntity
  8
0
 62
256
370
-1
 48
1.0
  6
BYLAYER
100
AcDbCircle
 10
-0.8000000000000019
 20
-39.9999999999999929
 30
0.0
 40
0.2499999999999999
  0
CIRCLE
  5
FB
100
AcDbEntity
  8
0
 62
256
370
-1
 48
1.0
  6
BYLAYER
100
AcDbCircle
 10
26.7272077938641957
 20
-27.8585786437626837
 30
0.0
 40
0.2499999999999999
  0
CIRCLE
  5
FC
100
AcDbEntity
  8
0
 62
256
370
-1
 48
1.0
  6
BYLAYER
100
AcDbCircle
 10
38.9999999999999929
 20
-0.7999999999999996
 30
0.0
 40
0.2499999999999999
  0
CIRCLE
  5
FD
100
AcDbEntity
  8
0
 62
256
370
-1
 48
1.0
  6
BYLAYER
100
AcDbCircle
 10
29.8585786437626908
 20
28.7272077938642063
 30
0.0
 40
0.2499999999999999
  0
LINE
  5
FE
100
AcDbEntity
  8
0
 62
256
370
-1
 48
1.0
  6
BYLAYER
100
AcDbLine
 10
0.0
 20
42.9999999999999929
 30
0.0
 11
-0.7999999999999999
 21
42.7999999999999972
 31
0.0
  0
LINE
  5
FF
100
AcDbEntity
  8
0
 62
256
370
-1
 48
1.0
  6
BYLAYER
100
AcDbLine
 10
-29.5857864376269184
 20
29.5857864376269184
 30
0.0
 11
-29.7979184719828858
 21
28.8079689783217177
 31
0.0
  0
LINE
  5
100
100
AcDbEntity
  8
0
 62
256
370
-1
 48
1.0
  6
BYLAYER
100
AcDbLine
 10
-40.9999999999999929
 20
0.0000000000000012
 30
0.0
 11
-40.5999999999999943
 21
-0.6999999999999988
 31
0.0
  0
LINE
  5
101
100
AcDbEntity
  8
0
 62
256
370
-1
 48
1.0
  6
BYLAYER
100
AcDbLine
 10
-28.5857864376269077
 20
-28.5857864376268971
 30
0.0
 11
-27.8999999999999986
 21
-28.8999999999999986
 31
0.0
  0
LINE
  5
102
100
AcDbEntity
  8
0
 62
256
370
-1
 48
1.0
  6
BYLAYER
100
AcDbLine
 10
-0.0000000000000017
 20
-38.9999999999999929
 30
0.0
 11
0.7
 21
-38.8999999999999986
 31
0.0
  0
LINE
  5
103
100
AcDbEntity
  8
0
 62
256
370
-1
 48
1.0
  6
BYLAYER
100
AcDbLine
 10
26.5857864376268864
 20
-26.5857864376268971
 30
0.0
 11
27.2999999999999972
 21
-26.1999999999999993
 31
0.0
  0
LINE
  5
104
100
AcDbEntity
  8
0
 62
256
370
-1
 48
1.0
  6
BYLAYER
100
AcDbLine
 10
37.9999999999999929
 20
0.0000000000000006
 30
0.0
 11
38.2999999999999972
 21
0.7
 31
0.0
  0
LINE
  5
105
100
AcDbEntity
  8
0
 62
256
370
-1
 48
1.0
  6
BYLAYER
100
AcDbLine
 10
28.5857864376269042
 20
28.5857864376268971
 30
0.0
 11
28.0999999999999979
 21
29.0999999999999979
 31
0.0
  0
LINE
  5
106
100
AcDbEntity
  8
0
 62
256
370
-1
 48
1.0
  6
BYLAYER
100
AcDbLine
 10
0.0000000000000011
 20
42.9999999999999929
 30
0.0
 11
0.7999999999999999
 21
42.7999999999999972
 31
0.0
  0
LINE
  5
107
100
AcDbEntity
  8
0
 62
256
370
-1
 48
1.0
  6
BYLAYER
100
AcDbLine
 10
-29.5857864376269184
 20
29.5857864376269184
 30
0.0
 11
-28.8079689783217177
 21
29.7979184719828822
 31
0.0
  0
LINE
  5
108
100
AcDbEntity
  8
0
 62
256
370
-1
 48
1.0
  6
BYLAYER
100
AcDbLine
 10
-40.9999999999999929
 20
0.0000000000000021
 30
0.0
 11
-40.5999999999999943
 21
0.7000000000000007
 31
0.0
  0
LINE
  5
109
100
AcDbEntity
  8
0
 62
256
370
-1
 48
1.0
  6
BYLAYER
100
AcDbLine
 10
-28.5857864376269077
 20
-28.5857864376268971
 30
0.0
 11
-28.8999999999999986
 21
-27.8999999999999986
 31
0.0
  0
LINE
  5
10A
100
AcDbEntity
  8
0
 62
256
370
-1
 48
1.0
  6
BYLAYER
100
AcDbLine
 10
-0.0000000000000026
 20
-38.9999999999999929
 30
0.0
 11
-0.6
 21
-38.8999999999999986
 31
0.0
  0
LINE
  5
10B
100
AcDbEntity
  8
0
 62
256
370
-1
 48
1.0
  6
BYLAYER
100
AcDbLine
 10
26.5857864376268864
 20
-26.5857864376268971
 30
0.0
 11
26.1999999999999993
 21
-27.2999999999999972
 31
0.0
  0
LINE
  5
10C
100
AcDbEntity
  8
0
 62
256
370
-1
 48
1.0
  6
BYLAYER
100
AcDbLine
 10
37.9999999999999929
 20
-0.0000000000000002
 30
0.0
 11
38.2999999999999972
 21
-0.7
 31
0.0
  0
LINE
  5
10D
100
AcDbEntity
  8
0
 62
256
370
-1
 48
1.0
  6
BYLAYER
100
AcDbLine
 10
28.5857864376269042
 20
28.5857864376268971
 30
0.0
 11
29.0999999999999979
 21
27.9999999999999964
 31
0.0
  0
LINE
  5
10E
100
AcDbEntity
  8
0
 62
256
370
-1
 48
1.0
  6
BYLAYER
100
AcDbLine
 10
0.0
 20
43.7999999999999972
 30
0.0
 11
0.0
 21
43.2999999999999972
 31
0.0
  0
LINE
  5
10F
100
AcDbEntity
  8
0
 62
256
370
-1
 48
1.0
  6
BYLAYER
100
AcDbLine
 10
-30.1514718625761589
 20
30.1514718625761589
 30
0.0
 11
-29.7979184719828858
 21
29.7979184719828858
 31
0.0
  0
LINE
  5
110
100
AcDbEntity
  8
0
 62
256
370
-1
 48
1.0
  6
BYLAYER
100
AcDbLine
 10
-41.7999999999999972
 20
0.0000000000000006
 30
0.0
 11
-41.2999999999999972
 21
0.0000000000000009
 31
0.0
  0
LINE
  5
111
100
AcDbEntity
  8
0
 62
256
370
-1
 48
1.0
  6
BYLAYER
100
AcDbLine
 10
-29.1514718625761482
 20
-29.1514718625761375
 30
0.0
 11
-28.7979184719828751
 21
-28.7979184719828645
 31
0.0
  0
LINE
  5
112
100
AcDbEntity
  8
0
 62
256
370
-1
 48
1.0
  6
BYLAYER
100
AcDbLine
 10
-0.0000000000000011
 20
-39.7999999999999972
 30
0.0
 11
-0.0000000000000015
 21
-39.2999999999999972
 31
0.0
  0
LINE
  5
113
100
AcDbEntity
  8
0
 62
256
370
-1
 48
1.0
  6
BYLAYER
100
AcDbLine
 10
27.1514718625761269
 20
-27.1514718625761375
 30
0.0
 11
26.7979184719828538
 21
-26.7979184719828645
 31
0.0
  0
LINE
  5
114
100
AcDbEntity
  8
0
 62
256
370
-1
 48
1.0
  6
BYLAYER
100
AcDbLine
 10
38.7999999999999972
 20
0.0000000000000012
 30
0.0
 11
38.2999999999999972
 21
0.0000000000000008
 31
0.0
  0
LINE
  5
115
100
AcDbEntity
  8
0
 62
256
370
-1
 48
1.0
  6
BYLAYER
100
AcDbLine
 10
29.1514718625761446
 20
29.1514718625761375
 30
0.0
 11
28.7979184719828716
 21
28.7979184719828645
 31
0.0
  0
CIRCLE
  5
116
100
AcDbEntity
  8
0
 62
256
370
-1
 48
1.0
  6
BYLAYER
100
AcDbCircle
 10
-0.7999999999999998
 20
43.8499999999999943
 30
0.0
 40
0.1
  0
CIRCLE
  5
117
100
AcDbEntity
  8
0
 62
256
370
-1
 48
1.0
  6
BYLAYER
100
AcDbCircle
 10
-30.7999999999999972
 20
29.5999999999999979
 30
0.0
 40
0.1
  0
CIRCLE
  5
118
100
AcDbEntity
  8
0
 62
256
370
-1
 48
1.0
  6
BYLAYER
100
AcDbCircle
 10
-41.8999999999999986
 20
-0.8999999999999999
 30
0.0
 40
0.1
  0
CIRCLE
  5
119
100
AcDbEntity
  8
0
 62
256
370
-1
 48
1.0
  6
BYLAYER
100
AcDbCircle
 10
-28.5999999999999979
 20
-29.8999999999999986
 30
0.0
 40
0.1
  0
CIRCLE
  5
11A
100
AcDbEntity
  8
0
 62
256
370
-1
 48
1.0
  6
BYLAYER
100
AcDbCircle
 10
0.8999999999999999
 20
-39.8999999999999986
 30
0.0
 40
0.1
  0
CIRCLE
  5
11B
100
AcDbEntity
  8
0
 62
256
370
-1
 48
1.0
  6
BYLAYER
100
AcDbCircle
 10
27.858578643762673
 20
-26.7272077938642063
 30
0.0
 40
0.1
  0
CIRCLE
  5
11C
100
AcDbEntity
  8
0
 62
256
370
-1
 48
1.0
  6
BYLAYER
100
AcDbCircle
 10
-0.7000000000000004
 20
-39.8999999999999986
 30
0.0
 40
0.1
  0
CIRCLE
  5
11D
100
AcDbEntity
  8
0
 62
256
370
-1
 48
1.0
  6
BYLAYER
100
AcDbCircle
 10
-29.7313708498984717
 20
-28.7686291501015212
 30
0.0
 40
0.1
  0
CIRCLE
  5
11E
100
AcDbEntity
  8
0
 62
256
370
-1
 48
1.0
  6
BYLAYER
100
AcDbCircle
 10
-41.8999999999999986
 20
0.7000000000000004
 30
0.0
 40
0.1
  0
CIRCLE
  5
11F
100
AcDbEntity
  8
0
 62
256
370
-1
 48
1.0
  6
BYLAYER
100
AcDbCircle
 10
-29.6686291501015198
 20
30.7313708498984717
 30
0.0
 40
0.1
  0
CIRCLE
  5
120
100
AcDbEntity
  8
0
 62
256
370
-1
 48
1.0
  6
BYLAYER
100
AcDbCircle
 10
0.7999999999999998
 20
43.8499999999999943
 30
0.0
 40
0.1
  0
CIRCLE
  5
121
100
AcDbEntity
  8
0
 62
256
370
-1
 48
1.0
  6
BYLAYER
100
AcDbCircle
 10
26.7272077938641957
 20
-27.8585786437626837
 30
0.0
 40
0.1
  0
CIRCLE
  5
122
100
AcDbEntity
  8
0
 62
256
370
-1
 48
1.0
  6
BYLAYER
100
AcDbCircle
 10
38.9566002471366275
 20
-0.9308706661608597
 30
0.0
 40
0.1
  0
CIRCLE
  5
123
100
AcDbEntity
  8
0
 62
256
370
-1
 48
1.0
  6
BYLAYER
100
AcDbCircle
 10
29.7999999999999972
 20
28.5999999999999979
 30
0.0
 40
0.1
  0
CIRCLE
  5
124
100
AcDbEntity
  8
0
 62
256
370
-1
 48
1.0
  6
BYLAYER
100
AcDbCircle
 10
28.6686291501015198
 20
29.7313708498984752
 30
0.0
 40
0.1
  0
CIRCLE
  5
125
100
AcDbEntity
  8
0
 62
256
370
-1
 48
1.0
  6
BYLAYER
100
AcDbCircle
 10
38.9566002471366275
 20
0.6691293338391406
 30
0.0
 40
0.1
  0
ENDSEC
  0
SECTION
  2
OBJECTS
  0
DICTIONARY
  5
C
100
AcDbDictionary
280
0
281
1
  3
ACAD_GROUP
350
D
  3
ACAD_LAYOUT
350
1A
  3
ACAD_MLINESTYLE
350
17
  3
ACAD_PLOTSETTINGS
350
19
  3
ACAD_PLOTSTYLENAME
350
E
  3
AcDbVariableDictionary
350
126
  3
QCAD_OBJECTS
350
127
  0
DICTIONARY
  5
D
100
AcDbDictionary
280
0
281
1
  0
ACDBDICTIONARYWDFLT
  5
E
100
AcDbDictionary
281
1
  3
Normal
350
F
100
AcDbDictionaryWithDefault
340
F
  0
ACDBPLACEHOLDER
  5
F
  0
DICTIONARY
  5
17
100
AcDbDictionary
280
0
281
1
  3
Standard
350
18
  0
MLINESTYLE
  5
18
100
AcDbMlineStyle
  2
STANDARD
 70
0
  3

 62
256
 51
90.0
 52
90.0
 71
2
 49
0.5
 62
256
  6
BYLAYER
 49
-0.5
 62
256
  6
BYLAYER
  0
DICTIONARY
  5
19
100
AcDbDictionary
280
0
281
1
  0
DICTIONARY
  5
1A
100
AcDbDictionary
281
1
  3
Layout1
350
1E
  3
Layout2
350
26
  3
Model
350
22
  0
LAYOUT
  5
1E
100
AcDbPlotSettings
  1

  2
none_device
  4

  6

 40
0.0
 41
0.0
 42
0.0
 43
0.0
 44
0.0
 45
0.0
 46
0.0
 47
0.0
 48
0.0
 49
0.0
140
0.0
141
0.0
142
1.0
143
1.0
 70
688
 72
0
 73
0
 74
5
  7

 75
16
147
1.0
148
0.0
149
0.0
100
AcDbLayout
  1
Layout1
 70
1
 71
1
 10
0.0
 20
0.0
 11
420.0
 21
297.0
 12
0.0
 22
0.0
 32
0.0
 14
100000000000000000000.0
 24
100000000000000000000.0
 34
100000000000000000000.0
 15
-100000000000000000000.0
 25
-100000000000000000000.0
 35
-100000000000000000000.0
146
0.0
 13
0.0
 23
0.0
 33
0.0
 16
1.0
 26
0.0
 36
0.0
 17
0.0
 27
1.0
 37
0.0
 76
0
330
1B
  0
LAYOUT
  5
22
100
AcDbPlotSettings
  1

  2
none_device
  4

  6

 40
0.0
 41
0.0
 42
0.0
 43
0.0
 44
0.0
 45
0.0
 46
0.0
 47
0.0
 48
0.0
 49
0.0
140
0.0
141
0.0
142
1.0
143
1.0
 70
1712
 72
0
 73
0
 74
0
  7

 75
0
147
1.0
148
0.0
149
0.0
100
AcDbLayout
  1
Model
 70
1
 71
0
 10
0.0
 20
0.0
 11
12.0
 21
9.0
 12
0.0
 22
0.0
 32
0.0
 14
0.0
 24
0.0
 34
0.0
 15
0.0
 25
0.0
 35
0.0
146
0.0
 13
0.0
 23
0.0
 33
0.0
 16
1.0
 26
0.0
 36
0.0
 17
0.0
 27
1.0
 37
0.0
 76
0
330
1F
  0
LAYOUT
  5
26
100
AcDbPlotSettings
  1

  2
none_device
  4

  6

 40
0.0
 41
0.0
 42
0.0
 43
0.0
 44
0.0
 45
0.0
 46
0.0
 47
0.0
 48
0.0
 49
0.0
140
0.0
141
0.0
142
1.0
143
1.0
 70
688
 72
0
 73
0
 74
5
  7

 75
16
147
1.0
148
0.0
149
0.0
100
AcDbLayout
  1
Layout2
 70
1
 71
2
 10
0.0
 20
0.0
 11
12.0
 21
9.0
 12
0.0
 22
0.0
 32
0.0
 14
0.0
 24
0.0
 34
0.0
 15
0.0
 25
0.0
 35
0.0
146
0.0
 13
0.0
 23
0.0
 33
0.0
 16
1.0
 26
0.0
 36
0.0
 17
0.0
 27
1.0
 37
0.0
 76
0
330
23
  0
DICTIONARY
  5
126
100
AcDbDictionary
281
1
  3
DIMASSOC
350
129
  3
HIDETEXT
350
128
  0
DICTIONARYVAR
  5
128
100
DictionaryVariables
280
0
  1
2
  0
DICTIONARYVAR
  5
129
100
DictionaryVariables
280
0
  1
1
  0
DICTIONARY
  5
127
100
AcDbDictionary
281
1
  3
ColorSettings/BackgroundColor
350
12A
  3
ColorSettings/ColorMode
350
12B
  3
Grid/DisplayGrid00
350
12C
  3
Grid/DisplayGrid01
350
12D
  3
Grid/DisplayGrid02
350
12E
  3
Grid/DisplayGrid03
350
12F
  3
Grid/GridSpacingX00
350
130
  3
Grid/GridSpacingX01
350
131
  3
Grid/GridSpacingX02
350
132
  3
Grid/GridSpacingX03
350
133
  3
Grid/GridSpacingY00
350
134
  3
Grid/GridSpacingY01
350
135
  3
Grid/GridSpacingY02
350
136
  3
Grid/GridSpacingY03
350
137
  3
Grid/IsometricGrid00
350
138
  3
Grid/IsometricGrid01
350
139
  3
Grid/IsometricGrid02
350
13A
  3
Grid/IsometricGrid03
350
13B
  3
Grid/IsometricProjection00
350
13C
  3
Grid/IsometricProjection01
350
13D
  3
Grid/IsometricProjection02
350
13E
  3
Grid/IsometricProjection03
350
13F
  3
Grid/MetaGridSpacingX00
350
140
  3
Grid/MetaGridSpacingX01
350
141
  3
Grid/MetaGridSpacingX02
350
142
  3
Grid/MetaGridSpacingX03
350
143
  3
Grid/MetaGridSpacingY00
350
144
  3
Grid/MetaGridSpacingY01
350
145
  3
Grid/MetaGridSpacingY02
350
146
  3
Grid/MetaGridSpacingY03
350
147
  3
MultiPageSettings/Columns
350
148
  3
MultiPageSettings/GlueMarginsBottom
350
149
  3
MultiPageSettings/GlueMarginsLeft
350
14A
  3
MultiPageSettings/GlueMarginsRight
350
14B
  3
MultiPageSettings/GlueMarginsTop
350
14C
  3
MultiPageSettings/PrintCropMarks
350
14D
  3
MultiPageSettings/Rows
350
14E
  3
PageSettings/OffsetX
350
14F
  3
PageSettings/OffsetY
350
150
  3
PageSettings/PageOrientation
350
151
  3
PageSettings/PaperHeight
350
152
  3
PageSettings/PaperWidth
350
153
  3
PageSettings/Scale
350
154
  3
PageSettings/ShowPaperBorders
350
155
  3
QCADVersion
350
156
  3
UnitSettings/PaperUnit
350
157
  3
ViewportCenter
350
158
  3
ViewportHeight
350
159
  3
ViewportWidth
350
15A
  0
XRECORD
  5
12A
330
127
100
AcDbXrecord
280
1
1000
Bela
  0
XRECORD
  5
12B
330
127
100
AcDbXrecord
280
1
1000
FullColor
  0
XRECORD
  5
12C
330
127
100
AcDbXrecord
280
1
290
1
  0
XRECORD
  5
12D
330
127
100
AcDbXrecord
280
1
290
1
  0
XRECORD
  5
12E
330
127
100
AcDbXrecord
280
1
290
1
  0
XRECORD
  5
12F
330
127
100
AcDbXrecord
280
1
290
1
  0
XRECORD
  5
130
330
127
100
AcDbXrecord
280
1
1000
auto
  0
XRECORD
  5
131
330
127
100
AcDbXrecord
280
1
1000
auto
  0
XRECORD
  5
132
330
127
100
AcDbXrecord
280
1
1000
auto
  0
XRECORD
  5
133
330
127
100
AcDbXrecord
280
1
1000
auto
  0
XRECORD
  5
134
330
127
100
AcDbXrecord
280
1
1000
auto
  0
XRECORD
  5
135
330
127
100
AcDbXrecord
280
1
1000
auto
  0
XRECORD
  5
136
330
127
100
AcDbXrecord
280
1
1000
auto
  0
XRECORD
  5
137
330
127
100
AcDbXrecord
280
1
1000
auto
  0
XRECORD
  5
138
330
127
100
AcDbXrecord
280
1
290
0
  0
XRECORD
  5
139
330
127
100
AcDbXrecord
280
1
290
0
  0
XRECORD
  5
13A
330
127
100
AcDbXrecord
280
1
290
0
  0
XRECORD
  5
13B
330
127
100
AcDbXrecord
280
1
290
0
  0
XRECORD
  5
13C
330
127
100
AcDbXrecord
280
1
 90
65537
  0
XRECORD
  5
13D
330
127
100
AcDbXrecord
280
1
 90
65537
  0
XRECORD
  5
13E
330
127
100
AcDbXrecord
280
1
 90
65537
  0
XRECORD
  5
13F
330
127
100
AcDbXrecord
280
1
 90
65537
  0
XRECORD
  5
140
330
127
100
AcDbXrecord
280
1
1000
auto
  0
XRECORD
  5
141
330
127
100
AcDbXrecord
280
1
1000
auto
  0
XRECORD
  5
142
330
127
100
AcDbXrecord
280
1
1000
auto
  0
XRECORD
  5
143
330
127
100
AcDbXrecord
280
1
1000
auto
  0
XRECORD
  5
144
330
127
100
AcDbXrecord
280
1
1000
auto
  0
XRECORD
  5
145
330
127
100
AcDbXrecord
280
1
1000
auto
  0
XRECORD
  5
146
330
127
100
AcDbXrecord
280
1
1000
auto
  0
XRECORD
  5
147
330
127
100
AcDbXrecord
280
1
1000
auto
  0
XRECORD
  5
148
330
127
100
AcDbXrecord
280
1
 90
1
  0
XRECORD
  5
149
330
127
100
AcDbXrecord
280
1
 40
10.0
  0
XRECORD
  5
14A
330
127
100
AcDbXrecord
280
1
 40
10.0
  0
XRECORD
  5
14B
330
127
100
AcDbXrecord
280
1
 40
10.0
  0
XRECORD
  5
14C
330
127
100
AcDbXrecord
280
1
 40
10.0
  0
XRECORD
  5
14D
330
127
100
AcDbXrecord
280
1
290
0
  0
XRECORD
  5
14E
330
127
100
AcDbXrecord
280
1
 90
1
  0
XRECORD
  5
14F
330
127
100
AcDbXrecord
280
1
 40
0.0
  0
XRECORD
  5
150
330
127
100
AcDbXrecord
280
1
 40
0.0
  0
XRECORD
  5
151
330
127
100
AcDbXrecord
280
1
1000
Portrait
  0
XRECORD
  5
152
330
127
100
AcDbXrecord
280
1
 40
297.0
  0
XRECORD
  5
153
330
127
100
AcDbXrecord
280
1
 40
210.0
  0
XRECORD
  5
154
330
127
100
AcDbXrecord
280
1
1000
1:1
  0
XRECORD
  5
155
330
127
100
AcDbXrecord
280
1
290
1
  0
XRECORD
  5
156
330
127
100
AcDbXrecord
280
1
1000
3.21.3.14
  0
XRECORD
  5
157
330
127
100
AcDbXrecord
280
1
 90
4
  0
XRECORD
  5
159
330
127
100
AcDbXrecord
280
1
 40
116.2079999999999842
  0
XRECORD
  5
15A
330
127
100
AcDbXrecord
280
1
 40
113.7599999999999909
  0
ENDSEC
  0
EOF
