999
dxflib 3.17.0.0
  0
SECTION
  2
HEADER
  9
$ACADVER
  1
AC1015
  9
$HANDSEED
  5
FFFF
  9
$DIMADEC
 70
0
  9
$DIMASZ
 40
2.5
  9
$DIMAUNIT
 70
0
  9
$DIMAZIN
 70
2
  9
$DIMDEC
 70
4
  9
$DIMDSEP
 70
46
  9
$DIMEXE
 40
1.25
  9
$DIMEXO
 40
0.625
  9
$DIMGAP
 40
0.625
  9
$DIMLUNIT
 70
2
  9
$DIMSCALE
 40
1.0
  9
$DIMTSZ
 40
0.0
  9
$DIMTXT
 40
2.5
  9
$DIMZIN
 70
8
  9
$DWGCODEPAGE
  3
ANSI_1252
  9
$INSUNITS
 70
4
  9
$LTSCALE
 40
1.0
  9
$MAXACTVP
 70
64
  9
$MEASUREMENT
 70
1
  9
$PDMODE
 70
0
  9
$PDSIZE
 40
0.0
  0
ENDSEC
  0
SECTION
  2
TABLES
  0
TABLE
  2
VPORT
  5
8
100
AcDbSymbolTable
 70
1
  0
VPORT
  5
30
100
AcDbSymbolTableRecord
100
AcDbViewportTableRecord
  2
*Active
 70
0
 10
0.0
 20
0.0
 11
1.0
 21
1.0
 12
286.3055555555554861
 22
148.5
 13
0.0
 23
0.0
 14
10.0
 24
10.0
 15
10.0
 25
10.0
 16
0.0
 26
0.0
 36
1.0
 17
0.0
 27
0.0
 37
0.0
 40
297.0
 41
1.92798353909465
 42
50.0
 43
0.0
 44
0.0
 50
0.0
 51
0.0
 71
0
 72
100
 73
1
 74
3
 75
1
 76
1
 77
0
 78
0
281
0
 65
1
110
0.0
120
0.0
130
0.0
111
1.0
121
0.0
131
0.0
112
0.0
122
1.0
132
0.0
 79
0
146
0.0
  0
ENDTAB
  0
TABLE
  2
LTYPE
  5
5
100
AcDbSymbolTable
 70
41
  0
LTYPE
  5
16
100
AcDbSymbolTableRecord
100
AcDbLinetypeTableRecord
  2
Continuous
 70
0
  3
Solid line
 72
65
 73
0
 40
0.0
  0
LTYPE
  5
31
100
AcDbSymbolTableRecord
100
AcDbLinetypeTableRecord
  2
CENTER2
 70
0
  3
Center (.5x) ___ _ ___ _ ___ _ ___ _ ___ _ ___
 72
65
 73
4
 40
28.5750000000000028
 49
19.0500000000000007
 74
0
 49
-3.1749999999999998
 74
0
 49
3.1749999999999998
 74
0
 49
-3.1749999999999998
 74
0
  0
LTYPE
  5
32
100
AcDbSymbolTableRecord
100
AcDbLinetypeTableRecord
  2
CENTER
 70
0
  3
Center ____ _ ____ _ ____ _ ____ _ ____ _ ____
 72
65
 73
4
 40
50.8000000000000043
 49
31.75
 74
0
 49
-6.3499999999999996
 74
0
 49
6.3499999999999996
 74
0
 49
-6.3499999999999996
 74
0
  0
LTYPE
  5
33
100
AcDbSymbolTableRecord
100
AcDbLinetypeTableRecord
  2
BORDERX2
 70
0
  3
Border (2x) ____  ____  .  ____  ____  .  ___
 72
65
 73
6
 40
88.8999999999999915
 49
25.3999999999999986
 74
0
 49
-12.6999999999999993
 74
0
 49
25.3999999999999986
 74
0
 49
-12.6999999999999993
 74
0
 49
0.0
 74
0
 49
-12.6999999999999993
 74
0
  0
LTYPE
  5
34
100
AcDbSymbolTableRecord
100
AcDbLinetypeTableRecord
  2
ACAD_ISO07W100
 70
0
  3
ISO dot . . . . . . . . . . . . . . . . . . . . 
 72
65
 73
2
 40
3.0
 49
0.0
 74
0
 49
-3.0
 74
0
  0
LTYPE
  5
35
100
AcDbSymbolTableRecord
100
AcDbLinetypeTableRecord
  2
ACAD_ISO06W100
 70
0
  3
ISO long-dash triple-dot ____ ... ____ ... ____
 72
65
 73
8
 40
36.0
 49
24.0
 74
0
 49
-3.0
 74
0
 49
0.0
 74
0
 49
-3.0
 74
0
 49
0.0
 74
0
 49
-3.0
 74
0
 49
0.0
 74
0
 49
-3.0
 74
0
  0
LTYPE
  5
36
100
AcDbSymbolTableRecord
100
AcDbLinetypeTableRecord
  2
DASHDOTX2
 70
0
  3
Dash dot (2x) ____  .  ____  .  ____  .  ___
 72
65
 73
4
 40
50.7999999999999972
 49
25.3999999999999986
 74
0
 49
-12.6999999999999993
 74
0
 49
0.0
 74
0
 49
-12.6999999999999993
 74
0
  0
LTYPE
  5
37
100
AcDbSymbolTableRecord
100
AcDbLinetypeTableRecord
  2
DASHEDX2
 70
0
  3
Dashed (2x) ____  ____  ____  ____  ____  ___
 72
65
 73
2
 40
38.0999999999999943
 49
25.3999999999999986
 74
0
 49
-12.6999999999999993
 74
0
  0
LTYPE
  5
38
100
AcDbSymbolTableRecord
100
AcDbLinetypeTableRecord
  2
ACAD_ISO05W100
 70
0
  3
ISO long-dash double-dot ____ .. ____ .. ____ . 
 72
65
 73
6
 40
33.0
 49
24.0
 74
0
 49
-3.0
 74
0
 49
0.0
 74
0
 49
-3.0
 74
0
 49
0.0
 74
0
 49
-3.0
 74
0
  0
LTYPE
  5
39
100
AcDbSymbolTableRecord
100
AcDbLinetypeTableRecord
  2
DOT2
 70
0
  3
Dot (.5x) ........................................
 72
65
 73
2
 40
3.1749999999999998
 49
0.0
 74
0
 49
-3.1749999999999998
 74
0
  0
LTYPE
  5
3A
100
AcDbSymbolTableRecord
100
AcDbLinetypeTableRecord
  2
DASHED2
 70
0
  3
Dashed (.5x) _ _ _ _ _ _ _ _ _ _ _ _ _ _ _ _ _ 
 72
65
 73
2
 40
9.5249999999999986
 49
6.3499999999999996
 74
0
 49
-3.1749999999999998
 74
0
  0
LTYPE
  5
3B
100
AcDbSymbolTableRecord
100
AcDbLinetypeTableRecord
  2
HIDDEN2
 70
0
  3
Hidden (.5x) _ _ _ _ _ _ _ _ _ _ _ _ _ _ _ _ _ 
 72
65
 73
2
 40
4.7624999999999993
 49
3.1749999999999998
 74
0
 49
-1.5874999999999999
 74
0
  0
LTYPE
  5
3C
100
AcDbSymbolTableRecord
100
AcDbLinetypeTableRecord
  2
ACAD_ISO15W100
 70
0
  3
ISO double-dash triple-dot __ __ . . . __ __ . .
 72
65
 73
10
 40
39.0
 49
12.0
 74
0
 49
-3.0
 74
0
 49
12.0
 74
0
 49
-3.0
 74
0
 49
0.0
 74
0
 49
-3.0
 74
0
 49
0.0
 74
0
 49
-3.0
 74
0
 49
0.0
 74
0
 49
-3.0
 74
0
  0
LTYPE
  5
3D
100
AcDbSymbolTableRecord
100
AcDbLinetypeTableRecord
  2
DOT
 70
0
  3
Dot . . . . . . . . . . . . . . . . . . . . . . . .
 72
65
 73
2
 40
6.3499999999999996
 49
0.0
 74
0
 49
-6.3499999999999996
 74
0
  0
LTYPE
  5
3E
100
AcDbSymbolTableRecord
100
AcDbLinetypeTableRecord
  2
DIVIDE
 70
0
  3
Divide ____ . . ____ . . ____ . . ____ . . ____
 72
65
 73
6
 40
31.75
 49
12.6999999999999993
 74
0
 49
-6.3499999999999996
 74
0
 49
0.0
 74
0
 49
-6.3499999999999996
 74
0
 49
0.0
 74
0
 49
-6.3499999999999996
 74
0
  0
LTYPE
  5
3F
100
AcDbSymbolTableRecord
100
AcDbLinetypeTableRecord
  2
ACAD_ISO03W100
 70
0
  3
ISO dash space __    __    __    __    __    __
 72
65
 73
2
 40
30.0
 49
12.0
 74
0
 49
-18.0
 74
0
  0
LTYPE
  5
40
100
AcDbSymbolTableRecord
100
AcDbLinetypeTableRecord
  2
ACAD_ISO14W100
 70
0
  3
ISO dash triple-dot __ . . . __ . . . __ . . . _
 72
65
 73
8
 40
24.0
 49
12.0
 74
0
 49
-3.0
 74
0
 49
0.0
 74
0
 49
-3.0
 74
0
 49
0.0
 74
0
 49
-3.0
 74
0
 49
0.0
 74
0
 49
-3.0
 74
0
  0
LTYPE
  5
41
100
AcDbSymbolTableRecord
100
AcDbLinetypeTableRecord
  2
ACAD_ISO09W100
 70
0
  3
ISO long-dash double-short-dash ____ __ __ ____
 72
65
 73
6
 40
45.0
 49
24.0
 74
0
 49
-3.0
 74
0
 49
6.0
 74
0
 49
-3.0
 74
0
 49
6.0
 74
0
 49
-3.0
 74
0
  0
LTYPE
  5
15
100
AcDbSymbolTableRecord
100
AcDbLinetypeTableRecord
  2
BYLAYER
 70
0
  3

 72
65
 73
0
 40
0.0
  0
LTYPE
  5
42
100
AcDbSymbolTableRecord
100
AcDbLinetypeTableRecord
  2
ACAD_ISO10W100
 70
0
  3
ISO dash dot __ . __ . __ . __ . __ . __ . __ . 
 72
65
 73
4
 40
18.0
 49
12.0
 74
0
 49
-3.0
 74
0
 49
0.0
 74
0
 49
-3.0
 74
0
  0
LTYPE
  5
43
100
AcDbSymbolTableRecord
100
AcDbLinetypeTableRecord
  2
DASHED
 70
0
  3
Dashed __ __ __ __ __ __ __ __ __ __ __ __ __ _
 72
65
 73
2
 40
19.0499999999999972
 49
12.6999999999999993
 74
0
 49
-6.3499999999999996
 74
0
  0
LTYPE
  5
44
100
AcDbSymbolTableRecord
100
AcDbLinetypeTableRecord
  2
ACAD_ISO12W100
 70
0
  3
ISO dash double-dot __ . . __ . . __ . . __ . . 
 72
65
 73
6
 40
21.0
 49
12.0
 74
0
 49
-3.0
 74
0
 49
0.0
 74
0
 49
-3.0
 74
0
 49
0.0
 74
0
 49
-3.0
 74
0
  0
LTYPE
  5
45
100
AcDbSymbolTableRecord
100
AcDbLinetypeTableRecord
  2
HIDDEN
 70
0
  3
Hidden __ __ __ __ __ __ __ __ __ __ __ __ __ __
 72
65
 73
2
 40
9.5249999999999986
 49
6.3499999999999996
 74
0
 49
-3.1749999999999998
 74
0
  0
LTYPE
  5
46
100
AcDbSymbolTableRecord
100
AcDbLinetypeTableRecord
  2
ACAD_ISO04W100
 70
0
  3
ISO long-dash dot ____ . ____ . ____ . ____ . _
 72
65
 73
4
 40
30.0
 49
24.0
 74
0
 49
-3.0
 74
0
 49
0.0
 74
0
 49
-3.0
 74
0
  0
LTYPE
  5
47
100
AcDbSymbolTableRecord
100
AcDbLinetypeTableRecord
  2
BORDER
 70
0
  3
Border __ __ . __ __ . __ __ . __ __ . __ __ .
 72
65
 73
6
 40
44.4499999999999957
 49
12.6999999999999993
 74
0
 49
-6.3499999999999996
 74
0
 49
12.6999999999999993
 74
0
 49
-6.3499999999999996
 74
0
 49
0.0
 74
0
 49
-6.3499999999999996
 74
0
  0
LTYPE
  5
14
100
AcDbSymbolTableRecord
100
AcDbLinetypeTableRecord
  2
BYBLOCK
 70
0
  3

 72
65
 73
0
 40
0.0
  0
LTYPE
  5
48
100
AcDbSymbolTableRecord
100
AcDbLinetypeTableRecord
  2
HIDDENX2
 70
0
  3
Hidden (2x) ____ ____ ____ ____ ____ ____ ____ 
 72
65
 73
2
 40
19.0499999999999972
 49
12.6999999999999993
 74
0
 49
-6.3499999999999996
 74
0
  0
LTYPE
  5
49
100
AcDbSymbolTableRecord
100
AcDbLinetypeTableRecord
  2
CENTERX2
 70
0
  3
Center (2x) ________  __  ________  __  _____
 72
65
 73
4
 40
101.6000000000000085
 49
63.5
 74
0
 49
-12.6999999999999993
 74
0
 49
12.6999999999999993
 74
0
 49
-12.6999999999999993
 74
0
  0
LTYPE
  5
4A
100
AcDbSymbolTableRecord
100
AcDbLinetypeTableRecord
  2
ACAD_ISO11W100
 70
0
  3
ISO double-dash dot __ __ . __ __ . __ __ . __ _
 72
65
 73
6
 40
33.0
 49
12.0
 74
0
 49
-3.0
 74
0
 49
12.0
 74
0
 49
-3.0
 74
0
 49
0.0
 74
0
 49
-3.0
 74
0
  0
LTYPE
  5
4B
100
AcDbSymbolTableRecord
100
AcDbLinetypeTableRecord
  2
BORDER2
 70
0
  3
Border (.5x) __.__.__.__.__.__.__.__.__.__.__.
 72
65
 73
6
 40
22.2249999999999979
 49
6.3499999999999996
 74
0
 49
-3.1749999999999998
 74
0
 49
6.3499999999999996
 74
0
 49
-3.1749999999999998
 74
0
 49
0.0
 74
0
 49
-3.1749999999999998
 74
0
  0
LTYPE
  5
4C
100
AcDbSymbolTableRecord
100
AcDbLinetypeTableRecord
  2
DASHDOT
 70
0
  3
Dash dot __ . __ . __ . __ . __ . __ . __ . __
 72
65
 73
4
 40
25.3999999999999986
 49
12.6999999999999993
 74
0
 49
-6.3499999999999996
 74
0
 49
0.0
 74
0
 49
-6.3499999999999996
 74
0
  0
LTYPE
  5
4D
100
AcDbSymbolTableRecord
100
AcDbLinetypeTableRecord
  2
ACAD_ISO08W100
 70
0
  3
ISO long-dash short-dash ____ __ ____ __ ____ _
 72
65
 73
4
 40
36.0
 49
24.0
 74
0
 49
-3.0
 74
0
 49
6.0
 74
0
 49
-3.0
 74
0
  0
LTYPE
  5
4E
100
AcDbSymbolTableRecord
100
AcDbLinetypeTableRecord
  2
DIVIDE2
 70
0
  3
Divide (.5x) __..__..__..__..__..__..__..__.._
 72
65
 73
6
 40
15.875
 49
6.3499999999999996
 74
0
 49
-3.1749999999999998
 74
0
 49
0.0
 74
0
 49
-3.1749999999999998
 74
0
 49
0.0
 74
0
 49
-3.1749999999999998
 74
0
  0
LTYPE
  5
4F
100
AcDbSymbolTableRecord
100
AcDbLinetypeTableRecord
  2
DOTX2
 70
0
  3
Dot (2x) .  .  .  .  .  .  .  .  .  .  .  .  .  .
 72
65
 73
2
 40
12.6999999999999993
 49
0.0
 74
0
 49
-12.6999999999999993
 74
0
  0
LTYPE
  5
50
100
AcDbSymbolTableRecord
100
AcDbLinetypeTableRecord
  2
ACAD_ISO13W100
 70
0
  3
ISO double-dash double-dot __ __ . . __ __ . . _
 72
65
 73
8
 40
36.0
 49
12.0
 74
0
 49
-3.0
 74
0
 49
12.0
 74
0
 49
-3.0
 74
0
 49
0.0
 74
0
 49
-3.0
 74
0
 49
0.0
 74
0
 49
-3.0
 74
0
  0
LTYPE
  5
51
100
AcDbSymbolTableRecord
100
AcDbLinetypeTableRecord
  2
DASHDOT2
 70
0
  3
Dash dot (.5x) _._._._._._._._._._._._._._._.
 72
65
 73
4
 40
12.6999999999999993
 49
6.3499999999999996
 74
0
 49
-3.1749999999999998
 74
0
 49
0.0
 74
0
 49
-3.1749999999999998
 74
0
  0
LTYPE
  5
52
100
AcDbSymbolTableRecord
100
AcDbLinetypeTableRecord
  2
PHANTOMX2
 70
0
  3
Phantom (2x) ____________    ____    ____   _
 72
65
 73
6
 40
127.0000000000000142
 49
63.5
 74
0
 49
-12.6999999999999993
 74
0
 49
12.6999999999999993
 74
0
 49
-12.6999999999999993
 74
0
 49
12.6999999999999993
 74
0
 49
-12.6999999999999993
 74
0
  0
LTYPE
  5
53
100
AcDbSymbolTableRecord
100
AcDbLinetypeTableRecord
  2
PHANTOM2
 70
0
  3
Phantom (.5x) ___ _ _ ___ _ _ ___ _ _ ___ _ _
 72
65
 73
6
 40
31.7500000000000036
 49
15.875
 74
0
 49
-3.1749999999999998
 74
0
 49
3.1749999999999998
 74
0
 49
-3.1749999999999998
 74
0
 49
3.1749999999999998
 74
0
 49
-3.1749999999999998
 74
0
  0
LTYPE
  5
54
100
AcDbSymbolTableRecord
100
AcDbLinetypeTableRecord
  2
DIVIDEX2
 70
0
  3
Divide (2x) ________  .  .  ________  .  .  _
 72
65
 73
6
 40
63.5
 49
25.3999999999999986
 74
0
 49
-12.6999999999999993
 74
0
 49
0.0
 74
0
 49
-12.6999999999999993
 74
0
 49
0.0
 74
0
 49
-12.6999999999999993
 74
0
  0
LTYPE
  5
55
100
AcDbSymbolTableRecord
100
AcDbLinetypeTableRecord
  2
ACAD_ISO02W100
 70
0
  3
ISO dash __ __ __ __ __ __ __ __ __ __ __ __ __
 72
65
 73
2
 40
15.0
 49
12.0
 74
0
 49
-3.0
 74
0
  0
LTYPE
  5
56
100
AcDbSymbolTableRecord
100
AcDbLinetypeTableRecord
  2
PHANTOM
 70
0
  3
Phantom ______  __  __  ______  __  __  ______ 
 72
65
 73
6
 40
63.5000000000000071
 49
31.75
 74
0
 49
-6.3499999999999996
 74
0
 49
6.3499999999999996
 74
0
 49
-6.3499999999999996
 74
0
 49
6.3499999999999996
 74
0
 49
-6.3499999999999996
 74
0
  0
ENDTAB
  0
TABLE
  2
LAYER
  5
2
100
AcDbSymbolTable
 70
8
  0
LAYER
  5
57
100
AcDbSymbolTableRecord
100
AcDbLayerTableRecord
  2
Dno
 70
4
 62
30
420
16744192
  6
Continuous
370
100
390
F
  0
LAYER
  5
10
100
AcDbSymbolTableRecord
100
AcDbLayerTableRecord
  2
0
 70
4
 62
7
420
16777215
  6
Continuous
370
25
390
F
  0
LAYER
  5
58
100
AcDbSymbolTableRecord
100
AcDbLayerTableRecord
  2
Stene
 70
4
 62
14
420
8388608
  6
Continuous
370
70
390
F
  0
LAYER
  5
59
100
AcDbSymbolTableRecord
100
AcDbLayerTableRecord
  2
Polje
 70
4
 62
94
420
32768
  6
Continuous
370
50
390
F
  0
LAYER
  5
5A
100
AcDbSymbolTableRecord
100
AcDbLayerTableRecord
  2
Obroba_risbe
 70
4
 62
252
420
10526884
  6
Continuous
370
30
390
F
  0
LAYER
  5
5B
100
AcDbSymbolTableRecord
100
AcDbLayerTableRecord
  2
Opis_noge
 70
4
 62
252
420
10526884
  6
Continuous
370
25
390
F
  0
LAYER
  5
5C
100
AcDbSymbolTableRecord
100
AcDbLayerTableRecord
  2
0. Besedilo_noge
 70
4
 62
174
420
128
  6
Continuous
370
25
390
F
  0
LAYER
  5
5D
100
AcDbSymbolTableRecord
100
AcDbLayerTableRecord
  2
pomozne
 70
5
 62
9
420
12632256
  6
Continuous
370
25
390
F
  0
ENDTAB
  0
TABLE
  2
STYLE
  5
3
100
AcDbSymbolTable
 70
19
  0
STYLE
  5
5E
100
AcDbSymbolTableRecord
100
AcDbTextStyleTableRecord
  2
Standard
 70
0
 40
0.0
 41
1.0
 50
0.0
 71
0
 42
2.5
  3

  4

1001
ACAD
1000
txt
1071
0
  0
STYLE
  5
5F
100
AcDbSymbolTableRecord
100
AcDbTextStyleTableRecord
  2
textstyle0
 70
0
 40
0.0
 41
1.0
 50
0.0
 71
0
 42
1.0
  3

  4

1001
ACAD
1000
Arial
1071
16777216
  0
STYLE
  5
60
100
AcDbSymbolTableRecord
100
AcDbTextStyleTableRecord
  2
textstyle1
 70
0
 40
0.0
 41
1.0
 50
0.0
 71
0
 42
1.0
  3

  4

1001
ACAD
1000
Arial
1071
16777216
  0
STYLE
  5
61
100
AcDbSymbolTableRecord
100
AcDbTextStyleTableRecord
  2
textstyle2
 70
0
 40
0.0
 41
1.0
 50
0.0
 71
0
 42
1.0
  3

  4

1001
ACAD
1000
Arial
1071
16777216
  0
STYLE
  5
62
100
AcDbSymbolTableRecord
100
AcDbTextStyleTableRecord
  2
textstyle3
 70
0
 40
0.0
 41
1.0
 50
0.0
 71
0
 42
1.0
  3

  4

1001
ACAD
1000
Arial
1071
16777216
  0
STYLE
  5
63
100
AcDbSymbolTableRecord
100
AcDbTextStyleTableRecord
  2
textstyle4
 70
0
 40
0.0
 41
1.0
 50
0.0
 71
0
 42
1.0
  3

  4

1001
ACAD
1000
Arial
1071
16777216
  0
STYLE
  5
64
100
AcDbSymbolTableRecord
100
AcDbTextStyleTableRecord
  2
textstyle5
 70
0
 40
0.0
 41
1.0
 50
0.0
 71
0
 42
1.0
  3

  4

1001
ACAD
1000
Arial
1071
16777216
  0
STYLE
  5
65
100
AcDbSymbolTableRecord
100
AcDbTextStyleTableRecord
  2
textstyle6
 70
0
 40
0.0
 41
1.0
 50
0.0
 71
0
 42
1.0
  3

  4

1001
ACAD
1000
Arial
1071
16777216
  0
STYLE
  5
66
100
AcDbSymbolTableRecord
100
AcDbTextStyleTableRecord
  2
textstyle7
 70
0
 40
0.0
 41
1.0
 50
0.0
 71
0
 42
1.0
  3

  4

1001
ACAD
1000
Arial
1071
16777216
  0
STYLE
  5
67
100
AcDbSymbolTableRecord
100
AcDbTextStyleTableRecord
  2
textstyle8
 70
0
 40
0.0
 41
1.0
 50
0.0
 71
0
 42
1.0
  3

  4

1001
ACAD
1000
Arial
1071
16777216
  0
STYLE
  5
68
100
AcDbSymbolTableRecord
100
AcDbTextStyleTableRecord
  2
textstyle9
 70
0
 40
0.0
 41
1.0
 50
0.0
 71
0
 42
1.0
  3

  4

1001
ACAD
1000
Arial
1071
16777216
  0
STYLE
  5
69
100
AcDbSymbolTableRecord
100
AcDbTextStyleTableRecord
  2
textstyle10
 70
0
 40
0.0
 41
1.0
 50
0.0
 71
0
 42
1.0
  3

  4

1001
ACAD
1000
Arial
1071
16777216
  0
STYLE
  5
6A
100
AcDbSymbolTableRecord
100
AcDbTextStyleTableRecord
  2
textstyle11
 70
0
 40
0.0
 41
1.0
 50
0.0
 71
0
 42
1.0
  3

  4

1001
ACAD
1000
osifont
1071
16777216
  0
STYLE
  5
6B
100
AcDbSymbolTableRecord
100
AcDbTextStyleTableRecord
  2
textstyle12
 70
0
 40
0.0
 41
1.0
 50
0.0
 71
0
 42
1.0
  3

  4

1001
ACAD
1000
Arial
1071
16777216
  0
STYLE
  5
6C
100
AcDbSymbolTableRecord
100
AcDbTextStyleTableRecord
  2
textstyle13
 70
0
 40
0.0
 41
1.0
 50
0.0
 71
0
 42
1.0
  3

  4

1001
ACAD
1000
osifont
1071
16777216
  0
STYLE
  5
6D
100
AcDbSymbolTableRecord
100
AcDbTextStyleTableRecord
  2
textstyle14
 70
0
 40
0.0
 41
1.0
 50
0.0
 71
0
 42
1.0
  3

  4

1001
ACAD
1000
osifont
1071
16777216
  0
STYLE
  5
6E
100
AcDbSymbolTableRecord
100
AcDbTextStyleTableRecord
  2
textstyle15
 70
0
 40
0.0
 41
1.0
 50
0.0
 71
0
 42
1.0
  3

  4

1001
ACAD
1000
osifont
1071
16777216
  0
STYLE
  5
6F
100
AcDbSymbolTableRecord
100
AcDbTextStyleTableRecord
  2
textstyle16
 70
0
 40
0.0
 41
1.0
 50
0.0
 71
0
 42
1.0
  3

  4

1001
ACAD
1000
osifont
1071
16777216
  0
STYLE
  5
70
100
AcDbSymbolTableRecord
100
AcDbTextStyleTableRecord
  2
textstyle17
 70
0
 40
0.0
 41
1.0
 50
0.0
 71
0
 42
1.0
  3

  4

1001
ACAD
1000
osifont
1071
16777216
  0
ENDTAB
  0
TABLE
  2
VIEW
  5
6
100
AcDbSymbolTable
 70
0
  0
ENDTAB
  0
TABLE
  2
UCS
  5
7
100
AcDbSymbolTable
 70
0
  0
ENDTAB
  0
TABLE
  2
APPID
  5
9
100
AcDbSymbolTable
 70
1
  0
APPID
  5
12
100
AcDbSymbolTableRecord
100
AcDbRegAppTableRecord
  2
ACAD
 70
0
  0
APPID
  5
71
100
AcDbSymbolTableRecord
100
AcDbRegAppTableRecord
  2
QCAD
 70
0
  0
ENDTAB
  0
TABLE
  2
DIMSTYLE
  5
A
100
AcDbSymbolTable
 70
1
100
AcDbDimStyleTable
 71
0
  0
DIMSTYLE
105
27
100
AcDbSymbolTableRecord
100
AcDbDimStyleTableRecord
  2
Standard
 41
2.5
 42
0.625
 43
3.75
 44
1.25
 70
0
 73
0
 74
0
 77
1
 78
8
140
2.5
141
2.5
143
0.03937007874016
147
0.625
171
3
172
1
271
2
272
2
274
3
278
44
283
0
284
8
340
5E
  0
ENDTAB
  0
TABLE
  2
BLOCK_RECORD
  5
1
100
AcDbSymbolTable
 70
1
  0
BLOCK_RECORD
  5
1F
100
AcDbSymbolTableRecord
100
AcDbBlockTableRecord
  2
*Model_Space
340
22
  0
BLOCK_RECORD
  5
1B
100
AcDbSymbolTableRecord
100
AcDbBlockTableRecord
  2
*Paper_Space
340
1E
  0
BLOCK_RECORD
  5
23
100
AcDbSymbolTableRecord
100
AcDbBlockTableRecord
  2
*Paper_Space0
340
26
  0
BLOCK_RECORD
  5
72
100
AcDbSymbolTableRecord
100
AcDbBlockTableRecord
  2
cici_A4P
340
0
  0
ENDTAB
  0
ENDSEC
  0
SECTION
  2
BLOCKS
  0
BLOCK
  5
20
100
AcDbEntity
  8
0
100
AcDbBlockBegin
  2
*Model_Space
 70
0
 10
0.0
 20
0.0
 30
0.0
  3
*Model_Space
  1

  0
ENDBLK
  5
21
100
AcDbEntity
  8
0
100
AcDbBlockEnd
  0
BLOCK
  5
1C
100
AcDbEntity
 67
1
  8
0
100
AcDbBlockBegin
  2
*Paper_Space
 70
0
 10
0.0
 20
0.0
 30
0.0
  3
*Paper_Space
  1

  0
ENDBLK
  5
1D
100
AcDbEntity
 67
1
  8
0
100
AcDbBlockEnd
  0
BLOCK
  5
24
100
AcDbEntity
  8
0
100
AcDbBlockBegin
  2
*Paper_Space0
 70
0
 10
0.0
 20
0.0
 30
0.0
  3
*Paper_Space0
  1

  0
ENDBLK
  5
25
100
AcDbEntity
  8
0
100
AcDbBlockEnd
  0
BLOCK
  5
73
100
AcDbEntity
  8
0
100
AcDbBlockBegin
  2
cici_A4P
 70
0
 10
0.0
 20
0.0
 30
0.0
  3
cici_A4P
  1

  0
LINE
  5
74
100
AcDbEntity
  8
Obroba_risbe
 62
256
370
-1
 48
1.0
  6
BYLAYER
100
AcDbLine
 10
55.0
 20
50.0
 30
0.0
 11
55.0
 21
35.0
 31
0.0
  0
LINE
  5
75
100
AcDbEntity
  8
Obroba_risbe
 62
256
370
-1
 48
1.0
  6
BYLAYER
100
AcDbLine
 10
35.0
 20
50.0
 30
0.0
 11
35.0
 21
9.9999999999999947
 31
0.0
  0
LINE
  5
76
100
AcDbEntity
  8
Obroba_risbe
 62
256
370
-1
 48
1.0
  6
BYLAYER
100
AcDbLine
 10
145.0
 20
10.0000000000000071
 30
0.0
 11
145.0
 21
50.0
 31
0.0
  0
LINE
  5
77
100
AcDbEntity
  8
Obroba_risbe
 62
256
370
-1
 48
1.0
  6
BYLAYER
100
AcDbLine
 10
110.0
 20
50.0
 30
0.0
 11
110.0
 21
35.0
 31
0.0
  0
LINE
  5
78
100
AcDbEntity
  8
Obroba_risbe
 62
256
370
-1
 48
1.0
  6
BYLAYER
100
AcDbLine
 10
130.0
 20
50.0
 30
0.0
 11
130.0
 21
35.0
 31
0.0
  0
LINE
  5
79
100
AcDbEntity
  8
Obroba_risbe
 62
256
370
-1
 48
1.0
  6
BYLAYER
100
AcDbLine
 10
20.0
 20
287.0
 30
0.0
 11
20.0
 21
10.0
 31
0.0
  0
LINE
  5
7A
100
AcDbEntity
  8
Obroba_risbe
 62
256
370
-1
 48
1.0
  6
BYLAYER
100
AcDbLine
 10
200.0
 20
10.0
 30
0.0
 11
200.0
 21
287.0
 31
0.0
  0
LINE
  5
7B
100
AcDbEntity
  8
Obroba_risbe
 62
256
370
-1
 48
1.0
  6
BYLAYER
100
AcDbLine
 10
20.0
 20
10.0
 30
0.0
 11
200.0
 21
10.0
 31
0.0
  0
LINE
  5
7C
100
AcDbEntity
  8
Obroba_risbe
 62
256
370
-1
 48
1.0
  6
BYLAYER
100
AcDbLine
 10
20.0
 20
35.0
 30
0.0
 11
200.0
 21
35.0
 31
0.0
  0
LINE
  5
7D
100
AcDbEntity
  8
Obroba_risbe
 62
256
370
-1
 48
1.0
  6
BYLAYER
100
AcDbLine
 10
20.0
 20
40.0
 30
0.0
 11
130.0
 21
40.0
 31
0.0
  0
LINE
  5
7E
100
AcDbEntity
  8
Obroba_risbe
 62
256
370
-1
 48
1.0
  6
BYLAYER
100
AcDbLine
 10
20.0
 20
45.0
 30
0.0
 11
130.0
 21
45.0
 31
0.0
  0
LINE
  5
7F
100
AcDbEntity
  8
Obroba_risbe
 62
256
370
-1
 48
1.0
  6
BYLAYER
100
AcDbLine
 10
200.0
 20
287.0
 30
0.0
 11
20.0
 21
287.0
 31
0.0
  0
LINE
  5
80
100
AcDbEntity
  8
Obroba_risbe
 62
256
370
-1
 48
1.0
  6
BYLAYER
100
AcDbLine
 10
20.0
 20
50.0
 30
0.0
 11
200.0
 21
50.0
 31
0.0
  0
LINE
  5
81
100
AcDbEntity
  8
Obroba_risbe
 62
256
370
-1
 48
1.0
  6
BYLAYER
100
AcDbLine
 10
145.0
 20
25.0
 30
0.0
 11
200.0
 21
25.0
 31
0.0
  0
MTEXT
  5
82
100
AcDbEntity
  8
Opis_noge
 62
256
370
-1
 48
1.0
  6
BYLAYER
100
AcDbMText
 10
20.9999999999999964
 20
39.0000000000000071
 30
0.0
 40
1.0
 41
0.0
 71
1
 72
1
  1
\H2;Izdelal
  7
textstyle3
 50
0.0
 73
2
 44
1.0
  0
MTEXT
  5
83
100
AcDbEntity
  8
Opis_noge
 62
256
370
-1
 48
1.0
  6
BYLAYER
100
AcDbMText
 10
21.0000000000000036
 20
44.0
 30
0.0
 40
1.0
 41
0.0
 71
1
 72
1
  1
\H2;Risal
  7
textstyle2
 50
0.0
 73
2
 44
1.0
  0
MTEXT
  5
84
100
AcDbEntity
  8
Opis_noge
 62
256
370
-1
 48
1.0
  6
BYLAYER
100
AcDbMText
 10
21.0000000000000036
 20
34.0
 30
0.0
 40
1.0
 41
0.0
 71
1
 72
1
  1
\H2;Merilo
  7
textstyle1
 50
0.0
 73
2
 44
1.0
  0
MTEXT
  5
85
100
AcDbEntity
  8
Opis_noge
 62
256
370
-1
 48
1.0
  6
BYLAYER
100
AcDbMText
 10
36.0
 20
34.0
 30
0.0
 40
1.0
 41
0.0
 71
1
 72
1
  1
\H2;Objekt
  7
textstyle0
 50
0.0
 73
2
 44
1.0
  0
MTEXT
  5
86
100
AcDbEntity
  8
Opis_noge
 62
256
370
-1
 48
1.0
  6
BYLAYER
100
AcDbMText
 10
146.0
 20
48.9999999999999645
 30
0.0
 40
1.0
 41
0.0
 71
1
 72
1
  1
\H2;\U+0160ola
  7
textstyle7
 50
0.0
 73
2
 44
1.0
  0
MTEXT
  5
87
100
AcDbEntity
  8
Opis_noge
 62
256
370
-1
 48
1.0
  6
BYLAYER
100
AcDbMText
 10
146.0
 20
33.9999999999999361
 30
0.0
 40
1.0
 41
0.0
 71
1
 72
1
  1
\H2;Material
  7
textstyle6
 50
0.0
 73
2
 44
1.0
  0
MTEXT
  5
88
100
AcDbEntity
  8
Opis_noge
 62
256
370
-1
 48
1.0
  6
BYLAYER
100
AcDbMText
 10
146.0
 20
24.0000000000000497
 30
0.0
 40
1.0
 41
0.0
 71
1
 72
1
  1
\H2;\U+0160tevilka risbe
  7
textstyle5
 50
0.0
 73
2
 44
1.0
  0
MTEXT
  5
89
100
AcDbEntity
  8
Opis_noge
 62
256
370
-1
 48
1.0
  6
BYLAYER
100
AcDbMText
 10
36.0
 20
46.0
 30
0.0
 40
1.0
 41
0.0
 71
7
 72
1
  1
\H2;Datum
  7
textstyle4
 50
0.0
 73
2
 44
1.0
  0
MTEXT
  5
8A
100
AcDbEntity
  8
Opis_noge
 62
256
370
-1
 48
1.0
  6
BYLAYER
100
AcDbMText
 10
56.0000000000000071
 20
45.9999999999999858
 30
0.0
 40
1.0
 41
0.0
 71
7
 72
1
  1
\H2;Ime in Priimek
  7
textstyle10
 50
0.0
 73
2
 44
1.0
  0
MTEXT
  5
8B
100
AcDbEntity
  8
Opis_noge
 62
256
370
-1
 48
1.0
  6
BYLAYER
100
AcDbMText
 10
111.0
 20
46.0000000000000071
 30
0.0
 40
1.0
 41
0.0
 71
7
 72
1
  1
\H2;Podpis
  7
textstyle9
 50
0.0
 73
2
 44
1.0
  0
MTEXT
  5
8C
100
AcDbEntity
  8
Opis_noge
 62
256
370
-1
 48
1.0
  6
BYLAYER
100
AcDbMText
 10
131.0
 20
48.9999999999999929
 30
0.0
 40
1.0
 41
0.0
 71
1
 72
1
  1
\H2;Ocena
  7
textstyle8
 50
0.0
 73
2
 44
1.0
  0
MTEXT
  5
8D
100
AcDbEntity
  8
0. Besedilo_noge
 62
256
370
-1
 48
1.0
  6
BYLAYER
100
AcDbMText
 10
56.0
 20
44.0000000000000142
 30
0.0
 40
1.0
 41
0.0
 71
1
 72
1
  1
\H3;Miha Ko\U+010dar
  7
textstyle12
 50
0.0
 73
2
 44
1.0
  0
MTEXT
  5
8E
100
AcDbEntity
  8
0. Besedilo_noge
 62
256
370
-1
 48
1.0
  6
BYLAYER
100
AcDbMText
 10
36.0
 20
44.0
 30
0.0
 40
1.0
 41
0.0
 71
1
 72
1
  1
\H2.5;10. 8. 2017
  7
textstyle11
 50
0.0
 73
2
 44
1.0
  0
MTEXT
  5
8F
100
AcDbEntity
  8
0. Besedilo_noge
 62
256
370
-1
 48
1.0
  6
BYLAYER
100
AcDbMText
 10
153.7473142239698518
 20
47.5480835847492571
 30
0.0
 40
1.0
 41
0.0
 71
1
 72
1
  1
\H3;O\U+0160 Martina Krpana\PLjubljana
  7
textstyle16
 50
0.0
 73
2
 44
1.0
  0
MTEXT
  5
90
100
AcDbEntity
  8
0. Besedilo_noge
 62
256
370
-1
 48
1.0
  6
BYLAYER
100
AcDbMText
 10
170.0
 20
30.9999999999999716
 30
0.0
 40
1.0
 41
0.0
 71
2
 72
1
  1
\fosifont|b0|i0|c0|p0;\H3;Vezana plo\U+0161\U+010da 4mm
  7
textstyle15
 50
0.0
 73
2
 44
1.0
  0
MTEXT
  5
91
100
AcDbEntity
  8
0. Besedilo_noge
 62
256
370
-1
 48
1.0
  6
BYLAYER
100
AcDbMText
 10
170.0
 20
19.9999999999998899
 30
0.0
 40
1.0
 41
0.0
 71
2
 72
1
  1
\fosifont|b0|i0|c0|p0;\H5;ID01
  7
textstyle14
 50
0.0
 73
2
 44
1.0
  0
MTEXT
  5
92
100
AcDbEntity
  8
0. Besedilo_noge
 62
256
370
-1
 48
1.0
  6
BYLAYER
100
AcDbMText
 10
27.0
 20
19.9999999999999964
 30
0.0
 40
1.0
 41
0.0
 71
5
 72
1
  1
\H5;1:1
  7
textstyle13
 50
0.0
 73
2
 44
1.0
  0
MTEXT
  5
93
100
AcDbEntity
  8
0. Besedilo_noge
 62
256
370
-1
 48
1.0
  6
BYLAYER
100
AcDbMText
 10
90.0
 20
30.9999999999999787
 30
0.0
 40
1.0
 41
0.0
 71
2
 72
1
  1
\H6;Igra Quoridor\Pvsi deli igralne povr\U+0161ine
  7
textstyle17
 50
0.0
 73
2
 44
1.0
  0
ENDBLK
  5
94
100
AcDbEntity
  8
0
100
AcDbBlockEnd
  0
ENDSEC
  0
SECTION
  2
ENTITIES
  0
INSERT
  5
95
100
AcDbEntity
  8
0
 62
256
370
-1
 48
1.0
  6
BYLAYER
100
AcDbBlockReference
  2
cici_A4P
 10
0.0
 20
0.0
 30
0.0
  0
LINE
  5
96
100
AcDbEntity
  8
pomozne
 62
256
370
-1
 48
1.0
  6
BYLAYER
100
AcDbLine
 10
29.9999999999999964
 20
88.4444444444444571
 30
0.0
 11
190.0
 21
88.4444444444444571
 31
0.0
  0
LINE
  5
97
100
AcDbEntity
  8
pomozne
 62
256
370
-1
 48
1.0
  6
BYLAYER
100
AcDbLine
 10
190.0
 20
88.4444444444444571
 30
0.0
 11
190.0
 21
248.4444444444444571
 31
0.0
  0
LINE
  5
98
100
AcDbEntity
  8
pomozne
 62
256
370
-1
 48
1.0
  6
BYLAYER
100
AcDbLine
 10
190.0
 20
248.4444444444444571
 30
0.0
 11
29.9999999999999964
 21
248.4444444444444571
 31
0.0
  0
LINE
  5
99
100
AcDbEntity
  8
pomozne
 62
256
370
-1
 48
1.0
  6
BYLAYER
100
AcDbLine
 10
29.9999999999999964
 20
248.4444444444444571
 30
0.0
 11
29.9999999999999964
 21
88.4444444444444571
 31
0.0
  0
LINE
  5
9A
100
AcDbEntity
  8
pomozne
 62
256
370
-1
 48
1.0
  6
BYLAYER
100
AcDbLine
 10
45.7777777777777715
 20
248.4444444444444571
 30
0.0
 11
45.7777777777777715
 21
88.4444444444444571
 31
0.0
  0
LINE
  5
9B
100
AcDbEntity
  8
pomozne
 62
256
370
-1
 48
1.0
  6
BYLAYER
100
AcDbLine
 10
49.7777777777777715
 20
248.4444444444444571
 30
0.0
 11
49.7777777777777715
 21
88.4444444444444571
 31
0.0
  0
LINE
  5
9C
100
AcDbEntity
  8
pomozne
 62
256
370
-1
 48
1.0
  6
BYLAYER
100
AcDbLine
 10
190.0
 20
232.6666666666666856
 30
0.0
 11
29.9999999999999929
 21
232.6666666666666856
 31
0.0
  0
LINE
  5
9D
100
AcDbEntity
  8
pomozne
 62
256
370
-1
 48
1.0
  6
BYLAYER
100
AcDbLine
 10
190.0
 20
228.6666666666666856
 30
0.0
 11
29.9999999999999929
 21
228.6666666666666856
 31
0.0
  0
LINE
  5
9E
100
AcDbEntity
  8
pomozne
 62
256
370
-1
 48
1.0
  6
BYLAYER
100
AcDbLine
 10
63.5555555555555571
 20
248.4444444444444571
 30
0.0
 11
63.5555555555555571
 21
88.4444444444444571
 31
0.0
  0
LINE
  5
9F
100
AcDbEntity
  8
pomozne
 62
256
370
-1
 48
1.0
  6
BYLAYER
100
AcDbLine
 10
67.5555555555555571
 20
248.4444444444444571
 30
0.0
 11
67.5555555555555571
 21
88.4444444444444571
 31
0.0
  0
LINE
  5
A0
100
AcDbEntity
  8
pomozne
 62
256
370
-1
 48
1.0
  6
BYLAYER
100
AcDbLine
 10
190.0
 20
214.8888888888889142
 30
0.0
 11
29.9999999999999893
 21
214.8888888888889142
 31
0.0
  0
LINE
  5
A1
100
AcDbEntity
  8
pomozne
 62
256
370
-1
 48
1.0
  6
BYLAYER
100
AcDbLine
 10
190.0
 20
246.4444444444444571
 30
0.0
 11
29.9999999999999964
 21
246.4444444444444571
 31
0.0
  0
LINE
  5
A2
100
AcDbEntity
  8
pomozne
 62
256
370
-1
 48
1.0
  6
BYLAYER
100
AcDbLine
 10
31.9999999999999964
 20
248.4444444444444571
 30
0.0
 11
31.9999999999999964
 21
88.4444444444444571
 31
0.0
  0
LINE
  5
A3
100
AcDbEntity
  8
pomozne
 62
256
370
-1
 48
1.0
  6
BYLAYER
100
AcDbLine
 10
81.3333333333333428
 20
248.4444444444444571
 30
0.0
 11
81.3333333333333428
 21
88.4444444444444571
 31
0.0
  0
LINE
  5
A4
100
AcDbEntity
  8
pomozne
 62
256
370
-1
 48
1.0
  6
BYLAYER
100
AcDbLine
 10
85.3333333333333428
 20
248.4444444444444571
 30
0.0
 11
85.3333333333333428
 21
88.4444444444444571
 31
0.0
  0
LINE
  5
A5
100
AcDbEntity
  8
pomozne
 62
256
370
-1
 48
1.0
  6
BYLAYER
100
AcDbLine
 10
99.1111111111111143
 20
248.4444444444444571
 30
0.0
 11
99.1111111111111143
 21
88.4444444444444571
 31
0.0
  0
LINE
  5
A6
100
AcDbEntity
  8
pomozne
 62
256
370
-1
 48
1.0
  6
BYLAYER
100
AcDbLine
 10
103.1111111111111143
 20
248.4444444444444571
 30
0.0
 11
103.1111111111111143
 21
88.4444444444444571
 31
0.0
  0
LINE
  5
A7
100
AcDbEntity
  8
pomozne
 62
256
370
-1
 48
1.0
  6
BYLAYER
100
AcDbLine
 10
116.8888888888888857
 20
248.4444444444444571
 30
0.0
 11
116.8888888888888857
 21
88.4444444444444287
 31
0.0
  0
LINE
  5
A8
100
AcDbEntity
  8
pomozne
 62
256
370
-1
 48
1.0
  6
BYLAYER
100
AcDbLine
 10
120.8888888888888857
 20
248.4444444444444571
 30
0.0
 11
120.8888888888888857
 21
88.4444444444444287
 31
0.0
  0
LINE
  5
A9
100
AcDbEntity
  8
pomozne
 62
256
370
-1
 48
1.0
  6
BYLAYER
100
AcDbLine
 10
134.6666666666666856
 20
248.4444444444444571
 30
0.0
 11
134.6666666666666856
 21
88.4444444444444287
 31
0.0
  0
LINE
  5
AA
100
AcDbEntity
  8
pomozne
 62
256
370
-1
 48
1.0
  6
BYLAYER
100
AcDbLine
 10
138.6666666666666856
 20
248.4444444444444571
 30
0.0
 11
138.6666666666666856
 21
88.4444444444444287
 31
0.0
  0
LINE
  5
AB
100
AcDbEntity
  8
pomozne
 62
256
370
-1
 48
1.0
  6
BYLAYER
100
AcDbLine
 10
152.4444444444444571
 20
248.4444444444444002
 30
0.0
 11
152.4444444444444571
 21
88.4444444444444287
 31
0.0
  0
LINE
  5
AC
100
AcDbEntity
  8
pomozne
 62
256
370
-1
 48
1.0
  6
BYLAYER
100
AcDbLine
 10
156.4444444444444571
 20
248.4444444444444002
 30
0.0
 11
156.4444444444444571
 21
88.4444444444444287
 31
0.0
  0
LINE
  5
AD
100
AcDbEntity
  8
pomozne
 62
256
370
-1
 48
1.0
  6
BYLAYER
100
AcDbLine
 10
170.2222222222222285
 20
248.4444444444444002
 30
0.0
 11
170.2222222222222285
 21
88.4444444444444287
 31
0.0
  0
LINE
  5
AE
100
AcDbEntity
  8
pomozne
 62
256
370
-1
 48
1.0
  6
BYLAYER
100
AcDbLine
 10
174.2222222222222285
 20
248.4444444444444002
 30
0.0
 11
174.2222222222222285
 21
88.4444444444444287
 31
0.0
  0
LINE
  5
AF
100
AcDbEntity
  8
pomozne
 62
256
370
-1
 48
1.0
  6
BYLAYER
100
AcDbLine
 10
188.0
 20
88.4444444444444571
 30
0.0
 11
188.0
 21
248.4444444444444571
 31
0.0
  0
LINE
  5
B0
100
AcDbEntity
  8
pomozne
 62
256
370
-1
 48
1.0
  6
BYLAYER
100
AcDbLine
 10
190.0
 20
210.8888888888889142
 30
0.0
 11
29.9999999999999893
 21
210.8888888888889142
 31
0.0
  0
LINE
  5
B1
100
AcDbEntity
  8
pomozne
 62
256
370
-1
 48
1.0
  6
BYLAYER
100
AcDbLine
 10
190.0
 20
197.1111111111111143
 30
0.0
 11
29.9999999999999858
 21
197.1111111111111143
 31
0.0
  0
LINE
  5
B2
100
AcDbEntity
  8
pomozne
 62
256
370
-1
 48
1.0
  6
BYLAYER
100
AcDbLine
 10
190.0
 20
193.1111111111111143
 30
0.0
 11
29.9999999999999858
 21
193.1111111111111143
 31
0.0
  0
LINE
  5
B3
100
AcDbEntity
  8
pomozne
 62
256
370
-1
 48
1.0
  6
BYLAYER
100
AcDbLine
 10
190.0
 20
179.3333333333333428
 30
0.0
 11
29.9999999999999822
 21
179.3333333333333428
 31
0.0
  0
LINE
  5
B4
100
AcDbEntity
  8
pomozne
 62
256
370
-1
 48
1.0
  6
BYLAYER
100
AcDbLine
 10
190.0
 20
175.3333333333333428
 30
0.0
 11
29.9999999999999822
 21
175.3333333333333428
 31
0.0
  0
LINE
  5
B5
100
AcDbEntity
  8
pomozne
 62
256
370
-1
 48
1.0
  6
BYLAYER
100
AcDbLine
 10
189.9999999999999716
 20
161.5555555555555713
 30
0.0
 11
29.9999999999999787
 21
161.5555555555555713
 31
0.0
  0
LINE
  5
B6
100
AcDbEntity
  8
pomozne
 62
256
370
-1
 48
1.0
  6
BYLAYER
100
AcDbLine
 10
189.9999999999999716
 20
157.5555555555555713
 30
0.0
 11
29.9999999999999787
 21
157.5555555555555713
 31
0.0
  0
LINE
  5
B7
100
AcDbEntity
  8
pomozne
 62
256
370
-1
 48
1.0
  6
BYLAYER
100
AcDbLine
 10
189.9999999999999716
 20
143.7777777777777715
 30
0.0
 11
29.9999999999999751
 21
143.7777777777777715
 31
0.0
  0
LINE
  5
B8
100
AcDbEntity
  8
pomozne
 62
256
370
-1
 48
1.0
  6
BYLAYER
100
AcDbLine
 10
189.9999999999999716
 20
139.7777777777777715
 30
0.0
 11
29.9999999999999751
 21
139.7777777777777715
 31
0.0
  0
LINE
  5
B9
100
AcDbEntity
  8
pomozne
 62
256
370
-1
 48
1.0
  6
BYLAYER
100
AcDbLine
 10
189.9999999999999716
 20
126.0
 30
0.0
 11
29.9999999999999751
 21
126.0
 31
0.0
  0
LINE
  5
BA
100
AcDbEntity
  8
pomozne
 62
256
370
-1
 48
1.0
  6
BYLAYER
100
AcDbLine
 10
189.9999999999999716
 20
122.0
 30
0.0
 11
29.9999999999999751
 21
122.0
 31
0.0
  0
LINE
  5
BB
100
AcDbEntity
  8
pomozne
 62
256
370
-1
 48
1.0
  6
BYLAYER
100
AcDbLine
 10
189.9999999999999716
 20
108.2222222222222285
 30
0.0
 11
29.9999999999999716
 21
108.2222222222222285
 31
0.0
  0
LINE
  5
BC
100
AcDbEntity
  8
pomozne
 62
256
370
-1
 48
1.0
  6
BYLAYER
100
AcDbLine
 10
189.9999999999999716
 20
104.2222222222222285
 30
0.0
 11
29.9999999999999716
 21
104.2222222222222285
 31
0.0
  0
LINE
  5
BD
100
AcDbEntity
  8
pomozne
 62
256
370
-1
 48
1.0
  6
BYLAYER
100
AcDbLine
 10
29.9999999999999964
 20
90.4444444444444571
 30
0.0
 11
190.0
 21
90.4444444444444571
 31
0.0
  0
LINE
  5
BE
100
AcDbEntity
  8
pomozne
 62
256
370
-1
 48
1.0
  6
BYLAYER
100
AcDbLine
 10
29.9999999999999964
 20
248.4444444444444571
 30
0.0
 11
30.0
 21
280.0
 31
0.0
  0
LINE
  5
BF
100
AcDbEntity
  8
pomozne
 62
256
370
-1
 48
1.0
  6
BYLAYER
100
AcDbLine
 10
29.9999999999999929
 20
56.8888888888889142
 30
0.0
 11
29.9999999999999964
 21
88.4444444444444571
 31
0.0
  0
LINE
  5
C0
100
AcDbEntity
  8
Dno
 62
256
370
-1
 48
1.0
  6
BYLAYER
100
AcDbLine
 10
30.0
 20
280.0
 30
0.0
 11
190.0
 21
280.0
 31
0.0
  0
LINE
  5
C1
100
AcDbEntity
  8
Dno
 62
256
370
-1
 48
1.0
  6
BYLAYER
100
AcDbLine
 10
29.9999999999999929
 20
56.8888888888889142
 30
0.0
 11
190.0
 21
56.8888888888889142
 31
0.0
  0
LINE
  5
C2
100
AcDbEntity
  8
pomozne
 62
256
370
-1
 48
1.0
  6
BYLAYER
100
AcDbLine
 10
190.0
 20
280.0
 30
0.0
 11
190.0
 21
248.4444444444444571
 31
0.0
  0
LINE
  5
C3
100
AcDbEntity
  8
pomozne
 62
256
370
-1
 48
1.0
  6
BYLAYER
100
AcDbLine
 10
190.0
 20
88.4444444444444571
 30
0.0
 11
190.0
 21
56.8888888888889142
 31
0.0
  0
LINE
  5
C4
100
AcDbEntity
  8
pomozne
 62
256
370
-1
 48
1.0
  6
BYLAYER
100
AcDbLine
 10
45.7777777777777715
 20
88.4444444444444571
 30
0.0
 11
45.7777777777777715
 21
56.8888888888889142
 31
0.0
  0
LINE
  5
C5
100
AcDbEntity
  8
pomozne
 62
256
370
-1
 48
1.0
  6
BYLAYER
100
AcDbLine
 10
45.7777777777777715
 20
280.0
 30
0.0
 11
45.7777777777777715
 21
248.4444444444444571
 31
0.0
  0
LINE
  5
C6
100
AcDbEntity
  8
pomozne
 62
256
370
-1
 48
1.0
  6
BYLAYER
100
AcDbLine
 10
45.7777777777777715
 20
56.8888888888889142
 30
0.0
 11
45.7777777777777715
 21
88.4444444444444571
 31
0.0
  0
LINE
  5
C7
100
AcDbEntity
  8
pomozne
 62
256
370
-1
 48
1.0
  6
BYLAYER
100
AcDbLine
 10
45.7777777777777715
 20
248.4444444444444571
 30
0.0
 11
45.7777777777777715
 21
280.0
 31
0.0
  0
LINE
  5
C8
100
AcDbEntity
  8
pomozne
 62
256
370
-1
 48
1.0
  6
BYLAYER
100
AcDbLine
 10
49.7777777777777715
 20
88.4444444444444571
 30
0.0
 11
49.7777777777777715
 21
56.8888888888889142
 31
0.0
  0
LINE
  5
C9
100
AcDbEntity
  8
pomozne
 62
256
370
-1
 48
1.0
  6
BYLAYER
100
AcDbLine
 10
49.7777777777777715
 20
280.0
 30
0.0
 11
49.7777777777777715
 21
248.4444444444444571
 31
0.0
  0
LINE
  5
CA
100
AcDbEntity
  8
pomozne
 62
256
370
-1
 48
1.0
  6
BYLAYER
100
AcDbLine
 10
63.5555555555555571
 20
88.4444444444444571
 30
0.0
 11
63.5555555555555571
 21
56.8888888888889142
 31
0.0
  0
LINE
  5
CB
100
AcDbEntity
  8
pomozne
 62
256
370
-1
 48
1.0
  6
BYLAYER
100
AcDbLine
 10
63.5555555555555571
 20
280.0
 30
0.0
 11
63.5555555555555571
 21
248.4444444444444571
 31
0.0
  0
LINE
  5
CC
100
AcDbEntity
  8
pomozne
 62
256
370
-1
 48
1.0
  6
BYLAYER
100
AcDbLine
 10
67.5555555555555571
 20
88.4444444444444571
 30
0.0
 11
67.5555555555555571
 21
56.8888888888889142
 31
0.0
  0
LINE
  5
CD
100
AcDbEntity
  8
pomozne
 62
256
370
-1
 48
1.0
  6
BYLAYER
100
AcDbLine
 10
67.5555555555555571
 20
280.0
 30
0.0
 11
67.5555555555555571
 21
248.4444444444444571
 31
0.0
  0
LINE
  5
CE
100
AcDbEntity
  8
pomozne
 62
256
370
-1
 48
1.0
  6
BYLAYER
100
AcDbLine
 10
81.3333333333333428
 20
88.4444444444444571
 30
0.0
 11
81.3333333333333428
 21
56.8888888888889142
 31
0.0
  0
LINE
  5
CF
100
AcDbEntity
  8
pomozne
 62
256
370
-1
 48
1.0
  6
BYLAYER
100
AcDbLine
 10
81.3333333333333428
 20
280.0
 30
0.0
 11
81.3333333333333428
 21
248.4444444444444571
 31
0.0
  0
LINE
  5
D0
100
AcDbEntity
  8
pomozne
 62
256
370
-1
 48
1.0
  6
BYLAYER
100
AcDbLine
 10
85.333333333333357
 20
88.4444444444444571
 30
0.0
 11
85.3333333333333428
 21
56.8888888888889142
 31
0.0
  0
LINE
  5
D1
100
AcDbEntity
  8
pomozne
 62
256
370
-1
 48
1.0
  6
BYLAYER
100
AcDbLine
 10
85.333333333333357
 20
280.0
 30
0.0
 11
85.3333333333333428
 21
248.4444444444444571
 31
0.0
  0
LINE
  5
D2
100
AcDbEntity
  8
pomozne
 62
256
370
-1
 48
1.0
  6
BYLAYER
100
AcDbLine
 10
99.1111111111111143
 20
88.4444444444444571
 30
0.0
 11
99.1111111111110858
 21
56.8888888888889142
 31
0.0
  0
LINE
  5
D3
100
AcDbEntity
  8
pomozne
 62
256
370
-1
 48
1.0
  6
BYLAYER
100
AcDbLine
 10
99.1111111111111143
 20
280.0
 30
0.0
 11
99.1111111111110858
 21
248.4444444444444571
 31
0.0
  0
LINE
  5
D4
100
AcDbEntity
  8
pomozne
 62
256
370
-1
 48
1.0
  6
BYLAYER
100
AcDbLine
 10
103.1111111111111143
 20
88.4444444444444571
 30
0.0
 11
103.1111111111111143
 21
56.8888888888889142
 31
0.0
  0
LINE
  5
D5
100
AcDbEntity
  8
pomozne
 62
256
370
-1
 48
1.0
  6
BYLAYER
100
AcDbLine
 10
103.1111111111111143
 20
280.0
 30
0.0
 11
103.1111111111111143
 21
248.4444444444444571
 31
0.0
  0
LINE
  5
D6
100
AcDbEntity
  8
pomozne
 62
256
370
-1
 48
1.0
  6
BYLAYER
100
AcDbLine
 10
116.8888888888888857
 20
88.4444444444444571
 30
0.0
 11
116.8888888888888857
 21
56.8888888888889142
 31
0.0
  0
LINE
  5
D7
100
AcDbEntity
  8
pomozne
 62
256
370
-1
 48
1.0
  6
BYLAYER
100
AcDbLine
 10
116.8888888888888857
 20
280.0
 30
0.0
 11
116.8888888888888857
 21
248.4444444444444571
 31
0.0
  0
LINE
  5
D8
100
AcDbEntity
  8
pomozne
 62
256
370
-1
 48
1.0
  6
BYLAYER
100
AcDbLine
 10
120.8888888888888857
 20
88.4444444444444571
 30
0.0
 11
120.8888888888888857
 21
56.8888888888889142
 31
0.0
  0
LINE
  5
D9
100
AcDbEntity
  8
pomozne
 62
256
370
-1
 48
1.0
  6
BYLAYER
100
AcDbLine
 10
120.8888888888888857
 20
280.0
 30
0.0
 11
120.8888888888888857
 21
248.4444444444444571
 31
0.0
  0
LINE
  5
DA
100
AcDbEntity
  8
pomozne
 62
256
370
-1
 48
1.0
  6
BYLAYER
100
AcDbLine
 10
134.6666666666666856
 20
88.4444444444444571
 30
0.0
 11
134.6666666666666856
 21
56.8888888888889142
 31
0.0
  0
LINE
  5
DB
100
AcDbEntity
  8
pomozne
 62
256
370
-1
 48
1.0
  6
BYLAYER
100
AcDbLine
 10
134.6666666666666856
 20
280.0
 30
0.0
 11
134.6666666666666856
 21
248.4444444444444571
 31
0.0
  0
LINE
  5
DC
100
AcDbEntity
  8
pomozne
 62
256
370
-1
 48
1.0
  6
BYLAYER
100
AcDbLine
 10
138.6666666666666856
 20
88.4444444444444571
 30
0.0
 11
138.6666666666666856
 21
56.8888888888889142
 31
0.0
  0
LINE
  5
DD
100
AcDbEntity
  8
pomozne
 62
256
370
-1
 48
1.0
  6
BYLAYER
100
AcDbLine
 10
138.6666666666666856
 20
280.0
 30
0.0
 11
138.6666666666666856
 21
248.4444444444444571
 31
0.0
  0
LINE
  5
DE
100
AcDbEntity
  8
pomozne
 62
256
370
-1
 48
1.0
  6
BYLAYER
100
AcDbLine
 10
152.4444444444444571
 20
88.4444444444444429
 30
0.0
 11
152.4444444444444571
 21
56.8888888888889142
 31
0.0
  0
LINE
  5
DF
100
AcDbEntity
  8
pomozne
 62
256
370
-1
 48
1.0
  6
BYLAYER
100
AcDbLine
 10
152.4444444444444571
 20
280.0
 30
0.0
 11
152.4444444444444571
 21
248.4444444444444571
 31
0.0
  0
LINE
  5
E0
100
AcDbEntity
  8
pomozne
 62
256
370
-1
 48
1.0
  6
BYLAYER
100
AcDbLine
 10
156.4444444444444571
 20
88.4444444444444429
 30
0.0
 11
156.4444444444444571
 21
56.8888888888889142
 31
0.0
  0
LINE
  5
E1
100
AcDbEntity
  8
pomozne
 62
256
370
-1
 48
1.0
  6
BYLAYER
100
AcDbLine
 10
156.4444444444444571
 20
280.0
 30
0.0
 11
156.4444444444444571
 21
248.4444444444444571
 31
0.0
  0
LINE
  5
E2
100
AcDbEntity
  8
pomozne
 62
256
370
-1
 48
1.0
  6
BYLAYER
100
AcDbLine
 10
170.2222222222222001
 20
88.4444444444444429
 30
0.0
 11
170.2222222222221717
 21
56.8888888888889142
 31
0.0
  0
LINE
  5
E3
100
AcDbEntity
  8
pomozne
 62
256
370
-1
 48
1.0
  6
BYLAYER
100
AcDbLine
 10
170.2222222222222001
 20
280.0
 30
0.0
 11
170.2222222222221717
 21
248.4444444444444571
 31
0.0
  0
LINE
  5
E4
100
AcDbEntity
  8
pomozne
 62
256
370
-1
 48
1.0
  6
BYLAYER
100
AcDbLine
 10
174.2222222222222285
 20
88.4444444444444429
 30
0.0
 11
174.2222222222222285
 21
56.8888888888889142
 31
0.0
  0
LINE
  5
E5
100
AcDbEntity
  8
pomozne
 62
256
370
-1
 48
1.0
  6
BYLAYER
100
AcDbLine
 10
174.2222222222222285
 20
280.0
 30
0.0
 11
174.2222222222222285
 21
248.4444444444444571
 31
0.0
  0
LINE
  5
E6
100
AcDbEntity
  8
pomozne
 62
256
370
-1
 48
1.0
  6
BYLAYER
100
AcDbLine
 10
188.0
 20
88.4444444444444571
 30
0.0
 11
188.0
 21
56.8888888888889142
 31
0.0
  0
LINE
  5
E7
100
AcDbEntity
  8
pomozne
 62
256
370
-1
 48
1.0
  6
BYLAYER
100
AcDbLine
 10
188.0
 20
280.0
 30
0.0
 11
188.0
 21
248.4444444444444571
 31
0.0
  0
LINE
  5
E8
100
AcDbEntity
  8
pomozne
 62
256
370
-1
 48
1.0
  6
BYLAYER
100
AcDbLine
 10
31.9999999999999964
 20
88.4444444444444571
 30
0.0
 11
31.9999999999999964
 21
56.8888888888889142
 31
0.0
  0
LINE
  5
E9
100
AcDbEntity
  8
pomozne
 62
256
370
-1
 48
1.0
  6
BYLAYER
100
AcDbLine
 10
32.0
 20
280.0
 30
0.0
 11
32.0
 21
248.4444444444444571
 31
0.0
  0
SPLINE
  5
EA
100
AcDbEntity
  8
Dno
 62
256
370
-1
 48
1.0
  6
BYLAYER
100
AcDbSpline
 70
8
 71
3
 72
11
 73
7
 74
0
 40
0.0
 40
0.0
 40
0.0
 40
0.0
 40
1.0
 40
2.0
 40
3.0
 40
4.0
 40
4.0
 40
4.0
 40
4.0
 10
30.0
 20
280.0
 30
0.0
 10
20.0
 20
280.0
 30
0.0
 10
20.0
 20
264.2222222222222285
 30
0.0
 10
29.9999999999999964
 20
168.4444444444444571
 30
0.0
 10
20.0
 20
72.6666666666666856
 30
0.0
 10
20.0
 20
56.8888888888889142
 30
0.0
 10
29.9999999999999929
 20
56.8888888888889142
 30
0.0
  0
SPLINE
  5
EB
100
AcDbEntity
  8
Dno
 62
256
370
-1
 48
1.0
  6
BYLAYER
100
AcDbSpline
 70
8
 71
3
 72
11
 73
7
 74
0
 40
0.0
 40
0.0
 40
0.0
 40
0.0
 40
1.0
 40
2.0
 40
3.0
 40
4.0
 40
4.0
 40
4.0
 40
4.0
 10
190.0
 20
280.0
 30
0.0
 10
200.0
 20
280.0
 30
0.0
 10
200.0
 20
264.2222222222222285
 30
0.0
 10
190.0
 20
168.4444444444444571
 30
0.0
 10
200.0000000000000853
 20
72.6666666666666856
 30
0.0
 10
199.9999999999999716
 20
56.8888888888889142
 30
0.0
 10
190.0
 20
56.8888888888889142
 30
0.0
  0
LINE
  5
EC
100
AcDbEntity
  8
Polje
 62
256
370
-1
 48
1.0
  6
BYLAYER
100
AcDbLine
 10
31.9999999999999964
 20
246.4444444444444571
 30
0.0
 11
45.7777777777777715
 21
246.4444444444444571
 31
0.0
  0
LINE
  5
ED
100
AcDbEntity
  8
Polje
 62
256
370
-1
 48
1.0
  6
BYLAYER
100
AcDbLine
 10
49.7777777777777715
 20
246.4444444444444571
 30
0.0
 11
63.55555555555555
 21
246.4444444444444571
 31
0.0
  0
LINE
  5
EE
100
AcDbEntity
  8
Polje
 62
256
370
-1
 48
1.0
  6
BYLAYER
100
AcDbLine
 10
67.5555555555555571
 20
246.4444444444444571
 30
0.0
 11
81.3333333333333428
 21
246.4444444444444571
 31
0.0
  0
LINE
  5
EF
100
AcDbEntity
  8
Polje
 62
256
370
-1
 48
1.0
  6
BYLAYER
100
AcDbLine
 10
85.333333333333357
 20
246.4444444444444571
 30
0.0
 11
99.1111111111111427
 21
246.4444444444444571
 31
0.0
  0
LINE
  5
F0
100
AcDbEntity
  8
Polje
 62
256
370
-1
 48
1.0
  6
BYLAYER
100
AcDbLine
 10
103.1111111111111143
 20
246.4444444444444571
 30
0.0
 11
116.8888888888888857
 21
246.4444444444444571
 31
0.0
  0
LINE
  5
F1
100
AcDbEntity
  8
Polje
 62
256
370
-1
 48
1.0
  6
BYLAYER
100
AcDbLine
 10
120.8888888888888857
 20
246.4444444444444571
 30
0.0
 11
134.6666666666666572
 21
246.4444444444444571
 31
0.0
  0
LINE
  5
F2
100
AcDbEntity
  8
Polje
 62
256
370
-1
 48
1.0
  6
BYLAYER
100
AcDbLine
 10
138.6666666666666856
 20
246.4444444444444571
 30
0.0
 11
152.4444444444444571
 21
246.4444444444444571
 31
0.0
  0
LINE
  5
F3
100
AcDbEntity
  8
Polje
 62
256
370
-1
 48
1.0
  6
BYLAYER
100
AcDbLine
 10
156.4444444444444571
 20
246.4444444444444287
 30
0.0
 11
170.2222222222222285
 21
246.4444444444444287
 31
0.0
  0
LINE
  5
F4
100
AcDbEntity
  8
Polje
 62
256
370
-1
 48
1.0
  6
BYLAYER
100
AcDbLine
 10
174.2222222222222285
 20
246.4444444444444287
 30
0.0
 11
188.0
 21
246.4444444444444287
 31
0.0
  0
LINE
  5
F5
100
AcDbEntity
  8
Polje
 62
256
370
-1
 48
1.0
  6
BYLAYER
100
AcDbLine
 10
32.0
 20
228.666666666666714
 30
0.0
 11
45.7777777777777715
 21
228.666666666666714
 31
0.0
  0
LINE
  5
F6
100
AcDbEntity
  8
Polje
 62
256
370
-1
 48
1.0
  6
BYLAYER
100
AcDbLine
 10
49.7777777777777715
 20
228.666666666666714
 30
0.0
 11
63.5555555555555571
 21
228.666666666666714
 31
0.0
  0
LINE
  5
F7
100
AcDbEntity
  8
Polje
 62
256
370
-1
 48
1.0
  6
BYLAYER
100
AcDbLine
 10
67.5555555555555571
 20
228.666666666666714
 30
0.0
 11
81.3333333333333428
 21
228.666666666666714
 31
0.0
  0
LINE
  5
F8
100
AcDbEntity
  8
Polje
 62
256
370
-1
 48
1.0
  6
BYLAYER
100
AcDbLine
 10
85.333333333333357
 20
228.666666666666714
 30
0.0
 11
99.1111111111111427
 21
228.666666666666714
 31
0.0
  0
LINE
  5
F9
100
AcDbEntity
  8
Polje
 62
256
370
-1
 48
1.0
  6
BYLAYER
100
AcDbLine
 10
103.1111111111111143
 20
228.666666666666714
 30
0.0
 11
116.8888888888888857
 21
228.666666666666714
 31
0.0
  0
LINE
  5
FA
100
AcDbEntity
  8
Polje
 62
256
370
-1
 48
1.0
  6
BYLAYER
100
AcDbLine
 10
120.8888888888888857
 20
228.666666666666714
 30
0.0
 11
134.6666666666666572
 21
228.666666666666714
 31
0.0
  0
LINE
  5
FB
100
AcDbEntity
  8
Polje
 62
256
370
-1
 48
1.0
  6
BYLAYER
100
AcDbLine
 10
138.6666666666666856
 20
228.666666666666714
 30
0.0
 11
152.4444444444444571
 21
228.666666666666714
 31
0.0
  0
LINE
  5
FC
100
AcDbEntity
  8
Polje
 62
256
370
-1
 48
1.0
  6
BYLAYER
100
AcDbLine
 10
156.4444444444444571
 20
228.6666666666666856
 30
0.0
 11
170.2222222222222285
 21
228.6666666666666856
 31
0.0
  0
LINE
  5
FD
100
AcDbEntity
  8
Polje
 62
256
370
-1
 48
1.0
  6
BYLAYER
100
AcDbLine
 10
174.2222222222222285
 20
228.6666666666666856
 30
0.0
 11
188.0
 21
228.6666666666666856
 31
0.0
  0
LINE
  5
FE
100
AcDbEntity
  8
Polje
 62
256
370
-1
 48
1.0
  6
BYLAYER
100
AcDbLine
 10
32.0
 20
210.8888888888889142
 30
0.0
 11
45.7777777777777715
 21
210.8888888888889142
 31
0.0
  0
LINE
  5
FF
100
AcDbEntity
  8
Polje
 62
256
370
-1
 48
1.0
  6
BYLAYER
100
AcDbLine
 10
49.7777777777777715
 20
210.8888888888889142
 30
0.0
 11
63.5555555555555571
 21
210.8888888888889142
 31
0.0
  0
LINE
  5
100
100
AcDbEntity
  8
Polje
 62
256
370
-1
 48
1.0
  6
BYLAYER
100
AcDbLine
 10
67.5555555555555571
 20
210.8888888888889142
 30
0.0
 11
81.3333333333333428
 21
210.8888888888889142
 31
0.0
  0
LINE
  5
101
100
AcDbEntity
  8
Polje
 62
256
370
-1
 48
1.0
  6
BYLAYER
100
AcDbLine
 10
85.333333333333357
 20
210.8888888888889142
 30
0.0
 11
99.1111111111111427
 21
210.8888888888889142
 31
0.0
  0
LINE
  5
102
100
AcDbEntity
  8
Polje
 62
256
370
-1
 48
1.0
  6
BYLAYER
100
AcDbLine
 10
103.1111111111111143
 20
210.8888888888889142
 30
0.0
 11
116.8888888888888857
 21
210.8888888888889142
 31
0.0
  0
LINE
  5
103
100
AcDbEntity
  8
Polje
 62
256
370
-1
 48
1.0
  6
BYLAYER
100
AcDbLine
 10
120.8888888888888857
 20
210.8888888888889142
 30
0.0
 11
134.6666666666666572
 21
210.8888888888889142
 31
0.0
  0
LINE
  5
104
100
AcDbEntity
  8
Polje
 62
256
370
-1
 48
1.0
  6
BYLAYER
100
AcDbLine
 10
138.6666666666666856
 20
210.8888888888889142
 30
0.0
 11
152.4444444444444571
 21
210.8888888888889142
 31
0.0
  0
LINE
  5
105
100
AcDbEntity
  8
Polje
 62
256
370
-1
 48
1.0
  6
BYLAYER
100
AcDbLine
 10
156.4444444444444571
 20
210.8888888888888857
 30
0.0
 11
170.2222222222222285
 21
210.8888888888888857
 31
0.0
  0
LINE
  5
106
100
AcDbEntity
  8
Polje
 62
256
370
-1
 48
1.0
  6
BYLAYER
100
AcDbLine
 10
174.2222222222222285
 20
210.8888888888888857
 30
0.0
 11
188.0
 21
210.8888888888888857
 31
0.0
  0
LINE
  5
107
100
AcDbEntity
  8
Polje
 62
256
370
-1
 48
1.0
  6
BYLAYER
100
AcDbLine
 10
32.0
 20
193.1111111111110858
 30
0.0
 11
45.7777777777777715
 21
193.1111111111110858
 31
0.0
  0
LINE
  5
108
100
AcDbEntity
  8
Polje
 62
256
370
-1
 48
1.0
  6
BYLAYER
100
AcDbLine
 10
49.7777777777777715
 20
193.1111111111110858
 30
0.0
 11
63.5555555555555571
 21
193.1111111111110858
 31
0.0
  0
LINE
  5
109
100
AcDbEntity
  8
Polje
 62
256
370
-1
 48
1.0
  6
BYLAYER
100
AcDbLine
 10
67.5555555555555571
 20
193.1111111111110858
 30
0.0
 11
81.3333333333333428
 21
193.1111111111110858
 31
0.0
  0
LINE
  5
10A
100
AcDbEntity
  8
Polje
 62
256
370
-1
 48
1.0
  6
BYLAYER
100
AcDbLine
 10
85.333333333333357
 20
193.1111111111110858
 30
0.0
 11
99.1111111111111427
 21
193.1111111111110858
 31
0.0
  0
LINE
  5
10B
100
AcDbEntity
  8
Polje
 62
256
370
-1
 48
1.0
  6
BYLAYER
100
AcDbLine
 10
103.1111111111111143
 20
193.1111111111110858
 30
0.0
 11
116.8888888888888857
 21
193.1111111111110858
 31
0.0
  0
LINE
  5
10C
100
AcDbEntity
  8
Polje
 62
256
370
-1
 48
1.0
  6
BYLAYER
100
AcDbLine
 10
120.8888888888888857
 20
193.1111111111110858
 30
0.0
 11
134.6666666666666572
 21
193.1111111111110858
 31
0.0
  0
LINE
  5
10D
100
AcDbEntity
  8
Polje
 62
256
370
-1
 48
1.0
  6
BYLAYER
100
AcDbLine
 10
138.6666666666666856
 20
193.1111111111110858
 30
0.0
 11
152.4444444444444571
 21
193.1111111111110858
 31
0.0
  0
LINE
  5
10E
100
AcDbEntity
  8
Polje
 62
256
370
-1
 48
1.0
  6
BYLAYER
100
AcDbLine
 10
156.4444444444444571
 20
193.1111111111110574
 30
0.0
 11
170.2222222222222285
 21
193.1111111111110574
 31
0.0
  0
LINE
  5
10F
100
AcDbEntity
  8
Polje
 62
256
370
-1
 48
1.0
  6
BYLAYER
100
AcDbLine
 10
174.2222222222222285
 20
193.1111111111110574
 30
0.0
 11
188.0
 21
193.1111111111110574
 31
0.0
  0
LINE
  5
110
100
AcDbEntity
  8
Polje
 62
256
370
-1
 48
1.0
  6
BYLAYER
100
AcDbLine
 10
32.0
 20
175.3333333333333428
 30
0.0
 11
45.7777777777777715
 21
175.3333333333333428
 31
0.0
  0
LINE
  5
111
100
AcDbEntity
  8
Polje
 62
256
370
-1
 48
1.0
  6
BYLAYER
100
AcDbLine
 10
49.7777777777777715
 20
175.3333333333333428
 30
0.0
 11
63.5555555555555571
 21
175.3333333333333428
 31
0.0
  0
LINE
  5
112
100
AcDbEntity
  8
Polje
 62
256
370
-1
 48
1.0
  6
BYLAYER
100
AcDbLine
 10
67.5555555555555571
 20
175.3333333333333428
 30
0.0
 11
81.3333333333333428
 21
175.3333333333333428
 31
0.0
  0
LINE
  5
113
100
AcDbEntity
  8
Polje
 62
256
370
-1
 48
1.0
  6
BYLAYER
100
AcDbLine
 10
85.333333333333357
 20
175.3333333333333428
 30
0.0
 11
99.1111111111111427
 21
175.3333333333333428
 31
0.0
  0
LINE
  5
114
100
AcDbEntity
  8
Polje
 62
256
370
-1
 48
1.0
  6
BYLAYER
100
AcDbLine
 10
103.1111111111111143
 20
175.3333333333333428
 30
0.0
 11
116.8888888888888857
 21
175.3333333333333428
 31
0.0
  0
LINE
  5
115
100
AcDbEntity
  8
Polje
 62
256
370
-1
 48
1.0
  6
BYLAYER
100
AcDbLine
 10
120.8888888888888857
 20
175.3333333333333428
 30
0.0
 11
134.6666666666666572
 21
175.3333333333333428
 31
0.0
  0
LINE
  5
116
100
AcDbEntity
  8
Polje
 62
256
370
-1
 48
1.0
  6
BYLAYER
100
AcDbLine
 10
138.6666666666666856
 20
175.3333333333333428
 30
0.0
 11
152.4444444444444571
 21
175.3333333333333428
 31
0.0
  0
LINE
  5
117
100
AcDbEntity
  8
Polje
 62
256
370
-1
 48
1.0
  6
BYLAYER
100
AcDbLine
 10
156.4444444444444571
 20
175.3333333333333144
 30
0.0
 11
170.2222222222222285
 21
175.3333333333333144
 31
0.0
  0
LINE
  5
118
100
AcDbEntity
  8
Polje
 62
256
370
-1
 48
1.0
  6
BYLAYER
100
AcDbLine
 10
174.2222222222222285
 20
175.3333333333333144
 30
0.0
 11
188.0
 21
175.3333333333333144
 31
0.0
  0
LINE
  5
119
100
AcDbEntity
  8
Polje
 62
256
370
-1
 48
1.0
  6
BYLAYER
100
AcDbLine
 10
32.0
 20
157.5555555555555713
 30
0.0
 11
45.7777777777777715
 21
157.5555555555555713
 31
0.0
  0
LINE
  5
11A
100
AcDbEntity
  8
Polje
 62
256
370
-1
 48
1.0
  6
BYLAYER
100
AcDbLine
 10
49.7777777777777715
 20
157.5555555555555713
 30
0.0
 11
63.5555555555555571
 21
157.5555555555555713
 31
0.0
  0
LINE
  5
11B
100
AcDbEntity
  8
Polje
 62
256
370
-1
 48
1.0
  6
BYLAYER
100
AcDbLine
 10
67.5555555555555571
 20
157.5555555555555713
 30
0.0
 11
81.3333333333333428
 21
157.5555555555555713
 31
0.0
  0
LINE
  5
11C
100
AcDbEntity
  8
Polje
 62
256
370
-1
 48
1.0
  6
BYLAYER
100
AcDbLine
 10
85.333333333333357
 20
157.5555555555555713
 30
0.0
 11
99.1111111111111427
 21
157.5555555555555713
 31
0.0
  0
LINE
  5
11D
100
AcDbEntity
  8
Polje
 62
256
370
-1
 48
1.0
  6
BYLAYER
100
AcDbLine
 10
103.1111111111111143
 20
157.5555555555555713
 30
0.0
 11
116.8888888888888857
 21
157.5555555555555713
 31
0.0
  0
LINE
  5
11E
100
AcDbEntity
  8
Polje
 62
256
370
-1
 48
1.0
  6
BYLAYER
100
AcDbLine
 10
120.8888888888888857
 20
157.5555555555555713
 30
0.0
 11
134.6666666666666572
 21
157.5555555555555713
 31
0.0
  0
LINE
  5
11F
100
AcDbEntity
  8
Polje
 62
256
370
-1
 48
1.0
  6
BYLAYER
100
AcDbLine
 10
138.6666666666666856
 20
157.5555555555555713
 30
0.0
 11
152.4444444444444571
 21
157.5555555555555713
 31
0.0
  0
LINE
  5
120
100
AcDbEntity
  8
Polje
 62
256
370
-1
 48
1.0
  6
BYLAYER
100
AcDbLine
 10
156.4444444444444571
 20
157.5555555555555429
 30
0.0
 11
170.2222222222222285
 21
157.5555555555555429
 31
0.0
  0
LINE
  5
121
100
AcDbEntity
  8
Polje
 62
256
370
-1
 48
1.0
  6
BYLAYER
100
AcDbLine
 10
174.2222222222222285
 20
157.5555555555555429
 30
0.0
 11
188.0
 21
157.5555555555555429
 31
0.0
  0
LINE
  5
122
100
AcDbEntity
  8
Polje
 62
256
370
-1
 48
1.0
  6
BYLAYER
100
AcDbLine
 10
32.0
 20
139.7777777777777715
 30
0.0
 11
45.7777777777777715
 21
139.7777777777777715
 31
0.0
  0
LINE
  5
123
100
AcDbEntity
  8
Polje
 62
256
370
-1
 48
1.0
  6
BYLAYER
100
AcDbLine
 10
49.7777777777777715
 20
139.7777777777777715
 30
0.0
 11
63.5555555555555571
 21
139.7777777777777715
 31
0.0
  0
LINE
  5
124
100
AcDbEntity
  8
Polje
 62
256
370
-1
 48
1.0
  6
BYLAYER
100
AcDbLine
 10
67.5555555555555571
 20
139.7777777777777715
 30
0.0
 11
81.3333333333333428
 21
139.7777777777777715
 31
0.0
  0
LINE
  5
125
100
AcDbEntity
  8
Polje
 62
256
370
-1
 48
1.0
  6
BYLAYER
100
AcDbLine
 10
85.333333333333357
 20
139.7777777777777715
 30
0.0
 11
99.1111111111111427
 21
139.7777777777777715
 31
0.0
  0
LINE
  5
126
100
AcDbEntity
  8
Polje
 62
256
370
-1
 48
1.0
  6
BYLAYER
100
AcDbLine
 10
103.1111111111111143
 20
139.7777777777777715
 30
0.0
 11
116.8888888888888857
 21
139.7777777777777715
 31
0.0
  0
LINE
  5
127
100
AcDbEntity
  8
Polje
 62
256
370
-1
 48
1.0
  6
BYLAYER
100
AcDbLine
 10
120.8888888888888857
 20
139.7777777777777715
 30
0.0
 11
134.6666666666666572
 21
139.7777777777777715
 31
0.0
  0
LINE
  5
128
100
AcDbEntity
  8
Polje
 62
256
370
-1
 48
1.0
  6
BYLAYER
100
AcDbLine
 10
138.6666666666666856
 20
139.7777777777777715
 30
0.0
 11
152.4444444444444571
 21
139.7777777777777715
 31
0.0
  0
LINE
  5
129
100
AcDbEntity
  8
Polje
 62
256
370
-1
 48
1.0
  6
BYLAYER
100
AcDbLine
 10
156.4444444444444571
 20
139.777777777777743
 30
0.0
 11
170.2222222222222285
 21
139.777777777777743
 31
0.0
  0
LINE
  5
12A
100
AcDbEntity
  8
Polje
 62
256
370
-1
 48
1.0
  6
BYLAYER
100
AcDbLine
 10
174.2222222222222285
 20
139.777777777777743
 30
0.0
 11
188.0
 21
139.777777777777743
 31
0.0
  0
LINE
  5
12B
100
AcDbEntity
  8
Polje
 62
256
370
-1
 48
1.0
  6
BYLAYER
100
AcDbLine
 10
32.0
 20
122.0
 30
0.0
 11
45.7777777777777715
 21
122.0
 31
0.0
  0
LINE
  5
12C
100
AcDbEntity
  8
Polje
 62
256
370
-1
 48
1.0
  6
BYLAYER
100
AcDbLine
 10
49.7777777777777715
 20
122.0
 30
0.0
 11
63.5555555555555571
 21
122.0
 31
0.0
  0
LINE
  5
12D
100
AcDbEntity
  8
Polje
 62
256
370
-1
 48
1.0
  6
BYLAYER
100
AcDbLine
 10
67.5555555555555571
 20
122.0
 30
0.0
 11
81.3333333333333428
 21
122.0
 31
0.0
  0
LINE
  5
12E
100
AcDbEntity
  8
Polje
 62
256
370
-1
 48
1.0
  6
BYLAYER
100
AcDbLine
 10
85.333333333333357
 20
122.0
 30
0.0
 11
99.1111111111111427
 21
122.0
 31
0.0
  0
LINE
  5
12F
100
AcDbEntity
  8
Polje
 62
256
370
-1
 48
1.0
  6
BYLAYER
100
AcDbLine
 10
103.1111111111111143
 20
122.0
 30
0.0
 11
116.8888888888888857
 21
122.0
 31
0.0
  0
LINE
  5
130
100
AcDbEntity
  8
Polje
 62
256
370
-1
 48
1.0
  6
BYLAYER
100
AcDbLine
 10
120.8888888888888857
 20
122.0
 30
0.0
 11
134.6666666666666572
 21
122.0
 31
0.0
  0
LINE
  5
131
100
AcDbEntity
  8
Polje
 62
256
370
-1
 48
1.0
  6
BYLAYER
100
AcDbLine
 10
138.6666666666666856
 20
122.0
 30
0.0
 11
152.4444444444444571
 21
122.0
 31
0.0
  0
LINE
  5
132
100
AcDbEntity
  8
Polje
 62
256
370
-1
 48
1.0
  6
BYLAYER
100
AcDbLine
 10
156.4444444444444571
 20
121.9999999999999716
 30
0.0
 11
170.2222222222222285
 21
121.9999999999999716
 31
0.0
  0
LINE
  5
133
100
AcDbEntity
  8
Polje
 62
256
370
-1
 48
1.0
  6
BYLAYER
100
AcDbLine
 10
174.2222222222222285
 20
121.9999999999999716
 30
0.0
 11
188.0
 21
121.9999999999999716
 31
0.0
  0
LINE
  5
134
100
AcDbEntity
  8
Polje
 62
256
370
-1
 48
1.0
  6
BYLAYER
100
AcDbLine
 10
32.0
 20
104.2222222222222285
 30
0.0
 11
45.7777777777777715
 21
104.2222222222222285
 31
0.0
  0
LINE
  5
135
100
AcDbEntity
  8
Polje
 62
256
370
-1
 48
1.0
  6
BYLAYER
100
AcDbLine
 10
49.7777777777777715
 20
104.2222222222222285
 30
0.0
 11
63.5555555555555571
 21
104.2222222222222285
 31
0.0
  0
LINE
  5
136
100
AcDbEntity
  8
Polje
 62
256
370
-1
 48
1.0
  6
BYLAYER
100
AcDbLine
 10
67.5555555555555571
 20
104.2222222222222285
 30
0.0
 11
81.3333333333333428
 21
104.2222222222222285
 31
0.0
  0
LINE
  5
137
100
AcDbEntity
  8
Polje
 62
256
370
-1
 48
1.0
  6
BYLAYER
100
AcDbLine
 10
85.333333333333357
 20
104.2222222222222285
 30
0.0
 11
99.1111111111111427
 21
104.2222222222222285
 31
0.0
  0
LINE
  5
138
100
AcDbEntity
  8
Polje
 62
256
370
-1
 48
1.0
  6
BYLAYER
100
AcDbLine
 10
103.1111111111111143
 20
104.2222222222222285
 30
0.0
 11
116.8888888888888857
 21
104.2222222222222285
 31
0.0
  0
LINE
  5
139
100
AcDbEntity
  8
Polje
 62
256
370
-1
 48
1.0
  6
BYLAYER
100
AcDbLine
 10
120.8888888888888857
 20
104.2222222222222285
 30
0.0
 11
134.6666666666666572
 21
104.2222222222222285
 31
0.0
  0
LINE
  5
13A
100
AcDbEntity
  8
Polje
 62
256
370
-1
 48
1.0
  6
BYLAYER
100
AcDbLine
 10
138.6666666666666856
 20
104.2222222222222285
 30
0.0
 11
152.4444444444444571
 21
104.2222222222222285
 31
0.0
  0
LINE
  5
13B
100
AcDbEntity
  8
Polje
 62
256
370
-1
 48
1.0
  6
BYLAYER
100
AcDbLine
 10
156.4444444444444571
 20
104.2222222222222001
 30
0.0
 11
170.2222222222222285
 21
104.2222222222222001
 31
0.0
  0
LINE
  5
13C
100
AcDbEntity
  8
Polje
 62
256
370
-1
 48
1.0
  6
BYLAYER
100
AcDbLine
 10
174.2222222222222285
 20
104.2222222222222001
 30
0.0
 11
188.0
 21
104.2222222222222001
 31
0.0
  0
LINE
  5
13D
100
AcDbEntity
  8
Polje
 62
256
370
-1
 48
1.0
  6
BYLAYER
100
AcDbLine
 10
45.7777777777777715
 20
246.4444444444444571
 30
0.0
 11
45.7777777777777715
 21
232.666666666666714
 31
0.0
  0
LINE
  5
13E
100
AcDbEntity
  8
Polje
 62
256
370
-1
 48
1.0
  6
BYLAYER
100
AcDbLine
 10
63.55555555555555
 20
246.4444444444444571
 30
0.0
 11
63.55555555555555
 21
232.666666666666714
 31
0.0
  0
LINE
  5
13F
100
AcDbEntity
  8
Polje
 62
256
370
-1
 48
1.0
  6
BYLAYER
100
AcDbLine
 10
81.3333333333333428
 20
246.4444444444444571
 30
0.0
 11
81.3333333333333428
 21
232.666666666666714
 31
0.0
  0
LINE
  5
140
100
AcDbEntity
  8
Polje
 62
256
370
-1
 48
1.0
  6
BYLAYER
100
AcDbLine
 10
99.1111111111111427
 20
246.4444444444444571
 30
0.0
 11
99.1111111111111427
 21
232.666666666666714
 31
0.0
  0
LINE
  5
141
100
AcDbEntity
  8
Polje
 62
256
370
-1
 48
1.0
  6
BYLAYER
100
AcDbLine
 10
116.8888888888888857
 20
246.4444444444444571
 30
0.0
 11
116.8888888888888857
 21
232.666666666666714
 31
0.0
  0
LINE
  5
142
100
AcDbEntity
  8
Polje
 62
256
370
-1
 48
1.0
  6
BYLAYER
100
AcDbLine
 10
134.6666666666666572
 20
246.4444444444444571
 30
0.0
 11
134.6666666666666572
 21
232.666666666666714
 31
0.0
  0
LINE
  5
143
100
AcDbEntity
  8
Polje
 62
256
370
-1
 48
1.0
  6
BYLAYER
100
AcDbLine
 10
152.4444444444444571
 20
246.4444444444444571
 30
0.0
 11
152.4444444444444571
 21
232.666666666666714
 31
0.0
  0
LINE
  5
144
100
AcDbEntity
  8
Polje
 62
256
370
-1
 48
1.0
  6
BYLAYER
100
AcDbLine
 10
170.2222222222222285
 20
246.4444444444444287
 30
0.0
 11
170.2222222222222285
 21
232.6666666666666856
 31
0.0
  0
LINE
  5
145
100
AcDbEntity
  8
Polje
 62
256
370
-1
 48
1.0
  6
BYLAYER
100
AcDbLine
 10
188.0
 20
246.4444444444444287
 30
0.0
 11
188.0
 21
232.6666666666666856
 31
0.0
  0
LINE
  5
146
100
AcDbEntity
  8
Polje
 62
256
370
-1
 48
1.0
  6
BYLAYER
100
AcDbLine
 10
45.7777777777777715
 20
228.666666666666714
 30
0.0
 11
45.7777777777777715
 21
214.888888888888971
 31
0.0
  0
LINE
  5
147
100
AcDbEntity
  8
Polje
 62
256
370
-1
 48
1.0
  6
BYLAYER
100
AcDbLine
 10
63.5555555555555571
 20
228.666666666666714
 30
0.0
 11
63.5555555555555571
 21
214.888888888888971
 31
0.0
  0
LINE
  5
148
100
AcDbEntity
  8
Polje
 62
256
370
-1
 48
1.0
  6
BYLAYER
100
AcDbLine
 10
81.3333333333333428
 20
228.666666666666714
 30
0.0
 11
81.3333333333333428
 21
214.888888888888971
 31
0.0
  0
LINE
  5
149
100
AcDbEntity
  8
Polje
 62
256
370
-1
 48
1.0
  6
BYLAYER
100
AcDbLine
 10
99.1111111111111427
 20
228.666666666666714
 30
0.0
 11
99.1111111111111427
 21
214.888888888888971
 31
0.0
  0
LINE
  5
14A
100
AcDbEntity
  8
Polje
 62
256
370
-1
 48
1.0
  6
BYLAYER
100
AcDbLine
 10
116.8888888888888857
 20
228.666666666666714
 30
0.0
 11
116.8888888888888857
 21
214.888888888888971
 31
0.0
  0
LINE
  5
14B
100
AcDbEntity
  8
Polje
 62
256
370
-1
 48
1.0
  6
BYLAYER
100
AcDbLine
 10
134.6666666666666572
 20
228.666666666666714
 30
0.0
 11
134.6666666666666572
 21
214.888888888888971
 31
0.0
  0
LINE
  5
14C
100
AcDbEntity
  8
Polje
 62
256
370
-1
 48
1.0
  6
BYLAYER
100
AcDbLine
 10
152.4444444444444571
 20
228.666666666666714
 30
0.0
 11
152.4444444444444571
 21
214.888888888888971
 31
0.0
  0
LINE
  5
14D
100
AcDbEntity
  8
Polje
 62
256
370
-1
 48
1.0
  6
BYLAYER
100
AcDbLine
 10
170.2222222222222285
 20
228.6666666666666856
 30
0.0
 11
170.2222222222222285
 21
214.8888888888889426
 31
0.0
  0
LINE
  5
14E
100
AcDbEntity
  8
Polje
 62
256
370
-1
 48
1.0
  6
BYLAYER
100
AcDbLine
 10
188.0
 20
228.6666666666666856
 30
0.0
 11
188.0
 21
214.8888888888889426
 31
0.0
  0
LINE
  5
14F
100
AcDbEntity
  8
Polje
 62
256
370
-1
 48
1.0
  6
BYLAYER
100
AcDbLine
 10
45.7777777777777715
 20
210.8888888888889142
 30
0.0
 11
45.7777777777777715
 21
197.1111111111111711
 31
0.0
  0
LINE
  5
150
100
AcDbEntity
  8
Polje
 62
256
370
-1
 48
1.0
  6
BYLAYER
100
AcDbLine
 10
63.5555555555555571
 20
210.8888888888889142
 30
0.0
 11
63.5555555555555571
 21
197.1111111111111711
 31
0.0
  0
LINE
  5
151
100
AcDbEntity
  8
Polje
 62
256
370
-1
 48
1.0
  6
BYLAYER
100
AcDbLine
 10
81.3333333333333428
 20
210.8888888888889142
 30
0.0
 11
81.3333333333333428
 21
197.1111111111111711
 31
0.0
  0
LINE
  5
152
100
AcDbEntity
  8
Polje
 62
256
370
-1
 48
1.0
  6
BYLAYER
100
AcDbLine
 10
99.1111111111111427
 20
210.8888888888889142
 30
0.0
 11
99.1111111111111427
 21
197.1111111111111711
 31
0.0
  0
LINE
  5
153
100
AcDbEntity
  8
Polje
 62
256
370
-1
 48
1.0
  6
BYLAYER
100
AcDbLine
 10
116.8888888888888857
 20
210.8888888888889142
 30
0.0
 11
116.8888888888888857
 21
197.1111111111111711
 31
0.0
  0
LINE
  5
154
100
AcDbEntity
  8
Polje
 62
256
370
-1
 48
1.0
  6
BYLAYER
100
AcDbLine
 10
134.6666666666666572
 20
210.8888888888889142
 30
0.0
 11
134.6666666666666572
 21
197.1111111111111711
 31
0.0
  0
LINE
  5
155
100
AcDbEntity
  8
Polje
 62
256
370
-1
 48
1.0
  6
BYLAYER
100
AcDbLine
 10
152.4444444444444571
 20
210.8888888888889142
 30
0.0
 11
152.4444444444444571
 21
197.1111111111111711
 31
0.0
  0
LINE
  5
156
100
AcDbEntity
  8
Polje
 62
256
370
-1
 48
1.0
  6
BYLAYER
100
AcDbLine
 10
170.2222222222222285
 20
210.8888888888888857
 30
0.0
 11
170.2222222222222285
 21
197.1111111111111427
 31
0.0
  0
LINE
  5
157
100
AcDbEntity
  8
Polje
 62
256
370
-1
 48
1.0
  6
BYLAYER
100
AcDbLine
 10
188.0
 20
210.8888888888888857
 30
0.0
 11
188.0
 21
197.1111111111111427
 31
0.0
  0
LINE
  5
158
100
AcDbEntity
  8
Polje
 62
256
370
-1
 48
1.0
  6
BYLAYER
100
AcDbLine
 10
45.7777777777777715
 20
193.1111111111110858
 30
0.0
 11
45.7777777777777715
 21
179.3333333333333428
 31
0.0
  0
LINE
  5
159
100
AcDbEntity
  8
Polje
 62
256
370
-1
 48
1.0
  6
BYLAYER
100
AcDbLine
 10
63.5555555555555571
 20
193.1111111111110858
 30
0.0
 11
63.5555555555555571
 21
179.3333333333333428
 31
0.0
  0
LINE
  5
15A
100
AcDbEntity
  8
Polje
 62
256
370
-1
 48
1.0
  6
BYLAYER
100
AcDbLine
 10
81.3333333333333428
 20
193.1111111111110858
 30
0.0
 11
81.3333333333333428
 21
179.3333333333333428
 31
0.0
  0
LINE
  5
15B
100
AcDbEntity
  8
Polje
 62
256
370
-1
 48
1.0
  6
BYLAYER
100
AcDbLine
 10
99.1111111111111427
 20
193.1111111111110858
 30
0.0
 11
99.1111111111111427
 21
179.3333333333333428
 31
0.0
  0
LINE
  5
15C
100
AcDbEntity
  8
Polje
 62
256
370
-1
 48
1.0
  6
BYLAYER
100
AcDbLine
 10
116.8888888888888857
 20
193.1111111111110858
 30
0.0
 11
116.8888888888888857
 21
179.3333333333333428
 31
0.0
  0
LINE
  5
15D
100
AcDbEntity
  8
Polje
 62
256
370
-1
 48
1.0
  6
BYLAYER
100
AcDbLine
 10
134.6666666666666572
 20
193.1111111111110858
 30
0.0
 11
134.6666666666666572
 21
179.3333333333333428
 31
0.0
  0
LINE
  5
15E
100
AcDbEntity
  8
Polje
 62
256
370
-1
 48
1.0
  6
BYLAYER
100
AcDbLine
 10
152.4444444444444571
 20
193.1111111111110858
 30
0.0
 11
152.4444444444444571
 21
179.3333333333333428
 31
0.0
  0
LINE
  5
15F
100
AcDbEntity
  8
Polje
 62
256
370
-1
 48
1.0
  6
BYLAYER
100
AcDbLine
 10
170.2222222222222285
 20
193.1111111111110574
 30
0.0
 11
170.2222222222222285
 21
179.3333333333333144
 31
0.0
  0
LINE
  5
160
100
AcDbEntity
  8
Polje
 62
256
370
-1
 48
1.0
  6
BYLAYER
100
AcDbLine
 10
188.0
 20
193.1111111111110574
 30
0.0
 11
188.0
 21
179.3333333333333144
 31
0.0
  0
LINE
  5
161
100
AcDbEntity
  8
Polje
 62
256
370
-1
 48
1.0
  6
BYLAYER
100
AcDbLine
 10
45.7777777777777715
 20
175.3333333333333428
 30
0.0
 11
45.7777777777777715
 21
161.5555555555555998
 31
0.0
  0
LINE
  5
162
100
AcDbEntity
  8
Polje
 62
256
370
-1
 48
1.0
  6
BYLAYER
100
AcDbLine
 10
63.5555555555555571
 20
175.3333333333333428
 30
0.0
 11
63.5555555555555571
 21
161.5555555555555998
 31
0.0
  0
LINE
  5
163
100
AcDbEntity
  8
Polje
 62
256
370
-1
 48
1.0
  6
BYLAYER
100
AcDbLine
 10
81.3333333333333428
 20
175.3333333333333428
 30
0.0
 11
81.3333333333333428
 21
161.5555555555555998
 31
0.0
  0
LINE
  5
164
100
AcDbEntity
  8
Polje
 62
256
370
-1
 48
1.0
  6
BYLAYER
100
AcDbLine
 10
99.1111111111111427
 20
175.3333333333333428
 30
0.0
 11
99.1111111111111427
 21
161.5555555555555998
 31
0.0
  0
LINE
  5
165
100
AcDbEntity
  8
Polje
 62
256
370
-1
 48
1.0
  6
BYLAYER
100
AcDbLine
 10
116.8888888888888857
 20
175.3333333333333428
 30
0.0
 11
116.8888888888888857
 21
161.5555555555555998
 31
0.0
  0
LINE
  5
166
100
AcDbEntity
  8
Polje
 62
256
370
-1
 48
1.0
  6
BYLAYER
100
AcDbLine
 10
134.6666666666666572
 20
175.3333333333333428
 30
0.0
 11
134.6666666666666572
 21
161.5555555555555998
 31
0.0
  0
LINE
  5
167
100
AcDbEntity
  8
Polje
 62
256
370
-1
 48
1.0
  6
BYLAYER
100
AcDbLine
 10
152.4444444444444571
 20
175.3333333333333428
 30
0.0
 11
152.4444444444444571
 21
161.5555555555555998
 31
0.0
  0
LINE
  5
168
100
AcDbEntity
  8
Polje
 62
256
370
-1
 48
1.0
  6
BYLAYER
100
AcDbLine
 10
170.2222222222222285
 20
175.3333333333333144
 30
0.0
 11
170.2222222222222285
 21
161.5555555555555713
 31
0.0
  0
LINE
  5
169
100
AcDbEntity
  8
Polje
 62
256
370
-1
 48
1.0
  6
BYLAYER
100
AcDbLine
 10
188.0
 20
175.3333333333333144
 30
0.0
 11
188.0
 21
161.5555555555555713
 31
0.0
  0
LINE
  5
16A
100
AcDbEntity
  8
Polje
 62
256
370
-1
 48
1.0
  6
BYLAYER
100
AcDbLine
 10
45.7777777777777715
 20
157.5555555555555713
 30
0.0
 11
45.7777777777777715
 21
143.7777777777778283
 31
0.0
  0
LINE
  5
16B
100
AcDbEntity
  8
Polje
 62
256
370
-1
 48
1.0
  6
BYLAYER
100
AcDbLine
 10
63.5555555555555571
 20
157.5555555555555713
 30
0.0
 11
63.5555555555555571
 21
143.7777777777778283
 31
0.0
  0
LINE
  5
16C
100
AcDbEntity
  8
Polje
 62
256
370
-1
 48
1.0
  6
BYLAYER
100
AcDbLine
 10
81.3333333333333428
 20
157.5555555555555713
 30
0.0
 11
81.3333333333333428
 21
143.7777777777778283
 31
0.0
  0
LINE
  5
16D
100
AcDbEntity
  8
Polje
 62
256
370
-1
 48
1.0
  6
BYLAYER
100
AcDbLine
 10
99.1111111111111427
 20
157.5555555555555713
 30
0.0
 11
99.1111111111111427
 21
143.7777777777778283
 31
0.0
  0
LINE
  5
16E
100
AcDbEntity
  8
Polje
 62
256
370
-1
 48
1.0
  6
BYLAYER
100
AcDbLine
 10
116.8888888888888857
 20
157.5555555555555713
 30
0.0
 11
116.8888888888888857
 21
143.7777777777778283
 31
0.0
  0
LINE
  5
16F
100
AcDbEntity
  8
Polje
 62
256
370
-1
 48
1.0
  6
BYLAYER
100
AcDbLine
 10
134.6666666666666572
 20
157.5555555555555713
 30
0.0
 11
134.6666666666666572
 21
143.7777777777778283
 31
0.0
  0
LINE
  5
170
100
AcDbEntity
  8
Polje
 62
256
370
-1
 48
1.0
  6
BYLAYER
100
AcDbLine
 10
152.4444444444444571
 20
157.5555555555555713
 30
0.0
 11
152.4444444444444571
 21
143.7777777777778283
 31
0.0
  0
LINE
  5
171
100
AcDbEntity
  8
Polje
 62
256
370
-1
 48
1.0
  6
BYLAYER
100
AcDbLine
 10
170.2222222222222285
 20
157.5555555555555429
 30
0.0
 11
170.2222222222222285
 21
143.7777777777777999
 31
0.0
  0
LINE
  5
172
100
AcDbEntity
  8
Polje
 62
256
370
-1
 48
1.0
  6
BYLAYER
100
AcDbLine
 10
188.0
 20
157.5555555555555429
 30
0.0
 11
188.0
 21
143.7777777777777999
 31
0.0
  0
LINE
  5
173
100
AcDbEntity
  8
Polje
 62
256
370
-1
 48
1.0
  6
BYLAYER
100
AcDbLine
 10
45.7777777777777715
 20
139.7777777777777715
 30
0.0
 11
45.7777777777777715
 21
126.0000000000000284
 31
0.0
  0
LINE
  5
174
100
AcDbEntity
  8
Polje
 62
256
370
-1
 48
1.0
  6
BYLAYER
100
AcDbLine
 10
63.5555555555555571
 20
139.7777777777777715
 30
0.0
 11
63.5555555555555571
 21
126.0000000000000284
 31
0.0
  0
LINE
  5
175
100
AcDbEntity
  8
Polje
 62
256
370
-1
 48
1.0
  6
BYLAYER
100
AcDbLine
 10
81.3333333333333428
 20
139.7777777777777715
 30
0.0
 11
81.3333333333333428
 21
126.0000000000000284
 31
0.0
  0
LINE
  5
176
100
AcDbEntity
  8
Polje
 62
256
370
-1
 48
1.0
  6
BYLAYER
100
AcDbLine
 10
99.1111111111111427
 20
139.7777777777777715
 30
0.0
 11
99.1111111111111427
 21
126.0000000000000284
 31
0.0
  0
LINE
  5
177
100
AcDbEntity
  8
Polje
 62
256
370
-1
 48
1.0
  6
BYLAYER
100
AcDbLine
 10
116.8888888888888857
 20
139.7777777777777715
 30
0.0
 11
116.8888888888888857
 21
126.0000000000000284
 31
0.0
  0
LINE
  5
178
100
AcDbEntity
  8
Polje
 62
256
370
-1
 48
1.0
  6
BYLAYER
100
AcDbLine
 10
134.6666666666666572
 20
139.7777777777777715
 30
0.0
 11
134.6666666666666572
 21
126.0000000000000284
 31
0.0
  0
LINE
  5
179
100
AcDbEntity
  8
Polje
 62
256
370
-1
 48
1.0
  6
BYLAYER
100
AcDbLine
 10
152.4444444444444571
 20
139.7777777777777715
 30
0.0
 11
152.4444444444444571
 21
126.0000000000000284
 31
0.0
  0
LINE
  5
17A
100
AcDbEntity
  8
Polje
 62
256
370
-1
 48
1.0
  6
BYLAYER
100
AcDbLine
 10
170.2222222222222285
 20
139.777777777777743
 30
0.0
 11
170.2222222222222285
 21
126.0
 31
0.0
  0
LINE
  5
17B
100
AcDbEntity
  8
Polje
 62
256
370
-1
 48
1.0
  6
BYLAYER
100
AcDbLine
 10
188.0
 20
139.777777777777743
 30
0.0
 11
188.0
 21
126.0
 31
0.0
  0
LINE
  5
17C
100
AcDbEntity
  8
Polje
 62
256
370
-1
 48
1.0
  6
BYLAYER
100
AcDbLine
 10
45.7777777777777715
 20
122.0
 30
0.0
 11
45.7777777777777715
 21
108.222222222222257
 31
0.0
  0
LINE
  5
17D
100
AcDbEntity
  8
Polje
 62
256
370
-1
 48
1.0
  6
BYLAYER
100
AcDbLine
 10
63.5555555555555571
 20
122.0
 30
0.0
 11
63.5555555555555571
 21
108.222222222222257
 31
0.0
  0
LINE
  5
17E
100
AcDbEntity
  8
Polje
 62
256
370
-1
 48
1.0
  6
BYLAYER
100
AcDbLine
 10
81.3333333333333428
 20
122.0
 30
0.0
 11
81.3333333333333428
 21
108.222222222222257
 31
0.0
  0
LINE
  5
17F
100
AcDbEntity
  8
Polje
 62
256
370
-1
 48
1.0
  6
BYLAYER
100
AcDbLine
 10
99.1111111111111427
 20
122.0
 30
0.0
 11
99.1111111111111427
 21
108.222222222222257
 31
0.0
  0
LINE
  5
180
100
AcDbEntity
  8
Polje
 62
256
370
-1
 48
1.0
  6
BYLAYER
100
AcDbLine
 10
116.8888888888888857
 20
122.0
 30
0.0
 11
116.8888888888888857
 21
108.222222222222257
 31
0.0
  0
LINE
  5
181
100
AcDbEntity
  8
Polje
 62
256
370
-1
 48
1.0
  6
BYLAYER
100
AcDbLine
 10
134.6666666666666572
 20
122.0
 30
0.0
 11
134.6666666666666572
 21
108.222222222222257
 31
0.0
  0
LINE
  5
182
100
AcDbEntity
  8
Polje
 62
256
370
-1
 48
1.0
  6
BYLAYER
100
AcDbLine
 10
152.4444444444444571
 20
122.0
 30
0.0
 11
152.4444444444444571
 21
108.222222222222257
 31
0.0
  0
LINE
  5
183
100
AcDbEntity
  8
Polje
 62
256
370
-1
 48
1.0
  6
BYLAYER
100
AcDbLine
 10
170.2222222222222285
 20
121.9999999999999716
 30
0.0
 11
170.2222222222222285
 21
108.2222222222222285
 31
0.0
  0
LINE
  5
184
100
AcDbEntity
  8
Polje
 62
256
370
-1
 48
1.0
  6
BYLAYER
100
AcDbLine
 10
188.0
 20
121.9999999999999716
 30
0.0
 11
188.0
 21
108.2222222222222285
 31
0.0
  0
LINE
  5
185
100
AcDbEntity
  8
Polje
 62
256
370
-1
 48
1.0
  6
BYLAYER
100
AcDbLine
 10
45.7777777777777715
 20
104.2222222222222285
 30
0.0
 11
45.7777777777777715
 21
90.4444444444444855
 31
0.0
  0
LINE
  5
186
100
AcDbEntity
  8
Polje
 62
256
370
-1
 48
1.0
  6
BYLAYER
100
AcDbLine
 10
63.5555555555555571
 20
104.2222222222222285
 30
0.0
 11
63.5555555555555571
 21
90.4444444444444855
 31
0.0
  0
LINE
  5
187
100
AcDbEntity
  8
Polje
 62
256
370
-1
 48
1.0
  6
BYLAYER
100
AcDbLine
 10
81.3333333333333428
 20
104.2222222222222285
 30
0.0
 11
81.3333333333333428
 21
90.4444444444444855
 31
0.0
  0
LINE
  5
188
100
AcDbEntity
  8
Polje
 62
256
370
-1
 48
1.0
  6
BYLAYER
100
AcDbLine
 10
99.1111111111111427
 20
104.2222222222222285
 30
0.0
 11
99.1111111111111427
 21
90.4444444444444855
 31
0.0
  0
LINE
  5
189
100
AcDbEntity
  8
Polje
 62
256
370
-1
 48
1.0
  6
BYLAYER
100
AcDbLine
 10
116.8888888888888857
 20
104.2222222222222285
 30
0.0
 11
116.8888888888888857
 21
90.4444444444444855
 31
0.0
  0
LINE
  5
18A
100
AcDbEntity
  8
Polje
 62
256
370
-1
 48
1.0
  6
BYLAYER
100
AcDbLine
 10
134.6666666666666572
 20
104.2222222222222285
 30
0.0
 11
134.6666666666666572
 21
90.4444444444444855
 31
0.0
  0
LINE
  5
18B
100
AcDbEntity
  8
Polje
 62
256
370
-1
 48
1.0
  6
BYLAYER
100
AcDbLine
 10
152.4444444444444571
 20
104.2222222222222285
 30
0.0
 11
152.4444444444444571
 21
90.4444444444444855
 31
0.0
  0
LINE
  5
18C
100
AcDbEntity
  8
Polje
 62
256
370
-1
 48
1.0
  6
BYLAYER
100
AcDbLine
 10
170.2222222222222285
 20
104.2222222222222001
 30
0.0
 11
170.2222222222222285
 21
90.4444444444444571
 31
0.0
  0
LINE
  5
18D
100
AcDbEntity
  8
Polje
 62
256
370
-1
 48
1.0
  6
BYLAYER
100
AcDbLine
 10
188.0
 20
104.2222222222222001
 30
0.0
 11
188.0
 21
90.4444444444444571
 31
0.0
  0
LINE
  5
18E
100
AcDbEntity
  8
Polje
 62
256
370
-1
 48
1.0
  6
BYLAYER
100
AcDbLine
 10
45.7777777777777715
 20
232.666666666666714
 30
0.0
 11
31.9999999999999964
 21
232.666666666666714
 31
0.0
  0
LINE
  5
18F
100
AcDbEntity
  8
Polje
 62
256
370
-1
 48
1.0
  6
BYLAYER
100
AcDbLine
 10
63.55555555555555
 20
232.666666666666714
 30
0.0
 11
49.7777777777777715
 21
232.666666666666714
 31
0.0
  0
LINE
  5
190
100
AcDbEntity
  8
Polje
 62
256
370
-1
 48
1.0
  6
BYLAYER
100
AcDbLine
 10
81.3333333333333428
 20
232.666666666666714
 30
0.0
 11
67.5555555555555571
 21
232.666666666666714
 31
0.0
  0
LINE
  5
191
100
AcDbEntity
  8
Polje
 62
256
370
-1
 48
1.0
  6
BYLAYER
100
AcDbLine
 10
99.1111111111111427
 20
232.666666666666714
 30
0.0
 11
85.333333333333357
 21
232.666666666666714
 31
0.0
  0
LINE
  5
192
100
AcDbEntity
  8
Polje
 62
256
370
-1
 48
1.0
  6
BYLAYER
100
AcDbLine
 10
116.8888888888888857
 20
232.666666666666714
 30
0.0
 11
103.1111111111111143
 21
232.666666666666714
 31
0.0
  0
LINE
  5
193
100
AcDbEntity
  8
Polje
 62
256
370
-1
 48
1.0
  6
BYLAYER
100
AcDbLine
 10
134.6666666666666572
 20
232.666666666666714
 30
0.0
 11
120.8888888888888857
 21
232.666666666666714
 31
0.0
  0
LINE
  5
194
100
AcDbEntity
  8
Polje
 62
256
370
-1
 48
1.0
  6
BYLAYER
100
AcDbLine
 10
152.4444444444444571
 20
232.666666666666714
 30
0.0
 11
138.6666666666666856
 21
232.666666666666714
 31
0.0
  0
LINE
  5
195
100
AcDbEntity
  8
Polje
 62
256
370
-1
 48
1.0
  6
BYLAYER
100
AcDbLine
 10
170.2222222222222285
 20
232.6666666666666856
 30
0.0
 11
156.4444444444444571
 21
232.6666666666666856
 31
0.0
  0
LINE
  5
196
100
AcDbEntity
  8
Polje
 62
256
370
-1
 48
1.0
  6
BYLAYER
100
AcDbLine
 10
188.0
 20
232.6666666666666856
 30
0.0
 11
174.2222222222222285
 21
232.6666666666666856
 31
0.0
  0
LINE
  5
197
100
AcDbEntity
  8
Polje
 62
256
370
-1
 48
1.0
  6
BYLAYER
100
AcDbLine
 10
45.7777777777777715
 20
214.888888888888971
 30
0.0
 11
32.0
 21
214.888888888888971
 31
0.0
  0
LINE
  5
198
100
AcDbEntity
  8
Polje
 62
256
370
-1
 48
1.0
  6
BYLAYER
100
AcDbLine
 10
63.5555555555555571
 20
214.888888888888971
 30
0.0
 11
49.7777777777777715
 21
214.888888888888971
 31
0.0
  0
LINE
  5
199
100
AcDbEntity
  8
Polje
 62
256
370
-1
 48
1.0
  6
BYLAYER
100
AcDbLine
 10
81.3333333333333428
 20
214.888888888888971
 30
0.0
 11
67.5555555555555571
 21
214.888888888888971
 31
0.0
  0
LINE
  5
19A
100
AcDbEntity
  8
Polje
 62
256
370
-1
 48
1.0
  6
BYLAYER
100
AcDbLine
 10
99.1111111111111427
 20
214.888888888888971
 30
0.0
 11
85.333333333333357
 21
214.888888888888971
 31
0.0
  0
LINE
  5
19B
100
AcDbEntity
  8
Polje
 62
256
370
-1
 48
1.0
  6
BYLAYER
100
AcDbLine
 10
116.8888888888888857
 20
214.888888888888971
 30
0.0
 11
103.1111111111111143
 21
214.888888888888971
 31
0.0
  0
LINE
  5
19C
100
AcDbEntity
  8
Polje
 62
256
370
-1
 48
1.0
  6
BYLAYER
100
AcDbLine
 10
134.6666666666666572
 20
214.888888888888971
 30
0.0
 11
120.8888888888888857
 21
214.888888888888971
 31
0.0
  0
LINE
  5
19D
100
AcDbEntity
  8
Polje
 62
256
370
-1
 48
1.0
  6
BYLAYER
100
AcDbLine
 10
152.4444444444444571
 20
214.888888888888971
 30
0.0
 11
138.6666666666666856
 21
214.888888888888971
 31
0.0
  0
LINE
  5
19E
100
AcDbEntity
  8
Polje
 62
256
370
-1
 48
1.0
  6
BYLAYER
100
AcDbLine
 10
170.2222222222222285
 20
214.8888888888889426
 30
0.0
 11
156.4444444444444571
 21
214.8888888888889426
 31
0.0
  0
LINE
  5
19F
100
AcDbEntity
  8
Polje
 62
256
370
-1
 48
1.0
  6
BYLAYER
100
AcDbLine
 10
188.0
 20
214.8888888888889426
 30
0.0
 11
174.2222222222222285
 21
214.8888888888889426
 31
0.0
  0
LINE
  5
1A0
100
AcDbEntity
  8
Polje
 62
256
370
-1
 48
1.0
  6
BYLAYER
100
AcDbLine
 10
45.7777777777777715
 20
197.1111111111111711
 30
0.0
 11
32.0
 21
197.1111111111111711
 31
0.0
  0
LINE
  5
1A1
100
AcDbEntity
  8
Polje
 62
256
370
-1
 48
1.0
  6
BYLAYER
100
AcDbLine
 10
63.5555555555555571
 20
197.1111111111111711
 30
0.0
 11
49.7777777777777715
 21
197.1111111111111711
 31
0.0
  0
LINE
  5
1A2
100
AcDbEntity
  8
Polje
 62
256
370
-1
 48
1.0
  6
BYLAYER
100
AcDbLine
 10
81.3333333333333428
 20
197.1111111111111711
 30
0.0
 11
67.5555555555555571
 21
197.1111111111111711
 31
0.0
  0
LINE
  5
1A3
100
AcDbEntity
  8
Polje
 62
256
370
-1
 48
1.0
  6
BYLAYER
100
AcDbLine
 10
99.1111111111111427
 20
197.1111111111111711
 30
0.0
 11
85.333333333333357
 21
197.1111111111111711
 31
0.0
  0
LINE
  5
1A4
100
AcDbEntity
  8
Polje
 62
256
370
-1
 48
1.0
  6
BYLAYER
100
AcDbLine
 10
116.8888888888888857
 20
197.1111111111111711
 30
0.0
 11
103.1111111111111143
 21
197.1111111111111711
 31
0.0
  0
LINE
  5
1A5
100
AcDbEntity
  8
Polje
 62
256
370
-1
 48
1.0
  6
BYLAYER
100
AcDbLine
 10
134.6666666666666572
 20
197.1111111111111711
 30
0.0
 11
120.8888888888888857
 21
197.1111111111111711
 31
0.0
  0
LINE
  5
1A6
100
AcDbEntity
  8
Polje
 62
256
370
-1
 48
1.0
  6
BYLAYER
100
AcDbLine
 10
152.4444444444444571
 20
197.1111111111111711
 30
0.0
 11
138.6666666666666856
 21
197.1111111111111711
 31
0.0
  0
LINE
  5
1A7
100
AcDbEntity
  8
Polje
 62
256
370
-1
 48
1.0
  6
BYLAYER
100
AcDbLine
 10
170.2222222222222285
 20
197.1111111111111427
 30
0.0
 11
156.4444444444444571
 21
197.1111111111111427
 31
0.0
  0
LINE
  5
1A8
100
AcDbEntity
  8
Polje
 62
256
370
-1
 48
1.0
  6
BYLAYER
100
AcDbLine
 10
188.0
 20
197.1111111111111427
 30
0.0
 11
174.2222222222222285
 21
197.1111111111111427
 31
0.0
  0
LINE
  5
1A9
100
AcDbEntity
  8
Polje
 62
256
370
-1
 48
1.0
  6
BYLAYER
100
AcDbLine
 10
45.7777777777777715
 20
179.3333333333333428
 30
0.0
 11
32.0
 21
179.3333333333333428
 31
0.0
  0
LINE
  5
1AA
100
AcDbEntity
  8
Polje
 62
256
370
-1
 48
1.0
  6
BYLAYER
100
AcDbLine
 10
63.5555555555555571
 20
179.3333333333333428
 30
0.0
 11
49.7777777777777715
 21
179.3333333333333428
 31
0.0
  0
LINE
  5
1AB
100
AcDbEntity
  8
Polje
 62
256
370
-1
 48
1.0
  6
BYLAYER
100
AcDbLine
 10
81.3333333333333428
 20
179.3333333333333428
 30
0.0
 11
67.5555555555555571
 21
179.3333333333333428
 31
0.0
  0
LINE
  5
1AC
100
AcDbEntity
  8
Polje
 62
256
370
-1
 48
1.0
  6
BYLAYER
100
AcDbLine
 10
99.1111111111111427
 20
179.3333333333333428
 30
0.0
 11
85.333333333333357
 21
179.3333333333333428
 31
0.0
  0
LINE
  5
1AD
100
AcDbEntity
  8
Polje
 62
256
370
-1
 48
1.0
  6
BYLAYER
100
AcDbLine
 10
116.8888888888888857
 20
179.3333333333333428
 30
0.0
 11
103.1111111111111143
 21
179.3333333333333428
 31
0.0
  0
LINE
  5
1AE
100
AcDbEntity
  8
Polje
 62
256
370
-1
 48
1.0
  6
BYLAYER
100
AcDbLine
 10
134.6666666666666572
 20
179.3333333333333428
 30
0.0
 11
120.8888888888888857
 21
179.3333333333333428
 31
0.0
  0
LINE
  5
1AF
100
AcDbEntity
  8
Polje
 62
256
370
-1
 48
1.0
  6
BYLAYER
100
AcDbLine
 10
152.4444444444444571
 20
179.3333333333333428
 30
0.0
 11
138.6666666666666856
 21
179.3333333333333428
 31
0.0
  0
LINE
  5
1B0
100
AcDbEntity
  8
Polje
 62
256
370
-1
 48
1.0
  6
BYLAYER
100
AcDbLine
 10
170.2222222222222285
 20
179.3333333333333144
 30
0.0
 11
156.4444444444444571
 21
179.3333333333333144
 31
0.0
  0
LINE
  5
1B1
100
AcDbEntity
  8
Polje
 62
256
370
-1
 48
1.0
  6
BYLAYER
100
AcDbLine
 10
188.0
 20
179.3333333333333144
 30
0.0
 11
174.2222222222222285
 21
179.3333333333333144
 31
0.0
  0
LINE
  5
1B2
100
AcDbEntity
  8
Polje
 62
256
370
-1
 48
1.0
  6
BYLAYER
100
AcDbLine
 10
45.7777777777777715
 20
161.5555555555555998
 30
0.0
 11
32.0
 21
161.5555555555555998
 31
0.0
  0
LINE
  5
1B3
100
AcDbEntity
  8
Polje
 62
256
370
-1
 48
1.0
  6
BYLAYER
100
AcDbLine
 10
63.5555555555555571
 20
161.5555555555555998
 30
0.0
 11
49.7777777777777715
 21
161.5555555555555998
 31
0.0
  0
LINE
  5
1B4
100
AcDbEntity
  8
Polje
 62
256
370
-1
 48
1.0
  6
BYLAYER
100
AcDbLine
 10
81.3333333333333428
 20
161.5555555555555998
 30
0.0
 11
67.5555555555555571
 21
161.5555555555555998
 31
0.0
  0
LINE
  5
1B5
100
AcDbEntity
  8
Polje
 62
256
370
-1
 48
1.0
  6
BYLAYER
100
AcDbLine
 10
99.1111111111111427
 20
161.5555555555555998
 30
0.0
 11
85.333333333333357
 21
161.5555555555555998
 31
0.0
  0
LINE
  5
1B6
100
AcDbEntity
  8
Polje
 62
256
370
-1
 48
1.0
  6
BYLAYER
100
AcDbLine
 10
116.8888888888888857
 20
161.5555555555555998
 30
0.0
 11
103.1111111111111143
 21
161.5555555555555998
 31
0.0
  0
LINE
  5
1B7
100
AcDbEntity
  8
Polje
 62
256
370
-1
 48
1.0
  6
BYLAYER
100
AcDbLine
 10
134.6666666666666572
 20
161.5555555555555998
 30
0.0
 11
120.8888888888888857
 21
161.5555555555555998
 31
0.0
  0
LINE
  5
1B8
100
AcDbEntity
  8
Polje
 62
256
370
-1
 48
1.0
  6
BYLAYER
100
AcDbLine
 10
152.4444444444444571
 20
161.5555555555555998
 30
0.0
 11
138.6666666666666856
 21
161.5555555555555998
 31
0.0
  0
LINE
  5
1B9
100
AcDbEntity
  8
Polje
 62
256
370
-1
 48
1.0
  6
BYLAYER
100
AcDbLine
 10
170.2222222222222285
 20
161.5555555555555713
 30
0.0
 11
156.4444444444444571
 21
161.5555555555555713
 31
0.0
  0
LINE
  5
1BA
100
AcDbEntity
  8
Polje
 62
256
370
-1
 48
1.0
  6
BYLAYER
100
AcDbLine
 10
188.0
 20
161.5555555555555713
 30
0.0
 11
174.2222222222222285
 21
161.5555555555555713
 31
0.0
  0
LINE
  5
1BB
100
AcDbEntity
  8
Polje
 62
256
370
-1
 48
1.0
  6
BYLAYER
100
AcDbLine
 10
45.7777777777777715
 20
143.7777777777778283
 30
0.0
 11
32.0
 21
143.7777777777778283
 31
0.0
  0
LINE
  5
1BC
100
AcDbEntity
  8
Polje
 62
256
370
-1
 48
1.0
  6
BYLAYER
100
AcDbLine
 10
63.5555555555555571
 20
143.7777777777778283
 30
0.0
 11
49.7777777777777715
 21
143.7777777777778283
 31
0.0
  0
LINE
  5
1BD
100
AcDbEntity
  8
Polje
 62
256
370
-1
 48
1.0
  6
BYLAYER
100
AcDbLine
 10
81.3333333333333428
 20
143.7777777777778283
 30
0.0
 11
67.5555555555555571
 21
143.7777777777778283
 31
0.0
  0
LINE
  5
1BE
100
AcDbEntity
  8
Polje
 62
256
370
-1
 48
1.0
  6
BYLAYER
100
AcDbLine
 10
99.1111111111111427
 20
143.7777777777778283
 30
0.0
 11
85.333333333333357
 21
143.7777777777778283
 31
0.0
  0
LINE
  5
1BF
100
AcDbEntity
  8
Polje
 62
256
370
-1
 48
1.0
  6
BYLAYER
100
AcDbLine
 10
116.8888888888888857
 20
143.7777777777778283
 30
0.0
 11
103.1111111111111143
 21
143.7777777777778283
 31
0.0
  0
LINE
  5
1C0
100
AcDbEntity
  8
Polje
 62
256
370
-1
 48
1.0
  6
BYLAYER
100
AcDbLine
 10
134.6666666666666572
 20
143.7777777777778283
 30
0.0
 11
120.8888888888888857
 21
143.7777777777778283
 31
0.0
  0
LINE
  5
1C1
100
AcDbEntity
  8
Polje
 62
256
370
-1
 48
1.0
  6
BYLAYER
100
AcDbLine
 10
152.4444444444444571
 20
143.7777777777778283
 30
0.0
 11
138.6666666666666856
 21
143.7777777777778283
 31
0.0
  0
LINE
  5
1C2
100
AcDbEntity
  8
Polje
 62
256
370
-1
 48
1.0
  6
BYLAYER
100
AcDbLine
 10
170.2222222222222285
 20
143.7777777777777999
 30
0.0
 11
156.4444444444444571
 21
143.7777777777777999
 31
0.0
  0
LINE
  5
1C3
100
AcDbEntity
  8
Polje
 62
256
370
-1
 48
1.0
  6
BYLAYER
100
AcDbLine
 10
188.0
 20
143.7777777777777999
 30
0.0
 11
174.2222222222222285
 21
143.7777777777777999
 31
0.0
  0
LINE
  5
1C4
100
AcDbEntity
  8
Polje
 62
256
370
-1
 48
1.0
  6
BYLAYER
100
AcDbLine
 10
45.7777777777777715
 20
126.0000000000000284
 30
0.0
 11
32.0
 21
126.0000000000000284
 31
0.0
  0
LINE
  5
1C5
100
AcDbEntity
  8
Polje
 62
256
370
-1
 48
1.0
  6
BYLAYER
100
AcDbLine
 10
63.5555555555555571
 20
126.0000000000000284
 30
0.0
 11
49.7777777777777715
 21
126.0000000000000284
 31
0.0
  0
LINE
  5
1C6
100
AcDbEntity
  8
Polje
 62
256
370
-1
 48
1.0
  6
BYLAYER
100
AcDbLine
 10
81.3333333333333428
 20
126.0000000000000284
 30
0.0
 11
67.5555555555555571
 21
126.0000000000000284
 31
0.0
  0
LINE
  5
1C7
100
AcDbEntity
  8
Polje
 62
256
370
-1
 48
1.0
  6
BYLAYER
100
AcDbLine
 10
99.1111111111111427
 20
126.0000000000000284
 30
0.0
 11
85.333333333333357
 21
126.0000000000000284
 31
0.0
  0
LINE
  5
1C8
100
AcDbEntity
  8
Polje
 62
256
370
-1
 48
1.0
  6
BYLAYER
100
AcDbLine
 10
116.8888888888888857
 20
126.0000000000000284
 30
0.0
 11
103.1111111111111143
 21
126.0000000000000284
 31
0.0
  0
LINE
  5
1C9
100
AcDbEntity
  8
Polje
 62
256
370
-1
 48
1.0
  6
BYLAYER
100
AcDbLine
 10
134.6666666666666572
 20
126.0000000000000284
 30
0.0
 11
120.8888888888888857
 21
126.0000000000000284
 31
0.0
  0
LINE
  5
1CA
100
AcDbEntity
  8
Polje
 62
256
370
-1
 48
1.0
  6
BYLAYER
100
AcDbLine
 10
152.4444444444444571
 20
126.0000000000000284
 30
0.0
 11
138.6666666666666856
 21
126.0000000000000284
 31
0.0
  0
LINE
  5
1CB
100
AcDbEntity
  8
Polje
 62
256
370
-1
 48
1.0
  6
BYLAYER
100
AcDbLine
 10
170.2222222222222285
 20
126.0
 30
0.0
 11
156.4444444444444571
 21
126.0
 31
0.0
  0
LINE
  5
1CC
100
AcDbEntity
  8
Polje
 62
256
370
-1
 48
1.0
  6
BYLAYER
100
AcDbLine
 10
188.0
 20
126.0
 30
0.0
 11
174.2222222222222285
 21
126.0
 31
0.0
  0
LINE
  5
1CD
100
AcDbEntity
  8
Polje
 62
256
370
-1
 48
1.0
  6
BYLAYER
100
AcDbLine
 10
45.7777777777777715
 20
108.222222222222257
 30
0.0
 11
32.0
 21
108.222222222222257
 31
0.0
  0
LINE
  5
1CE
100
AcDbEntity
  8
Polje
 62
256
370
-1
 48
1.0
  6
BYLAYER
100
AcDbLine
 10
63.5555555555555571
 20
108.222222222222257
 30
0.0
 11
49.7777777777777715
 21
108.222222222222257
 31
0.0
  0
LINE
  5
1CF
100
AcDbEntity
  8
Polje
 62
256
370
-1
 48
1.0
  6
BYLAYER
100
AcDbLine
 10
81.3333333333333428
 20
108.222222222222257
 30
0.0
 11
67.5555555555555571
 21
108.222222222222257
 31
0.0
  0
LINE
  5
1D0
100
AcDbEntity
  8
Polje
 62
256
370
-1
 48
1.0
  6
BYLAYER
100
AcDbLine
 10
99.1111111111111427
 20
108.222222222222257
 30
0.0
 11
85.333333333333357
 21
108.222222222222257
 31
0.0
  0
LINE
  5
1D1
100
AcDbEntity
  8
Polje
 62
256
370
-1
 48
1.0
  6
BYLAYER
100
AcDbLine
 10
116.8888888888888857
 20
108.222222222222257
 30
0.0
 11
103.1111111111111143
 21
108.222222222222257
 31
0.0
  0
LINE
  5
1D2
100
AcDbEntity
  8
Polje
 62
256
370
-1
 48
1.0
  6
BYLAYER
100
AcDbLine
 10
134.6666666666666572
 20
108.222222222222257
 30
0.0
 11
120.8888888888888857
 21
108.222222222222257
 31
0.0
  0
LINE
  5
1D3
100
AcDbEntity
  8
Polje
 62
256
370
-1
 48
1.0
  6
BYLAYER
100
AcDbLine
 10
152.4444444444444571
 20
108.222222222222257
 30
0.0
 11
138.6666666666666856
 21
108.222222222222257
 31
0.0
  0
LINE
  5
1D4
100
AcDbEntity
  8
Polje
 62
256
370
-1
 48
1.0
  6
BYLAYER
100
AcDbLine
 10
170.2222222222222285
 20
108.2222222222222285
 30
0.0
 11
156.4444444444444571
 21
108.2222222222222285
 31
0.0
  0
LINE
  5
1D5
100
AcDbEntity
  8
Polje
 62
256
370
-1
 48
1.0
  6
BYLAYER
100
AcDbLine
 10
188.0
 20
108.2222222222222285
 30
0.0
 11
174.2222222222222285
 21
108.2222222222222285
 31
0.0
  0
LINE
  5
1D6
100
AcDbEntity
  8
Polje
 62
256
370
-1
 48
1.0
  6
BYLAYER
100
AcDbLine
 10
45.7777777777777715
 20
90.4444444444444855
 30
0.0
 11
32.0
 21
90.4444444444444855
 31
0.0
  0
LINE
  5
1D7
100
AcDbEntity
  8
Polje
 62
256
370
-1
 48
1.0
  6
BYLAYER
100
AcDbLine
 10
63.5555555555555571
 20
90.4444444444444855
 30
0.0
 11
49.7777777777777715
 21
90.4444444444444855
 31
0.0
  0
LINE
  5
1D8
100
AcDbEntity
  8
Polje
 62
256
370
-1
 48
1.0
  6
BYLAYER
100
AcDbLine
 10
81.3333333333333428
 20
90.4444444444444855
 30
0.0
 11
67.5555555555555571
 21
90.4444444444444855
 31
0.0
  0
LINE
  5
1D9
100
AcDbEntity
  8
Polje
 62
256
370
-1
 48
1.0
  6
BYLAYER
100
AcDbLine
 10
99.1111111111111427
 20
90.4444444444444855
 30
0.0
 11
85.333333333333357
 21
90.4444444444444855
 31
0.0
  0
LINE
  5
1DA
100
AcDbEntity
  8
Polje
 62
256
370
-1
 48
1.0
  6
BYLAYER
100
AcDbLine
 10
116.8888888888888857
 20
90.4444444444444855
 30
0.0
 11
103.1111111111111143
 21
90.4444444444444855
 31
0.0
  0
LINE
  5
1DB
100
AcDbEntity
  8
Polje
 62
256
370
-1
 48
1.0
  6
BYLAYER
100
AcDbLine
 10
134.6666666666666572
 20
90.4444444444444855
 30
0.0
 11
120.8888888888888857
 21
90.4444444444444855
 31
0.0
  0
LINE
  5
1DC
100
AcDbEntity
  8
Polje
 62
256
370
-1
 48
1.0
  6
BYLAYER
100
AcDbLine
 10
152.4444444444444571
 20
90.4444444444444855
 30
0.0
 11
138.6666666666666856
 21
90.4444444444444855
 31
0.0
  0
LINE
  5
1DD
100
AcDbEntity
  8
Polje
 62
256
370
-1
 48
1.0
  6
BYLAYER
100
AcDbLine
 10
170.2222222222222285
 20
90.4444444444444571
 30
0.0
 11
156.4444444444444571
 21
90.4444444444444571
 31
0.0
  0
LINE
  5
1DE
100
AcDbEntity
  8
Polje
 62
256
370
-1
 48
1.0
  6
BYLAYER
100
AcDbLine
 10
188.0
 20
90.4444444444444571
 30
0.0
 11
174.2222222222222285
 21
90.4444444444444571
 31
0.0
  0
LINE
  5
1DF
100
AcDbEntity
  8
Polje
 62
256
370
-1
 48
1.0
  6
BYLAYER
100
AcDbLine
 10
31.9999999999999964
 20
232.666666666666714
 30
0.0
 11
31.9999999999999964
 21
246.4444444444444571
 31
0.0
  0
LINE
  5
1E0
100
AcDbEntity
  8
Polje
 62
256
370
-1
 48
1.0
  6
BYLAYER
100
AcDbLine
 10
49.7777777777777715
 20
232.666666666666714
 30
0.0
 11
49.7777777777777715
 21
246.4444444444444571
 31
0.0
  0
LINE
  5
1E1
100
AcDbEntity
  8
Polje
 62
256
370
-1
 48
1.0
  6
BYLAYER
100
AcDbLine
 10
67.5555555555555571
 20
232.666666666666714
 30
0.0
 11
67.5555555555555571
 21
246.4444444444444571
 31
0.0
  0
LINE
  5
1E2
100
AcDbEntity
  8
Polje
 62
256
370
-1
 48
1.0
  6
BYLAYER
100
AcDbLine
 10
85.333333333333357
 20
232.666666666666714
 30
0.0
 11
85.333333333333357
 21
246.4444444444444571
 31
0.0
  0
LINE
  5
1E3
100
AcDbEntity
  8
Polje
 62
256
370
-1
 48
1.0
  6
BYLAYER
100
AcDbLine
 10
103.1111111111111143
 20
232.666666666666714
 30
0.0
 11
103.1111111111111143
 21
246.4444444444444571
 31
0.0
  0
LINE
  5
1E4
100
AcDbEntity
  8
Polje
 62
256
370
-1
 48
1.0
  6
BYLAYER
100
AcDbLine
 10
120.8888888888888857
 20
232.666666666666714
 30
0.0
 11
120.8888888888888857
 21
246.4444444444444571
 31
0.0
  0
LINE
  5
1E5
100
AcDbEntity
  8
Polje
 62
256
370
-1
 48
1.0
  6
BYLAYER
100
AcDbLine
 10
138.6666666666666856
 20
232.666666666666714
 30
0.0
 11
138.6666666666666856
 21
246.4444444444444571
 31
0.0
  0
LINE
  5
1E6
100
AcDbEntity
  8
Polje
 62
256
370
-1
 48
1.0
  6
BYLAYER
100
AcDbLine
 10
156.4444444444444571
 20
232.6666666666666856
 30
0.0
 11
156.4444444444444571
 21
246.4444444444444287
 31
0.0
  0
LINE
  5
1E7
100
AcDbEntity
  8
Polje
 62
256
370
-1
 48
1.0
  6
BYLAYER
100
AcDbLine
 10
174.2222222222222285
 20
232.6666666666666856
 30
0.0
 11
174.2222222222222285
 21
246.4444444444444287
 31
0.0
  0
LINE
  5
1E8
100
AcDbEntity
  8
Polje
 62
256
370
-1
 48
1.0
  6
BYLAYER
100
AcDbLine
 10
32.0
 20
214.888888888888971
 30
0.0
 11
32.0
 21
228.666666666666714
 31
0.0
  0
LINE
  5
1E9
100
AcDbEntity
  8
Polje
 62
256
370
-1
 48
1.0
  6
BYLAYER
100
AcDbLine
 10
49.7777777777777715
 20
214.888888888888971
 30
0.0
 11
49.7777777777777715
 21
228.666666666666714
 31
0.0
  0
LINE
  5
1EA
100
AcDbEntity
  8
Polje
 62
256
370
-1
 48
1.0
  6
BYLAYER
100
AcDbLine
 10
67.5555555555555571
 20
214.888888888888971
 30
0.0
 11
67.5555555555555571
 21
228.666666666666714
 31
0.0
  0
LINE
  5
1EB
100
AcDbEntity
  8
Polje
 62
256
370
-1
 48
1.0
  6
BYLAYER
100
AcDbLine
 10
85.333333333333357
 20
214.888888888888971
 30
0.0
 11
85.333333333333357
 21
228.666666666666714
 31
0.0
  0
LINE
  5
1EC
100
AcDbEntity
  8
Polje
 62
256
370
-1
 48
1.0
  6
BYLAYER
100
AcDbLine
 10
103.1111111111111143
 20
214.888888888888971
 30
0.0
 11
103.1111111111111143
 21
228.666666666666714
 31
0.0
  0
LINE
  5
1ED
100
AcDbEntity
  8
Polje
 62
256
370
-1
 48
1.0
  6
BYLAYER
100
AcDbLine
 10
120.8888888888888857
 20
214.888888888888971
 30
0.0
 11
120.8888888888888857
 21
228.666666666666714
 31
0.0
  0
LINE
  5
1EE
100
AcDbEntity
  8
Polje
 62
256
370
-1
 48
1.0
  6
BYLAYER
100
AcDbLine
 10
138.6666666666666856
 20
214.888888888888971
 30
0.0
 11
138.6666666666666856
 21
228.666666666666714
 31
0.0
  0
LINE
  5
1EF
100
AcDbEntity
  8
Polje
 62
256
370
-1
 48
1.0
  6
BYLAYER
100
AcDbLine
 10
156.4444444444444571
 20
214.8888888888889426
 30
0.0
 11
156.4444444444444571
 21
228.6666666666666856
 31
0.0
  0
LINE
  5
1F0
100
AcDbEntity
  8
Polje
 62
256
370
-1
 48
1.0
  6
BYLAYER
100
AcDbLine
 10
174.2222222222222285
 20
214.8888888888889426
 30
0.0
 11
174.2222222222222285
 21
228.6666666666666856
 31
0.0
  0
LINE
  5
1F1
100
AcDbEntity
  8
Polje
 62
256
370
-1
 48
1.0
  6
BYLAYER
100
AcDbLine
 10
32.0
 20
197.1111111111111711
 30
0.0
 11
32.0
 21
210.8888888888889142
 31
0.0
  0
LINE
  5
1F2
100
AcDbEntity
  8
Polje
 62
256
370
-1
 48
1.0
  6
BYLAYER
100
AcDbLine
 10
49.7777777777777715
 20
197.1111111111111711
 30
0.0
 11
49.7777777777777715
 21
210.8888888888889142
 31
0.0
  0
LINE
  5
1F3
100
AcDbEntity
  8
Polje
 62
256
370
-1
 48
1.0
  6
BYLAYER
100
AcDbLine
 10
67.5555555555555571
 20
197.1111111111111711
 30
0.0
 11
67.5555555555555571
 21
210.8888888888889142
 31
0.0
  0
LINE
  5
1F4
100
AcDbEntity
  8
Polje
 62
256
370
-1
 48
1.0
  6
BYLAYER
100
AcDbLine
 10
85.333333333333357
 20
197.1111111111111711
 30
0.0
 11
85.333333333333357
 21
210.8888888888889142
 31
0.0
  0
LINE
  5
1F5
100
AcDbEntity
  8
Polje
 62
256
370
-1
 48
1.0
  6
BYLAYER
100
AcDbLine
 10
103.1111111111111143
 20
197.1111111111111711
 30
0.0
 11
103.1111111111111143
 21
210.8888888888889142
 31
0.0
  0
LINE
  5
1F6
100
AcDbEntity
  8
Polje
 62
256
370
-1
 48
1.0
  6
BYLAYER
100
AcDbLine
 10
120.8888888888888857
 20
197.1111111111111711
 30
0.0
 11
120.8888888888888857
 21
210.8888888888889142
 31
0.0
  0
LINE
  5
1F7
100
AcDbEntity
  8
Polje
 62
256
370
-1
 48
1.0
  6
BYLAYER
100
AcDbLine
 10
138.6666666666666856
 20
197.1111111111111711
 30
0.0
 11
138.6666666666666856
 21
210.8888888888889142
 31
0.0
  0
LINE
  5
1F8
100
AcDbEntity
  8
Polje
 62
256
370
-1
 48
1.0
  6
BYLAYER
100
AcDbLine
 10
156.4444444444444571
 20
197.1111111111111427
 30
0.0
 11
156.4444444444444571
 21
210.8888888888888857
 31
0.0
  0
LINE
  5
1F9
100
AcDbEntity
  8
Polje
 62
256
370
-1
 48
1.0
  6
BYLAYER
100
AcDbLine
 10
174.2222222222222285
 20
197.1111111111111427
 30
0.0
 11
174.2222222222222285
 21
210.8888888888888857
 31
0.0
  0
LINE
  5
1FA
100
AcDbEntity
  8
Polje
 62
256
370
-1
 48
1.0
  6
BYLAYER
100
AcDbLine
 10
32.0
 20
179.3333333333333428
 30
0.0
 11
32.0
 21
193.1111111111110858
 31
0.0
  0
LINE
  5
1FB
100
AcDbEntity
  8
Polje
 62
256
370
-1
 48
1.0
  6
BYLAYER
100
AcDbLine
 10
49.7777777777777715
 20
179.3333333333333428
 30
0.0
 11
49.7777777777777715
 21
193.1111111111110858
 31
0.0
  0
LINE
  5
1FC
100
AcDbEntity
  8
Polje
 62
256
370
-1
 48
1.0
  6
BYLAYER
100
AcDbLine
 10
67.5555555555555571
 20
179.3333333333333428
 30
0.0
 11
67.5555555555555571
 21
193.1111111111110858
 31
0.0
  0
LINE
  5
1FD
100
AcDbEntity
  8
Polje
 62
256
370
-1
 48
1.0
  6
BYLAYER
100
AcDbLine
 10
85.333333333333357
 20
179.3333333333333428
 30
0.0
 11
85.333333333333357
 21
193.1111111111110858
 31
0.0
  0
LINE
  5
1FE
100
AcDbEntity
  8
Polje
 62
256
370
-1
 48
1.0
  6
BYLAYER
100
AcDbLine
 10
103.1111111111111143
 20
179.3333333333333428
 30
0.0
 11
103.1111111111111143
 21
193.1111111111110858
 31
0.0
  0
LINE
  5
1FF
100
AcDbEntity
  8
Polje
 62
256
370
-1
 48
1.0
  6
BYLAYER
100
AcDbLine
 10
120.8888888888888857
 20
179.3333333333333428
 30
0.0
 11
120.8888888888888857
 21
193.1111111111110858
 31
0.0
  0
LINE
  5
200
100
AcDbEntity
  8
Polje
 62
256
370
-1
 48
1.0
  6
BYLAYER
100
AcDbLine
 10
138.6666666666666856
 20
179.3333333333333428
 30
0.0
 11
138.6666666666666856
 21
193.1111111111110858
 31
0.0
  0
LINE
  5
201
100
AcDbEntity
  8
Polje
 62
256
370
-1
 48
1.0
  6
BYLAYER
100
AcDbLine
 10
156.4444444444444571
 20
179.3333333333333144
 30
0.0
 11
156.4444444444444571
 21
193.1111111111110574
 31
0.0
  0
LINE
  5
202
100
AcDbEntity
  8
Polje
 62
256
370
-1
 48
1.0
  6
BYLAYER
100
AcDbLine
 10
174.2222222222222285
 20
179.3333333333333144
 30
0.0
 11
174.2222222222222285
 21
193.1111111111110574
 31
0.0
  0
LINE
  5
203
100
AcDbEntity
  8
Polje
 62
256
370
-1
 48
1.0
  6
BYLAYER
100
AcDbLine
 10
32.0
 20
161.5555555555555998
 30
0.0
 11
32.0
 21
175.3333333333333428
 31
0.0
  0
LINE
  5
204
100
AcDbEntity
  8
Polje
 62
256
370
-1
 48
1.0
  6
BYLAYER
100
AcDbLine
 10
49.7777777777777715
 20
161.5555555555555998
 30
0.0
 11
49.7777777777777715
 21
175.3333333333333428
 31
0.0
  0
LINE
  5
205
100
AcDbEntity
  8
Polje
 62
256
370
-1
 48
1.0
  6
BYLAYER
100
AcDbLine
 10
67.5555555555555571
 20
161.5555555555555998
 30
0.0
 11
67.5555555555555571
 21
175.3333333333333428
 31
0.0
  0
LINE
  5
206
100
AcDbEntity
  8
Polje
 62
256
370
-1
 48
1.0
  6
BYLAYER
100
AcDbLine
 10
85.333333333333357
 20
161.5555555555555998
 30
0.0
 11
85.333333333333357
 21
175.3333333333333428
 31
0.0
  0
LINE
  5
207
100
AcDbEntity
  8
Polje
 62
256
370
-1
 48
1.0
  6
BYLAYER
100
AcDbLine
 10
103.1111111111111143
 20
161.5555555555555998
 30
0.0
 11
103.1111111111111143
 21
175.3333333333333428
 31
0.0
  0
LINE
  5
208
100
AcDbEntity
  8
Polje
 62
256
370
-1
 48
1.0
  6
BYLAYER
100
AcDbLine
 10
120.8888888888888857
 20
161.5555555555555998
 30
0.0
 11
120.8888888888888857
 21
175.3333333333333428
 31
0.0
  0
LINE
  5
209
100
AcDbEntity
  8
Polje
 62
256
370
-1
 48
1.0
  6
BYLAYER
100
AcDbLine
 10
138.6666666666666856
 20
161.5555555555555998
 30
0.0
 11
138.6666666666666856
 21
175.3333333333333428
 31
0.0
  0
LINE
  5
20A
100
AcDbEntity
  8
Polje
 62
256
370
-1
 48
1.0
  6
BYLAYER
100
AcDbLine
 10
156.4444444444444571
 20
161.5555555555555713
 30
0.0
 11
156.4444444444444571
 21
175.3333333333333144
 31
0.0
  0
LINE
  5
20B
100
AcDbEntity
  8
Polje
 62
256
370
-1
 48
1.0
  6
BYLAYER
100
AcDbLine
 10
174.2222222222222285
 20
161.5555555555555713
 30
0.0
 11
174.2222222222222285
 21
175.3333333333333144
 31
0.0
  0
LINE
  5
20C
100
AcDbEntity
  8
Polje
 62
256
370
-1
 48
1.0
  6
BYLAYER
100
AcDbLine
 10
32.0
 20
143.7777777777778283
 30
0.0
 11
32.0
 21
157.5555555555555713
 31
0.0
  0
LINE
  5
20D
100
AcDbEntity
  8
Polje
 62
256
370
-1
 48
1.0
  6
BYLAYER
100
AcDbLine
 10
49.7777777777777715
 20
143.7777777777778283
 30
0.0
 11
49.7777777777777715
 21
157.5555555555555713
 31
0.0
  0
LINE
  5
20E
100
AcDbEntity
  8
Polje
 62
256
370
-1
 48
1.0
  6
BYLAYER
100
AcDbLine
 10
67.5555555555555571
 20
143.7777777777778283
 30
0.0
 11
67.5555555555555571
 21
157.5555555555555713
 31
0.0
  0
LINE
  5
20F
100
AcDbEntity
  8
Polje
 62
256
370
-1
 48
1.0
  6
BYLAYER
100
AcDbLine
 10
85.333333333333357
 20
143.7777777777778283
 30
0.0
 11
85.333333333333357
 21
157.5555555555555713
 31
0.0
  0
LINE
  5
210
100
AcDbEntity
  8
Polje
 62
256
370
-1
 48
1.0
  6
BYLAYER
100
AcDbLine
 10
103.1111111111111143
 20
143.7777777777778283
 30
0.0
 11
103.1111111111111143
 21
157.5555555555555713
 31
0.0
  0
LINE
  5
211
100
AcDbEntity
  8
Polje
 62
256
370
-1
 48
1.0
  6
BYLAYER
100
AcDbLine
 10
120.8888888888888857
 20
143.7777777777778283
 30
0.0
 11
120.8888888888888857
 21
157.5555555555555713
 31
0.0
  0
LINE
  5
212
100
AcDbEntity
  8
Polje
 62
256
370
-1
 48
1.0
  6
BYLAYER
100
AcDbLine
 10
138.6666666666666856
 20
143.7777777777778283
 30
0.0
 11
138.6666666666666856
 21
157.5555555555555713
 31
0.0
  0
LINE
  5
213
100
AcDbEntity
  8
Polje
 62
256
370
-1
 48
1.0
  6
BYLAYER
100
AcDbLine
 10
156.4444444444444571
 20
143.7777777777777999
 30
0.0
 11
156.4444444444444571
 21
157.5555555555555429
 31
0.0
  0
LINE
  5
214
100
AcDbEntity
  8
Polje
 62
256
370
-1
 48
1.0
  6
BYLAYER
100
AcDbLine
 10
174.2222222222222285
 20
143.7777777777777999
 30
0.0
 11
174.2222222222222285
 21
157.5555555555555429
 31
0.0
  0
LINE
  5
215
100
AcDbEntity
  8
Polje
 62
256
370
-1
 48
1.0
  6
BYLAYER
100
AcDbLine
 10
32.0
 20
126.0000000000000284
 30
0.0
 11
32.0
 21
139.7777777777777715
 31
0.0
  0
LINE
  5
216
100
AcDbEntity
  8
Polje
 62
256
370
-1
 48
1.0
  6
BYLAYER
100
AcDbLine
 10
49.7777777777777715
 20
126.0000000000000284
 30
0.0
 11
49.7777777777777715
 21
139.7777777777777715
 31
0.0
  0
LINE
  5
217
100
AcDbEntity
  8
Polje
 62
256
370
-1
 48
1.0
  6
BYLAYER
100
AcDbLine
 10
67.5555555555555571
 20
126.0000000000000284
 30
0.0
 11
67.5555555555555571
 21
139.7777777777777715
 31
0.0
  0
LINE
  5
218
100
AcDbEntity
  8
Polje
 62
256
370
-1
 48
1.0
  6
BYLAYER
100
AcDbLine
 10
85.333333333333357
 20
126.0000000000000284
 30
0.0
 11
85.333333333333357
 21
139.7777777777777715
 31
0.0
  0
LINE
  5
219
100
AcDbEntity
  8
Polje
 62
256
370
-1
 48
1.0
  6
BYLAYER
100
AcDbLine
 10
103.1111111111111143
 20
126.0000000000000284
 30
0.0
 11
103.1111111111111143
 21
139.7777777777777715
 31
0.0
  0
LINE
  5
21A
100
AcDbEntity
  8
Polje
 62
256
370
-1
 48
1.0
  6
BYLAYER
100
AcDbLine
 10
120.8888888888888857
 20
126.0000000000000284
 30
0.0
 11
120.8888888888888857
 21
139.7777777777777715
 31
0.0
  0
LINE
  5
21B
100
AcDbEntity
  8
Polje
 62
256
370
-1
 48
1.0
  6
BYLAYER
100
AcDbLine
 10
138.6666666666666856
 20
126.0000000000000284
 30
0.0
 11
138.6666666666666856
 21
139.7777777777777715
 31
0.0
  0
LINE
  5
21C
100
AcDbEntity
  8
Polje
 62
256
370
-1
 48
1.0
  6
BYLAYER
100
AcDbLine
 10
156.4444444444444571
 20
126.0
 30
0.0
 11
156.4444444444444571
 21
139.777777777777743
 31
0.0
  0
LINE
  5
21D
100
AcDbEntity
  8
Polje
 62
256
370
-1
 48
1.0
  6
BYLAYER
100
AcDbLine
 10
174.2222222222222285
 20
126.0
 30
0.0
 11
174.2222222222222285
 21
139.777777777777743
 31
0.0
  0
LINE
  5
21E
100
AcDbEntity
  8
Polje
 62
256
370
-1
 48
1.0
  6
BYLAYER
100
AcDbLine
 10
32.0
 20
108.222222222222257
 30
0.0
 11
32.0
 21
122.0
 31
0.0
  0
LINE
  5
21F
100
AcDbEntity
  8
Polje
 62
256
370
-1
 48
1.0
  6
BYLAYER
100
AcDbLine
 10
49.7777777777777715
 20
108.222222222222257
 30
0.0
 11
49.7777777777777715
 21
122.0
 31
0.0
  0
LINE
  5
220
100
AcDbEntity
  8
Polje
 62
256
370
-1
 48
1.0
  6
BYLAYER
100
AcDbLine
 10
67.5555555555555571
 20
108.222222222222257
 30
0.0
 11
67.5555555555555571
 21
122.0
 31
0.0
  0
LINE
  5
221
100
AcDbEntity
  8
Polje
 62
256
370
-1
 48
1.0
  6
BYLAYER
100
AcDbLine
 10
85.333333333333357
 20
108.222222222222257
 30
0.0
 11
85.333333333333357
 21
122.0
 31
0.0
  0
LINE
  5
222
100
AcDbEntity
  8
Polje
 62
256
370
-1
 48
1.0
  6
BYLAYER
100
AcDbLine
 10
103.1111111111111143
 20
108.222222222222257
 30
0.0
 11
103.1111111111111143
 21
122.0
 31
0.0
  0
LINE
  5
223
100
AcDbEntity
  8
Polje
 62
256
370
-1
 48
1.0
  6
BYLAYER
100
AcDbLine
 10
120.8888888888888857
 20
108.222222222222257
 30
0.0
 11
120.8888888888888857
 21
122.0
 31
0.0
  0
LINE
  5
224
100
AcDbEntity
  8
Polje
 62
256
370
-1
 48
1.0
  6
BYLAYER
100
AcDbLine
 10
138.6666666666666856
 20
108.222222222222257
 30
0.0
 11
138.6666666666666856
 21
122.0
 31
0.0
  0
LINE
  5
225
100
AcDbEntity
  8
Polje
 62
256
370
-1
 48
1.0
  6
BYLAYER
100
AcDbLine
 10
156.4444444444444571
 20
108.2222222222222285
 30
0.0
 11
156.4444444444444571
 21
121.9999999999999716
 31
0.0
  0
LINE
  5
226
100
AcDbEntity
  8
Polje
 62
256
370
-1
 48
1.0
  6
BYLAYER
100
AcDbLine
 10
174.2222222222222285
 20
108.2222222222222285
 30
0.0
 11
174.2222222222222285
 21
121.9999999999999716
 31
0.0
  0
LINE
  5
227
100
AcDbEntity
  8
Polje
 62
256
370
-1
 48
1.0
  6
BYLAYER
100
AcDbLine
 10
32.0
 20
90.4444444444444855
 30
0.0
 11
32.0
 21
104.2222222222222285
 31
0.0
  0
LINE
  5
228
100
AcDbEntity
  8
Polje
 62
256
370
-1
 48
1.0
  6
BYLAYER
100
AcDbLine
 10
49.7777777777777715
 20
90.4444444444444855
 30
0.0
 11
49.7777777777777715
 21
104.2222222222222285
 31
0.0
  0
LINE
  5
229
100
AcDbEntity
  8
Polje
 62
256
370
-1
 48
1.0
  6
BYLAYER
100
AcDbLine
 10
67.5555555555555571
 20
90.4444444444444855
 30
0.0
 11
67.5555555555555571
 21
104.2222222222222285
 31
0.0
  0
LINE
  5
22A
100
AcDbEntity
  8
Polje
 62
256
370
-1
 48
1.0
  6
BYLAYER
100
AcDbLine
 10
85.333333333333357
 20
90.4444444444444855
 30
0.0
 11
85.333333333333357
 21
104.2222222222222285
 31
0.0
  0
LINE
  5
22B
100
AcDbEntity
  8
Polje
 62
256
370
-1
 48
1.0
  6
BYLAYER
100
AcDbLine
 10
103.1111111111111143
 20
90.4444444444444855
 30
0.0
 11
103.1111111111111143
 21
104.2222222222222285
 31
0.0
  0
LINE
  5
22C
100
AcDbEntity
  8
Polje
 62
256
370
-1
 48
1.0
  6
BYLAYER
100
AcDbLine
 10
120.8888888888888857
 20
90.4444444444444855
 30
0.0
 11
120.8888888888888857
 21
104.2222222222222285
 31
0.0
  0
LINE
  5
22D
100
AcDbEntity
  8
Polje
 62
256
370
-1
 48
1.0
  6
BYLAYER
100
AcDbLine
 10
138.6666666666666856
 20
90.4444444444444855
 30
0.0
 11
138.6666666666666856
 21
104.2222222222222285
 31
0.0
  0
LINE
  5
22E
100
AcDbEntity
  8
Polje
 62
256
370
-1
 48
1.0
  6
BYLAYER
100
AcDbLine
 10
156.4444444444444571
 20
90.4444444444444571
 30
0.0
 11
156.4444444444444571
 21
104.2222222222222001
 31
0.0
  0
LINE
  5
22F
100
AcDbEntity
  8
Polje
 62
256
370
-1
 48
1.0
  6
BYLAYER
100
AcDbLine
 10
174.2222222222222285
 20
90.4444444444444571
 30
0.0
 11
174.2222222222222285
 21
104.2222222222222001
 31
0.0
  0
LINE
  5
230
100
AcDbEntity
  8
Stene
 62
256
370
-1
 48
1.0
  6
BYLAYER
100
AcDbLine
 10
32.0
 20
280.0
 30
0.0
 11
45.7777777777777715
 21
280.0
 31
0.0
  0
LINE
  5
231
100
AcDbEntity
  8
Stene
 62
256
370
-1
 48
1.0
  6
BYLAYER
100
AcDbLine
 10
49.7777777777777786
 20
280.0
 30
0.0
 11
63.55555555555555
 21
280.0
 31
0.0
  0
LINE
  5
232
100
AcDbEntity
  8
Stene
 62
256
370
-1
 48
1.0
  6
BYLAYER
100
AcDbLine
 10
67.5555555555555571
 20
280.0
 30
0.0
 11
81.3333333333333286
 21
280.0
 31
0.0
  0
LINE
  5
233
100
AcDbEntity
  8
Stene
 62
256
370
-1
 48
1.0
  6
BYLAYER
100
AcDbLine
 10
85.333333333333357
 20
280.0
 30
0.0
 11
99.1111111111111285
 21
280.0
 31
0.0
  0
LINE
  5
234
100
AcDbEntity
  8
Stene
 62
256
370
-1
 48
1.0
  6
BYLAYER
100
AcDbLine
 10
103.1111111111111143
 20
280.0
 30
0.0
 11
116.8888888888888857
 21
280.0
 31
0.0
  0
LINE
  5
235
100
AcDbEntity
  8
Stene
 62
256
370
-1
 48
1.0
  6
BYLAYER
100
AcDbLine
 10
120.8888888888888999
 20
280.0
 30
0.0
 11
134.6666666666666856
 21
280.0
 31
0.0
  0
LINE
  5
236
100
AcDbEntity
  8
Stene
 62
256
370
-1
 48
1.0
  6
BYLAYER
100
AcDbLine
 10
138.6666666666666856
 20
280.0
 30
0.0
 11
152.4444444444444571
 21
280.0
 31
0.0
  0
LINE
  5
237
100
AcDbEntity
  8
Stene
 62
256
370
-1
 48
1.0
  6
BYLAYER
100
AcDbLine
 10
156.4444444444444855
 20
280.0
 30
0.0
 11
170.222222222222257
 21
280.0
 31
0.0
  0
LINE
  5
238
100
AcDbEntity
  8
Stene
 62
256
370
-1
 48
1.0
  6
BYLAYER
100
AcDbLine
 10
174.2222222222222285
 20
280.0
 30
0.0
 11
188.0
 21
280.0
 31
0.0
  0
LINE
  5
239
100
AcDbEntity
  8
Stene
 62
256
370
-1
 48
1.0
  6
BYLAYER
100
AcDbLine
 10
31.9999999999999964
 20
88.4444444444444571
 30
0.0
 11
45.7777777777777715
 21
88.4444444444444571
 31
0.0
  0
LINE
  5
23A
100
AcDbEntity
  8
Stene
 62
256
370
-1
 48
1.0
  6
BYLAYER
100
AcDbLine
 10
49.7777777777777715
 20
88.4444444444444571
 30
0.0
 11
63.5555555555555429
 21
88.4444444444444571
 31
0.0
  0
LINE
  5
23B
100
AcDbEntity
  8
Stene
 62
256
370
-1
 48
1.0
  6
BYLAYER
100
AcDbLine
 10
67.5555555555555571
 20
88.4444444444444571
 30
0.0
 11
81.3333333333333286
 21
88.4444444444444571
 31
0.0
  0
LINE
  5
23C
100
AcDbEntity
  8
Stene
 62
256
370
-1
 48
1.0
  6
BYLAYER
100
AcDbLine
 10
85.333333333333357
 20
88.4444444444444571
 30
0.0
 11
99.1111111111111285
 21
88.4444444444444571
 31
0.0
  0
LINE
  5
23D
100
AcDbEntity
  8
Stene
 62
256
370
-1
 48
1.0
  6
BYLAYER
100
AcDbLine
 10
103.1111111111111143
 20
88.4444444444444571
 30
0.0
 11
116.8888888888888857
 21
88.4444444444444571
 31
0.0
  0
LINE
  5
23E
100
AcDbEntity
  8
Stene
 62
256
370
-1
 48
1.0
  6
BYLAYER
100
AcDbLine
 10
120.8888888888888999
 20
88.4444444444444571
 30
0.0
 11
134.6666666666666856
 21
88.4444444444444571
 31
0.0
  0
LINE
  5
23F
100
AcDbEntity
  8
Stene
 62
256
370
-1
 48
1.0
  6
BYLAYER
100
AcDbLine
 10
138.6666666666666856
 20
88.4444444444444571
 30
0.0
 11
152.4444444444444571
 21
88.4444444444444571
 31
0.0
  0
LINE
  5
240
100
AcDbEntity
  8
Stene
 62
256
370
-1
 48
1.0
  6
BYLAYER
100
AcDbLine
 10
156.4444444444444571
 20
88.4444444444444429
 30
0.0
 11
170.2222222222222285
 21
88.4444444444444429
 31
0.0
  0
LINE
  5
241
100
AcDbEntity
  8
Stene
 62
256
370
-1
 48
1.0
  6
BYLAYER
100
AcDbLine
 10
174.2222222222222285
 20
88.4444444444444429
 30
0.0
 11
188.0
 21
88.4444444444444429
 31
0.0
  0
LINE
  5
242
100
AcDbEntity
  8
Stene
 62
256
370
-1
 48
1.0
  6
BYLAYER
100
AcDbLine
 10
45.7777777777777715
 20
280.0
 30
0.0
 11
45.7777777777777715
 21
248.4444444444444287
 31
0.0
  0
LINE
  5
243
100
AcDbEntity
  8
Stene
 62
256
370
-1
 48
1.0
  6
BYLAYER
100
AcDbLine
 10
63.55555555555555
 20
280.0
 30
0.0
 11
63.55555555555555
 21
248.4444444444444287
 31
0.0
  0
LINE
  5
244
100
AcDbEntity
  8
Stene
 62
256
370
-1
 48
1.0
  6
BYLAYER
100
AcDbLine
 10
81.3333333333333286
 20
280.0
 30
0.0
 11
81.3333333333333286
 21
248.4444444444444287
 31
0.0
  0
LINE
  5
245
100
AcDbEntity
  8
Stene
 62
256
370
-1
 48
1.0
  6
BYLAYER
100
AcDbLine
 10
99.1111111111111285
 20
280.0
 30
0.0
 11
99.1111111111111285
 21
248.4444444444444287
 31
0.0
  0
LINE
  5
246
100
AcDbEntity
  8
Stene
 62
256
370
-1
 48
1.0
  6
BYLAYER
100
AcDbLine
 10
116.8888888888888857
 20
280.0
 30
0.0
 11
116.8888888888888857
 21
248.4444444444444287
 31
0.0
  0
LINE
  5
247
100
AcDbEntity
  8
Stene
 62
256
370
-1
 48
1.0
  6
BYLAYER
100
AcDbLine
 10
134.6666666666666856
 20
280.0
 30
0.0
 11
134.6666666666666856
 21
248.4444444444444287
 31
0.0
  0
LINE
  5
248
100
AcDbEntity
  8
Stene
 62
256
370
-1
 48
1.0
  6
BYLAYER
100
AcDbLine
 10
152.4444444444444571
 20
280.0
 30
0.0
 11
152.4444444444444571
 21
248.4444444444444287
 31
0.0
  0
LINE
  5
249
100
AcDbEntity
  8
Stene
 62
256
370
-1
 48
1.0
  6
BYLAYER
100
AcDbLine
 10
170.222222222222257
 20
280.0
 30
0.0
 11
170.222222222222257
 21
248.4444444444444287
 31
0.0
  0
LINE
  5
24A
100
AcDbEntity
  8
Stene
 62
256
370
-1
 48
1.0
  6
BYLAYER
100
AcDbLine
 10
188.0
 20
280.0
 30
0.0
 11
188.0
 21
248.4444444444444287
 31
0.0
  0
LINE
  5
24B
100
AcDbEntity
  8
Stene
 62
256
370
-1
 48
1.0
  6
BYLAYER
100
AcDbLine
 10
45.7777777777777715
 20
88.4444444444444571
 30
0.0
 11
45.7777777777777715
 21
56.8888888888888857
 31
0.0
  0
LINE
  5
24C
100
AcDbEntity
  8
Stene
 62
256
370
-1
 48
1.0
  6
BYLAYER
100
AcDbLine
 10
63.5555555555555429
 20
88.4444444444444571
 30
0.0
 11
63.5555555555555429
 21
56.8888888888888857
 31
0.0
  0
LINE
  5
24D
100
AcDbEntity
  8
Stene
 62
256
370
-1
 48
1.0
  6
BYLAYER
100
AcDbLine
 10
81.3333333333333286
 20
88.4444444444444571
 30
0.0
 11
81.3333333333333286
 21
56.8888888888888857
 31
0.0
  0
LINE
  5
24E
100
AcDbEntity
  8
Stene
 62
256
370
-1
 48
1.0
  6
BYLAYER
100
AcDbLine
 10
99.1111111111111285
 20
88.4444444444444571
 30
0.0
 11
99.1111111111111285
 21
56.8888888888888857
 31
0.0
  0
LINE
  5
24F
100
AcDbEntity
  8
Stene
 62
256
370
-1
 48
1.0
  6
BYLAYER
100
AcDbLine
 10
116.8888888888888857
 20
88.4444444444444571
 30
0.0
 11
116.8888888888888857
 21
56.8888888888888857
 31
0.0
  0
LINE
  5
250
100
AcDbEntity
  8
Stene
 62
256
370
-1
 48
1.0
  6
BYLAYER
100
AcDbLine
 10
134.6666666666666856
 20
88.4444444444444571
 30
0.0
 11
134.6666666666666856
 21
56.8888888888888857
 31
0.0
  0
LINE
  5
251
100
AcDbEntity
  8
Stene
 62
256
370
-1
 48
1.0
  6
BYLAYER
100
AcDbLine
 10
152.4444444444444571
 20
88.4444444444444571
 30
0.0
 11
152.4444444444444571
 21
56.8888888888888857
 31
0.0
  0
LINE
  5
252
100
AcDbEntity
  8
Stene
 62
256
370
-1
 48
1.0
  6
BYLAYER
100
AcDbLine
 10
170.2222222222222285
 20
88.4444444444444429
 30
0.0
 11
170.2222222222222285
 21
56.8888888888888715
 31
0.0
  0
LINE
  5
253
100
AcDbEntity
  8
Stene
 62
256
370
-1
 48
1.0
  6
BYLAYER
100
AcDbLine
 10
188.0
 20
88.4444444444444429
 30
0.0
 11
188.0
 21
56.8888888888888715
 31
0.0
  0
LINE
  5
254
100
AcDbEntity
  8
Stene
 62
256
370
-1
 48
1.0
  6
BYLAYER
100
AcDbLine
 10
45.7777777777777715
 20
248.4444444444444287
 30
0.0
 11
32.0
 21
248.4444444444444287
 31
0.0
  0
LINE
  5
255
100
AcDbEntity
  8
Stene
 62
256
370
-1
 48
1.0
  6
BYLAYER
100
AcDbLine
 10
63.55555555555555
 20
248.4444444444444287
 30
0.0
 11
49.7777777777777786
 21
248.4444444444444287
 31
0.0
  0
LINE
  5
256
100
AcDbEntity
  8
Stene
 62
256
370
-1
 48
1.0
  6
BYLAYER
100
AcDbLine
 10
81.3333333333333286
 20
248.4444444444444287
 30
0.0
 11
67.5555555555555571
 21
248.4444444444444287
 31
0.0
  0
LINE
  5
257
100
AcDbEntity
  8
Stene
 62
256
370
-1
 48
1.0
  6
BYLAYER
100
AcDbLine
 10
99.1111111111111285
 20
248.4444444444444287
 30
0.0
 11
85.333333333333357
 21
248.4444444444444287
 31
0.0
  0
LINE
  5
258
100
AcDbEntity
  8
Stene
 62
256
370
-1
 48
1.0
  6
BYLAYER
100
AcDbLine
 10
116.8888888888888857
 20
248.4444444444444287
 30
0.0
 11
103.1111111111111143
 21
248.4444444444444287
 31
0.0
  0
LINE
  5
259
100
AcDbEntity
  8
Stene
 62
256
370
-1
 48
1.0
  6
BYLAYER
100
AcDbLine
 10
134.6666666666666856
 20
248.4444444444444287
 30
0.0
 11
120.8888888888888999
 21
248.4444444444444287
 31
0.0
  0
LINE
  5
25A
100
AcDbEntity
  8
Stene
 62
256
370
-1
 48
1.0
  6
BYLAYER
100
AcDbLine
 10
152.4444444444444571
 20
248.4444444444444287
 30
0.0
 11
138.6666666666666856
 21
248.4444444444444287
 31
0.0
  0
LINE
  5
25B
100
AcDbEntity
  8
Stene
 62
256
370
-1
 48
1.0
  6
BYLAYER
100
AcDbLine
 10
170.222222222222257
 20
248.4444444444444287
 30
0.0
 11
156.4444444444444855
 21
248.4444444444444287
 31
0.0
  0
LINE
  5
25C
100
AcDbEntity
  8
Stene
 62
256
370
-1
 48
1.0
  6
BYLAYER
100
AcDbLine
 10
188.0
 20
248.4444444444444287
 30
0.0
 11
174.2222222222222285
 21
248.4444444444444287
 31
0.0
  0
LINE
  5
25D
100
AcDbEntity
  8
Stene
 62
256
370
-1
 48
1.0
  6
BYLAYER
100
AcDbLine
 10
45.7777777777777715
 20
56.8888888888888857
 30
0.0
 11
31.9999999999999964
 21
56.8888888888888857
 31
0.0
  0
LINE
  5
25E
100
AcDbEntity
  8
Stene
 62
256
370
-1
 48
1.0
  6
BYLAYER
100
AcDbLine
 10
63.5555555555555429
 20
56.8888888888888857
 30
0.0
 11
49.7777777777777715
 21
56.8888888888888857
 31
0.0
  0
LINE
  5
25F
100
AcDbEntity
  8
Stene
 62
256
370
-1
 48
1.0
  6
BYLAYER
100
AcDbLine
 10
81.3333333333333286
 20
56.8888888888888857
 30
0.0
 11
67.5555555555555571
 21
56.8888888888888857
 31
0.0
  0
LINE
  5
260
100
AcDbEntity
  8
Stene
 62
256
370
-1
 48
1.0
  6
BYLAYER
100
AcDbLine
 10
99.1111111111111285
 20
56.8888888888888857
 30
0.0
 11
85.333333333333357
 21
56.8888888888888857
 31
0.0
  0
LINE
  5
261
100
AcDbEntity
  8
Stene
 62
256
370
-1
 48
1.0
  6
BYLAYER
100
AcDbLine
 10
116.8888888888888857
 20
56.8888888888888857
 30
0.0
 11
103.1111111111111143
 21
56.8888888888888857
 31
0.0
  0
LINE
  5
262
100
AcDbEntity
  8
Stene
 62
256
370
-1
 48
1.0
  6
BYLAYER
100
AcDbLine
 10
134.6666666666666856
 20
56.8888888888888857
 30
0.0
 11
120.8888888888888999
 21
56.8888888888888857
 31
0.0
  0
LINE
  5
263
100
AcDbEntity
  8
Stene
 62
256
370
-1
 48
1.0
  6
BYLAYER
100
AcDbLine
 10
152.4444444444444571
 20
56.8888888888888857
 30
0.0
 11
138.6666666666666856
 21
56.8888888888888857
 31
0.0
  0
LINE
  5
264
100
AcDbEntity
  8
Stene
 62
256
370
-1
 48
1.0
  6
BYLAYER
100
AcDbLine
 10
170.2222222222222285
 20
56.8888888888888715
 30
0.0
 11
156.4444444444444571
 21
56.8888888888888715
 31
0.0
  0
LINE
  5
265
100
AcDbEntity
  8
Stene
 62
256
370
-1
 48
1.0
  6
BYLAYER
100
AcDbLine
 10
188.0
 20
56.8888888888888715
 30
0.0
 11
174.2222222222222285
 21
56.8888888888888715
 31
0.0
  0
LINE
  5
266
100
AcDbEntity
  8
Stene
 62
256
370
-1
 48
1.0
  6
BYLAYER
100
AcDbLine
 10
32.0
 20
248.4444444444444287
 30
0.0
 11
32.0
 21
280.0
 31
0.0
  0
LINE
  5
267
100
AcDbEntity
  8
Stene
 62
256
370
-1
 48
1.0
  6
BYLAYER
100
AcDbLine
 10
49.7777777777777786
 20
248.4444444444444287
 30
0.0
 11
49.7777777777777786
 21
280.0
 31
0.0
  0
LINE
  5
268
100
AcDbEntity
  8
Stene
 62
256
370
-1
 48
1.0
  6
BYLAYER
100
AcDbLine
 10
67.5555555555555571
 20
248.4444444444444287
 30
0.0
 11
67.5555555555555571
 21
280.0
 31
0.0
  0
LINE
  5
269
100
AcDbEntity
  8
Stene
 62
256
370
-1
 48
1.0
  6
BYLAYER
100
AcDbLine
 10
85.333333333333357
 20
248.4444444444444287
 30
0.0
 11
85.333333333333357
 21
280.0
 31
0.0
  0
LINE
  5
26A
100
AcDbEntity
  8
Stene
 62
256
370
-1
 48
1.0
  6
BYLAYER
100
AcDbLine
 10
103.1111111111111143
 20
248.4444444444444287
 30
0.0
 11
103.1111111111111143
 21
280.0
 31
0.0
  0
LINE
  5
26B
100
AcDbEntity
  8
Stene
 62
256
370
-1
 48
1.0
  6
BYLAYER
100
AcDbLine
 10
120.8888888888888999
 20
248.4444444444444287
 30
0.0
 11
120.8888888888888999
 21
280.0
 31
0.0
  0
LINE
  5
26C
100
AcDbEntity
  8
Stene
 62
256
370
-1
 48
1.0
  6
BYLAYER
100
AcDbLine
 10
138.6666666666666856
 20
248.4444444444444287
 30
0.0
 11
138.6666666666666856
 21
280.0
 31
0.0
  0
LINE
  5
26D
100
AcDbEntity
  8
Stene
 62
256
370
-1
 48
1.0
  6
BYLAYER
100
AcDbLine
 10
156.4444444444444855
 20
248.4444444444444287
 30
0.0
 11
156.4444444444444855
 21
280.0
 31
0.0
  0
LINE
  5
26E
100
AcDbEntity
  8
Stene
 62
256
370
-1
 48
1.0
  6
BYLAYER
100
AcDbLine
 10
174.2222222222222285
 20
248.4444444444444287
 30
0.0
 11
174.2222222222222285
 21
280.0
 31
0.0
  0
LINE
  5
26F
100
AcDbEntity
  8
Stene
 62
256
370
-1
 48
1.0
  6
BYLAYER
100
AcDbLine
 10
31.9999999999999964
 20
56.8888888888888857
 30
0.0
 11
31.9999999999999964
 21
88.4444444444444571
 31
0.0
  0
LINE
  5
270
100
AcDbEntity
  8
Stene
 62
256
370
-1
 48
1.0
  6
BYLAYER
100
AcDbLine
 10
49.7777777777777715
 20
56.8888888888888857
 30
0.0
 11
49.7777777777777715
 21
88.4444444444444571
 31
0.0
  0
LINE
  5
271
100
AcDbEntity
  8
Stene
 62
256
370
-1
 48
1.0
  6
BYLAYER
100
AcDbLine
 10
67.5555555555555571
 20
56.8888888888888857
 30
0.0
 11
67.5555555555555571
 21
88.4444444444444571
 31
0.0
  0
LINE
  5
272
100
AcDbEntity
  8
Stene
 62
256
370
-1
 48
1.0
  6
BYLAYER
100
AcDbLine
 10
85.333333333333357
 20
56.8888888888888857
 30
0.0
 11
85.333333333333357
 21
88.4444444444444571
 31
0.0
  0
LINE
  5
273
100
AcDbEntity
  8
Stene
 62
256
370
-1
 48
1.0
  6
BYLAYER
100
AcDbLine
 10
103.1111111111111143
 20
56.8888888888888857
 30
0.0
 11
103.1111111111111143
 21
88.4444444444444571
 31
0.0
  0
LINE
  5
274
100
AcDbEntity
  8
Stene
 62
256
370
-1
 48
1.0
  6
BYLAYER
100
AcDbLine
 10
120.8888888888888999
 20
56.8888888888888857
 30
0.0
 11
120.8888888888888999
 21
88.4444444444444571
 31
0.0
  0
LINE
  5
275
100
AcDbEntity
  8
Stene
 62
256
370
-1
 48
1.0
  6
BYLAYER
100
AcDbLine
 10
138.6666666666666856
 20
56.8888888888888857
 30
0.0
 11
138.6666666666666856
 21
88.4444444444444571
 31
0.0
  0
LINE
  5
276
100
AcDbEntity
  8
Stene
 62
256
370
-1
 48
1.0
  6
BYLAYER
100
AcDbLine
 10
156.4444444444444571
 20
56.8888888888888715
 30
0.0
 11
156.4444444444444571
 21
88.4444444444444429
 31
0.0
  0
LINE
  5
277
100
AcDbEntity
  8
Stene
 62
256
370
-1
 48
1.0
  6
BYLAYER
100
AcDbLine
 10
174.2222222222222285
 20
56.8888888888888715
 30
0.0
 11
174.2222222222222285
 21
88.4444444444444429
 31
0.0
  0
LINE
  5
278
100
AcDbEntity
  8
Stene
 62
256
370
-1
 48
1.0
  6
BYLAYER
100
AcDbLine
 10
27.9999999999999964
 20
248.4460191336940511
 30
0.0
 11
21.9881278887634721
 21
248.4507525488859585
 31
0.0
  0
LINE
  5
279
100
AcDbEntity
  8
Stene
 62
256
370
-1
 48
1.0
  6
BYLAYER
100
AcDbLine
 10
27.9999999999999929
 20
88.4428697551954315
 30
0.0
 11
21.9881278887634686
 21
88.4381363400025009
 31
0.0
  0
LINE
  5
27A
100
AcDbEntity
  8
Stene
 62
256
370
-1
 48
1.0
  6
BYLAYER
100
AcDbLine
 10
191.9999999999999716
 20
88.4428697551954031
 30
0.0
 11
198.0118721112364994
 21
88.4381363400024725
 31
0.0
  0
LINE
  5
27B
100
AcDbEntity
  8
Stene
 62
256
370
-1
 48
1.0
  6
BYLAYER
100
AcDbLine
 10
191.9999999999999716
 20
248.4460191336934543
 30
0.0
 11
198.0118721112364994
 21
248.4507525488863848
 31
0.0
  0
SPLINE
  5
27C
100
AcDbEntity
  8
Stene
 62
256
370
-1
 48
1.0
  6
BYLAYER
100
AcDbSpline
 70
8
 71
3
 72
19
 73
15
 74
0
 40
0.0
 40
0.0
 40
0.0
 40
0.0
 40
1.0
 40
2.0
 40
3.0
 40
4.0
 40
5.0
 40
6.0
 40
7.0
 40
8.0
 40
9.0
 40
10.0
 40
11.0
 40
12.0
 40
12.0
 40
12.0
 40
12.0
 10
27.9728939344643059
 20
279.8513651232842108
 30
0.0
 10
26.6464050540914101
 20
279.6852410045980264
 30
0.0
 10
25.2999999999999972
 20
279.1999999999999886
 30
0.0
 10
23.3999999999999986
 20
277.8999999999999773
 30
0.0
 10
22.1999999999999993
 20
276.0999999999999659
 30
0.0
 10
21.5999999999999979
 20
274.0999999999999659
 30
0.0
 10
21.0999999999999979
 20
271.5
 30
0.0
 10
20.8999999999999986
 20
269.0999999999999659
 30
0.0
 10
20.8999999999999986
 20
263.2999999999999545
 30
0.0
 10
21.0
 20
261.2999999999999545
 30
0.0
 10
21.1999999999999993
 20
258.1999999999999886
 30
0.0
 10
21.3999999999999986
 20
255.4999999999999716
 30
0.0
 10
21.5999999999999979
 20
252.9999999999999716
 30
0.0
 10
21.7999999999999972
 20
250.5999999999999659
 30
0.0
 10
21.9881278887634721
 20
248.4507525488859585
 30
0.0
  0
SPLINE
  5
27D
100
AcDbEntity
  8
Stene
 62
256
370
-1
 48
1.0
  6
BYLAYER
100
AcDbSpline
 70
8
 71
3
 72
19
 73
15
 74
0
 40
0.0
 40
0.0
 40
0.0
 40
0.0
 40
1.0
 40
2.0
 40
3.0
 40
4.0
 40
5.0
 40
6.0
 40
7.0
 40
8.0
 40
9.0
 40
10.0
 40
11.0
 40
12.0
 40
12.0
 40
12.0
 40
12.0
 10
27.9728939344642988
 20
57.037523765604675
 30
0.0
 10
26.6464050540914101
 20
57.2036478842908593
 30
0.0
 10
25.2999999999999936
 20
57.6888888888888971
 30
0.0
 10
23.3999999999999915
 20
58.9888888888889085
 30
0.0
 10
22.1999999999999957
 20
60.7888888888889198
 30
0.0
 10
21.5999999999999943
 20
62.7888888888889198
 30
0.0
 10
21.0999999999999979
 20
65.3888888888888857
 30
0.0
 10
20.899999999999995
 20
67.7888888888889198
 30
0.0
 10
20.8999999999999986
 20
73.5888888888889312
 30
0.0
 10
20.9999999999999964
 20
75.5888888888889312
 30
0.0
 10
21.1999999999999957
 20
78.6888888888888971
 30
0.0
 10
21.399999999999995
 20
81.3888888888889142
 30
0.0
 10
21.5999999999999943
 20
83.8888888888889142
 30
0.0
 10
21.7999999999999936
 20
86.2888888888889198
 30
0.0
 10
21.9881278887634686
 20
88.4381363400025009
 30
0.0
  0
SPLINE
  5
27E
100
AcDbEntity
  8
Stene
 62
256
370
-1
 48
1.0
  6
BYLAYER
100
AcDbSpline
 70
8
 71
3
 72
19
 73
15
 74
0
 40
0.0
 40
0.0
 40
0.0
 40
0.0
 40
1.0
 40
2.0
 40
3.0
 40
4.0
 40
5.0
 40
6.0
 40
7.0
 40
8.0
 40
9.0
 40
10.0
 40
11.0
 40
12.0
 40
12.0
 40
12.0
 40
12.0
 10
192.0271060655356621
 20
57.0375237656046465
 30
0.0
 10
193.3535949459085543
 20
57.2036478842908309
 30
0.0
 10
194.6999999999999886
 20
57.6888888888888687
 30
0.0
 10
196.5999999999999659
 20
58.98888888888888
 30
0.0
 10
197.7999999999999829
 20
60.7888888888888914
 30
0.0
 10
198.3999999999999773
 20
62.7888888888888914
 30
0.0
 10
198.8999999999999773
 20
65.3888888888888573
 30
0.0
 10
199.0999999999999659
 20
67.7888888888888914
 30
0.0
 10
199.0999999999999659
 20
73.5888888888889028
 30
0.0
 10
198.9999999999999716
 20
75.5888888888889028
 30
0.0
 10
198.7999999999999829
 20
78.6888888888888687
 30
0.0
 10
198.5999999999999659
 20
81.3888888888888857
 30
0.0
 10
198.3999999999999773
 20
83.8888888888888857
 30
0.0
 10
198.1999999999999886
 20
86.2888888888888914
 30
0.0
 10
198.0118721112364994
 20
88.4381363400024725
 30
0.0
  0
SPLINE
  5
27F
100
AcDbEntity
  8
Stene
 62
256
370
-1
 48
1.0
  6
BYLAYER
100
AcDbSpline
 70
8
 71
3
 72
19
 73
15
 74
0
 40
0.0
 40
0.0
 40
0.0
 40
0.0
 40
1.0
 40
2.0
 40
3.0
 40
4.0
 40
5.0
 40
6.0
 40
7.0
 40
8.0
 40
9.0
 40
10.0
 40
11.0
 40
12.0
 40
12.0
 40
12.0
 40
12.0
 10
192.0271060655356621
 20
279.8513651232842108
 30
0.0
 10
193.3535949459085543
 20
279.6852410045980264
 30
0.0
 10
194.6999999999999886
 20
279.1999999999999886
 30
0.0
 10
196.5999999999999659
 20
277.8999999999999773
 30
0.0
 10
197.7999999999999829
 20
276.0999999999999659
 30
0.0
 10
198.3999999999999773
 20
274.0999999999999659
 30
0.0
 10
198.8999999999999773
 20
271.5
 30
0.0
 10
199.0999999999999659
 20
269.0999999999999659
 30
0.0
 10
199.0999999999999659
 20
263.2999999999999545
 30
0.0
 10
198.9999999999999716
 20
261.2999999999999545
 30
0.0
 10
198.7999999999999829
 20
258.1999999999999886
 30
0.0
 10
198.5999999999999659
 20
255.4999999999999716
 30
0.0
 10
198.3999999999999773
 20
252.9999999999999716
 30
0.0
 10
198.1999999999999886
 20
250.5999999999999659
 30
0.0
 10
198.0118721112364994
 20
248.4507525488863848
 30
0.0
  0
LINE
  5
280
100
AcDbEntity
  8
Stene
 62
256
370
-1
 48
1.0
  6
BYLAYER
100
AcDbLine
 10
28.0
 20
248.4444444444444287
 30
0.0
 11
27.9728939344643059
 21
279.8513651232842108
 31
0.0
  0
LINE
  5
281
100
AcDbEntity
  8
Stene
 62
256
370
-1
 48
1.0
  6
BYLAYER
100
AcDbLine
 10
27.9999999999999964
 20
88.4444444444444571
 30
0.0
 11
27.9728939344642988
 21
57.037523765604675
 31
0.0
  0
LINE
  5
282
100
AcDbEntity
  8
Stene
 62
256
370
-1
 48
1.0
  6
BYLAYER
100
AcDbLine
 10
191.9999999999999716
 20
88.4444444444444287
 30
0.0
 11
192.0271060655356621
 21
57.0375237656046465
 31
0.0
  0
LINE
  5
283
100
AcDbEntity
  8
Stene
 62
256
370
-1
 48
1.0
  6
BYLAYER
100
AcDbLine
 10
191.9999999999999716
 20
248.4444444444444287
 30
0.0
 11
192.0271060655356621
 21
279.8513651232842108
 31
0.0
  0
ENDSEC
  0
SECTION
  2
OBJECTS
  0
DICTIONARY
  5
C
100
AcDbDictionary
280
0
281
1
  3
ACAD_GROUP
350
D
  3
ACAD_LAYOUT
350
1A
  3
ACAD_MLINESTYLE
350
17
  3
ACAD_PLOTSETTINGS
350
19
  3
ACAD_PLOTSTYLENAME
350
E
  3
AcDbVariableDictionary
350
284
  3
QCAD_OBJECTS
350
285
  0
DICTIONARY
  5
D
100
AcDbDictionary
280
0
281
1
  0
ACDBDICTIONARYWDFLT
  5
E
100
AcDbDictionary
281
1
  3
Normal
350
F
100
AcDbDictionaryWithDefault
340
F
  0
ACDBPLACEHOLDER
  5
F
  0
DICTIONARY
  5
17
100
AcDbDictionary
280
0
281
1
  3
Standard
350
18
  0
MLINESTYLE
  5
18
100
AcDbMlineStyle
  2
STANDARD
 70
0
  3

 62
256
 51
90.0
 52
90.0
 71
2
 49
0.5
 62
256
  6
BYLAYER
 49
-0.5
 62
256
  6
BYLAYER
  0
DICTIONARY
  5
19
100
AcDbDictionary
280
0
281
1
  0
DICTIONARY
  5
1A
100
AcDbDictionary
281
1
  3
Layout1
350
1E
  3
Layout2
350
26
  3
Model
350
22
  0
LAYOUT
  5
1E
100
AcDbPlotSettings
  1

  2
none_device
  4

  6

 40
0.0
 41
0.0
 42
0.0
 43
0.0
 44
0.0
 45
0.0
 46
0.0
 47
0.0
 48
0.0
 49
0.0
140
0.0
141
0.0
142
1.0
143
1.0
 70
688
 72
0
 73
0
 74
5
  7

 75
16
147
1.0
148
0.0
149
0.0
100
AcDbLayout
  1
Layout1
 70
1
 71
1
 10
0.0
 20
0.0
 11
420.0
 21
297.0
 12
0.0
 22
0.0
 32
0.0
 14
100000000000000000000.0
 24
100000000000000000000.0
 34
100000000000000000000.0
 15
-100000000000000000000.0
 25
-100000000000000000000.0
 35
-100000000000000000000.0
146
0.0
 13
0.0
 23
0.0
 33
0.0
 16
1.0
 26
0.0
 36
0.0
 17
0.0
 27
1.0
 37
0.0
 76
0
330
1B
  0
LAYOUT
  5
22
100
AcDbPlotSettings
  1

  2
none_device
  4

  6

 40
0.0
 41
0.0
 42
0.0
 43
0.0
 44
0.0
 45
0.0
 46
0.0
 47
0.0
 48
0.0
 49
0.0
140
0.0
141
0.0
142
1.0
143
1.0
 70
1712
 72
0
 73
0
 74
0
  7

 75
0
147
1.0
148
0.0
149
0.0
100
AcDbLayout
  1
Model
 70
1
 71
0
 10
0.0
 20
0.0
 11
12.0
 21
9.0
 12
0.0
 22
0.0
 32
0.0
 14
0.0
 24
0.0
 34
0.0
 15
0.0
 25
0.0
 35
0.0
146
0.0
 13
0.0
 23
0.0
 33
0.0
 16
1.0
 26
0.0
 36
0.0
 17
0.0
 27
1.0
 37
0.0
 76
0
330
1F
  0
LAYOUT
  5
26
100
AcDbPlotSettings
  1

  2
none_device
  4

  6

 40
0.0
 41
0.0
 42
0.0
 43
0.0
 44
0.0
 45
0.0
 46
0.0
 47
0.0
 48
0.0
 49
0.0
140
0.0
141
0.0
142
1.0
143
1.0
 70
688
 72
0
 73
0
 74
5
  7

 75
16
147
1.0
148
0.0
149
0.0
100
AcDbLayout
  1
Layout2
 70
1
 71
2
 10
0.0
 20
0.0
 11
12.0
 21
9.0
 12
0.0
 22
0.0
 32
0.0
 14
0.0
 24
0.0
 34
0.0
 15
0.0
 25
0.0
 35
0.0
146
0.0
 13
0.0
 23
0.0
 33
0.0
 16
1.0
 26
0.0
 36
0.0
 17
0.0
 27
1.0
 37
0.0
 76
0
330
23
  0
DICTIONARY
  5
284
100
AcDbDictionary
281
1
  3
DIMASSOC
350
287
  3
HIDETEXT
350
286
  0
DICTIONARYVAR
  5
286
100
DictionaryVariables
280
0
  1
2
  0
DICTIONARYVAR
  5
287
100
DictionaryVariables
280
0
  1
1
  0
DICTIONARY
  5
285
100
AcDbDictionary
281
1
  3
ColorSettings/BackgroundColor
350
288
  3
ColorSettings/ColorMode
350
289
  3
Grid/DisplayGrid00
350
28A
  3
Grid/DisplayGrid01
350
28B
  3
Grid/DisplayGrid02
350
28C
  3
Grid/DisplayGrid03
350
28D
  3
Grid/GridSpacingX00
350
28E
  3
Grid/GridSpacingX01
350
28F
  3
Grid/GridSpacingX02
350
290
  3
Grid/GridSpacingX03
350
291
  3
Grid/GridSpacingY00
350
292
  3
Grid/GridSpacingY01
350
293
  3
Grid/GridSpacingY02
350
294
  3
Grid/GridSpacingY03
350
295
  3
Grid/IsometricGrid00
350
296
  3
Grid/IsometricGrid01
350
297
  3
Grid/IsometricGrid02
350
298
  3
Grid/IsometricGrid03
350
299
  3
Grid/IsometricProjection00
350
29A
  3
Grid/IsometricProjection01
350
29B
  3
Grid/IsometricProjection02
350
29C
  3
Grid/IsometricProjection03
350
29D
  3
Grid/MetaGridSpacingX00
350
29E
  3
Grid/MetaGridSpacingX01
350
29F
  3
Grid/MetaGridSpacingX02
350
2A0
  3
Grid/MetaGridSpacingX03
350
2A1
  3
Grid/MetaGridSpacingY00
350
2A2
  3
Grid/MetaGridSpacingY01
350
2A3
  3
Grid/MetaGridSpacingY02
350
2A4
  3
Grid/MetaGridSpacingY03
350
2A5
  3
MultiPageSettings/Columns
350
2A6
  3
MultiPageSettings/GlueMarginsBottom
350
2A7
  3
MultiPageSettings/GlueMarginsLeft
350
2A8
  3
MultiPageSettings/GlueMarginsRight
350
2A9
  3
MultiPageSettings/GlueMarginsTop
350
2AA
  3
MultiPageSettings/PrintCropMarks
350
2AB
  3
MultiPageSettings/Rows
350
2AC
  3
PageSettings/OffsetX
350
2AD
  3
PageSettings/OffsetY
350
2AE
  3
PageSettings/PageOrientation
350
2AF
  3
PageSettings/PaperHeight
350
2B0
  3
PageSettings/PaperWidth
350
2B1
  3
PageSettings/Scale
350
2B2
  3
PageSettings/ShowPaperBorders
350
2B3
  3
QCADVersion
350
2B4
  3
UnitSettings/PaperUnit
350
2B5
  3
ViewportCenter
350
2B6
  3
ViewportHeight
350
2B7
  3
ViewportWidth
350
2B8
  0
XRECORD
  5
288
330
285
100
AcDbXrecord
280
1
1000
Bela
  0
XRECORD
  5
289
330
285
100
AcDbXrecord
280
1
1000
FullColor
  0
XRECORD
  5
28A
330
285
100
AcDbXrecord
280
1
290
1
  0
XRECORD
  5
28B
330
285
100
AcDbXrecord
280
1
290
1
  0
XRECORD
  5
28C
330
285
100
AcDbXrecord
280
1
290
1
  0
XRECORD
  5
28D
330
285
100
AcDbXrecord
280
1
290
1
  0
XRECORD
  5
28E
330
285
100
AcDbXrecord
280
1
1000
auto
  0
XRECORD
  5
28F
330
285
100
AcDbXrecord
280
1
1000
auto
  0
XRECORD
  5
290
330
285
100
AcDbXrecord
280
1
1000
auto
  0
XRECORD
  5
291
330
285
100
AcDbXrecord
280
1
1000
auto
  0
XRECORD
  5
292
330
285
100
AcDbXrecord
280
1
1000
auto
  0
XRECORD
  5
293
330
285
100
AcDbXrecord
280
1
1000
auto
  0
XRECORD
  5
294
330
285
100
AcDbXrecord
280
1
1000
auto
  0
XRECORD
  5
295
330
285
100
AcDbXrecord
280
1
1000
auto
  0
XRECORD
  5
296
330
285
100
AcDbXrecord
280
1
290
0
  0
XRECORD
  5
297
330
285
100
AcDbXrecord
280
1
290
0
  0
XRECORD
  5
298
330
285
100
AcDbXrecord
280
1
290
0
  0
XRECORD
  5
299
330
285
100
AcDbXrecord
280
1
290
0
  0
XRECORD
  5
29A
330
285
100
AcDbXrecord
280
1
 90
65537
  0
XRECORD
  5
29B
330
285
100
AcDbXrecord
280
1
 90
65537
  0
XRECORD
  5
29C
330
285
100
AcDbXrecord
280
1
 90
65537
  0
XRECORD
  5
29D
330
285
100
AcDbXrecord
280
1
 90
65537
  0
XRECORD
  5
29E
330
285
100
AcDbXrecord
280
1
1000
auto
  0
XRECORD
  5
29F
330
285
100
AcDbXrecord
280
1
1000
auto
  0
XRECORD
  5
2A0
330
285
100
AcDbXrecord
280
1
1000
auto
  0
XRECORD
  5
2A1
330
285
100
AcDbXrecord
280
1
1000
auto
  0
XRECORD
  5
2A2
330
285
100
AcDbXrecord
280
1
1000
auto
  0
XRECORD
  5
2A3
330
285
100
AcDbXrecord
280
1
1000
auto
  0
XRECORD
  5
2A4
330
285
100
AcDbXrecord
280
1
1000
auto
  0
XRECORD
  5
2A5
330
285
100
AcDbXrecord
280
1
1000
auto
  0
XRECORD
  5
2A6
330
285
100
AcDbXrecord
280
1
 90
1
  0
XRECORD
  5
2A7
330
285
100
AcDbXrecord
280
1
 40
10.0
  0
XRECORD
  5
2A8
330
285
100
AcDbXrecord
280
1
 40
10.0
  0
XRECORD
  5
2A9
330
285
100
AcDbXrecord
280
1
 40
10.0
  0
XRECORD
  5
2AA
330
285
100
AcDbXrecord
280
1
 40
10.0
  0
XRECORD
  5
2AB
330
285
100
AcDbXrecord
280
1
290
0
  0
XRECORD
  5
2AC
330
285
100
AcDbXrecord
280
1
 90
1
  0
XRECORD
  5
2AD
330
285
100
AcDbXrecord
280
1
 40
0.0
  0
XRECORD
  5
2AE
330
285
100
AcDbXrecord
280
1
 40
0.0
  0
XRECORD
  5
2AF
330
285
100
AcDbXrecord
280
1
1000
Portrait
  0
XRECORD
  5
2B0
330
285
100
AcDbXrecord
280
1
 40
297.0
  0
XRECORD
  5
2B1
330
285
100
AcDbXrecord
280
1
 40
210.0
  0
XRECORD
  5
2B2
330
285
100
AcDbXrecord
280
1
1000
1:1
  0
XRECORD
  5
2B3
330
285
100
AcDbXrecord
280
1
290
1
  0
XRECORD
  5
2B4
330
285
100
AcDbXrecord
280
1
1000
3.19.1
  0
XRECORD
  5
2B5
330
285
100
AcDbXrecord
280
1
 90
4
  0
XRECORD
  5
2B7
330
285
100
AcDbXrecord
280
1
 40
341.5774593023998023
  0
XRECORD
  5
2B8
330
285
100
AcDbXrecord
280
1
 40
743.0083706879996726
  0
ENDSEC
  0
EOF
