999
dxflib 3.17.0.0
  0
SECTION
  2
HEADER
  9
$ACADVER
  1
AC1015
  9
$HANDSEED
  5
FFFF
  9
$DIMADEC
 70
0
  9
$DIMASZ
 40
2.5
  9
$DIMAUNIT
 70
0
  9
$DIMAZIN
 70
2
  9
$DIMDEC
 70
1
  9
$DIMDSEP
 70
46
  9
$DIMEXE
 40
1.25
  9
$DIMEXO
 40
0.625
  9
$DIMGAP
 40
0.625
  9
$DIMLUNIT
 70
2
  9
$DIMSCALE
 40
1.0
  9
$DIMTSZ
 40
0.0
  9
$DIMTXT
 40
2.5
  9
$DIMZIN
 70
8
  9
$DWGCODEPAGE
  3
ANSI_1252
  9
$INSUNITS
 70
4
  9
$LTSCALE
 40
1.0
  9
$MAXACTVP
 70
64
  9
$MEASUREMENT
 70
1
  9
$PDMODE
 70
0
  9
$PDSIZE
 40
0.0
  0
ENDSEC
  0
SECTION
  2
TABLES
  0
TABLE
  2
VPORT
  5
8
100
AcDbSymbolTable
 70
1
  0
VPORT
  5
30
100
AcDbSymbolTableRecord
100
AcDbViewportTableRecord
  2
*Active
 70
0
 10
0.0
 20
0.0
 11
1.0
 21
1.0
 12
286.3055555555554861
 22
148.5
 13
0.0
 23
0.0
 14
10.0
 24
10.0
 15
10.0
 25
10.0
 16
0.0
 26
0.0
 36
1.0
 17
0.0
 27
0.0
 37
0.0
 40
297.0
 41
1.92798353909465
 42
50.0
 43
0.0
 44
0.0
 50
0.0
 51
0.0
 71
0
 72
100
 73
1
 74
3
 75
1
 76
1
 77
0
 78
0
281
0
 65
1
110
0.0
120
0.0
130
0.0
111
1.0
121
0.0
131
0.0
112
0.0
122
1.0
132
0.0
 79
0
146
0.0
  0
ENDTAB
  0
TABLE
  2
LTYPE
  5
5
100
AcDbSymbolTable
 70
41
  0
LTYPE
  5
16
100
AcDbSymbolTableRecord
100
AcDbLinetypeTableRecord
  2
Continuous
 70
0
  3
Solid line
 72
65
 73
0
 40
0.0
  0
LTYPE
  5
31
100
AcDbSymbolTableRecord
100
AcDbLinetypeTableRecord
  2
CENTER2
 70
0
  3
Center (.5x) ___ _ ___ _ ___ _ ___ _ ___ _ ___
 72
65
 73
4
 40
28.5750000000000028
 49
19.0500000000000007
 74
0
 49
-3.1749999999999998
 74
0
 49
3.1749999999999998
 74
0
 49
-3.1749999999999998
 74
0
  0
LTYPE
  5
32
100
AcDbSymbolTableRecord
100
AcDbLinetypeTableRecord
  2
CENTER
 70
0
  3
Center ____ _ ____ _ ____ _ ____ _ ____ _ ____
 72
65
 73
4
 40
50.8000000000000043
 49
31.75
 74
0
 49
-6.3499999999999996
 74
0
 49
6.3499999999999996
 74
0
 49
-6.3499999999999996
 74
0
  0
LTYPE
  5
33
100
AcDbSymbolTableRecord
100
AcDbLinetypeTableRecord
  2
BORDERX2
 70
0
  3
Border (2x) ____  ____  .  ____  ____  .  ___
 72
65
 73
6
 40
88.8999999999999915
 49
25.3999999999999986
 74
0
 49
-12.6999999999999993
 74
0
 49
25.3999999999999986
 74
0
 49
-12.6999999999999993
 74
0
 49
0.0
 74
0
 49
-12.6999999999999993
 74
0
  0
LTYPE
  5
34
100
AcDbSymbolTableRecord
100
AcDbLinetypeTableRecord
  2
ACAD_ISO07W100
 70
0
  3
ISO dot . . . . . . . . . . . . . . . . . . . . 
 72
65
 73
2
 40
3.0
 49
0.0
 74
0
 49
-3.0
 74
0
  0
LTYPE
  5
35
100
AcDbSymbolTableRecord
100
AcDbLinetypeTableRecord
  2
ACAD_ISO06W100
 70
0
  3
ISO long-dash triple-dot ____ ... ____ ... ____
 72
65
 73
8
 40
36.0
 49
24.0
 74
0
 49
-3.0
 74
0
 49
0.0
 74
0
 49
-3.0
 74
0
 49
0.0
 74
0
 49
-3.0
 74
0
 49
0.0
 74
0
 49
-3.0
 74
0
  0
LTYPE
  5
36
100
AcDbSymbolTableRecord
100
AcDbLinetypeTableRecord
  2
DASHDOTX2
 70
0
  3
Dash dot (2x) ____  .  ____  .  ____  .  ___
 72
65
 73
4
 40
50.7999999999999972
 49
25.3999999999999986
 74
0
 49
-12.6999999999999993
 74
0
 49
0.0
 74
0
 49
-12.6999999999999993
 74
0
  0
LTYPE
  5
37
100
AcDbSymbolTableRecord
100
AcDbLinetypeTableRecord
  2
DASHEDX2
 70
0
  3
Dashed (2x) ____  ____  ____  ____  ____  ___
 72
65
 73
2
 40
38.0999999999999943
 49
25.3999999999999986
 74
0
 49
-12.6999999999999993
 74
0
  0
LTYPE
  5
38
100
AcDbSymbolTableRecord
100
AcDbLinetypeTableRecord
  2
ACAD_ISO05W100
 70
0
  3
ISO long-dash double-dot ____ .. ____ .. ____ . 
 72
65
 73
6
 40
33.0
 49
24.0
 74
0
 49
-3.0
 74
0
 49
0.0
 74
0
 49
-3.0
 74
0
 49
0.0
 74
0
 49
-3.0
 74
0
  0
LTYPE
  5
39
100
AcDbSymbolTableRecord
100
AcDbLinetypeTableRecord
  2
DOT2
 70
0
  3
Dot (.5x) ........................................
 72
65
 73
2
 40
3.1749999999999998
 49
0.0
 74
0
 49
-3.1749999999999998
 74
0
  0
LTYPE
  5
3A
100
AcDbSymbolTableRecord
100
AcDbLinetypeTableRecord
  2
DASHED2
 70
0
  3
Dashed (.5x) _ _ _ _ _ _ _ _ _ _ _ _ _ _ _ _ _ 
 72
65
 73
2
 40
9.5249999999999986
 49
6.3499999999999996
 74
0
 49
-3.1749999999999998
 74
0
  0
LTYPE
  5
3B
100
AcDbSymbolTableRecord
100
AcDbLinetypeTableRecord
  2
HIDDEN2
 70
0
  3
Hidden (.5x) _ _ _ _ _ _ _ _ _ _ _ _ _ _ _ _ _ 
 72
65
 73
2
 40
4.7624999999999993
 49
3.1749999999999998
 74
0
 49
-1.5874999999999999
 74
0
  0
LTYPE
  5
3C
100
AcDbSymbolTableRecord
100
AcDbLinetypeTableRecord
  2
ACAD_ISO15W100
 70
0
  3
ISO double-dash triple-dot __ __ . . . __ __ . .
 72
65
 73
10
 40
39.0
 49
12.0
 74
0
 49
-3.0
 74
0
 49
12.0
 74
0
 49
-3.0
 74
0
 49
0.0
 74
0
 49
-3.0
 74
0
 49
0.0
 74
0
 49
-3.0
 74
0
 49
0.0
 74
0
 49
-3.0
 74
0
  0
LTYPE
  5
3D
100
AcDbSymbolTableRecord
100
AcDbLinetypeTableRecord
  2
DOT
 70
0
  3
Dot . . . . . . . . . . . . . . . . . . . . . . . .
 72
65
 73
2
 40
6.3499999999999996
 49
0.0
 74
0
 49
-6.3499999999999996
 74
0
  0
LTYPE
  5
3E
100
AcDbSymbolTableRecord
100
AcDbLinetypeTableRecord
  2
DIVIDE
 70
0
  3
Divide ____ . . ____ . . ____ . . ____ . . ____
 72
65
 73
6
 40
31.75
 49
12.6999999999999993
 74
0
 49
-6.3499999999999996
 74
0
 49
0.0
 74
0
 49
-6.3499999999999996
 74
0
 49
0.0
 74
0
 49
-6.3499999999999996
 74
0
  0
LTYPE
  5
3F
100
AcDbSymbolTableRecord
100
AcDbLinetypeTableRecord
  2
ACAD_ISO03W100
 70
0
  3
ISO dash space __    __    __    __    __    __
 72
65
 73
2
 40
30.0
 49
12.0
 74
0
 49
-18.0
 74
0
  0
LTYPE
  5
40
100
AcDbSymbolTableRecord
100
AcDbLinetypeTableRecord
  2
ACAD_ISO14W100
 70
0
  3
ISO dash triple-dot __ . . . __ . . . __ . . . _
 72
65
 73
8
 40
24.0
 49
12.0
 74
0
 49
-3.0
 74
0
 49
0.0
 74
0
 49
-3.0
 74
0
 49
0.0
 74
0
 49
-3.0
 74
0
 49
0.0
 74
0
 49
-3.0
 74
0
  0
LTYPE
  5
41
100
AcDbSymbolTableRecord
100
AcDbLinetypeTableRecord
  2
ACAD_ISO09W100
 70
0
  3
ISO long-dash double-short-dash ____ __ __ ____
 72
65
 73
6
 40
45.0
 49
24.0
 74
0
 49
-3.0
 74
0
 49
6.0
 74
0
 49
-3.0
 74
0
 49
6.0
 74
0
 49
-3.0
 74
0
  0
LTYPE
  5
15
100
AcDbSymbolTableRecord
100
AcDbLinetypeTableRecord
  2
BYLAYER
 70
0
  3

 72
65
 73
0
 40
0.0
  0
LTYPE
  5
42
100
AcDbSymbolTableRecord
100
AcDbLinetypeTableRecord
  2
ACAD_ISO10W100
 70
0
  3
ISO dash dot __ . __ . __ . __ . __ . __ . __ . 
 72
65
 73
4
 40
18.0
 49
12.0
 74
0
 49
-3.0
 74
0
 49
0.0
 74
0
 49
-3.0
 74
0
  0
LTYPE
  5
43
100
AcDbSymbolTableRecord
100
AcDbLinetypeTableRecord
  2
DASHED
 70
0
  3
Dashed __ __ __ __ __ __ __ __ __ __ __ __ __ _
 72
65
 73
2
 40
19.0499999999999972
 49
12.6999999999999993
 74
0
 49
-6.3499999999999996
 74
0
  0
LTYPE
  5
44
100
AcDbSymbolTableRecord
100
AcDbLinetypeTableRecord
  2
ACAD_ISO12W100
 70
0
  3
ISO dash double-dot __ . . __ . . __ . . __ . . 
 72
65
 73
6
 40
21.0
 49
12.0
 74
0
 49
-3.0
 74
0
 49
0.0
 74
0
 49
-3.0
 74
0
 49
0.0
 74
0
 49
-3.0
 74
0
  0
LTYPE
  5
45
100
AcDbSymbolTableRecord
100
AcDbLinetypeTableRecord
  2
HIDDEN
 70
0
  3
Hidden __ __ __ __ __ __ __ __ __ __ __ __ __ __
 72
65
 73
2
 40
9.5249999999999986
 49
6.3499999999999996
 74
0
 49
-3.1749999999999998
 74
0
  0
LTYPE
  5
46
100
AcDbSymbolTableRecord
100
AcDbLinetypeTableRecord
  2
ACAD_ISO04W100
 70
0
  3
ISO long-dash dot ____ . ____ . ____ . ____ . _
 72
65
 73
4
 40
30.0
 49
24.0
 74
0
 49
-3.0
 74
0
 49
0.0
 74
0
 49
-3.0
 74
0
  0
LTYPE
  5
47
100
AcDbSymbolTableRecord
100
AcDbLinetypeTableRecord
  2
BORDER
 70
0
  3
Border __ __ . __ __ . __ __ . __ __ . __ __ .
 72
65
 73
6
 40
44.4499999999999957
 49
12.6999999999999993
 74
0
 49
-6.3499999999999996
 74
0
 49
12.6999999999999993
 74
0
 49
-6.3499999999999996
 74
0
 49
0.0
 74
0
 49
-6.3499999999999996
 74
0
  0
LTYPE
  5
14
100
AcDbSymbolTableRecord
100
AcDbLinetypeTableRecord
  2
BYBLOCK
 70
0
  3

 72
65
 73
0
 40
0.0
  0
LTYPE
  5
48
100
AcDbSymbolTableRecord
100
AcDbLinetypeTableRecord
  2
HIDDENX2
 70
0
  3
Hidden (2x) ____ ____ ____ ____ ____ ____ ____ 
 72
65
 73
2
 40
19.0499999999999972
 49
12.6999999999999993
 74
0
 49
-6.3499999999999996
 74
0
  0
LTYPE
  5
49
100
AcDbSymbolTableRecord
100
AcDbLinetypeTableRecord
  2
CENTERX2
 70
0
  3
Center (2x) ________  __  ________  __  _____
 72
65
 73
4
 40
101.6000000000000085
 49
63.5
 74
0
 49
-12.6999999999999993
 74
0
 49
12.6999999999999993
 74
0
 49
-12.6999999999999993
 74
0
  0
LTYPE
  5
4A
100
AcDbSymbolTableRecord
100
AcDbLinetypeTableRecord
  2
ACAD_ISO11W100
 70
0
  3
ISO double-dash dot __ __ . __ __ . __ __ . __ _
 72
65
 73
6
 40
33.0
 49
12.0
 74
0
 49
-3.0
 74
0
 49
12.0
 74
0
 49
-3.0
 74
0
 49
0.0
 74
0
 49
-3.0
 74
0
  0
LTYPE
  5
4B
100
AcDbSymbolTableRecord
100
AcDbLinetypeTableRecord
  2
BORDER2
 70
0
  3
Border (.5x) __.__.__.__.__.__.__.__.__.__.__.
 72
65
 73
6
 40
22.2249999999999979
 49
6.3499999999999996
 74
0
 49
-3.1749999999999998
 74
0
 49
6.3499999999999996
 74
0
 49
-3.1749999999999998
 74
0
 49
0.0
 74
0
 49
-3.1749999999999998
 74
0
  0
LTYPE
  5
4C
100
AcDbSymbolTableRecord
100
AcDbLinetypeTableRecord
  2
DASHDOT
 70
0
  3
Dash dot __ . __ . __ . __ . __ . __ . __ . __
 72
65
 73
4
 40
25.3999999999999986
 49
12.6999999999999993
 74
0
 49
-6.3499999999999996
 74
0
 49
0.0
 74
0
 49
-6.3499999999999996
 74
0
  0
LTYPE
  5
4D
100
AcDbSymbolTableRecord
100
AcDbLinetypeTableRecord
  2
ACAD_ISO08W100
 70
0
  3
ISO long-dash short-dash ____ __ ____ __ ____ _
 72
65
 73
4
 40
36.0
 49
24.0
 74
0
 49
-3.0
 74
0
 49
6.0
 74
0
 49
-3.0
 74
0
  0
LTYPE
  5
4E
100
AcDbSymbolTableRecord
100
AcDbLinetypeTableRecord
  2
DIVIDE2
 70
0
  3
Divide (.5x) __..__..__..__..__..__..__..__.._
 72
65
 73
6
 40
15.875
 49
6.3499999999999996
 74
0
 49
-3.1749999999999998
 74
0
 49
0.0
 74
0
 49
-3.1749999999999998
 74
0
 49
0.0
 74
0
 49
-3.1749999999999998
 74
0
  0
LTYPE
  5
4F
100
AcDbSymbolTableRecord
100
AcDbLinetypeTableRecord
  2
DOTX2
 70
0
  3
Dot (2x) .  .  .  .  .  .  .  .  .  .  .  .  .  .
 72
65
 73
2
 40
12.6999999999999993
 49
0.0
 74
0
 49
-12.6999999999999993
 74
0
  0
LTYPE
  5
50
100
AcDbSymbolTableRecord
100
AcDbLinetypeTableRecord
  2
ACAD_ISO13W100
 70
0
  3
ISO double-dash double-dot __ __ . . __ __ . . _
 72
65
 73
8
 40
36.0
 49
12.0
 74
0
 49
-3.0
 74
0
 49
12.0
 74
0
 49
-3.0
 74
0
 49
0.0
 74
0
 49
-3.0
 74
0
 49
0.0
 74
0
 49
-3.0
 74
0
  0
LTYPE
  5
51
100
AcDbSymbolTableRecord
100
AcDbLinetypeTableRecord
  2
DASHDOT2
 70
0
  3
Dash dot (.5x) _._._._._._._._._._._._._._._.
 72
65
 73
4
 40
12.6999999999999993
 49
6.3499999999999996
 74
0
 49
-3.1749999999999998
 74
0
 49
0.0
 74
0
 49
-3.1749999999999998
 74
0
  0
LTYPE
  5
52
100
AcDbSymbolTableRecord
100
AcDbLinetypeTableRecord
  2
PHANTOMX2
 70
0
  3
Phantom (2x) ____________    ____    ____   _
 72
65
 73
6
 40
127.0000000000000142
 49
63.5
 74
0
 49
-12.6999999999999993
 74
0
 49
12.6999999999999993
 74
0
 49
-12.6999999999999993
 74
0
 49
12.6999999999999993
 74
0
 49
-12.6999999999999993
 74
0
  0
LTYPE
  5
53
100
AcDbSymbolTableRecord
100
AcDbLinetypeTableRecord
  2
PHANTOM2
 70
0
  3
Phantom (.5x) ___ _ _ ___ _ _ ___ _ _ ___ _ _
 72
65
 73
6
 40
31.7500000000000036
 49
15.875
 74
0
 49
-3.1749999999999998
 74
0
 49
3.1749999999999998
 74
0
 49
-3.1749999999999998
 74
0
 49
3.1749999999999998
 74
0
 49
-3.1749999999999998
 74
0
  0
LTYPE
  5
54
100
AcDbSymbolTableRecord
100
AcDbLinetypeTableRecord
  2
DIVIDEX2
 70
0
  3
Divide (2x) ________  .  .  ________  .  .  _
 72
65
 73
6
 40
63.5
 49
25.3999999999999986
 74
0
 49
-12.6999999999999993
 74
0
 49
0.0
 74
0
 49
-12.6999999999999993
 74
0
 49
0.0
 74
0
 49
-12.6999999999999993
 74
0
  0
LTYPE
  5
55
100
AcDbSymbolTableRecord
100
AcDbLinetypeTableRecord
  2
ACAD_ISO02W100
 70
0
  3
ISO dash __ __ __ __ __ __ __ __ __ __ __ __ __
 72
65
 73
2
 40
15.0
 49
12.0
 74
0
 49
-3.0
 74
0
  0
LTYPE
  5
56
100
AcDbSymbolTableRecord
100
AcDbLinetypeTableRecord
  2
PHANTOM
 70
0
  3
Phantom ______  __  __  ______  __  __  ______ 
 72
65
 73
6
 40
63.5000000000000071
 49
31.75
 74
0
 49
-6.3499999999999996
 74
0
 49
6.3499999999999996
 74
0
 49
-6.3499999999999996
 74
0
 49
6.3499999999999996
 74
0
 49
-6.3499999999999996
 74
0
  0
ENDTAB
  0
TABLE
  2
LAYER
  5
2
100
AcDbSymbolTable
 70
8
  0
LAYER
  5
57
100
AcDbSymbolTableRecord
100
AcDbLayerTableRecord
  2
Prepreke
 70
4
 62
6
420
16711935
  6
Continuous
370
70
390
F
  0
LAYER
  5
58
100
AcDbSymbolTableRecord
100
AcDbLayerTableRecord
  2
Dno
 70
4
 62
30
420
16744192
  6
Continuous
370
100
390
F
  0
LAYER
  5
10
100
AcDbSymbolTableRecord
100
AcDbLayerTableRecord
  2
0
 70
4
 62
7
420
16777215
  6
Continuous
370
25
390
F
  0
LAYER
  5
59
100
AcDbSymbolTableRecord
100
AcDbLayerTableRecord
  2
Stene
 70
4
 62
14
420
8388608
  6
Continuous
370
70
390
F
  0
LAYER
  5
5A
100
AcDbSymbolTableRecord
100
AcDbLayerTableRecord
  2
Polje
 70
4
 62
94
420
32768
  6
Continuous
370
50
390
F
  0
LAYER
  5
5B
100
AcDbSymbolTableRecord
100
AcDbLayerTableRecord
  2
Obroba_risbe
 70
4
 62
252
420
10526884
  6
Continuous
370
30
390
F
  0
LAYER
  5
5C
100
AcDbSymbolTableRecord
100
AcDbLayerTableRecord
  2
Opis_noge
 70
4
 62
252
420
10526884
  6
Continuous
370
25
390
F
  0
LAYER
  5
5D
100
AcDbSymbolTableRecord
100
AcDbLayerTableRecord
  2
0. Besedilo_noge
 70
4
 62
174
420
128
  6
Continuous
370
25
390
F
  0
ENDTAB
  0
TABLE
  2
STYLE
  5
3
100
AcDbSymbolTable
 70
25
  0
STYLE
  5
5E
100
AcDbSymbolTableRecord
100
AcDbTextStyleTableRecord
  2
Standard
 70
0
 40
0.0
 41
1.0
 50
0.0
 71
0
 42
2.5
  3

  4

1001
ACAD
1000
txt
1071
0
  0
STYLE
  5
5F
100
AcDbSymbolTableRecord
100
AcDbTextStyleTableRecord
  2
textstyle0
 70
0
 40
0.0
 41
1.0
 50
0.0
 71
0
 42
1.0
  3

  4

1001
ACAD
1000
Arial
1071
16777216
  0
STYLE
  5
60
100
AcDbSymbolTableRecord
100
AcDbTextStyleTableRecord
  2
textstyle1
 70
0
 40
0.0
 41
1.0
 50
0.0
 71
0
 42
1.0
  3

  4

1001
ACAD
1000
Arial
1071
16777216
  0
STYLE
  5
61
100
AcDbSymbolTableRecord
100
AcDbTextStyleTableRecord
  2
textstyle2
 70
0
 40
0.0
 41
1.0
 50
0.0
 71
0
 42
1.0
  3

  4

1001
ACAD
1000
Arial
1071
16777216
  0
STYLE
  5
62
100
AcDbSymbolTableRecord
100
AcDbTextStyleTableRecord
  2
textstyle3
 70
0
 40
0.0
 41
1.0
 50
0.0
 71
0
 42
1.0
  3

  4

1001
ACAD
1000
Arial
1071
16777216
  0
STYLE
  5
63
100
AcDbSymbolTableRecord
100
AcDbTextStyleTableRecord
  2
textstyle4
 70
0
 40
0.0
 41
1.0
 50
0.0
 71
0
 42
1.0
  3

  4

1001
ACAD
1000
Arial
1071
16777216
  0
STYLE
  5
64
100
AcDbSymbolTableRecord
100
AcDbTextStyleTableRecord
  2
textstyle5
 70
0
 40
0.0
 41
1.0
 50
0.0
 71
0
 42
1.0
  3

  4

1001
ACAD
1000
Arial
1071
16777216
  0
STYLE
  5
65
100
AcDbSymbolTableRecord
100
AcDbTextStyleTableRecord
  2
textstyle6
 70
0
 40
0.0
 41
1.0
 50
0.0
 71
0
 42
1.0
  3

  4

1001
ACAD
1000
Arial
1071
16777216
  0
STYLE
  5
66
100
AcDbSymbolTableRecord
100
AcDbTextStyleTableRecord
  2
textstyle7
 70
0
 40
0.0
 41
1.0
 50
0.0
 71
0
 42
1.0
  3

  4

1001
ACAD
1000
Arial
1071
16777216
  0
STYLE
  5
67
100
AcDbSymbolTableRecord
100
AcDbTextStyleTableRecord
  2
textstyle8
 70
0
 40
0.0
 41
1.0
 50
0.0
 71
0
 42
1.0
  3

  4

1001
ACAD
1000
Arial
1071
16777216
  0
STYLE
  5
68
100
AcDbSymbolTableRecord
100
AcDbTextStyleTableRecord
  2
textstyle9
 70
0
 40
0.0
 41
1.0
 50
0.0
 71
0
 42
1.0
  3

  4

1001
ACAD
1000
Arial
1071
16777216
  0
STYLE
  5
69
100
AcDbSymbolTableRecord
100
AcDbTextStyleTableRecord
  2
textstyle10
 70
0
 40
0.0
 41
1.0
 50
0.0
 71
0
 42
1.0
  3

  4

1001
ACAD
1000
Arial
1071
16777216
  0
STYLE
  5
6A
100
AcDbSymbolTableRecord
100
AcDbTextStyleTableRecord
  2
textstyle11
 70
0
 40
0.0
 41
1.0
 50
0.0
 71
0
 42
1.0
  3

  4

1001
ACAD
1000
osifont
1071
16777216
  0
STYLE
  5
6B
100
AcDbSymbolTableRecord
100
AcDbTextStyleTableRecord
  2
textstyle12
 70
0
 40
0.0
 41
1.0
 50
0.0
 71
0
 42
1.0
  3

  4

1001
ACAD
1000
osifont
1071
16777216
  0
STYLE
  5
6C
100
AcDbSymbolTableRecord
100
AcDbTextStyleTableRecord
  2
textstyle13
 70
0
 40
0.0
 41
1.0
 50
0.0
 71
0
 42
1.0
  3

  4

1001
ACAD
1000
osifont
1071
16777216
  0
STYLE
  5
6D
100
AcDbSymbolTableRecord
100
AcDbTextStyleTableRecord
  2
textstyle14
 70
0
 40
0.0
 41
1.0
 50
0.0
 71
0
 42
1.0
  3

  4

1001
ACAD
1000
osifont
1071
16777216
  0
STYLE
  5
6E
100
AcDbSymbolTableRecord
100
AcDbTextStyleTableRecord
  2
textstyle15
 70
0
 40
0.0
 41
1.0
 50
0.0
 71
0
 42
1.0
  3

  4

1001
ACAD
1000
osifont
1071
16777216
  0
STYLE
  5
6F
100
AcDbSymbolTableRecord
100
AcDbTextStyleTableRecord
  2
textstyle16
 70
0
 40
0.0
 41
1.0
 50
0.0
 71
0
 42
1.0
  3

  4

1001
ACAD
1000
osifont
1071
16777216
  0
STYLE
  5
70
100
AcDbSymbolTableRecord
100
AcDbTextStyleTableRecord
  2
textstyle17
 70
0
 40
0.0
 41
1.0
 50
0.0
 71
0
 42
1.0
  3

  4

1001
ACAD
1000
osifont
1071
16777216
  0
STYLE
  5
71
100
AcDbSymbolTableRecord
100
AcDbTextStyleTableRecord
  2
textstyle18
 70
0
 40
0.0
 41
1.0
 50
0.0
 71
0
 42
1.0
  3

  4

1001
ACAD
1000
osifont
1071
16777216
  0
STYLE
  5
72
100
AcDbSymbolTableRecord
100
AcDbTextStyleTableRecord
  2
textstyle19
 70
0
 40
0.0
 41
1.0
 50
0.0
 71
0
 42
1.0
  3

  4

1001
ACAD
1000
osifont
1071
16777216
  0
STYLE
  5
73
100
AcDbSymbolTableRecord
100
AcDbTextStyleTableRecord
  2
textstyle20
 70
0
 40
0.0
 41
1.0
 50
0.0
 71
0
 42
1.0
  3

  4

1001
ACAD
1000
osifont
1071
16777216
  0
STYLE
  5
74
100
AcDbSymbolTableRecord
100
AcDbTextStyleTableRecord
  2
textstyle21
 70
0
 40
0.0
 41
1.0
 50
0.0
 71
0
 42
1.0
  3

  4

1001
ACAD
1000
osifont
1071
16777216
  0
STYLE
  5
75
100
AcDbSymbolTableRecord
100
AcDbTextStyleTableRecord
  2
textstyle22
 70
0
 40
0.0
 41
1.0
 50
0.0
 71
0
 42
1.0
  3

  4

1001
ACAD
1000
osifont
1071
16777216
  0
STYLE
  5
76
100
AcDbSymbolTableRecord
100
AcDbTextStyleTableRecord
  2
textstyle23
 70
0
 40
0.0
 41
1.0
 50
0.0
 71
0
 42
1.0
  3

  4

1001
ACAD
1000
osifont
1071
16777216
  0
ENDTAB
  0
TABLE
  2
VIEW
  5
6
100
AcDbSymbolTable
 70
0
  0
ENDTAB
  0
TABLE
  2
UCS
  5
7
100
AcDbSymbolTable
 70
0
  0
ENDTAB
  0
TABLE
  2
APPID
  5
9
100
AcDbSymbolTable
 70
1
  0
APPID
  5
12
100
AcDbSymbolTableRecord
100
AcDbRegAppTableRecord
  2
ACAD
 70
0
  0
APPID
  5
77
100
AcDbSymbolTableRecord
100
AcDbRegAppTableRecord
  2
QCAD
 70
0
  0
ENDTAB
  0
TABLE
  2
DIMSTYLE
  5
A
100
AcDbSymbolTable
 70
1
100
AcDbDimStyleTable
 71
0
  0
DIMSTYLE
105
27
100
AcDbSymbolTableRecord
100
AcDbDimStyleTableRecord
  2
Standard
 41
2.5
 42
0.625
 43
3.75
 44
1.25
 70
0
 73
0
 74
0
 77
1
 78
8
140
2.5
141
2.5
143
0.03937007874016
147
0.625
171
3
172
1
271
2
272
2
274
3
278
44
283
0
284
8
340
5E
  0
ENDTAB
  0
TABLE
  2
BLOCK_RECORD
  5
1
100
AcDbSymbolTable
 70
1
  0
BLOCK_RECORD
  5
1F
100
AcDbSymbolTableRecord
100
AcDbBlockTableRecord
  2
*Model_Space
340
22
  0
BLOCK_RECORD
  5
1B
100
AcDbSymbolTableRecord
100
AcDbBlockTableRecord
  2
*Paper_Space
340
1E
  0
BLOCK_RECORD
  5
23
100
AcDbSymbolTableRecord
100
AcDbBlockTableRecord
  2
*Paper_Space0
340
26
  0
BLOCK_RECORD
  5
78
100
AcDbSymbolTableRecord
100
AcDbBlockTableRecord
  2
cici_A4P
340
0
  0
ENDTAB
  0
ENDSEC
  0
SECTION
  2
BLOCKS
  0
BLOCK
  5
20
100
AcDbEntity
  8
0
100
AcDbBlockBegin
  2
*Model_Space
 70
0
 10
0.0
 20
0.0
 30
0.0
  3
*Model_Space
  1

  0
ENDBLK
  5
21
100
AcDbEntity
  8
0
100
AcDbBlockEnd
  0
BLOCK
  5
1C
100
AcDbEntity
 67
1
  8
0
100
AcDbBlockBegin
  2
*Paper_Space
 70
0
 10
0.0
 20
0.0
 30
0.0
  3
*Paper_Space
  1

  0
ENDBLK
  5
1D
100
AcDbEntity
 67
1
  8
0
100
AcDbBlockEnd
  0
BLOCK
  5
24
100
AcDbEntity
  8
0
100
AcDbBlockBegin
  2
*Paper_Space0
 70
0
 10
0.0
 20
0.0
 30
0.0
  3
*Paper_Space0
  1

  0
ENDBLK
  5
25
100
AcDbEntity
  8
0
100
AcDbBlockEnd
  0
BLOCK
  5
79
100
AcDbEntity
  8
0
100
AcDbBlockBegin
  2
cici_A4P
 70
0
 10
0.0
 20
0.0
 30
0.0
  3
cici_A4P
  1

  0
LINE
  5
7A
100
AcDbEntity
  8
Obroba_risbe
 62
256
370
-1
 48
1.0
  6
BYLAYER
100
AcDbLine
 10
55.0
 20
50.0
 30
0.0
 11
55.0
 21
35.0
 31
0.0
  0
LINE
  5
7B
100
AcDbEntity
  8
Obroba_risbe
 62
256
370
-1
 48
1.0
  6
BYLAYER
100
AcDbLine
 10
35.0
 20
50.0
 30
0.0
 11
35.0
 21
9.9999999999999947
 31
0.0
  0
LINE
  5
7C
100
AcDbEntity
  8
Obroba_risbe
 62
256
370
-1
 48
1.0
  6
BYLAYER
100
AcDbLine
 10
145.0
 20
10.0000000000000071
 30
0.0
 11
145.0
 21
50.0
 31
0.0
  0
LINE
  5
7D
100
AcDbEntity
  8
Obroba_risbe
 62
256
370
-1
 48
1.0
  6
BYLAYER
100
AcDbLine
 10
110.0
 20
50.0
 30
0.0
 11
110.0
 21
35.0
 31
0.0
  0
LINE
  5
7E
100
AcDbEntity
  8
Obroba_risbe
 62
256
370
-1
 48
1.0
  6
BYLAYER
100
AcDbLine
 10
130.0
 20
50.0
 30
0.0
 11
130.0
 21
35.0
 31
0.0
  0
LINE
  5
7F
100
AcDbEntity
  8
Obroba_risbe
 62
256
370
-1
 48
1.0
  6
BYLAYER
100
AcDbLine
 10
20.0
 20
287.0
 30
0.0
 11
20.0
 21
10.0
 31
0.0
  0
LINE
  5
80
100
AcDbEntity
  8
Obroba_risbe
 62
256
370
-1
 48
1.0
  6
BYLAYER
100
AcDbLine
 10
200.0
 20
10.0
 30
0.0
 11
200.0
 21
287.0
 31
0.0
  0
LINE
  5
81
100
AcDbEntity
  8
Obroba_risbe
 62
256
370
-1
 48
1.0
  6
BYLAYER
100
AcDbLine
 10
20.0
 20
10.0
 30
0.0
 11
200.0
 21
10.0
 31
0.0
  0
LINE
  5
82
100
AcDbEntity
  8
Obroba_risbe
 62
256
370
-1
 48
1.0
  6
BYLAYER
100
AcDbLine
 10
20.0
 20
35.0
 30
0.0
 11
200.0
 21
35.0
 31
0.0
  0
LINE
  5
83
100
AcDbEntity
  8
Obroba_risbe
 62
256
370
-1
 48
1.0
  6
BYLAYER
100
AcDbLine
 10
20.0
 20
40.0
 30
0.0
 11
130.0
 21
40.0
 31
0.0
  0
LINE
  5
84
100
AcDbEntity
  8
Obroba_risbe
 62
256
370
-1
 48
1.0
  6
BYLAYER
100
AcDbLine
 10
20.0
 20
45.0
 30
0.0
 11
130.0
 21
45.0
 31
0.0
  0
LINE
  5
85
100
AcDbEntity
  8
Obroba_risbe
 62
256
370
-1
 48
1.0
  6
BYLAYER
100
AcDbLine
 10
200.0
 20
287.0
 30
0.0
 11
20.0
 21
287.0
 31
0.0
  0
LINE
  5
86
100
AcDbEntity
  8
Obroba_risbe
 62
256
370
-1
 48
1.0
  6
BYLAYER
100
AcDbLine
 10
20.0
 20
50.0
 30
0.0
 11
200.0
 21
50.0
 31
0.0
  0
LINE
  5
87
100
AcDbEntity
  8
Obroba_risbe
 62
256
370
-1
 48
1.0
  6
BYLAYER
100
AcDbLine
 10
145.0
 20
25.0
 30
0.0
 11
200.0
 21
25.0
 31
0.0
  0
MTEXT
  5
88
100
AcDbEntity
  8
Opis_noge
 62
256
370
-1
 48
1.0
  6
BYLAYER
100
AcDbMText
 10
20.9999999999999964
 20
39.0000000000000071
 30
0.0
 40
1.0
 41
0.0
 71
1
 72
1
  1
\H2;Izdelal
  7
textstyle3
 50
0.0
 73
2
 44
1.0
  0
MTEXT
  5
89
100
AcDbEntity
  8
Opis_noge
 62
256
370
-1
 48
1.0
  6
BYLAYER
100
AcDbMText
 10
21.0000000000000036
 20
44.0
 30
0.0
 40
1.0
 41
0.0
 71
1
 72
1
  1
\H2;Risal
  7
textstyle2
 50
0.0
 73
2
 44
1.0
  0
MTEXT
  5
8A
100
AcDbEntity
  8
Opis_noge
 62
256
370
-1
 48
1.0
  6
BYLAYER
100
AcDbMText
 10
21.0000000000000036
 20
34.0
 30
0.0
 40
1.0
 41
0.0
 71
1
 72
1
  1
\H2;Merilo
  7
textstyle1
 50
0.0
 73
2
 44
1.0
  0
MTEXT
  5
8B
100
AcDbEntity
  8
Opis_noge
 62
256
370
-1
 48
1.0
  6
BYLAYER
100
AcDbMText
 10
36.0
 20
34.0
 30
0.0
 40
1.0
 41
0.0
 71
1
 72
1
  1
\H2;Objekt
  7
textstyle0
 50
0.0
 73
2
 44
1.0
  0
MTEXT
  5
8C
100
AcDbEntity
  8
Opis_noge
 62
256
370
-1
 48
1.0
  6
BYLAYER
100
AcDbMText
 10
146.0
 20
48.9999999999999645
 30
0.0
 40
1.0
 41
0.0
 71
1
 72
1
  1
\H2;\U+0160ola
  7
textstyle7
 50
0.0
 73
2
 44
1.0
  0
MTEXT
  5
8D
100
AcDbEntity
  8
Opis_noge
 62
256
370
-1
 48
1.0
  6
BYLAYER
100
AcDbMText
 10
146.0
 20
33.9999999999999361
 30
0.0
 40
1.0
 41
0.0
 71
1
 72
1
  1
\H2;Material
  7
textstyle6
 50
0.0
 73
2
 44
1.0
  0
MTEXT
  5
8E
100
AcDbEntity
  8
Opis_noge
 62
256
370
-1
 48
1.0
  6
BYLAYER
100
AcDbMText
 10
146.0
 20
24.0000000000000497
 30
0.0
 40
1.0
 41
0.0
 71
1
 72
1
  1
\H2;\U+0160tevilka risbe
  7
textstyle5
 50
0.0
 73
2
 44
1.0
  0
MTEXT
  5
8F
100
AcDbEntity
  8
Opis_noge
 62
256
370
-1
 48
1.0
  6
BYLAYER
100
AcDbMText
 10
36.0
 20
46.0
 30
0.0
 40
1.0
 41
0.0
 71
7
 72
1
  1
\H2;Datum
  7
textstyle4
 50
0.0
 73
2
 44
1.0
  0
MTEXT
  5
90
100
AcDbEntity
  8
Opis_noge
 62
256
370
-1
 48
1.0
  6
BYLAYER
100
AcDbMText
 10
56.0000000000000071
 20
45.9999999999999858
 30
0.0
 40
1.0
 41
0.0
 71
7
 72
1
  1
\H2;Ime in Priimek
  7
textstyle10
 50
0.0
 73
2
 44
1.0
  0
MTEXT
  5
91
100
AcDbEntity
  8
Opis_noge
 62
256
370
-1
 48
1.0
  6
BYLAYER
100
AcDbMText
 10
111.0
 20
46.0000000000000071
 30
0.0
 40
1.0
 41
0.0
 71
7
 72
1
  1
\H2;Podpis
  7
textstyle9
 50
0.0
 73
2
 44
1.0
  0
MTEXT
  5
92
100
AcDbEntity
  8
Opis_noge
 62
256
370
-1
 48
1.0
  6
BYLAYER
100
AcDbMText
 10
131.0
 20
48.9999999999999929
 30
0.0
 40
1.0
 41
0.0
 71
1
 72
1
  1
\H2;Ocena
  7
textstyle8
 50
0.0
 73
2
 44
1.0
  0
MTEXT
  5
93
100
AcDbEntity
  8
0. Besedilo_noge
 62
256
370
-1
 48
1.0
  6
BYLAYER
100
AcDbMText
 10
56.0
 20
44.0000000000000142
 30
0.0
 40
1.0
 41
0.0
 71
1
 72
1
  1
\H3;Miha Ko\U+010dar
  7
textstyle12
 50
0.0
 73
2
 44
1.0
  0
MTEXT
  5
94
100
AcDbEntity
  8
0. Besedilo_noge
 62
256
370
-1
 48
1.0
  6
BYLAYER
100
AcDbMText
 10
36.0
 20
44.0
 30
0.0
 40
1.0
 41
0.0
 71
1
 72
1
  1
\H2.5;10.08.2017
  7
textstyle11
 50
0.0
 73
2
 44
1.0
  0
MTEXT
  5
95
100
AcDbEntity
  8
0. Besedilo_noge
 62
256
370
-1
 48
1.0
  6
BYLAYER
100
AcDbMText
 10
153.0
 20
48.0
 30
0.0
 40
1.0
 41
0.0
 71
1
 72
1
  1
\H3;O\U+0160 Martina Krpana\PLjubljana
  7
textstyle16
 50
0.0
 73
2
 44
1.0
  0
MTEXT
  5
96
100
AcDbEntity
  8
0. Besedilo_noge
 62
256
370
-1
 48
1.0
  6
BYLAYER
100
AcDbMText
 10
170.0
 20
30.9999999999999716
 30
0.0
 40
1.0
 41
0.0
 71
2
 72
1
  1
\fosifont|b0|i0|c0|p0;\H3;Vezana plo\U+0161\U+010da 4mm
  7
textstyle15
 50
0.0
 73
2
 44
1.0
  0
MTEXT
  5
97
100
AcDbEntity
  8
0. Besedilo_noge
 62
256
370
-1
 48
1.0
  6
BYLAYER
100
AcDbMText
 10
170.0
 20
19.9999999999998899
 30
0.0
 40
1.0
 41
0.0
 71
2
 72
1
  1
\fosifont|b0|i0|c0|p0;\H5;ID02
  7
textstyle14
 50
0.0
 73
2
 44
1.0
  0
MTEXT
  5
98
100
AcDbEntity
  8
0. Besedilo_noge
 62
256
370
-1
 48
1.0
  6
BYLAYER
100
AcDbMText
 10
27.0
 20
19.9999999999999964
 30
0.0
 40
1.0
 41
0.0
 71
5
 72
1
  1
\H5;1:1
  7
textstyle13
 50
0.0
 73
2
 44
1.0
  0
MTEXT
  5
99
100
AcDbEntity
  8
0. Besedilo_noge
 62
256
370
-1
 48
1.0
  6
BYLAYER
100
AcDbMText
 10
90.0
 20
30.9999999999999787
 30
0.0
 40
1.0
 41
0.0
 71
2
 72
1
  1
\H6;Igra Quoridor\Pvsi deli
  7
textstyle17
 50
0.0
 73
2
 44
1.0
  0
ENDBLK
  5
9A
100
AcDbEntity
  8
0
100
AcDbBlockEnd
  0
ENDSEC
  0
SECTION
  2
ENTITIES
  0
INSERT
  5
9B
100
AcDbEntity
  8
0
 62
256
370
-1
 48
1.0
  6
BYLAYER
100
AcDbBlockReference
  2
cici_A4P
 10
0.0
 20
0.0
 30
0.0
  0
LINE
  5
9C
100
AcDbEntity
  8
Dno
 62
256
370
-1
 48
1.0
  6
BYLAYER
100
AcDbLine
 10
190.0000000000000284
 20
281.5555555555555429
 30
0.0
 11
29.9999999999999858
 21
281.5555555555555429
 31
0.0
  0
LINE
  5
9D
100
AcDbEntity
  8
Dno
 62
256
370
-1
 48
1.0
  6
BYLAYER
100
AcDbLine
 10
190.0000000000000284
 20
58.4444444444444713
 30
0.0
 11
29.9999999999999858
 21
58.4444444444444571
 31
0.0
  0
SPLINE
  5
9E
100
AcDbEntity
  8
Dno
 62
256
370
-1
 48
1.0
  6
BYLAYER
100
AcDbSpline
 70
8
 71
3
 72
11
 73
7
 74
0
 40
0.0
 40
0.0
 40
0.0
 40
0.0
 40
1.0
 40
2.0
 40
3.0
 40
4.0
 40
4.0
 40
4.0
 40
4.0
 10
190.0000000000000284
 20
281.5555555555555429
 30
0.0
 10
200.0
 20
281.5555555555555429
 30
0.0
 10
200.0
 20
265.7777777777777715
 30
0.0
 10
190.0
 20
170.0
 30
0.0
 10
200.0
 20
74.2222222222222285
 30
0.0
 10
200.0000000000000568
 20
58.4444444444445139
 30
0.0
 10
190.0000000000000284
 20
58.4444444444444713
 30
0.0
  0
SPLINE
  5
9F
100
AcDbEntity
  8
Dno
 62
256
370
-1
 48
1.0
  6
BYLAYER
100
AcDbSpline
 70
8
 71
3
 72
11
 73
7
 74
0
 40
0.0
 40
0.0
 40
0.0
 40
0.0
 40
1.0
 40
2.0
 40
3.0
 40
4.0
 40
4.0
 40
4.0
 40
4.0
 10
29.9999999999999858
 20
281.5555555555555429
 30
0.0
 10
20.0000000000000568
 20
281.5555555555555429
 30
0.0
 10
20.0
 20
265.7777777777777715
 30
0.0
 10
30.0
 20
170.0
 30
0.0
 10
19.9999999999999147
 20
74.2222222222222285
 30
0.0
 10
20.0000000000000568
 20
58.4444444444444429
 30
0.0
 10
29.9999999999999858
 20
58.4444444444444571
 30
0.0
  0
LINE
  5
A0
100
AcDbEntity
  8
Polje
 62
256
370
-1
 48
1.0
  6
BYLAYER
100
AcDbLine
 10
63.7777777777777715
 20
260.0
 30
0.0
 11
50.0
 21
260.0
 31
0.0
  0
LINE
  5
A1
100
AcDbEntity
  8
Polje
 62
256
370
-1
 48
1.0
  6
BYLAYER
100
AcDbLine
 10
50.0
 20
260.0
 30
0.0
 11
50.0
 21
246.222222222222257
 31
0.0
  0
LINE
  5
A2
100
AcDbEntity
  8
Polje
 62
256
370
-1
 48
1.0
  6
BYLAYER
100
AcDbLine
 10
50.0
 20
246.222222222222257
 30
0.0
 11
63.7777777777777715
 21
246.222222222222257
 31
0.0
  0
LINE
  5
A3
100
AcDbEntity
  8
Polje
 62
256
370
-1
 48
1.0
  6
BYLAYER
100
AcDbLine
 10
63.7777777777777715
 20
246.222222222222257
 30
0.0
 11
63.7777777777777715
 21
260.0
 31
0.0
  0
MTEXT
  5
A4
100
AcDbEntity
  8
0. Besedilo_noge
 62
256
370
-1
 48
1.0
  6
BYLAYER
100
AcDbMText
 10
56.7777777777777715
 20
257.2222222222221717
 30
0.0
 40
1.0
 41
0.0
 71
2
 72
1
  1
\H7;x81
  7
textstyle18
 50
0.0
 73
2
 44
1.0
  0
LINE
  5
A5
100
AcDbEntity
  8
Prepreke
 62
256
370
-1
 48
1.0
  6
BYLAYER
100
AcDbLine
 10
100.0
 20
260.0
 30
0.0
 11
117.7777777777777857
 21
260.0
 31
0.0
  0
LINE
  5
A6
100
AcDbEntity
  8
Stene
 62
256
370
-1
 48
1.0
  6
BYLAYER
100
AcDbLine
 10
163.7777777777777715
 20
260.0
 30
0.0
 11
150.0
 21
260.0
 31
0.0
  0
LINE
  5
A7
100
AcDbEntity
  8
Prepreke
 62
256
370
-1
 48
1.0
  6
BYLAYER
100
AcDbLine
 10
117.7777777777777857
 20
260.0
 30
0.0
 11
117.7777777777777715
 21
228.4444444444444002
 31
0.0
  0
LINE
  5
A8
100
AcDbEntity
  8
Stene
 62
256
370
-1
 48
1.0
  6
BYLAYER
100
AcDbLine
 10
150.0
 20
260.0
 30
0.0
 11
150.0000000000000284
 21
228.4444444444444287
 31
0.0
  0
LINE
  5
A9
100
AcDbEntity
  8
Prepreke
 62
256
370
-1
 48
1.0
  6
BYLAYER
100
AcDbLine
 10
117.7777777777777715
 20
228.4444444444444002
 30
0.0
 11
100.0
 21
228.4444444444444002
 31
0.0
  0
LINE
  5
AA
100
AcDbEntity
  8
Stene
 62
256
370
-1
 48
1.0
  6
BYLAYER
100
AcDbLine
 10
150.0000000000000284
 20
228.4444444444444287
 30
0.0
 11
163.7777777777777715
 21
228.4444444444444287
 31
0.0
  0
LINE
  5
AB
100
AcDbEntity
  8
Stene
 62
256
370
-1
 48
1.0
  6
BYLAYER
100
AcDbLine
 10
163.7777777777777715
 20
228.4444444444444287
 30
0.0
 11
163.7777777777777715
 21
260.0
 31
0.0
  0
LINE
  5
AC
100
AcDbEntity
  8
Stene
 62
256
370
-1
 48
1.0
  6
BYLAYER
100
AcDbLine
 10
149.9728939344643095
 20
168.5946540104086466
 30
0.0
 11
155.9847660457008374
 21
168.5993874256066647
 31
0.0
  0
LINE
  5
AD
100
AcDbEntity
  8
Stene
 62
256
370
-1
 48
1.0
  6
BYLAYER
100
AcDbLine
 10
109.9999986409473252
 20
169.9999999989299511
 30
0.0
 11
116.011870752183853
 21
170.0047334141279691
 31
0.0
  0
LINE
  5
AE
100
AcDbEntity
  8
Stene
 62
256
370
-1
 48
1.0
  6
BYLAYER
100
AcDbLine
 10
109.9999986409473252
 20
170.0000000010700489
 30
0.0
 11
116.011870752183853
 21
169.9952665858719172
 31
0.0
  0
LINE
  5
AF
100
AcDbEntity
  8
Stene
 62
256
370
-1
 48
1.0
  6
BYLAYER
100
AcDbLine
 10
110.0000013590526606
 20
170.0000000010702763
 30
0.0
 11
103.9881292478161328
 21
169.9952665858721446
 31
0.0
  0
LINE
  5
B0
100
AcDbEntity
  8
Stene
 62
256
370
-1
 48
1.0
  6
BYLAYER
100
AcDbLine
 10
110.0000013589122005
 20
169.9999999989300647
 30
0.0
 11
103.9881292476756727
 21
170.0047334141281965
 31
0.0
  0
SPLINE
  5
B1
100
AcDbEntity
  8
Stene
 62
256
370
-1
 48
1.0
  6
BYLAYER
100
AcDbSpline
 70
8
 71
3
 72
19
 73
15
 74
0
 40
0.0
 40
0.0
 40
0.0
 40
0.0
 40
1.0
 40
2.0
 40
3.0
 40
4.0
 40
5.0
 40
6.0
 40
7.0
 40
8.0
 40
9.0
 40
10.0
 40
11.0
 40
12.0
 40
12.0
 40
12.0
 40
12.0
 10
150.0
 20
200.0
 30
0.0
 10
151.3264888803728923
 20
199.8338758813138156
 30
0.0
 10
152.6728939344642981
 20
199.3486348767157779
 30
0.0
 10
154.5728939344643038
 20
198.0486348767157665
 30
0.0
 10
155.7728939344643209
 20
196.2486348767157551
 30
0.0
 10
156.3728939344642868
 20
194.2486348767157551
 30
0.0
 10
156.8728939344642868
 20
191.6486348767157892
 30
0.0
 10
157.0728939344643038
 20
189.2486348767157551
 30
0.0
 10
157.0728939344643038
 20
183.4486348767157438
 30
0.0
 10
156.9728939344643095
 20
181.4486348767157438
 30
0.0
 10
156.7728939344643209
 20
178.3486348767157779
 30
0.0
 10
156.5728939344643038
 20
175.6486348767157608
 30
0.0
 10
156.3728939344642868
 20
173.1486348767157892
 30
0.0
 10
156.1728939344642981
 20
170.7486348767157551
 30
0.0
 10
155.9847660457008374
 20
168.5993874256066647
 30
0.0
  0
SPLINE
  5
B2
100
AcDbEntity
  8
Stene
 62
256
370
-1
 48
1.0
  6
BYLAYER
100
AcDbSpline
 70
8
 71
3
 72
19
 73
15
 74
0
 40
0.0
 40
0.0
 40
0.0
 40
0.0
 40
1.0
 40
2.0
 40
3.0
 40
4.0
 40
5.0
 40
6.0
 40
7.0
 40
8.0
 40
9.0
 40
10.0
 40
11.0
 40
12.0
 40
12.0
 40
12.0
 40
12.0
 10
110.0271047064830157
 20
201.4053459885213044
 30
0.0
 10
111.3535935868559079
 20
201.2392218698351201
 30
0.0
 10
112.6999986409473138
 20
200.7539808652370823
 30
0.0
 10
114.5999986409473195
 20
199.4539808652370709
 30
0.0
 10
115.7999986409473365
 20
197.6539808652370596
 30
0.0
 10
116.3999986409473024
 20
195.6539808652370596
 30
0.0
 10
116.8999986409473024
 20
193.0539808652370937
 30
0.0
 10
117.0999986409473195
 20
190.6539808652370596
 30
0.0
 10
117.0999986409473195
 20
184.8539808652370482
 30
0.0
 10
116.9999986409473252
 20
182.8539808652370482
 30
0.0
 10
116.7999986409473365
 20
179.7539808652370823
 30
0.0
 10
116.5999986409473195
 20
177.0539808652370652
 30
0.0
 10
116.3999986409473024
 20
174.5539808652370937
 30
0.0
 10
116.1999986409473138
 20
172.1539808652370596
 30
0.0
 10
116.011870752183853
 20
170.0047334141279691
 30
0.0
  0
SPLINE
  5
B3
100
AcDbEntity
  8
Stene
 62
256
370
-1
 48
1.0
  6
BYLAYER
100
AcDbSpline
 70
8
 71
3
 72
19
 73
15
 74
0
 40
0.0
 40
0.0
 40
0.0
 40
0.0
 40
1.0
 40
2.0
 40
3.0
 40
4.0
 40
5.0
 40
6.0
 40
7.0
 40
8.0
 40
9.0
 40
10.0
 40
11.0
 40
12.0
 40
12.0
 40
12.0
 40
12.0
 10
110.0271047064830157
 20
138.5946540114786956
 30
0.0
 10
111.3535935868559079
 20
138.7607781301648799
 30
0.0
 10
112.6999986409473138
 20
139.2460191347629177
 30
0.0
 10
114.5999986409473195
 20
140.5460191347629291
 30
0.0
 10
115.7999986409473365
 20
142.3460191347629404
 30
0.0
 10
116.3999986409473024
 20
144.3460191347629404
 30
0.0
 10
116.8999986409473024
 20
146.9460191347629063
 30
0.0
 10
117.0999986409473195
 20
149.3460191347629404
 30
0.0
 10
117.0999986409473195
 20
155.1460191347629518
 30
0.0
 10
116.9999986409473252
 20
157.1460191347629518
 30
0.0
 10
116.7999986409473365
 20
160.2460191347629177
 30
0.0
 10
116.5999986409473195
 20
162.9460191347629348
 30
0.0
 10
116.3999986409473024
 20
165.4460191347629063
 30
0.0
 10
116.1999986409473138
 20
167.8460191347629404
 30
0.0
 10
116.011870752183853
 20
169.9952665858719172
 30
0.0
  0
SPLINE
  5
B4
100
AcDbEntity
  8
Stene
 62
256
370
-1
 48
1.0
  6
BYLAYER
100
AcDbSpline
 70
8
 71
3
 72
19
 73
15
 74
0
 40
0.0
 40
0.0
 40
0.0
 40
0.0
 40
1.0
 40
2.0
 40
3.0
 40
4.0
 40
5.0
 40
6.0
 40
7.0
 40
8.0
 40
9.0
 40
10.0
 40
11.0
 40
12.0
 40
12.0
 40
12.0
 40
12.0
 10
109.9728952935169701
 20
138.5946540114789229
 30
0.0
 10
108.6464064131440779
 20
138.7607781301651073
 30
0.0
 10
107.300001359052672
 20
139.2460191347631451
 30
0.0
 10
105.4000013590526663
 20
140.5460191347631564
 30
0.0
 10
104.2000013590526493
 20
142.3460191347631678
 30
0.0
 10
103.6000013590526834
 20
144.3460191347631678
 30
0.0
 10
103.1000013590526834
 20
146.9460191347631337
 30
0.0
 10
102.9000013590526663
 20
149.3460191347631678
 30
0.0
 10
102.9000013590526663
 20
155.1460191347631792
 30
0.0
 10
103.0000013590526606
 20
157.1460191347631792
 30
0.0
 10
103.2000013590526493
 20
160.2460191347631451
 30
0.0
 10
103.4000013590526663
 20
162.9460191347631621
 30
0.0
 10
103.6000013590526834
 20
165.4460191347631337
 30
0.0
 10
103.800001359052672
 20
167.8460191347631678
 30
0.0
 10
103.9881292478161328
 20
169.9952665858721446
 30
0.0
  0
SPLINE
  5
B5
100
AcDbEntity
  8
Stene
 62
256
370
-1
 48
1.0
  6
BYLAYER
100
AcDbSpline
 70
8
 71
3
 72
19
 73
15
 74
0
 40
0.0
 40
0.0
 40
0.0
 40
0.0
 40
1.0
 40
2.0
 40
3.0
 40
4.0
 40
5.0
 40
6.0
 40
7.0
 40
8.0
 40
9.0
 40
10.0
 40
11.0
 40
12.0
 40
12.0
 40
12.0
 40
12.0
 10
109.97289529337651
 20
201.4053459885214181
 30
0.0
 10
108.6464064130036178
 20
201.2392218698352337
 30
0.0
 10
107.3000013589122119
 20
200.753980865237196
 30
0.0
 10
105.4000013589122062
 20
199.4539808652371846
 30
0.0
 10
104.2000013589121892
 20
197.6539808652371732
 30
0.0
 10
103.6000013589122233
 20
195.6539808652371732
 30
0.0
 10
103.1000013589122233
 20
193.0539808652372074
 30
0.0
 10
102.9000013589122062
 20
190.6539808652371732
 30
0.0
 10
102.9000013589122062
 20
184.8539808652371619
 30
0.0
 10
103.0000013589122005
 20
182.8539808652371619
 30
0.0
 10
103.2000013589121892
 20
179.753980865237196
 30
0.0
 10
103.4000013589122062
 20
177.0539808652371789
 30
0.0
 10
103.6000013589122233
 20
174.5539808652372074
 30
0.0
 10
103.8000013589122119
 20
172.1539808652371732
 30
0.0
 10
103.9881292476756727
 20
170.0047334141281965
 30
0.0
  0
LINE
  5
B6
100
AcDbEntity
  8
Stene
 62
256
370
-1
 48
1.0
  6
BYLAYER
100
AcDbLine
 10
149.9728939344643095
 20
168.5930793211602179
 30
0.0
 11
150.0
 21
200.0
 31
0.0
  0
LINE
  5
B7
100
AcDbEntity
  8
Stene
 62
256
370
-1
 48
1.0
  6
BYLAYER
100
AcDbLine
 10
109.9999986409473252
 20
169.9984253096815223
 30
0.0
 11
110.0271047064830157
 21
201.4053459885213044
 31
0.0
  0
LINE
  5
B8
100
AcDbEntity
  8
Stene
 62
256
370
-1
 48
1.0
  6
BYLAYER
100
AcDbLine
 10
109.9999986409473252
 20
170.0015746903184777
 30
0.0
 11
110.0271047064830157
 21
138.5946540114786956
 31
0.0
  0
LINE
  5
B9
100
AcDbEntity
  8
Stene
 62
256
370
-1
 48
1.0
  6
BYLAYER
100
AcDbLine
 10
110.0000013590526606
 20
170.0015746903187051
 30
0.0
 11
109.9728952935169701
 21
138.5946540114789229
 31
0.0
  0
LINE
  5
BA
100
AcDbEntity
  8
Stene
 62
256
370
-1
 48
1.0
  6
BYLAYER
100
AcDbLine
 10
110.0000013589122005
 20
169.998425309681636
 30
0.0
 11
109.97289529337651
 21
201.4053459885214181
 31
0.0
  0
MTEXT
  5
BB
100
AcDbEntity
  8
0. Besedilo_noge
 62
256
370
-1
 48
1.0
  6
BYLAYER
100
AcDbMText
 10
108.086350649936179
 20
247.6195361742636862
 30
0.0
 40
1.0
 41
0.0
 71
2
 72
1
  1
\H7;x20
  7
textstyle19
 50
0.0
 73
2
 44
1.0
  0
MTEXT
  5
BC
100
AcDbEntity
  8
0. Besedilo_noge
 62
256
370
-1
 48
1.0
  6
BYLAYER
100
AcDbMText
 10
157.0000000000000568
 20
248.4444444444444287
 30
0.0
 40
1.0
 41
0.0
 71
2
 72
1
  1
\H7;x18
  7
textstyle21
 50
0.0
 73
2
 44
1.0
  0
MTEXT
  5
BD
100
AcDbEntity
  8
0. Besedilo_noge
 62
256
370
-1
 48
1.0
  6
BYLAYER
100
AcDbMText
 10
162.739909728983946
 20
179.2277972904829539
 30
0.0
 40
1.0
 41
0.0
 71
2
 72
1
  1
\H7;x4
  7
textstyle20
 50
0.0
 73
2
 44
1.0
  0
LINE
  5
BE
100
AcDbEntity
  8
Prepreke
 62
256
370
-1
 48
1.0
  6
BYLAYER
100
AcDbLine
 10
100.0
 20
228.4444444444444002
 30
0.0
 11
100.0
 21
260.0
 31
0.0
  0
DIMENSION
  5
BF
100
AcDbEntity
  8
0
 62
256
370
-1
 48
1.0
  6
BYLAYER
100
AcDbDimension
 10
50.0
 20
270.0
 30
0.0
 11
56.8888888888888857
 21
271.875
 31
0.0
 70
0
 71
8
 72
2
 41
1.0
 42
0.0
  1

  3
Standard
100
AcDbAlignedDimension
 13
49.9999999999999858
 23
260.0
 33
0.0
 14
63.7777777777777786
 24
260.0000000000000568
 34
0.0
 50
0.0
100
AcDbRotatedDimension
1001
ACAD
1000
DSTYLE
1002
{
1070
144
1040
1.0
1070
40
1040
1.0
1002
}
  0
DIMENSION
  5
C0
100
AcDbEntity
  8
0
 62
256
370
-1
 48
1.0
  6
BYLAYER
100
AcDbDimension
 10
100.0000000000000284
 20
270.0
 30
0.0
 11
108.8888888888889426
 21
271.875
 31
0.0
 70
0
 71
8
 72
2
 41
1.0
 42
0.0
  1

  3
Standard
100
AcDbAlignedDimension
 13
100.0000000000000142
 23
260.0
 33
0.0
 14
117.7777777777778567
 24
260.0
 34
0.0
 50
0.0
100
AcDbRotatedDimension
1001
ACAD
1000
DSTYLE
1002
{
1070
144
1040
1.0
1070
40
1040
1.0
1002
}
  0
DIMENSION
  5
C1
100
AcDbEntity
  8
0
 62
256
370
-1
 48
1.0
  6
BYLAYER
100
AcDbDimension
 10
149.9999999999999716
 20
270.0
 30
0.0
 11
156.8888888888888573
 21
271.875
 31
0.0
 70
0
 71
8
 72
2
 41
1.0
 42
0.0
  1

  3
Standard
100
AcDbAlignedDimension
 13
149.9999999999999716
 23
260.0
 33
0.0
 14
163.7777777777777146
 24
260.0000000000000568
 34
0.0
 50
0.0
100
AcDbRotatedDimension
1001
ACAD
1000
DSTYLE
1002
{
1070
144
1040
1.0
1070
40
1040
1.0
1002
}
  0
DIMENSION
  5
C2
100
AcDbEntity
  8
0
 62
256
370
-1
 48
1.0
  6
BYLAYER
100
AcDbDimension
 10
149.9728952935169843
 20
160.0
 30
0.0
 11
152.9788306696088966
 21
161.875
 31
0.0
 70
0
 71
8
 72
2
 41
1.0
 42
0.0
  1

  3
Standard
100
AcDbAlignedDimension
 13
149.9728952935169843
 23
168.5946540114786956
 33
0.0
 14
155.9847660457008374
 24
168.5993874256066647
 34
0.0
 50
0.0
100
AcDbRotatedDimension
1001
ACAD
1000
DSTYLE
1002
{
1070
144
1040
1.0
1070
40
1040
1.0
1002
}
  0
DIMENSION
  5
C3
100
AcDbEntity
  8
0
 62
256
370
-1
 48
1.0
  6
BYLAYER
100
AcDbDimension
 10
150.0
 20
154.0
 30
0.0
 11
153.5197803005654578
 21
155.875
 31
0.0
 70
0
 71
8
 72
2
 41
1.0
 42
0.0
  1

  3
Standard
100
AcDbAlignedDimension
 13
150.0
 23
190.0000000000000568
 33
0.0
 14
157.039560601130944
 24
188.6819682100491207
 34
0.0
 50
0.0
100
AcDbRotatedDimension
1001
ACAD
1000
DSTYLE
1002
{
1070
144
1040
1.0
1070
40
1040
1.0
1002
}
  0
MTEXT
  5
C4
100
AcDbEntity
  8
0. Besedilo_noge
 62
256
370
-1
 48
1.0
  6
BYLAYER
100
AcDbMText
 10
36.0733936749064554
 20
75.4468534989021151
 30
0.0
 40
1.0
 41
0.0
 71
2
 72
1
  1
\H7;x1
  7
textstyle22
 50
0.0
 73
2
 44
1.0
  0
DIMENSION
  5
C5
100
AcDbEntity
  8
Obroba_risbe
 62
256
370
-1
 48
1.0
  6
BYLAYER
100
AcDbDimension
 10
40.0
 20
260.0
 30
0.0
 11
38.125
 21
253.1111111111111427
 31
0.0
 70
0
 71
8
 72
2
 41
1.0
 42
0.0
  1

  3
Standard
100
AcDbAlignedDimension
 13
50.0
 23
260.0
 33
0.0
 14
50.0
 24
246.222222222222257
 34
0.0
 50
90.0
100
AcDbRotatedDimension
1001
ACAD
1000
DSTYLE
1002
{
1070
144
1040
1.0
1070
40
1040
1.0
1002
}
  0
DIMENSION
  5
C6
100
AcDbEntity
  8
Obroba_risbe
 62
256
370
-1
 48
1.0
  6
BYLAYER
100
AcDbDimension
 10
90.0
 20
260.0
 30
0.0
 11
88.125
 21
244.2222222222222001
 31
0.0
 70
0
 71
8
 72
2
 41
1.0
 42
0.0
  1

  3
Standard
100
AcDbAlignedDimension
 13
100.0000000000000142
 23
260.0
 33
0.0
 14
100.0000000000000142
 24
228.4444444444444002
 34
0.0
 50
90.0
100
AcDbRotatedDimension
1001
ACAD
1000
DSTYLE
1002
{
1070
144
1040
1.0
1070
40
1040
1.0
1002
}
  0
DIMENSION
  5
C7
100
AcDbEntity
  8
Obroba_risbe
 62
256
370
-1
 48
1.0
  6
BYLAYER
100
AcDbDimension
 10
140.0
 20
260.0
 30
0.0
 11
138.125
 21
244.2222222222222001
 31
0.0
 70
0
 71
8
 72
2
 41
1.0
 42
0.0
  1

  3
Standard
100
AcDbAlignedDimension
 13
150.0
 23
260.0
 33
0.0
 14
150.0000000000000284
 24
228.4444444444444002
 34
0.0
 50
90.0
100
AcDbRotatedDimension
1001
ACAD
1000
DSTYLE
1002
{
1070
144
1040
1.0
1070
40
1040
1.0
1002
}
  0
DIMENSION
  5
C8
100
AcDbEntity
  8
Obroba_risbe
 62
256
370
-1
 48
1.0
  6
BYLAYER
100
AcDbDimension
 10
140.0
 20
200.0
 30
0.0
 11
138.125
 21
184.297327005739362
 31
0.0
 70
0
 71
8
 72
2
 41
1.0
 42
0.0
  1

  3
Standard
100
AcDbAlignedDimension
 13
150.0
 23
200.0
 33
0.0
 14
149.9728952935169843
 24
168.5946540114786956
 34
0.0
 50
90.0
100
AcDbRotatedDimension
1001
ACAD
1000
DSTYLE
1002
{
1070
144
1040
1.0
1070
40
1040
1.0
1002
}
  0
MTEXT
  5
C9
100
AcDbEntity
  8
Obroba_risbe
 62
256
370
-1
 48
1.0
  6
BYLAYER
100
AcDbMText
 10
90.0
 20
110.0
 30
0.0
 40
1.0
 41
0.0
 71
1
 72
1
  1
\H3;*Iz odpada izdelaj 2 figurici
  7
textstyle23
 50
0.0
 73
2
 44
1.0
  0
ENDSEC
  0
SECTION
  2
OBJECTS
  0
DICTIONARY
  5
C
100
AcDbDictionary
280
0
281
1
  3
ACAD_GROUP
350
D
  3
ACAD_LAYOUT
350
1A
  3
ACAD_MLINESTYLE
350
17
  3
ACAD_PLOTSETTINGS
350
19
  3
ACAD_PLOTSTYLENAME
350
E
  3
AcDbVariableDictionary
350
CA
  3
QCAD_OBJECTS
350
CB
  0
DICTIONARY
  5
D
100
AcDbDictionary
280
0
281
1
  0
ACDBDICTIONARYWDFLT
  5
E
100
AcDbDictionary
281
1
  3
Normal
350
F
100
AcDbDictionaryWithDefault
340
F
  0
ACDBPLACEHOLDER
  5
F
  0
DICTIONARY
  5
17
100
AcDbDictionary
280
0
281
1
  3
Standard
350
18
  0
MLINESTYLE
  5
18
100
AcDbMlineStyle
  2
STANDARD
 70
0
  3

 62
256
 51
90.0
 52
90.0
 71
2
 49
0.5
 62
256
  6
BYLAYER
 49
-0.5
 62
256
  6
BYLAYER
  0
DICTIONARY
  5
19
100
AcDbDictionary
280
0
281
1
  0
DICTIONARY
  5
1A
100
AcDbDictionary
281
1
  3
Layout1
350
1E
  3
Layout2
350
26
  3
Model
350
22
  0
LAYOUT
  5
1E
100
AcDbPlotSettings
  1

  2
none_device
  4

  6

 40
0.0
 41
0.0
 42
0.0
 43
0.0
 44
0.0
 45
0.0
 46
0.0
 47
0.0
 48
0.0
 49
0.0
140
0.0
141
0.0
142
1.0
143
1.0
 70
688
 72
0
 73
0
 74
5
  7

 75
16
147
1.0
148
0.0
149
0.0
100
AcDbLayout
  1
Layout1
 70
1
 71
1
 10
0.0
 20
0.0
 11
420.0
 21
297.0
 12
0.0
 22
0.0
 32
0.0
 14
100000000000000000000.0
 24
100000000000000000000.0
 34
100000000000000000000.0
 15
-100000000000000000000.0
 25
-100000000000000000000.0
 35
-100000000000000000000.0
146
0.0
 13
0.0
 23
0.0
 33
0.0
 16
1.0
 26
0.0
 36
0.0
 17
0.0
 27
1.0
 37
0.0
 76
0
330
1B
  0
LAYOUT
  5
22
100
AcDbPlotSettings
  1

  2
none_device
  4

  6

 40
0.0
 41
0.0
 42
0.0
 43
0.0
 44
0.0
 45
0.0
 46
0.0
 47
0.0
 48
0.0
 49
0.0
140
0.0
141
0.0
142
1.0
143
1.0
 70
1712
 72
0
 73
0
 74
0
  7

 75
0
147
1.0
148
0.0
149
0.0
100
AcDbLayout
  1
Model
 70
1
 71
0
 10
0.0
 20
0.0
 11
12.0
 21
9.0
 12
0.0
 22
0.0
 32
0.0
 14
0.0
 24
0.0
 34
0.0
 15
0.0
 25
0.0
 35
0.0
146
0.0
 13
0.0
 23
0.0
 33
0.0
 16
1.0
 26
0.0
 36
0.0
 17
0.0
 27
1.0
 37
0.0
 76
0
330
1F
  0
LAYOUT
  5
26
100
AcDbPlotSettings
  1

  2
none_device
  4

  6

 40
0.0
 41
0.0
 42
0.0
 43
0.0
 44
0.0
 45
0.0
 46
0.0
 47
0.0
 48
0.0
 49
0.0
140
0.0
141
0.0
142
1.0
143
1.0
 70
688
 72
0
 73
0
 74
5
  7

 75
16
147
1.0
148
0.0
149
0.0
100
AcDbLayout
  1
Layout2
 70
1
 71
2
 10
0.0
 20
0.0
 11
12.0
 21
9.0
 12
0.0
 22
0.0
 32
0.0
 14
0.0
 24
0.0
 34
0.0
 15
0.0
 25
0.0
 35
0.0
146
0.0
 13
0.0
 23
0.0
 33
0.0
 16
1.0
 26
0.0
 36
0.0
 17
0.0
 27
1.0
 37
0.0
 76
0
330
23
  0
DICTIONARY
  5
CA
100
AcDbDictionary
281
1
  3
DIMASSOC
350
CD
  3
HIDETEXT
350
CC
  0
DICTIONARYVAR
  5
CC
100
DictionaryVariables
280
0
  1
2
  0
DICTIONARYVAR
  5
CD
100
DictionaryVariables
280
0
  1
1
  0
DICTIONARY
  5
CB
100
AcDbDictionary
281
1
  3
ColorSettings/BackgroundColor
350
CE
  3
ColorSettings/ColorMode
350
CF
  3
DimensionSettings/AngularFormat
350
D0
  3
DimensionSettings/AngularPrecision
350
D1
  3
DimensionSettings/DecimalPoint
350
D2
  3
DimensionSettings/DimensionFont
350
D3
  3
DimensionSettings/KeepProportions
350
D4
  3
DimensionSettings/LinearFormat
350
D5
  3
DimensionSettings/LinearPrecision
350
D6
  3
Grid/DisplayGrid00
350
D7
  3
Grid/DisplayGrid01
350
D8
  3
Grid/DisplayGrid02
350
D9
  3
Grid/DisplayGrid03
350
DA
  3
Grid/GridSpacingX00
350
DB
  3
Grid/GridSpacingX01
350
DC
  3
Grid/GridSpacingX02
350
DD
  3
Grid/GridSpacingX03
350
DE
  3
Grid/GridSpacingY00
350
DF
  3
Grid/GridSpacingY01
350
E0
  3
Grid/GridSpacingY02
350
E1
  3
Grid/GridSpacingY03
350
E2
  3
Grid/IsometricGrid00
350
E3
  3
Grid/IsometricGrid01
350
E4
  3
Grid/IsometricGrid02
350
E5
  3
Grid/IsometricGrid03
350
E6
  3
Grid/IsometricProjection00
350
E7
  3
Grid/IsometricProjection01
350
E8
  3
Grid/IsometricProjection02
350
E9
  3
Grid/IsometricProjection03
350
EA
  3
Grid/MetaGridSpacingX00
350
EB
  3
Grid/MetaGridSpacingX01
350
EC
  3
Grid/MetaGridSpacingX02
350
ED
  3
Grid/MetaGridSpacingX03
350
EE
  3
Grid/MetaGridSpacingY00
350
EF
  3
Grid/MetaGridSpacingY01
350
F0
  3
Grid/MetaGridSpacingY02
350
F1
  3
Grid/MetaGridSpacingY03
350
F2
  3
MultiPageSettings/Columns
350
F3
  3
MultiPageSettings/GlueMarginsBottom
350
F4
  3
MultiPageSettings/GlueMarginsLeft
350
F5
  3
MultiPageSettings/GlueMarginsRight
350
F6
  3
MultiPageSettings/GlueMarginsTop
350
F7
  3
MultiPageSettings/PrintCropMarks
350
F8
  3
MultiPageSettings/Rows
350
F9
  3
PageSettings/OffsetX
350
FA
  3
PageSettings/OffsetY
350
FB
  3
PageSettings/PageOrientation
350
FC
  3
PageSettings/PaperHeight
350
FD
  3
PageSettings/PaperWidth
350
FE
  3
PageSettings/Scale
350
FF
  3
PageSettings/ShowPaperBorders
350
100
  3
QCADVersion
350
101
  3
UnitSettings/PaperUnit
350
102
  3
ViewportCenter
350
103
  3
ViewportHeight
350
104
  3
ViewportWidth
350
105
  0
XRECORD
  5
CE
330
CB
100
AcDbXrecord
280
1
1000
Bela
  0
XRECORD
  5
CF
330
CB
100
AcDbXrecord
280
1
1000
FullColor
  0
XRECORD
  5
D0
330
CB
100
AcDbXrecord
280
1
 90
0
  0
XRECORD
  5
D1
330
CB
100
AcDbXrecord
280
1
 90
0
  0
XRECORD
  5
D2
330
CB
100
AcDbXrecord
280
1
 90
46
  0
XRECORD
  5
D3
330
CB
100
AcDbXrecord
280
1
1000
DejaVu Sans
  0
XRECORD
  5
D4
330
CB
100
AcDbXrecord
280
1
290
1
  0
XRECORD
  5
D5
330
CB
100
AcDbXrecord
280
1
 90
2
  0
XRECORD
  5
D6
330
CB
100
AcDbXrecord
280
1
 90
1
  0
XRECORD
  5
D7
330
CB
100
AcDbXrecord
280
1
290
1
  0
XRECORD
  5
D8
330
CB
100
AcDbXrecord
280
1
290
1
  0
XRECORD
  5
D9
330
CB
100
AcDbXrecord
280
1
290
1
  0
XRECORD
  5
DA
330
CB
100
AcDbXrecord
280
1
290
1
  0
XRECORD
  5
DB
330
CB
100
AcDbXrecord
280
1
1000
auto
  0
XRECORD
  5
DC
330
CB
100
AcDbXrecord
280
1
1000
auto
  0
XRECORD
  5
DD
330
CB
100
AcDbXrecord
280
1
1000
auto
  0
XRECORD
  5
DE
330
CB
100
AcDbXrecord
280
1
1000
auto
  0
XRECORD
  5
DF
330
CB
100
AcDbXrecord
280
1
1000
auto
  0
XRECORD
  5
E0
330
CB
100
AcDbXrecord
280
1
1000
auto
  0
XRECORD
  5
E1
330
CB
100
AcDbXrecord
280
1
1000
auto
  0
XRECORD
  5
E2
330
CB
100
AcDbXrecord
280
1
1000
auto
  0
XRECORD
  5
E3
330
CB
100
AcDbXrecord
280
1
290
0
  0
XRECORD
  5
E4
330
CB
100
AcDbXrecord
280
1
290
0
  0
XRECORD
  5
E5
330
CB
100
AcDbXrecord
280
1
290
0
  0
XRECORD
  5
E6
330
CB
100
AcDbXrecord
280
1
290
0
  0
XRECORD
  5
E7
330
CB
100
AcDbXrecord
280
1
 90
65537
  0
XRECORD
  5
E8
330
CB
100
AcDbXrecord
280
1
 90
65537
  0
XRECORD
  5
E9
330
CB
100
AcDbXrecord
280
1
 90
65537
  0
XRECORD
  5
EA
330
CB
100
AcDbXrecord
280
1
 90
65537
  0
XRECORD
  5
EB
330
CB
100
AcDbXrecord
280
1
1000
auto
  0
XRECORD
  5
EC
330
CB
100
AcDbXrecord
280
1
1000
auto
  0
XRECORD
  5
ED
330
CB
100
AcDbXrecord
280
1
1000
auto
  0
XRECORD
  5
EE
330
CB
100
AcDbXrecord
280
1
1000
auto
  0
XRECORD
  5
EF
330
CB
100
AcDbXrecord
280
1
1000
auto
  0
XRECORD
  5
F0
330
CB
100
AcDbXrecord
280
1
1000
auto
  0
XRECORD
  5
F1
330
CB
100
AcDbXrecord
280
1
1000
auto
  0
XRECORD
  5
F2
330
CB
100
AcDbXrecord
280
1
1000
auto
  0
XRECORD
  5
F3
330
CB
100
AcDbXrecord
280
1
 90
1
  0
XRECORD
  5
F4
330
CB
100
AcDbXrecord
280
1
 40
10.0
  0
XRECORD
  5
F5
330
CB
100
AcDbXrecord
280
1
 40
10.0
  0
XRECORD
  5
F6
330
CB
100
AcDbXrecord
280
1
 40
10.0
  0
XRECORD
  5
F7
330
CB
100
AcDbXrecord
280
1
 40
10.0
  0
XRECORD
  5
F8
330
CB
100
AcDbXrecord
280
1
290
0
  0
XRECORD
  5
F9
330
CB
100
AcDbXrecord
280
1
 90
1
  0
XRECORD
  5
FA
330
CB
100
AcDbXrecord
280
1
 40
0.0
  0
XRECORD
  5
FB
330
CB
100
AcDbXrecord
280
1
 40
0.0
  0
XRECORD
  5
FC
330
CB
100
AcDbXrecord
280
1
1000
Portrait
  0
XRECORD
  5
FD
330
CB
100
AcDbXrecord
280
1
 40
297.0
  0
XRECORD
  5
FE
330
CB
100
AcDbXrecord
280
1
 40
210.0
  0
XRECORD
  5
FF
330
CB
100
AcDbXrecord
280
1
1000
1:1
  0
XRECORD
  5
100
330
CB
100
AcDbXrecord
280
1
290
1
  0
XRECORD
  5
101
330
CB
100
AcDbXrecord
280
1
1000
3.19.1
  0
XRECORD
  5
102
330
CB
100
AcDbXrecord
280
1
 90
4
  0
XRECORD
  5
104
330
CB
100
AcDbXrecord
280
1
 40
341.5774593023998023
  0
XRECORD
  5
105
330
CB
100
AcDbXrecord
280
1
 40
743.0083706879996726
  0
ENDSEC
  0
EOF
