999
dxflib 3.17.0.0
  0
SECTION
  2
HEADER
  9
$ACADVER
  1
AC1015
  9
$HANDSEED
  5
FFFF
  9
$DIMADEC
 70
0
  9
$DIMASZ
 40
2.5
  9
$DIMAUNIT
 70
0
  9
$DIMAZIN
 70
2
  9
$DIMDEC
 70
4
  9
$DIMDSEP
 70
46
  9
$DIMEXE
 40
1.25
  9
$DIMEXO
 40
0.625
  9
$DIMGAP
 40
0.625
  9
$DIMLUNIT
 70
2
  9
$DIMSCALE
 40
3
  9
$DIMTSZ
 40
0.0
  9
$DIMTXT
 40
2.5
  9
$DIMZIN
 70
8
  9
$DWGCODEPAGE
  3
ANSI_1252
  9
$INSUNITS
 70
4
  9
$LTSCALE
 40
1.0
  9
$MAXACTVP
 70
64
  9
$MEASUREMENT
 70
1
  9
$PDMODE
 70
0
  9
$PDSIZE
 40
0.0
  0
ENDSEC
  0
SECTION
  2
TABLES
  0
TABLE
  2
VPORT
  5
8
100
AcDbSymbolTable
 70
1
  0
VPORT
  5
30
100
AcDbSymbolTableRecord
100
AcDbViewportTableRecord
  2
*Active
 70
0
 10
0.0
 20
0.0
 11
1.0
 21
1.0
 12
286.3055555555554861
 22
148.5
 13
0.0
 23
0.0
 14
10.0
 24
10.0
 15
10.0
 25
10.0
 16
0.0
 26
0.0
 36
1.0
 17
0.0
 27
0.0
 37
0.0
 40
297.0
 41
1.92798353909465
 42
50.0
 43
0.0
 44
0.0
 50
0.0
 51
0.0
 71
0
 72
100
 73
1
 74
3
 75
1
 76
1
 77
0
 78
0
281
0
 65
1
110
0.0
120
0.0
130
0.0
111
1.0
121
0.0
131
0.0
112
0.0
122
1.0
132
0.0
 79
0
146
0.0
  0
ENDTAB
  0
TABLE
  2
LTYPE
  5
5
100
AcDbSymbolTable
 70
41
  0
LTYPE
  5
16
100
AcDbSymbolTableRecord
100
AcDbLinetypeTableRecord
  2
Continuous
 70
0
  3
Solid line
 72
65
 73
0
 40
0.0
  0
LTYPE
  5
31
100
AcDbSymbolTableRecord
100
AcDbLinetypeTableRecord
  2
CENTER2
 70
0
  3
Center (.5x) ___ _ ___ _ ___ _ ___ _ ___ _ ___
 72
65
 73
4
 40
28.5750000000000028
 49
19.0500000000000007
 74
0
 49
-3.1749999999999998
 74
0
 49
3.1749999999999998
 74
0
 49
-3.1749999999999998
 74
0
  0
LTYPE
  5
32
100
AcDbSymbolTableRecord
100
AcDbLinetypeTableRecord
  2
CENTER
 70
0
  3
Center ____ _ ____ _ ____ _ ____ _ ____ _ ____
 72
65
 73
4
 40
50.8000000000000043
 49
31.75
 74
0
 49
-6.3499999999999996
 74
0
 49
6.3499999999999996
 74
0
 49
-6.3499999999999996
 74
0
  0
LTYPE
  5
33
100
AcDbSymbolTableRecord
100
AcDbLinetypeTableRecord
  2
BORDERX2
 70
0
  3
Border (2x) ____  ____  .  ____  ____  .  ___
 72
65
 73
6
 40
88.8999999999999915
 49
25.3999999999999986
 74
0
 49
-12.6999999999999993
 74
0
 49
25.3999999999999986
 74
0
 49
-12.6999999999999993
 74
0
 49
0.0
 74
0
 49
-12.6999999999999993
 74
0
  0
LTYPE
  5
34
100
AcDbSymbolTableRecord
100
AcDbLinetypeTableRecord
  2
ACAD_ISO07W100
 70
0
  3
ISO dot . . . . . . . . . . . . . . . . . . . . 
 72
65
 73
2
 40
3.0
 49
0.0
 74
0
 49
-3.0
 74
0
  0
LTYPE
  5
35
100
AcDbSymbolTableRecord
100
AcDbLinetypeTableRecord
  2
ACAD_ISO06W100
 70
0
  3
ISO long-dash triple-dot ____ ... ____ ... ____
 72
65
 73
8
 40
36.0
 49
24.0
 74
0
 49
-3.0
 74
0
 49
0.0
 74
0
 49
-3.0
 74
0
 49
0.0
 74
0
 49
-3.0
 74
0
 49
0.0
 74
0
 49
-3.0
 74
0
  0
LTYPE
  5
36
100
AcDbSymbolTableRecord
100
AcDbLinetypeTableRecord
  2
DASHDOTX2
 70
0
  3
Dash dot (2x) ____  .  ____  .  ____  .  ___
 72
65
 73
4
 40
50.7999999999999972
 49
25.3999999999999986
 74
0
 49
-12.6999999999999993
 74
0
 49
0.0
 74
0
 49
-12.6999999999999993
 74
0
  0
LTYPE
  5
37
100
AcDbSymbolTableRecord
100
AcDbLinetypeTableRecord
  2
DASHEDX2
 70
0
  3
Dashed (2x) ____  ____  ____  ____  ____  ___
 72
65
 73
2
 40
38.0999999999999943
 49
25.3999999999999986
 74
0
 49
-12.6999999999999993
 74
0
  0
LTYPE
  5
38
100
AcDbSymbolTableRecord
100
AcDbLinetypeTableRecord
  2
ACAD_ISO05W100
 70
0
  3
ISO long-dash double-dot ____ .. ____ .. ____ . 
 72
65
 73
6
 40
33.0
 49
24.0
 74
0
 49
-3.0
 74
0
 49
0.0
 74
0
 49
-3.0
 74
0
 49
0.0
 74
0
 49
-3.0
 74
0
  0
LTYPE
  5
39
100
AcDbSymbolTableRecord
100
AcDbLinetypeTableRecord
  2
DOT2
 70
0
  3
Dot (.5x) ........................................
 72
65
 73
2
 40
3.1749999999999998
 49
0.0
 74
0
 49
-3.1749999999999998
 74
0
  0
LTYPE
  5
3A
100
AcDbSymbolTableRecord
100
AcDbLinetypeTableRecord
  2
DASHED2
 70
0
  3
Dashed (.5x) _ _ _ _ _ _ _ _ _ _ _ _ _ _ _ _ _ 
 72
65
 73
2
 40
9.5249999999999986
 49
6.3499999999999996
 74
0
 49
-3.1749999999999998
 74
0
  0
LTYPE
  5
3B
100
AcDbSymbolTableRecord
100
AcDbLinetypeTableRecord
  2
HIDDEN2
 70
0
  3
Hidden (.5x) _ _ _ _ _ _ _ _ _ _ _ _ _ _ _ _ _ 
 72
65
 73
2
 40
4.7624999999999993
 49
3.1749999999999998
 74
0
 49
-1.5874999999999999
 74
0
  0
LTYPE
  5
3C
100
AcDbSymbolTableRecord
100
AcDbLinetypeTableRecord
  2
ACAD_ISO15W100
 70
0
  3
ISO double-dash triple-dot __ __ . . . __ __ . .
 72
65
 73
10
 40
39.0
 49
12.0
 74
0
 49
-3.0
 74
0
 49
12.0
 74
0
 49
-3.0
 74
0
 49
0.0
 74
0
 49
-3.0
 74
0
 49
0.0
 74
0
 49
-3.0
 74
0
 49
0.0
 74
0
 49
-3.0
 74
0
  0
LTYPE
  5
3D
100
AcDbSymbolTableRecord
100
AcDbLinetypeTableRecord
  2
DOT
 70
0
  3
Dot . . . . . . . . . . . . . . . . . . . . . . . .
 72
65
 73
2
 40
6.3499999999999996
 49
0.0
 74
0
 49
-6.3499999999999996
 74
0
  0
LTYPE
  5
3E
100
AcDbSymbolTableRecord
100
AcDbLinetypeTableRecord
  2
DIVIDE
 70
0
  3
Divide ____ . . ____ . . ____ . . ____ . . ____
 72
65
 73
6
 40
31.75
 49
12.6999999999999993
 74
0
 49
-6.3499999999999996
 74
0
 49
0.0
 74
0
 49
-6.3499999999999996
 74
0
 49
0.0
 74
0
 49
-6.3499999999999996
 74
0
  0
LTYPE
  5
3F
100
AcDbSymbolTableRecord
100
AcDbLinetypeTableRecord
  2
ACAD_ISO03W100
 70
0
  3
ISO dash space __    __    __    __    __    __
 72
65
 73
2
 40
30.0
 49
12.0
 74
0
 49
-18.0
 74
0
  0
LTYPE
  5
40
100
AcDbSymbolTableRecord
100
AcDbLinetypeTableRecord
  2
ACAD_ISO14W100
 70
0
  3
ISO dash triple-dot __ . . . __ . . . __ . . . _
 72
65
 73
8
 40
24.0
 49
12.0
 74
0
 49
-3.0
 74
0
 49
0.0
 74
0
 49
-3.0
 74
0
 49
0.0
 74
0
 49
-3.0
 74
0
 49
0.0
 74
0
 49
-3.0
 74
0
  0
LTYPE
  5
41
100
AcDbSymbolTableRecord
100
AcDbLinetypeTableRecord
  2
ACAD_ISO09W100
 70
0
  3
ISO long-dash double-short-dash ____ __ __ ____
 72
65
 73
6
 40
45.0
 49
24.0
 74
0
 49
-3.0
 74
0
 49
6.0
 74
0
 49
-3.0
 74
0
 49
6.0
 74
0
 49
-3.0
 74
0
  0
LTYPE
  5
15
100
AcDbSymbolTableRecord
100
AcDbLinetypeTableRecord
  2
BYLAYER
 70
0
  3

 72
65
 73
0
 40
0.0
  0
LTYPE
  5
42
100
AcDbSymbolTableRecord
100
AcDbLinetypeTableRecord
  2
ACAD_ISO10W100
 70
0
  3
ISO dash dot __ . __ . __ . __ . __ . __ . __ . 
 72
65
 73
4
 40
18.0
 49
12.0
 74
0
 49
-3.0
 74
0
 49
0.0
 74
0
 49
-3.0
 74
0
  0
LTYPE
  5
43
100
AcDbSymbolTableRecord
100
AcDbLinetypeTableRecord
  2
DASHED
 70
0
  3
Dashed __ __ __ __ __ __ __ __ __ __ __ __ __ _
 72
65
 73
2
 40
19.0499999999999972
 49
12.6999999999999993
 74
0
 49
-6.3499999999999996
 74
0
  0
LTYPE
  5
44
100
AcDbSymbolTableRecord
100
AcDbLinetypeTableRecord
  2
ACAD_ISO12W100
 70
0
  3
ISO dash double-dot __ . . __ . . __ . . __ . . 
 72
65
 73
6
 40
21.0
 49
12.0
 74
0
 49
-3.0
 74
0
 49
0.0
 74
0
 49
-3.0
 74
0
 49
0.0
 74
0
 49
-3.0
 74
0
  0
LTYPE
  5
45
100
AcDbSymbolTableRecord
100
AcDbLinetypeTableRecord
  2
HIDDEN
 70
0
  3
Hidden __ __ __ __ __ __ __ __ __ __ __ __ __ __
 72
65
 73
2
 40
9.5249999999999986
 49
6.3499999999999996
 74
0
 49
-3.1749999999999998
 74
0
  0
LTYPE
  5
46
100
AcDbSymbolTableRecord
100
AcDbLinetypeTableRecord
  2
ACAD_ISO04W100
 70
0
  3
ISO long-dash dot ____ . ____ . ____ . ____ . _
 72
65
 73
4
 40
30.0
 49
24.0
 74
0
 49
-3.0
 74
0
 49
0.0
 74
0
 49
-3.0
 74
0
  0
LTYPE
  5
47
100
AcDbSymbolTableRecord
100
AcDbLinetypeTableRecord
  2
BORDER
 70
0
  3
Border __ __ . __ __ . __ __ . __ __ . __ __ .
 72
65
 73
6
 40
44.4499999999999957
 49
12.6999999999999993
 74
0
 49
-6.3499999999999996
 74
0
 49
12.6999999999999993
 74
0
 49
-6.3499999999999996
 74
0
 49
0.0
 74
0
 49
-6.3499999999999996
 74
0
  0
LTYPE
  5
14
100
AcDbSymbolTableRecord
100
AcDbLinetypeTableRecord
  2
BYBLOCK
 70
0
  3

 72
65
 73
0
 40
0.0
  0
LTYPE
  5
48
100
AcDbSymbolTableRecord
100
AcDbLinetypeTableRecord
  2
HIDDENX2
 70
0
  3
Hidden (2x) ____ ____ ____ ____ ____ ____ ____ 
 72
65
 73
2
 40
19.0499999999999972
 49
12.6999999999999993
 74
0
 49
-6.3499999999999996
 74
0
  0
LTYPE
  5
49
100
AcDbSymbolTableRecord
100
AcDbLinetypeTableRecord
  2
CENTERX2
 70
0
  3
Center (2x) ________  __  ________  __  _____
 72
65
 73
4
 40
101.6000000000000085
 49
63.5
 74
0
 49
-12.6999999999999993
 74
0
 49
12.6999999999999993
 74
0
 49
-12.6999999999999993
 74
0
  0
LTYPE
  5
4A
100
AcDbSymbolTableRecord
100
AcDbLinetypeTableRecord
  2
ACAD_ISO11W100
 70
0
  3
ISO double-dash dot __ __ . __ __ . __ __ . __ _
 72
65
 73
6
 40
33.0
 49
12.0
 74
0
 49
-3.0
 74
0
 49
12.0
 74
0
 49
-3.0
 74
0
 49
0.0
 74
0
 49
-3.0
 74
0
  0
LTYPE
  5
4B
100
AcDbSymbolTableRecord
100
AcDbLinetypeTableRecord
  2
BORDER2
 70
0
  3
Border (.5x) __.__.__.__.__.__.__.__.__.__.__.
 72
65
 73
6
 40
22.2249999999999979
 49
6.3499999999999996
 74
0
 49
-3.1749999999999998
 74
0
 49
6.3499999999999996
 74
0
 49
-3.1749999999999998
 74
0
 49
0.0
 74
0
 49
-3.1749999999999998
 74
0
  0
LTYPE
  5
4C
100
AcDbSymbolTableRecord
100
AcDbLinetypeTableRecord
  2
DASHDOT
 70
0
  3
Dash dot __ . __ . __ . __ . __ . __ . __ . __
 72
65
 73
4
 40
25.3999999999999986
 49
12.6999999999999993
 74
0
 49
-6.3499999999999996
 74
0
 49
0.0
 74
0
 49
-6.3499999999999996
 74
0
  0
LTYPE
  5
4D
100
AcDbSymbolTableRecord
100
AcDbLinetypeTableRecord
  2
ACAD_ISO08W100
 70
0
  3
ISO long-dash short-dash ____ __ ____ __ ____ _
 72
65
 73
4
 40
36.0
 49
24.0
 74
0
 49
-3.0
 74
0
 49
6.0
 74
0
 49
-3.0
 74
0
  0
LTYPE
  5
4E
100
AcDbSymbolTableRecord
100
AcDbLinetypeTableRecord
  2
DIVIDE2
 70
0
  3
Divide (.5x) __..__..__..__..__..__..__..__.._
 72
65
 73
6
 40
15.875
 49
6.3499999999999996
 74
0
 49
-3.1749999999999998
 74
0
 49
0.0
 74
0
 49
-3.1749999999999998
 74
0
 49
0.0
 74
0
 49
-3.1749999999999998
 74
0
  0
LTYPE
  5
4F
100
AcDbSymbolTableRecord
100
AcDbLinetypeTableRecord
  2
DOTX2
 70
0
  3
Dot (2x) .  .  .  .  .  .  .  .  .  .  .  .  .  .
 72
65
 73
2
 40
12.6999999999999993
 49
0.0
 74
0
 49
-12.6999999999999993
 74
0
  0
LTYPE
  5
50
100
AcDbSymbolTableRecord
100
AcDbLinetypeTableRecord
  2
ACAD_ISO13W100
 70
0
  3
ISO double-dash double-dot __ __ . . __ __ . . _
 72
65
 73
8
 40
36.0
 49
12.0
 74
0
 49
-3.0
 74
0
 49
12.0
 74
0
 49
-3.0
 74
0
 49
0.0
 74
0
 49
-3.0
 74
0
 49
0.0
 74
0
 49
-3.0
 74
0
  0
LTYPE
  5
51
100
AcDbSymbolTableRecord
100
AcDbLinetypeTableRecord
  2
DASHDOT2
 70
0
  3
Dash dot (.5x) _._._._._._._._._._._._._._._.
 72
65
 73
4
 40
12.6999999999999993
 49
6.3499999999999996
 74
0
 49
-3.1749999999999998
 74
0
 49
0.0
 74
0
 49
-3.1749999999999998
 74
0
  0
LTYPE
  5
52
100
AcDbSymbolTableRecord
100
AcDbLinetypeTableRecord
  2
PHANTOMX2
 70
0
  3
Phantom (2x) ____________    ____    ____   _
 72
65
 73
6
 40
127.0000000000000142
 49
63.5
 74
0
 49
-12.6999999999999993
 74
0
 49
12.6999999999999993
 74
0
 49
-12.6999999999999993
 74
0
 49
12.6999999999999993
 74
0
 49
-12.6999999999999993
 74
0
  0
LTYPE
  5
53
100
AcDbSymbolTableRecord
100
AcDbLinetypeTableRecord
  2
PHANTOM2
 70
0
  3
Phantom (.5x) ___ _ _ ___ _ _ ___ _ _ ___ _ _
 72
65
 73
6
 40
31.7500000000000036
 49
15.875
 74
0
 49
-3.1749999999999998
 74
0
 49
3.1749999999999998
 74
0
 49
-3.1749999999999998
 74
0
 49
3.1749999999999998
 74
0
 49
-3.1749999999999998
 74
0
  0
LTYPE
  5
54
100
AcDbSymbolTableRecord
100
AcDbLinetypeTableRecord
  2
DIVIDEX2
 70
0
  3
Divide (2x) ________  .  .  ________  .  .  _
 72
65
 73
6
 40
63.5
 49
25.3999999999999986
 74
0
 49
-12.6999999999999993
 74
0
 49
0.0
 74
0
 49
-12.6999999999999993
 74
0
 49
0.0
 74
0
 49
-12.6999999999999993
 74
0
  0
LTYPE
  5
55
100
AcDbSymbolTableRecord
100
AcDbLinetypeTableRecord
  2
ACAD_ISO02W100
 70
0
  3
ISO dash __ __ __ __ __ __ __ __ __ __ __ __ __
 72
65
 73
2
 40
15.0
 49
12.0
 74
0
 49
-3.0
 74
0
  0
LTYPE
  5
56
100
AcDbSymbolTableRecord
100
AcDbLinetypeTableRecord
  2
PHANTOM
 70
0
  3
Phantom ______  __  __  ______  __  __  ______ 
 72
65
 73
6
 40
63.5000000000000071
 49
31.75
 74
0
 49
-6.3499999999999996
 74
0
 49
6.3499999999999996
 74
0
 49
-6.3499999999999996
 74
0
 49
6.3499999999999996
 74
0
 49
-6.3499999999999996
 74
0
  0
ENDTAB
  0
TABLE
  2
LAYER
  5
2
100
AcDbSymbolTable
 70
9
  0
LAYER
  5
57
100
AcDbSymbolTableRecord
100
AcDbLayerTableRecord
  2
Dno
 70
4
 62
30
420
16744192
  6
Continuous
370
25
390
F
  0
LAYER
  5
10
100
AcDbSymbolTableRecord
100
AcDbLayerTableRecord
  2
0
 70
4
 62
7
420
16777215
  6
Continuous
370
25
390
F
  0
LAYER
  5
58
100
AcDbSymbolTableRecord
100
AcDbLayerTableRecord
  2
B. Kotirne-Pomozne_crte
 70
4
 62
54
420
8421376
  6
Continuous
370
25
390
F
  0
LAYER
  5
59
100
AcDbSymbolTableRecord
100
AcDbLayerTableRecord
  2
Polje
 70
4
 62
94
420
32768
  6
Continuous
370
18
390
F
  0
LAYER
  5
5A
100
AcDbSymbolTableRecord
100
AcDbLayerTableRecord
  2
A. Vidni_robovi
 70
4
 62
7
420
0
  6
Continuous
370
50
390
F
  0
LAYER
  5
5B
100
AcDbSymbolTableRecord
100
AcDbLayerTableRecord
  2
Stene
 70
4
 62
14
420
8388608
  6
Continuous
370
25
390
F
  0
LAYER
  5
5C
100
AcDbSymbolTableRecord
100
AcDbLayerTableRecord
  2
Obroba_risbe
 70
4
 62
252
420
10526884
  6
Continuous
370
30
390
F
  0
LAYER
  5
5D
100
AcDbSymbolTableRecord
100
AcDbLayerTableRecord
  2
Opis_noge
 70
4
 62
252
420
10526884
  6
Continuous
370
25
390
F
  0
LAYER
  5
5E
100
AcDbSymbolTableRecord
100
AcDbLayerTableRecord
  2
0. Besedilo_noge
 70
4
 62
174
420
128
  6
Continuous
370
25
390
F
  0
ENDTAB
  0
TABLE
  2
STYLE
  5
3
100
AcDbSymbolTable
 70
19
  0
STYLE
  5
5F
100
AcDbSymbolTableRecord
100
AcDbTextStyleTableRecord
  2
Standard
 70
0
 40
0.0
 41
1.0
 50
0.0
 71
0
 42
2.5
  3

  4

1001
ACAD
1000
txt
1071
0
  0
STYLE
  5
60
100
AcDbSymbolTableRecord
100
AcDbTextStyleTableRecord
  2
textstyle0
 70
0
 40
0.0
 41
1.0
 50
0.0
 71
0
 42
1.0
  3

  4

1001
ACAD
1000
Arial
1071
16777216
  0
STYLE
  5
61
100
AcDbSymbolTableRecord
100
AcDbTextStyleTableRecord
  2
textstyle1
 70
0
 40
0.0
 41
1.0
 50
0.0
 71
0
 42
1.0
  3

  4

1001
ACAD
1000
Arial
1071
16777216
  0
STYLE
  5
62
100
AcDbSymbolTableRecord
100
AcDbTextStyleTableRecord
  2
textstyle2
 70
0
 40
0.0
 41
1.0
 50
0.0
 71
0
 42
1.0
  3

  4

1001
ACAD
1000
Arial
1071
16777216
  0
STYLE
  5
63
100
AcDbSymbolTableRecord
100
AcDbTextStyleTableRecord
  2
textstyle3
 70
0
 40
0.0
 41
1.0
 50
0.0
 71
0
 42
1.0
  3

  4

1001
ACAD
1000
Arial
1071
16777216
  0
STYLE
  5
64
100
AcDbSymbolTableRecord
100
AcDbTextStyleTableRecord
  2
textstyle4
 70
0
 40
0.0
 41
1.0
 50
0.0
 71
0
 42
1.0
  3

  4

1001
ACAD
1000
Arial
1071
16777216
  0
STYLE
  5
65
100
AcDbSymbolTableRecord
100
AcDbTextStyleTableRecord
  2
textstyle5
 70
0
 40
0.0
 41
1.0
 50
0.0
 71
0
 42
1.0
  3

  4

1001
ACAD
1000
Arial
1071
16777216
  0
STYLE
  5
66
100
AcDbSymbolTableRecord
100
AcDbTextStyleTableRecord
  2
textstyle6
 70
0
 40
0.0
 41
1.0
 50
0.0
 71
0
 42
1.0
  3

  4

1001
ACAD
1000
Arial
1071
16777216
  0
STYLE
  5
67
100
AcDbSymbolTableRecord
100
AcDbTextStyleTableRecord
  2
textstyle7
 70
0
 40
0.0
 41
1.0
 50
0.0
 71
0
 42
1.0
  3

  4

1001
ACAD
1000
Arial
1071
16777216
  0
STYLE
  5
68
100
AcDbSymbolTableRecord
100
AcDbTextStyleTableRecord
  2
textstyle8
 70
0
 40
0.0
 41
1.0
 50
0.0
 71
0
 42
1.0
  3

  4

1001
ACAD
1000
Arial
1071
16777216
  0
STYLE
  5
69
100
AcDbSymbolTableRecord
100
AcDbTextStyleTableRecord
  2
textstyle9
 70
0
 40
0.0
 41
1.0
 50
0.0
 71
0
 42
1.0
  3

  4

1001
ACAD
1000
Arial
1071
16777216
  0
STYLE
  5
6A
100
AcDbSymbolTableRecord
100
AcDbTextStyleTableRecord
  2
textstyle10
 70
0
 40
0.0
 41
1.0
 50
0.0
 71
0
 42
1.0
  3

  4

1001
ACAD
1000
Arial
1071
16777216
  0
STYLE
  5
6B
100
AcDbSymbolTableRecord
100
AcDbTextStyleTableRecord
  2
textstyle11
 70
0
 40
0.0
 41
1.0
 50
0.0
 71
0
 42
1.0
  3

  4

1001
ACAD
1000
Arial
1071
16777216
  0
STYLE
  5
6C
100
AcDbSymbolTableRecord
100
AcDbTextStyleTableRecord
  2
textstyle12
 70
0
 40
0.0
 41
1.0
 50
0.0
 71
0
 42
1.0
  3

  4

1001
ACAD
1000
osifont
1071
16777216
  0
STYLE
  5
6D
100
AcDbSymbolTableRecord
100
AcDbTextStyleTableRecord
  2
textstyle13
 70
0
 40
0.0
 41
1.0
 50
0.0
 71
0
 42
1.0
  3

  4

1001
ACAD
1000
osifont
1071
16777216
  0
STYLE
  5
6E
100
AcDbSymbolTableRecord
100
AcDbTextStyleTableRecord
  2
textstyle14
 70
0
 40
0.0
 41
1.0
 50
0.0
 71
0
 42
1.0
  3

  4

1001
ACAD
1000
Arial
1071
16777216
  0
STYLE
  5
6F
100
AcDbSymbolTableRecord
100
AcDbTextStyleTableRecord
  2
textstyle15
 70
0
 40
0.0
 41
1.0
 50
0.0
 71
0
 42
1.0
  3

  4

1001
ACAD
1000
osifont
1071
16777216
  0
STYLE
  5
70
100
AcDbSymbolTableRecord
100
AcDbTextStyleTableRecord
  2
textstyle16
 70
0
 40
0.0
 41
1.0
 50
0.0
 71
0
 42
1.0
  3

  4

1001
ACAD
1000
osifont
1071
16777216
  0
STYLE
  5
71
100
AcDbSymbolTableRecord
100
AcDbTextStyleTableRecord
  2
textstyle17
 70
0
 40
0.0
 41
1.0
 50
0.0
 71
0
 42
1.0
  3

  4

1001
ACAD
1000
osifont
1071
16777216
  0
ENDTAB
  0
TABLE
  2
VIEW
  5
6
100
AcDbSymbolTable
 70
0
  0
ENDTAB
  0
TABLE
  2
UCS
  5
7
100
AcDbSymbolTable
 70
0
  0
ENDTAB
  0
TABLE
  2
APPID
  5
9
100
AcDbSymbolTable
 70
1
  0
APPID
  5
12
100
AcDbSymbolTableRecord
100
AcDbRegAppTableRecord
  2
ACAD
 70
0
  0
APPID
  5
72
100
AcDbSymbolTableRecord
100
AcDbRegAppTableRecord
  2
QCAD
 70
0
  0
ENDTAB
  0
TABLE
  2
DIMSTYLE
  5
A
100
AcDbSymbolTable
 70
1
100
AcDbDimStyleTable
 71
0
  0
DIMSTYLE
105
27
100
AcDbSymbolTableRecord
100
AcDbDimStyleTableRecord
  2
Standard
 41
2.5
 42
0.625
 43
3.75
 44
1.25
 70
0
 73
0
 74
0
 77
1
 78
8
140
2.5
141
2.5
143
0.03937007874016
147
0.625
171
3
172
1
271
2
272
2
274
3
278
44
283
0
284
8
340
5F
  0
ENDTAB
  0
TABLE
  2
BLOCK_RECORD
  5
1
100
AcDbSymbolTable
 70
1
  0
BLOCK_RECORD
  5
1F
100
AcDbSymbolTableRecord
100
AcDbBlockTableRecord
  2
*Model_Space
340
22
  0
BLOCK_RECORD
  5
1B
100
AcDbSymbolTableRecord
100
AcDbBlockTableRecord
  2
*Paper_Space
340
1E
  0
BLOCK_RECORD
  5
23
100
AcDbSymbolTableRecord
100
AcDbBlockTableRecord
  2
*Paper_Space0
340
26
  0
BLOCK_RECORD
  5
73
100
AcDbSymbolTableRecord
100
AcDbBlockTableRecord
  2
pravokotna_A4P
340
0
  0
ENDTAB
  0
ENDSEC
  0
SECTION
  2
BLOCKS
  0
BLOCK
  5
20
100
AcDbEntity
  8
0
100
AcDbBlockBegin
  2
*Model_Space
 70
0
 10
0.0
 20
0.0
 30
0.0
  3
*Model_Space
  1

  0
ENDBLK
  5
21
100
AcDbEntity
  8
0
100
AcDbBlockEnd
  0
BLOCK
  5
1C
100
AcDbEntity
 67
1
  8
0
100
AcDbBlockBegin
  2
*Paper_Space
 70
0
 10
0.0
 20
0.0
 30
0.0
  3
*Paper_Space
  1

  0
ENDBLK
  5
1D
100
AcDbEntity
 67
1
  8
0
100
AcDbBlockEnd
  0
BLOCK
  5
24
100
AcDbEntity
  8
0
100
AcDbBlockBegin
  2
*Paper_Space0
 70
0
 10
0.0
 20
0.0
 30
0.0
  3
*Paper_Space0
  1

  0
ENDBLK
  5
25
100
AcDbEntity
  8
0
100
AcDbBlockEnd
  0
BLOCK
  5
74
100
AcDbEntity
  8
0
100
AcDbBlockBegin
  2
pravokotna_A4P
 70
0
 10
0.0
 20
0.0
 30
0.0
  3
pravokotna_A4P
  1

  0
LINE
  5
75
100
AcDbEntity
  8
Obroba_risbe
 62
256
370
-1
 48
1.0
  6
BYLAYER
100
AcDbLine
 10
55.0
 20
50.0
 30
0.0
 11
55.0
 21
35.0
 31
0.0
  0
LINE
  5
76
100
AcDbEntity
  8
Obroba_risbe
 62
256
370
-1
 48
1.0
  6
BYLAYER
100
AcDbLine
 10
35.0
 20
50.0
 30
0.0
 11
35.0
 21
9.9999999999999947
 31
0.0
  0
LINE
  5
77
100
AcDbEntity
  8
Obroba_risbe
 62
256
370
-1
 48
1.0
  6
BYLAYER
100
AcDbLine
 10
145.0
 20
10.0000000000000071
 30
0.0
 11
145.0
 21
50.0
 31
0.0
  0
LINE
  5
78
100
AcDbEntity
  8
Obroba_risbe
 62
256
370
-1
 48
1.0
  6
BYLAYER
100
AcDbLine
 10
110.0
 20
50.0
 30
0.0
 11
110.0
 21
35.0
 31
0.0
  0
LINE
  5
79
100
AcDbEntity
  8
Obroba_risbe
 62
256
370
-1
 48
1.0
  6
BYLAYER
100
AcDbLine
 10
130.0
 20
50.0
 30
0.0
 11
130.0
 21
35.0
 31
0.0
  0
LINE
  5
7A
100
AcDbEntity
  8
Obroba_risbe
 62
256
370
-1
 48
1.0
  6
BYLAYER
100
AcDbLine
 10
20.0
 20
287.0
 30
0.0
 11
20.0
 21
10.0
 31
0.0
  0
LINE
  5
7B
100
AcDbEntity
  8
Obroba_risbe
 62
256
370
-1
 48
1.0
  6
BYLAYER
100
AcDbLine
 10
200.0
 20
10.0
 30
0.0
 11
200.0
 21
287.0
 31
0.0
  0
LINE
  5
7C
100
AcDbEntity
  8
Obroba_risbe
 62
256
370
-1
 48
1.0
  6
BYLAYER
100
AcDbLine
 10
20.0
 20
10.0
 30
0.0
 11
200.0
 21
10.0
 31
0.0
  0
LINE
  5
7D
100
AcDbEntity
  8
Obroba_risbe
 62
256
370
-1
 48
1.0
  6
BYLAYER
100
AcDbLine
 10
20.0
 20
35.0
 30
0.0
 11
200.0
 21
35.0
 31
0.0
  0
LINE
  5
7E
100
AcDbEntity
  8
Obroba_risbe
 62
256
370
-1
 48
1.0
  6
BYLAYER
100
AcDbLine
 10
20.0
 20
40.0
 30
0.0
 11
130.0
 21
40.0
 31
0.0
  0
LINE
  5
7F
100
AcDbEntity
  8
Obroba_risbe
 62
256
370
-1
 48
1.0
  6
BYLAYER
100
AcDbLine
 10
20.0
 20
45.0
 30
0.0
 11
130.0
 21
45.0
 31
0.0
  0
LINE
  5
80
100
AcDbEntity
  8
Obroba_risbe
 62
256
370
-1
 48
1.0
  6
BYLAYER
100
AcDbLine
 10
200.0
 20
287.0
 30
0.0
 11
20.0
 21
287.0
 31
0.0
  0
LINE
  5
81
100
AcDbEntity
  8
Obroba_risbe
 62
256
370
-1
 48
1.0
  6
BYLAYER
100
AcDbLine
 10
20.0
 20
50.0
 30
0.0
 11
200.0
 21
50.0
 31
0.0
  0
LINE
  5
82
100
AcDbEntity
  8
Obroba_risbe
 62
256
370
-1
 48
1.0
  6
BYLAYER
100
AcDbLine
 10
145.0
 20
25.0
 30
0.0
 11
200.0
 21
25.0
 31
0.0
  0
MTEXT
  5
83
100
AcDbEntity
  8
Opis_noge
 62
256
370
-1
 48
1.0
  6
BYLAYER
100
AcDbMText
 10
20.9999999999999964
 20
39.0000000000000071
 30
0.0
 40
1.0
 41
0.0
 71
1
 72
1
  1
\H2;Izdelal
  7
textstyle3
 50
0.0
 73
2
 44
1.0
  0
MTEXT
  5
84
100
AcDbEntity
  8
Opis_noge
 62
256
370
-1
 48
1.0
  6
BYLAYER
100
AcDbMText
 10
21.0000000000000036
 20
44.0
 30
0.0
 40
1.0
 41
0.0
 71
1
 72
1
  1
\H2;Risal
  7
textstyle2
 50
0.0
 73
2
 44
1.0
  0
MTEXT
  5
85
100
AcDbEntity
  8
Opis_noge
 62
256
370
-1
 48
1.0
  6
BYLAYER
100
AcDbMText
 10
21.0000000000000036
 20
34.0
 30
0.0
 40
1.0
 41
0.0
 71
1
 72
1
  1
\H2;Merilo
  7
textstyle1
 50
0.0
 73
2
 44
1.0
  0
MTEXT
  5
86
100
AcDbEntity
  8
Opis_noge
 62
256
370
-1
 48
1.0
  6
BYLAYER
100
AcDbMText
 10
36.0
 20
34.0
 30
0.0
 40
1.0
 41
0.0
 71
1
 72
1
  1
\H2;Objekt
  7
textstyle0
 50
0.0
 73
2
 44
1.0
  0
MTEXT
  5
87
100
AcDbEntity
  8
Opis_noge
 62
256
370
-1
 48
1.0
  6
BYLAYER
100
AcDbMText
 10
146.0
 20
48.9999999999999645
 30
0.0
 40
1.0
 41
0.0
 71
1
 72
1
  1
\H2;\U+0160ola
  7
textstyle7
 50
0.0
 73
2
 44
1.0
  0
MTEXT
  5
88
100
AcDbEntity
  8
Opis_noge
 62
256
370
-1
 48
1.0
  6
BYLAYER
100
AcDbMText
 10
146.0
 20
33.9999999999999361
 30
0.0
 40
1.0
 41
0.0
 71
1
 72
1
  1
\H2;Material
  7
textstyle6
 50
0.0
 73
2
 44
1.0
  0
MTEXT
  5
89
100
AcDbEntity
  8
Opis_noge
 62
256
370
-1
 48
1.0
  6
BYLAYER
100
AcDbMText
 10
146.0
 20
24.0000000000000497
 30
0.0
 40
1.0
 41
0.0
 71
1
 72
1
  1
\H2;\U+0160tevilka risbe
  7
textstyle5
 50
0.0
 73
2
 44
1.0
  0
MTEXT
  5
8A
100
AcDbEntity
  8
Opis_noge
 62
256
370
-1
 48
1.0
  6
BYLAYER
100
AcDbMText
 10
36.0
 20
46.0
 30
0.0
 40
1.0
 41
0.0
 71
7
 72
1
  1
\H2;Datum
  7
textstyle4
 50
0.0
 73
2
 44
1.0
  0
MTEXT
  5
8B
100
AcDbEntity
  8
Opis_noge
 62
256
370
-1
 48
1.0
  6
BYLAYER
100
AcDbMText
 10
56.0000000000000071
 20
45.9999999999999858
 30
0.0
 40
1.0
 41
0.0
 71
7
 72
1
  1
\H2;Ime in Priimek
  7
textstyle10
 50
0.0
 73
2
 44
1.0
  0
MTEXT
  5
8C
100
AcDbEntity
  8
Opis_noge
 62
256
370
-1
 48
1.0
  6
BYLAYER
100
AcDbMText
 10
111.0
 20
46.0000000000000071
 30
0.0
 40
1.0
 41
0.0
 71
7
 72
1
  1
\H2;Podpis
  7
textstyle9
 50
0.0
 73
2
 44
1.0
  0
MTEXT
  5
8D
100
AcDbEntity
  8
Opis_noge
 62
256
370
-1
 48
1.0
  6
BYLAYER
100
AcDbMText
 10
131.0
 20
48.9999999999999929
 30
0.0
 40
1.0
 41
0.0
 71
1
 72
1
  1
\H2;Ocena
  7
textstyle8
 50
0.0
 73
2
 44
1.0
  0
MTEXT
  5
8E
100
AcDbEntity
  8
0. Besedilo_noge
 62
256
370
-1
 48
1.0
  6
BYLAYER
100
AcDbMText
 10
56.0
 20
44.0000000000000142
 30
0.0
 40
1.0
 41
0.0
 71
1
 72
1
  1
\H3;Miha Ko\U+010dar
  7
textstyle12
 50
0.0
 73
2
 44
1.0
  0
MTEXT
  5
8F
100
AcDbEntity
  8
0. Besedilo_noge
 62
256
370
-1
 48
1.0
  6
BYLAYER
100
AcDbMText
 10
36.0
 20
44.0
 30
0.0
 40
1.0
 41
0.0
 71
1
 72
1
  1
\H2.5;10.08.2017
  7
textstyle11
 50
0.0
 73
2
 44
1.0
  0
MTEXT
  5
90
100
AcDbEntity
  8
0. Besedilo_noge
 62
256
370
-1
 48
1.0
  6
BYLAYER
100
AcDbMText
 10
154.0685904152040848
 20
47.5270649047513203
 30
0.0
 40
1.0
 41
0.0
 71
1
 72
1
  1
\H3;O\U+0160 Martina Krpana\PLjubljana
  7
textstyle16
 50
0.0
 73
2
 44
1.0
  0
MTEXT
  5
91
100
AcDbEntity
  8
0. Besedilo_noge
 62
256
370
-1
 48
1.0
  6
BYLAYER
100
AcDbMText
 10
170.0
 20
30.9999999999999716
 30
0.0
 40
1.0
 41
0.0
 71
2
 72
1
  1
\fosifont|b0|i0|c0|p0;\H3;Vezana plo\U+0161\U+010da 4mm
  7
textstyle15
 50
0.0
 73
2
 44
1.0
  0
MTEXT
  5
92
100
AcDbEntity
  8
0. Besedilo_noge
 62
256
370
-1
 48
1.0
  6
BYLAYER
100
AcDbMText
 10
170.0
 20
19.9999999999998899
 30
0.0
 40
1.0
 41
0.0
 71
2
 72
1
  1
\fArial|b0|i0|c0|p0;\H5;ID03
  7
textstyle14
 50
0.0
 73
2
 44
1.0
  0
MTEXT
  5
93
100
AcDbEntity
  8
0. Besedilo_noge
 62
256
370
-1
 48
1.0
  6
BYLAYER
100
AcDbMText
 10
27.0
 20
19.9999999999999964
 30
0.0
 40
1.0
 41
0.0
 71
5
 72
1
  1
\H5;1:3
  7
textstyle13
 50
0.0
 73
2
 44
1.0
  0
MTEXT
  5
94
100
AcDbEntity
  8
0. Besedilo_noge
 62
256
370
-1
 48
1.0
  6
BYLAYER
100
AcDbMText
 10
90.0
 20
30.9999999999999787
 30
0.0
 40
1.0
 41
0.0
 71
2
 72
1
  1
\H6;Igra Quoridor\Ppostavitev za igro
  7
textstyle17
 50
0.0
 73
2
 44
1.0
  0
LINE
  5
95
100
AcDbEntity
  8
A. Vidni_robovi
 62
256
370
-1
 48
1.0
  6
BYLAYER
100
AcDbLine
 10
110.0
 20
60.0
 30
0.0
 11
110.0
 21
280.0
 31
0.0
  0
LINE
  5
96
100
AcDbEntity
  8
A. Vidni_robovi
 62
256
370
-1
 48
1.0
  6
BYLAYER
100
AcDbLine
 10
30.0
 20
170.0
 30
0.0
 11
190.0
 21
170.0
 31
0.0
  0
LINE
  5
97
100
AcDbEntity
  8
B. Kotirne-Pomozne_crte
 62
256
370
-1
 48
1.0
  6
BYLAYER
100
AcDbLine
 10
100.0
 20
60.0
 30
0.0
 11
100.0
 21
280.0
 31
0.0
  0
LINE
  5
98
100
AcDbEntity
  8
B. Kotirne-Pomozne_crte
 62
256
370
-1
 48
1.0
  6
BYLAYER
100
AcDbLine
 10
30.0
 20
180.0
 30
0.0
 11
190.0
 21
180.0
 31
0.0
  0
LINE
  5
99
100
AcDbEntity
  8
B. Kotirne-Pomozne_crte
 62
256
370
-1
 48
1.0
  6
BYLAYER
100
AcDbLine
 10
30.0
 20
160.0
 30
0.0
 11
110.0
 21
160.0
 31
0.0
  0
LINE
  5
9A
100
AcDbEntity
  8
B. Kotirne-Pomozne_crte
 62
256
370
-1
 48
1.0
  6
BYLAYER
100
AcDbLine
 10
120.0
 20
170.0
 30
0.0
 11
120.0
 21
280.0
 31
0.0
  0
LINE
  5
9B
100
AcDbEntity
  8
B. Kotirne-Pomozne_crte
 62
256
370
-1
 48
1.0
  6
BYLAYER
100
AcDbLine
 10
120.0
 20
170.0
 30
0.0
 11
110.0
 21
160.0
 31
0.0
  0
ENDBLK
  5
9C
100
AcDbEntity
  8
0
100
AcDbBlockEnd
  0
ENDSEC
  0
SECTION
  2
ENTITIES
  0
INSERT
  5
9D
100
AcDbEntity
  8
0
 62
256
370
-1
 48
1.0
  6
BYLAYER
100
AcDbBlockReference
  2
pravokotna_A4P
 10
0.0
 20
0.0
 30
0.0
  0
LINE
  5
9E
100
AcDbEntity
  8
Dno
 62
256
370
-1
 48
1.0
  6
BYLAYER
100
AcDbLine
 10
43.3333333333333357
 20
160.0
 30
0.0
 11
96.6666666666666714
 21
160.0
 31
0.0
  0
LINE
  5
9F
100
AcDbEntity
  8
Dno
 62
256
370
-1
 48
1.0
  6
BYLAYER
100
AcDbLine
 10
43.3333333333333357
 20
85.6296296296296475
 30
0.0
 11
96.6666666666666714
 21
85.6296296296296475
 31
0.0
  0
SPLINE
  5
A0
100
AcDbEntity
  8
Dno
 62
256
370
-1
 48
1.0
  6
BYLAYER
100
AcDbSpline
 70
8
 71
3
 72
11
 73
7
 74
0
 40
0.0
 40
0.0
 40
0.0
 40
0.0
 40
1.0
 40
2.0
 40
3.0
 40
4.0
 40
4.0
 40
4.0
 40
4.0
 10
43.3333333333333357
 20
160.0
 30
0.0
 10
40.0
 20
160.0
 30
0.0
 10
40.0
 20
154.7407407407407334
 30
0.0
 10
43.3333333333333357
 20
122.8148148148148238
 30
0.0
 10
40.0
 20
90.8888888888888999
 30
0.0
 10
40.0
 20
85.6296296296296475
 30
0.0
 10
43.3333333333333357
 20
85.6296296296296475
 30
0.0
  0
SPLINE
  5
A1
100
AcDbEntity
  8
Dno
 62
256
370
-1
 48
1.0
  6
BYLAYER
100
AcDbSpline
 70
8
 71
3
 72
11
 73
7
 74
0
 40
0.0
 40
0.0
 40
0.0
 40
0.0
 40
1.0
 40
2.0
 40
3.0
 40
4.0
 40
4.0
 40
4.0
 40
4.0
 10
96.6666666666666714
 20
160.0
 30
0.0
 10
100.0
 20
160.0
 30
0.0
 10
100.0
 20
154.7407407407407334
 30
0.0
 10
96.6666666666666714
 20
122.8148148148148238
 30
0.0
 10
100.0000000000000284
 20
90.8888888888888999
 30
0.0
 10
99.9999999999999858
 20
85.6296296296296475
 30
0.0
 10
96.6666666666666714
 20
85.6296296296296475
 30
0.0
  0
LINE
  5
A2
100
AcDbEntity
  8
Polje
 62
256
370
-1
 48
1.0
  6
BYLAYER
100
AcDbLine
 10
44.0
 20
148.8148148148148096
 30
0.0
 11
48.5925925925925952
 21
148.8148148148148096
 31
0.0
  0
LINE
  5
A3
100
AcDbEntity
  8
Polje
 62
256
370
-1
 48
1.0
  6
BYLAYER
100
AcDbLine
 10
49.9259259259259238
 20
148.8148148148148096
 30
0.0
 11
54.518518518518519
 21
148.8148148148148096
 31
0.0
  0
LINE
  5
A4
100
AcDbEntity
  8
Polje
 62
256
370
-1
 48
1.0
  6
BYLAYER
100
AcDbLine
 10
55.8518518518518476
 20
148.8148148148148096
 30
0.0
 11
60.44444444444445
 21
148.8148148148148096
 31
0.0
  0
LINE
  5
A5
100
AcDbEntity
  8
Polje
 62
256
370
-1
 48
1.0
  6
BYLAYER
100
AcDbLine
 10
61.7777777777777857
 20
148.8148148148148096
 30
0.0
 11
66.3703703703703809
 21
148.8148148148148096
 31
0.0
  0
LINE
  5
A6
100
AcDbEntity
  8
Polje
 62
256
370
-1
 48
1.0
  6
BYLAYER
100
AcDbLine
 10
67.7037037037037095
 20
148.8148148148148096
 30
0.0
 11
72.2962962962963047
 21
148.8148148148148096
 31
0.0
  0
LINE
  5
A7
100
AcDbEntity
  8
Polje
 62
256
370
-1
 48
1.0
  6
BYLAYER
100
AcDbLine
 10
73.6296296296296333
 20
148.8148148148148096
 30
0.0
 11
78.2222222222222285
 21
148.8148148148148096
 31
0.0
  0
LINE
  5
A8
100
AcDbEntity
  8
Polje
 62
256
370
-1
 48
1.0
  6
BYLAYER
100
AcDbLine
 10
79.5555555555555713
 20
148.8148148148148096
 30
0.0
 11
84.1481481481481524
 21
148.8148148148148096
 31
0.0
  0
LINE
  5
A9
100
AcDbEntity
  8
Polje
 62
256
370
-1
 48
1.0
  6
BYLAYER
100
AcDbLine
 10
85.481481481481481
 20
148.8148148148148096
 30
0.0
 11
90.0740740740740762
 21
148.8148148148148096
 31
0.0
  0
LINE
  5
AA
100
AcDbEntity
  8
Polje
 62
256
370
-1
 48
1.0
  6
BYLAYER
100
AcDbLine
 10
91.4074074074074048
 20
148.8148148148148096
 30
0.0
 11
96.0
 21
148.8148148148148096
 31
0.0
  0
LINE
  5
AB
100
AcDbEntity
  8
Polje
 62
256
370
-1
 48
1.0
  6
BYLAYER
100
AcDbLine
 10
44.0
 20
142.8888888888889142
 30
0.0
 11
48.5925925925925952
 21
142.8888888888889142
 31
0.0
  0
LINE
  5
AC
100
AcDbEntity
  8
Polje
 62
256
370
-1
 48
1.0
  6
BYLAYER
100
AcDbLine
 10
49.9259259259259238
 20
142.8888888888889142
 30
0.0
 11
54.518518518518519
 21
142.8888888888889142
 31
0.0
  0
LINE
  5
AD
100
AcDbEntity
  8
Polje
 62
256
370
-1
 48
1.0
  6
BYLAYER
100
AcDbLine
 10
55.8518518518518476
 20
142.8888888888889142
 30
0.0
 11
60.44444444444445
 21
142.8888888888889142
 31
0.0
  0
LINE
  5
AE
100
AcDbEntity
  8
Polje
 62
256
370
-1
 48
1.0
  6
BYLAYER
100
AcDbLine
 10
61.7777777777777857
 20
142.8888888888889142
 30
0.0
 11
66.3703703703703809
 21
142.8888888888889142
 31
0.0
  0
LINE
  5
AF
100
AcDbEntity
  8
Polje
 62
256
370
-1
 48
1.0
  6
BYLAYER
100
AcDbLine
 10
67.7037037037037095
 20
142.8888888888889142
 30
0.0
 11
72.2962962962963047
 21
142.8888888888889142
 31
0.0
  0
LINE
  5
B0
100
AcDbEntity
  8
Polje
 62
256
370
-1
 48
1.0
  6
BYLAYER
100
AcDbLine
 10
73.6296296296296333
 20
142.8888888888889142
 30
0.0
 11
78.2222222222222285
 21
142.8888888888889142
 31
0.0
  0
LINE
  5
B1
100
AcDbEntity
  8
Polje
 62
256
370
-1
 48
1.0
  6
BYLAYER
100
AcDbLine
 10
79.5555555555555713
 20
142.8888888888889142
 30
0.0
 11
84.1481481481481524
 21
142.8888888888889142
 31
0.0
  0
LINE
  5
B2
100
AcDbEntity
  8
Polje
 62
256
370
-1
 48
1.0
  6
BYLAYER
100
AcDbLine
 10
85.481481481481481
 20
142.8888888888888857
 30
0.0
 11
90.0740740740740762
 21
142.8888888888888857
 31
0.0
  0
LINE
  5
B3
100
AcDbEntity
  8
Polje
 62
256
370
-1
 48
1.0
  6
BYLAYER
100
AcDbLine
 10
91.4074074074074048
 20
142.8888888888888857
 30
0.0
 11
96.0
 21
142.8888888888888857
 31
0.0
  0
LINE
  5
B4
100
AcDbEntity
  8
Polje
 62
256
370
-1
 48
1.0
  6
BYLAYER
100
AcDbLine
 10
44.0
 20
136.9629629629629619
 30
0.0
 11
48.5925925925925952
 21
136.9629629629629619
 31
0.0
  0
LINE
  5
B5
100
AcDbEntity
  8
Polje
 62
256
370
-1
 48
1.0
  6
BYLAYER
100
AcDbLine
 10
49.9259259259259238
 20
136.9629629629629619
 30
0.0
 11
54.518518518518519
 21
136.9629629629629619
 31
0.0
  0
LINE
  5
B6
100
AcDbEntity
  8
Polje
 62
256
370
-1
 48
1.0
  6
BYLAYER
100
AcDbLine
 10
55.8518518518518476
 20
136.9629629629629619
 30
0.0
 11
60.44444444444445
 21
136.9629629629629619
 31
0.0
  0
LINE
  5
B7
100
AcDbEntity
  8
Polje
 62
256
370
-1
 48
1.0
  6
BYLAYER
100
AcDbLine
 10
61.7777777777777857
 20
136.9629629629629619
 30
0.0
 11
66.3703703703703809
 21
136.9629629629629619
 31
0.0
  0
LINE
  5
B8
100
AcDbEntity
  8
Polje
 62
256
370
-1
 48
1.0
  6
BYLAYER
100
AcDbLine
 10
67.7037037037037095
 20
136.9629629629629619
 30
0.0
 11
72.2962962962963047
 21
136.9629629629629619
 31
0.0
  0
LINE
  5
B9
100
AcDbEntity
  8
Polje
 62
256
370
-1
 48
1.0
  6
BYLAYER
100
AcDbLine
 10
73.6296296296296333
 20
136.9629629629629619
 30
0.0
 11
78.2222222222222285
 21
136.9629629629629619
 31
0.0
  0
LINE
  5
BA
100
AcDbEntity
  8
Polje
 62
256
370
-1
 48
1.0
  6
BYLAYER
100
AcDbLine
 10
79.5555555555555713
 20
136.9629629629629619
 30
0.0
 11
84.1481481481481524
 21
136.9629629629629619
 31
0.0
  0
LINE
  5
BB
100
AcDbEntity
  8
Polje
 62
256
370
-1
 48
1.0
  6
BYLAYER
100
AcDbLine
 10
85.481481481481481
 20
136.9629629629629619
 30
0.0
 11
90.0740740740740762
 21
136.9629629629629619
 31
0.0
  0
LINE
  5
BC
100
AcDbEntity
  8
Polje
 62
256
370
-1
 48
1.0
  6
BYLAYER
100
AcDbLine
 10
91.4074074074074048
 20
136.9629629629629619
 30
0.0
 11
96.0
 21
136.9629629629629619
 31
0.0
  0
LINE
  5
BD
100
AcDbEntity
  8
Polje
 62
256
370
-1
 48
1.0
  6
BYLAYER
100
AcDbLine
 10
44.0
 20
131.0370370370370381
 30
0.0
 11
48.5925925925925952
 21
131.0370370370370381
 31
0.0
  0
LINE
  5
BE
100
AcDbEntity
  8
Polje
 62
256
370
-1
 48
1.0
  6
BYLAYER
100
AcDbLine
 10
49.9259259259259238
 20
131.0370370370370381
 30
0.0
 11
54.518518518518519
 21
131.0370370370370381
 31
0.0
  0
LINE
  5
BF
100
AcDbEntity
  8
Polje
 62
256
370
-1
 48
1.0
  6
BYLAYER
100
AcDbLine
 10
55.8518518518518476
 20
131.0370370370370381
 30
0.0
 11
60.44444444444445
 21
131.0370370370370381
 31
0.0
  0
LINE
  5
C0
100
AcDbEntity
  8
Polje
 62
256
370
-1
 48
1.0
  6
BYLAYER
100
AcDbLine
 10
61.7777777777777857
 20
131.0370370370370381
 30
0.0
 11
66.3703703703703809
 21
131.0370370370370381
 31
0.0
  0
LINE
  5
C1
100
AcDbEntity
  8
Polje
 62
256
370
-1
 48
1.0
  6
BYLAYER
100
AcDbLine
 10
67.7037037037037095
 20
131.0370370370370381
 30
0.0
 11
72.2962962962963047
 21
131.0370370370370381
 31
0.0
  0
LINE
  5
C2
100
AcDbEntity
  8
Polje
 62
256
370
-1
 48
1.0
  6
BYLAYER
100
AcDbLine
 10
73.6296296296296333
 20
131.0370370370370381
 30
0.0
 11
78.2222222222222285
 21
131.0370370370370381
 31
0.0
  0
LINE
  5
C3
100
AcDbEntity
  8
Polje
 62
256
370
-1
 48
1.0
  6
BYLAYER
100
AcDbLine
 10
79.5555555555555713
 20
131.0370370370370381
 30
0.0
 11
84.1481481481481524
 21
131.0370370370370381
 31
0.0
  0
LINE
  5
C4
100
AcDbEntity
  8
Polje
 62
256
370
-1
 48
1.0
  6
BYLAYER
100
AcDbLine
 10
85.481481481481481
 20
131.0370370370370097
 30
0.0
 11
90.0740740740740762
 21
131.0370370370370097
 31
0.0
  0
LINE
  5
C5
100
AcDbEntity
  8
Polje
 62
256
370
-1
 48
1.0
  6
BYLAYER
100
AcDbLine
 10
91.4074074074074048
 20
131.0370370370370097
 30
0.0
 11
96.0
 21
131.0370370370370097
 31
0.0
  0
LINE
  5
C6
100
AcDbEntity
  8
Polje
 62
256
370
-1
 48
1.0
  6
BYLAYER
100
AcDbLine
 10
44.0
 20
125.1111111111111143
 30
0.0
 11
48.5925925925925952
 21
125.1111111111111143
 31
0.0
  0
LINE
  5
C7
100
AcDbEntity
  8
Polje
 62
256
370
-1
 48
1.0
  6
BYLAYER
100
AcDbLine
 10
49.9259259259259238
 20
125.1111111111111143
 30
0.0
 11
54.518518518518519
 21
125.1111111111111143
 31
0.0
  0
LINE
  5
C8
100
AcDbEntity
  8
Polje
 62
256
370
-1
 48
1.0
  6
BYLAYER
100
AcDbLine
 10
55.8518518518518476
 20
125.1111111111111143
 30
0.0
 11
60.44444444444445
 21
125.1111111111111143
 31
0.0
  0
LINE
  5
C9
100
AcDbEntity
  8
Polje
 62
256
370
-1
 48
1.0
  6
BYLAYER
100
AcDbLine
 10
61.7777777777777857
 20
125.1111111111111143
 30
0.0
 11
66.3703703703703809
 21
125.1111111111111143
 31
0.0
  0
LINE
  5
CA
100
AcDbEntity
  8
Polje
 62
256
370
-1
 48
1.0
  6
BYLAYER
100
AcDbLine
 10
67.7037037037037095
 20
125.1111111111111143
 30
0.0
 11
72.2962962962963047
 21
125.1111111111111143
 31
0.0
  0
LINE
  5
CB
100
AcDbEntity
  8
Polje
 62
256
370
-1
 48
1.0
  6
BYLAYER
100
AcDbLine
 10
73.6296296296296333
 20
125.1111111111111143
 30
0.0
 11
78.2222222222222285
 21
125.1111111111111143
 31
0.0
  0
LINE
  5
CC
100
AcDbEntity
  8
Polje
 62
256
370
-1
 48
1.0
  6
BYLAYER
100
AcDbLine
 10
79.5555555555555713
 20
125.1111111111111143
 30
0.0
 11
84.1481481481481524
 21
125.1111111111111143
 31
0.0
  0
LINE
  5
CD
100
AcDbEntity
  8
Polje
 62
256
370
-1
 48
1.0
  6
BYLAYER
100
AcDbLine
 10
85.481481481481481
 20
125.1111111111111143
 30
0.0
 11
90.0740740740740762
 21
125.1111111111111143
 31
0.0
  0
LINE
  5
CE
100
AcDbEntity
  8
Polje
 62
256
370
-1
 48
1.0
  6
BYLAYER
100
AcDbLine
 10
91.4074074074074048
 20
125.1111111111111143
 30
0.0
 11
96.0
 21
125.1111111111111143
 31
0.0
  0
LINE
  5
CF
100
AcDbEntity
  8
Polje
 62
256
370
-1
 48
1.0
  6
BYLAYER
100
AcDbLine
 10
44.0
 20
119.1851851851851904
 30
0.0
 11
48.5925925925925952
 21
119.1851851851851904
 31
0.0
  0
LINE
  5
D0
100
AcDbEntity
  8
Polje
 62
256
370
-1
 48
1.0
  6
BYLAYER
100
AcDbLine
 10
49.9259259259259238
 20
119.1851851851851904
 30
0.0
 11
54.518518518518519
 21
119.1851851851851904
 31
0.0
  0
LINE
  5
D1
100
AcDbEntity
  8
Polje
 62
256
370
-1
 48
1.0
  6
BYLAYER
100
AcDbLine
 10
55.8518518518518476
 20
119.1851851851851904
 30
0.0
 11
60.44444444444445
 21
119.1851851851851904
 31
0.0
  0
LINE
  5
D2
100
AcDbEntity
  8
Polje
 62
256
370
-1
 48
1.0
  6
BYLAYER
100
AcDbLine
 10
61.7777777777777857
 20
119.1851851851851904
 30
0.0
 11
66.3703703703703809
 21
119.1851851851851904
 31
0.0
  0
LINE
  5
D3
100
AcDbEntity
  8
Polje
 62
256
370
-1
 48
1.0
  6
BYLAYER
100
AcDbLine
 10
67.7037037037037095
 20
119.1851851851851904
 30
0.0
 11
72.2962962962963047
 21
119.1851851851851904
 31
0.0
  0
LINE
  5
D4
100
AcDbEntity
  8
Polje
 62
256
370
-1
 48
1.0
  6
BYLAYER
100
AcDbLine
 10
73.6296296296296333
 20
119.1851851851851904
 30
0.0
 11
78.2222222222222285
 21
119.1851851851851904
 31
0.0
  0
LINE
  5
D5
100
AcDbEntity
  8
Polje
 62
256
370
-1
 48
1.0
  6
BYLAYER
100
AcDbLine
 10
79.5555555555555713
 20
119.1851851851851904
 30
0.0
 11
84.1481481481481524
 21
119.1851851851851904
 31
0.0
  0
LINE
  5
D6
100
AcDbEntity
  8
Polje
 62
256
370
-1
 48
1.0
  6
BYLAYER
100
AcDbLine
 10
85.481481481481481
 20
119.1851851851851904
 30
0.0
 11
90.0740740740740762
 21
119.1851851851851904
 31
0.0
  0
LINE
  5
D7
100
AcDbEntity
  8
Polje
 62
256
370
-1
 48
1.0
  6
BYLAYER
100
AcDbLine
 10
91.4074074074074048
 20
119.1851851851851904
 30
0.0
 11
96.0
 21
119.1851851851851904
 31
0.0
  0
LINE
  5
D8
100
AcDbEntity
  8
Polje
 62
256
370
-1
 48
1.0
  6
BYLAYER
100
AcDbLine
 10
44.0
 20
113.2592592592592666
 30
0.0
 11
48.5925925925925952
 21
113.2592592592592666
 31
0.0
  0
LINE
  5
D9
100
AcDbEntity
  8
Polje
 62
256
370
-1
 48
1.0
  6
BYLAYER
100
AcDbLine
 10
49.9259259259259238
 20
113.2592592592592666
 30
0.0
 11
54.518518518518519
 21
113.2592592592592666
 31
0.0
  0
LINE
  5
DA
100
AcDbEntity
  8
Polje
 62
256
370
-1
 48
1.0
  6
BYLAYER
100
AcDbLine
 10
55.8518518518518476
 20
113.2592592592592666
 30
0.0
 11
60.44444444444445
 21
113.2592592592592666
 31
0.0
  0
LINE
  5
DB
100
AcDbEntity
  8
Polje
 62
256
370
-1
 48
1.0
  6
BYLAYER
100
AcDbLine
 10
61.7777777777777857
 20
113.2592592592592666
 30
0.0
 11
66.3703703703703809
 21
113.2592592592592666
 31
0.0
  0
LINE
  5
DC
100
AcDbEntity
  8
Polje
 62
256
370
-1
 48
1.0
  6
BYLAYER
100
AcDbLine
 10
67.7037037037037095
 20
113.2592592592592666
 30
0.0
 11
72.2962962962963047
 21
113.2592592592592666
 31
0.0
  0
LINE
  5
DD
100
AcDbEntity
  8
Polje
 62
256
370
-1
 48
1.0
  6
BYLAYER
100
AcDbLine
 10
73.6296296296296333
 20
113.2592592592592666
 30
0.0
 11
78.2222222222222285
 21
113.2592592592592666
 31
0.0
  0
LINE
  5
DE
100
AcDbEntity
  8
Polje
 62
256
370
-1
 48
1.0
  6
BYLAYER
100
AcDbLine
 10
79.5555555555555713
 20
113.2592592592592666
 30
0.0
 11
84.1481481481481524
 21
113.2592592592592666
 31
0.0
  0
LINE
  5
DF
100
AcDbEntity
  8
Polje
 62
256
370
-1
 48
1.0
  6
BYLAYER
100
AcDbLine
 10
85.481481481481481
 20
113.2592592592592524
 30
0.0
 11
90.0740740740740762
 21
113.2592592592592524
 31
0.0
  0
LINE
  5
E0
100
AcDbEntity
  8
Polje
 62
256
370
-1
 48
1.0
  6
BYLAYER
100
AcDbLine
 10
91.4074074074074048
 20
113.2592592592592524
 30
0.0
 11
96.0
 21
113.2592592592592524
 31
0.0
  0
LINE
  5
E1
100
AcDbEntity
  8
Polje
 62
256
370
-1
 48
1.0
  6
BYLAYER
100
AcDbLine
 10
44.0
 20
107.3333333333333428
 30
0.0
 11
48.5925925925925952
 21
107.3333333333333428
 31
0.0
  0
LINE
  5
E2
100
AcDbEntity
  8
Polje
 62
256
370
-1
 48
1.0
  6
BYLAYER
100
AcDbLine
 10
49.9259259259259238
 20
107.3333333333333428
 30
0.0
 11
54.518518518518519
 21
107.3333333333333428
 31
0.0
  0
LINE
  5
E3
100
AcDbEntity
  8
Polje
 62
256
370
-1
 48
1.0
  6
BYLAYER
100
AcDbLine
 10
55.8518518518518476
 20
107.3333333333333428
 30
0.0
 11
60.44444444444445
 21
107.3333333333333428
 31
0.0
  0
LINE
  5
E4
100
AcDbEntity
  8
Polje
 62
256
370
-1
 48
1.0
  6
BYLAYER
100
AcDbLine
 10
61.7777777777777857
 20
107.3333333333333428
 30
0.0
 11
66.3703703703703809
 21
107.3333333333333428
 31
0.0
  0
LINE
  5
E5
100
AcDbEntity
  8
Polje
 62
256
370
-1
 48
1.0
  6
BYLAYER
100
AcDbLine
 10
67.7037037037037095
 20
107.3333333333333428
 30
0.0
 11
72.2962962962963047
 21
107.3333333333333428
 31
0.0
  0
LINE
  5
E6
100
AcDbEntity
  8
Polje
 62
256
370
-1
 48
1.0
  6
BYLAYER
100
AcDbLine
 10
73.6296296296296333
 20
107.3333333333333428
 30
0.0
 11
78.2222222222222285
 21
107.3333333333333428
 31
0.0
  0
LINE
  5
E7
100
AcDbEntity
  8
Polje
 62
256
370
-1
 48
1.0
  6
BYLAYER
100
AcDbLine
 10
79.5555555555555713
 20
107.3333333333333428
 30
0.0
 11
84.1481481481481524
 21
107.3333333333333428
 31
0.0
  0
LINE
  5
E8
100
AcDbEntity
  8
Polje
 62
256
370
-1
 48
1.0
  6
BYLAYER
100
AcDbLine
 10
85.481481481481481
 20
107.3333333333333286
 30
0.0
 11
90.0740740740740762
 21
107.3333333333333286
 31
0.0
  0
LINE
  5
E9
100
AcDbEntity
  8
Polje
 62
256
370
-1
 48
1.0
  6
BYLAYER
100
AcDbLine
 10
91.4074074074074048
 20
107.3333333333333286
 30
0.0
 11
96.0
 21
107.3333333333333286
 31
0.0
  0
LINE
  5
EA
100
AcDbEntity
  8
Polje
 62
256
370
-1
 48
1.0
  6
BYLAYER
100
AcDbLine
 10
44.0
 20
101.407407407407419
 30
0.0
 11
48.5925925925925952
 21
101.407407407407419
 31
0.0
  0
LINE
  5
EB
100
AcDbEntity
  8
Polje
 62
256
370
-1
 48
1.0
  6
BYLAYER
100
AcDbLine
 10
49.9259259259259238
 20
101.407407407407419
 30
0.0
 11
54.518518518518519
 21
101.407407407407419
 31
0.0
  0
LINE
  5
EC
100
AcDbEntity
  8
Polje
 62
256
370
-1
 48
1.0
  6
BYLAYER
100
AcDbLine
 10
55.8518518518518476
 20
101.407407407407419
 30
0.0
 11
60.44444444444445
 21
101.407407407407419
 31
0.0
  0
LINE
  5
ED
100
AcDbEntity
  8
Polje
 62
256
370
-1
 48
1.0
  6
BYLAYER
100
AcDbLine
 10
61.7777777777777857
 20
101.407407407407419
 30
0.0
 11
66.3703703703703809
 21
101.407407407407419
 31
0.0
  0
LINE
  5
EE
100
AcDbEntity
  8
Polje
 62
256
370
-1
 48
1.0
  6
BYLAYER
100
AcDbLine
 10
67.7037037037037095
 20
101.407407407407419
 30
0.0
 11
72.2962962962963047
 21
101.407407407407419
 31
0.0
  0
LINE
  5
EF
100
AcDbEntity
  8
Polje
 62
256
370
-1
 48
1.0
  6
BYLAYER
100
AcDbLine
 10
73.6296296296296333
 20
101.407407407407419
 30
0.0
 11
78.2222222222222285
 21
101.407407407407419
 31
0.0
  0
LINE
  5
F0
100
AcDbEntity
  8
Polje
 62
256
370
-1
 48
1.0
  6
BYLAYER
100
AcDbLine
 10
79.5555555555555713
 20
101.407407407407419
 30
0.0
 11
84.1481481481481524
 21
101.407407407407419
 31
0.0
  0
LINE
  5
F1
100
AcDbEntity
  8
Polje
 62
256
370
-1
 48
1.0
  6
BYLAYER
100
AcDbLine
 10
85.481481481481481
 20
101.4074074074074048
 30
0.0
 11
90.0740740740740762
 21
101.4074074074074048
 31
0.0
  0
LINE
  5
F2
100
AcDbEntity
  8
Polje
 62
256
370
-1
 48
1.0
  6
BYLAYER
100
AcDbLine
 10
91.4074074074074048
 20
101.4074074074074048
 30
0.0
 11
96.0
 21
101.4074074074074048
 31
0.0
  0
LINE
  5
F3
100
AcDbEntity
  8
Polje
 62
256
370
-1
 48
1.0
  6
BYLAYER
100
AcDbLine
 10
48.5925925925925952
 20
148.8148148148148096
 30
0.0
 11
48.5925925925925952
 21
144.2222222222222285
 31
0.0
  0
LINE
  5
F4
100
AcDbEntity
  8
Polje
 62
256
370
-1
 48
1.0
  6
BYLAYER
100
AcDbLine
 10
54.518518518518519
 20
148.8148148148148096
 30
0.0
 11
54.518518518518519
 21
144.2222222222222285
 31
0.0
  0
LINE
  5
F5
100
AcDbEntity
  8
Polje
 62
256
370
-1
 48
1.0
  6
BYLAYER
100
AcDbLine
 10
60.44444444444445
 20
148.8148148148148096
 30
0.0
 11
60.44444444444445
 21
144.2222222222222285
 31
0.0
  0
LINE
  5
F6
100
AcDbEntity
  8
Polje
 62
256
370
-1
 48
1.0
  6
BYLAYER
100
AcDbLine
 10
66.3703703703703809
 20
148.8148148148148096
 30
0.0
 11
66.3703703703703809
 21
144.2222222222222285
 31
0.0
  0
LINE
  5
F7
100
AcDbEntity
  8
Polje
 62
256
370
-1
 48
1.0
  6
BYLAYER
100
AcDbLine
 10
72.2962962962963047
 20
148.8148148148148096
 30
0.0
 11
72.2962962962963047
 21
144.2222222222222285
 31
0.0
  0
LINE
  5
F8
100
AcDbEntity
  8
Polje
 62
256
370
-1
 48
1.0
  6
BYLAYER
100
AcDbLine
 10
78.2222222222222285
 20
148.8148148148148096
 30
0.0
 11
78.2222222222222285
 21
144.2222222222222285
 31
0.0
  0
LINE
  5
F9
100
AcDbEntity
  8
Polje
 62
256
370
-1
 48
1.0
  6
BYLAYER
100
AcDbLine
 10
84.1481481481481524
 20
148.8148148148148096
 30
0.0
 11
84.1481481481481524
 21
144.2222222222222285
 31
0.0
  0
LINE
  5
FA
100
AcDbEntity
  8
Polje
 62
256
370
-1
 48
1.0
  6
BYLAYER
100
AcDbLine
 10
90.0740740740740762
 20
148.8148148148148096
 30
0.0
 11
90.0740740740740762
 21
144.2222222222222285
 31
0.0
  0
LINE
  5
FB
100
AcDbEntity
  8
Polje
 62
256
370
-1
 48
1.0
  6
BYLAYER
100
AcDbLine
 10
96.0
 20
148.8148148148148096
 30
0.0
 11
96.0
 21
144.2222222222222285
 31
0.0
  0
LINE
  5
FC
100
AcDbEntity
  8
Polje
 62
256
370
-1
 48
1.0
  6
BYLAYER
100
AcDbLine
 10
48.5925925925925952
 20
142.8888888888889142
 30
0.0
 11
48.5925925925925952
 21
138.2962962962963331
 31
0.0
  0
LINE
  5
FD
100
AcDbEntity
  8
Polje
 62
256
370
-1
 48
1.0
  6
BYLAYER
100
AcDbLine
 10
54.518518518518519
 20
142.8888888888889142
 30
0.0
 11
54.518518518518519
 21
138.2962962962963331
 31
0.0
  0
LINE
  5
FE
100
AcDbEntity
  8
Polje
 62
256
370
-1
 48
1.0
  6
BYLAYER
100
AcDbLine
 10
60.44444444444445
 20
142.8888888888889142
 30
0.0
 11
60.44444444444445
 21
138.2962962962963331
 31
0.0
  0
LINE
  5
FF
100
AcDbEntity
  8
Polje
 62
256
370
-1
 48
1.0
  6
BYLAYER
100
AcDbLine
 10
66.3703703703703809
 20
142.8888888888889142
 30
0.0
 11
66.3703703703703809
 21
138.2962962962963331
 31
0.0
  0
LINE
  5
100
100
AcDbEntity
  8
Polje
 62
256
370
-1
 48
1.0
  6
BYLAYER
100
AcDbLine
 10
72.2962962962963047
 20
142.8888888888889142
 30
0.0
 11
72.2962962962963047
 21
138.2962962962963331
 31
0.0
  0
LINE
  5
101
100
AcDbEntity
  8
Polje
 62
256
370
-1
 48
1.0
  6
BYLAYER
100
AcDbLine
 10
78.2222222222222285
 20
142.8888888888889142
 30
0.0
 11
78.2222222222222285
 21
138.2962962962963331
 31
0.0
  0
LINE
  5
102
100
AcDbEntity
  8
Polje
 62
256
370
-1
 48
1.0
  6
BYLAYER
100
AcDbLine
 10
84.1481481481481524
 20
142.8888888888889142
 30
0.0
 11
84.1481481481481524
 21
138.2962962962963331
 31
0.0
  0
LINE
  5
103
100
AcDbEntity
  8
Polje
 62
256
370
-1
 48
1.0
  6
BYLAYER
100
AcDbLine
 10
90.0740740740740762
 20
142.8888888888888857
 30
0.0
 11
90.0740740740740762
 21
138.2962962962963047
 31
0.0
  0
LINE
  5
104
100
AcDbEntity
  8
Polje
 62
256
370
-1
 48
1.0
  6
BYLAYER
100
AcDbLine
 10
96.0
 20
142.8888888888888857
 30
0.0
 11
96.0
 21
138.2962962962963047
 31
0.0
  0
LINE
  5
105
100
AcDbEntity
  8
Polje
 62
256
370
-1
 48
1.0
  6
BYLAYER
100
AcDbLine
 10
48.5925925925925952
 20
136.9629629629629619
 30
0.0
 11
48.5925925925925952
 21
132.3703703703703809
 31
0.0
  0
LINE
  5
106
100
AcDbEntity
  8
Polje
 62
256
370
-1
 48
1.0
  6
BYLAYER
100
AcDbLine
 10
54.518518518518519
 20
136.9629629629629619
 30
0.0
 11
54.518518518518519
 21
132.3703703703703809
 31
0.0
  0
LINE
  5
107
100
AcDbEntity
  8
Polje
 62
256
370
-1
 48
1.0
  6
BYLAYER
100
AcDbLine
 10
60.44444444444445
 20
136.9629629629629619
 30
0.0
 11
60.44444444444445
 21
132.3703703703703809
 31
0.0
  0
LINE
  5
108
100
AcDbEntity
  8
Polje
 62
256
370
-1
 48
1.0
  6
BYLAYER
100
AcDbLine
 10
66.3703703703703809
 20
136.9629629629629619
 30
0.0
 11
66.3703703703703809
 21
132.3703703703703809
 31
0.0
  0
LINE
  5
109
100
AcDbEntity
  8
Polje
 62
256
370
-1
 48
1.0
  6
BYLAYER
100
AcDbLine
 10
72.2962962962963047
 20
136.9629629629629619
 30
0.0
 11
72.2962962962963047
 21
132.3703703703703809
 31
0.0
  0
LINE
  5
10A
100
AcDbEntity
  8
Polje
 62
256
370
-1
 48
1.0
  6
BYLAYER
100
AcDbLine
 10
78.2222222222222285
 20
136.9629629629629619
 30
0.0
 11
78.2222222222222285
 21
132.3703703703703809
 31
0.0
  0
LINE
  5
10B
100
AcDbEntity
  8
Polje
 62
256
370
-1
 48
1.0
  6
BYLAYER
100
AcDbLine
 10
84.1481481481481524
 20
136.9629629629629619
 30
0.0
 11
84.1481481481481524
 21
132.3703703703703809
 31
0.0
  0
LINE
  5
10C
100
AcDbEntity
  8
Polje
 62
256
370
-1
 48
1.0
  6
BYLAYER
100
AcDbLine
 10
90.0740740740740762
 20
136.9629629629629619
 30
0.0
 11
90.0740740740740762
 21
132.3703703703703809
 31
0.0
  0
LINE
  5
10D
100
AcDbEntity
  8
Polje
 62
256
370
-1
 48
1.0
  6
BYLAYER
100
AcDbLine
 10
96.0
 20
136.9629629629629619
 30
0.0
 11
96.0
 21
132.3703703703703809
 31
0.0
  0
LINE
  5
10E
100
AcDbEntity
  8
Polje
 62
256
370
-1
 48
1.0
  6
BYLAYER
100
AcDbLine
 10
48.5925925925925952
 20
131.0370370370370381
 30
0.0
 11
48.5925925925925952
 21
126.4444444444444571
 31
0.0
  0
LINE
  5
10F
100
AcDbEntity
  8
Polje
 62
256
370
-1
 48
1.0
  6
BYLAYER
100
AcDbLine
 10
54.518518518518519
 20
131.0370370370370381
 30
0.0
 11
54.518518518518519
 21
126.4444444444444571
 31
0.0
  0
LINE
  5
110
100
AcDbEntity
  8
Polje
 62
256
370
-1
 48
1.0
  6
BYLAYER
100
AcDbLine
 10
60.44444444444445
 20
131.0370370370370381
 30
0.0
 11
60.44444444444445
 21
126.4444444444444571
 31
0.0
  0
LINE
  5
111
100
AcDbEntity
  8
Polje
 62
256
370
-1
 48
1.0
  6
BYLAYER
100
AcDbLine
 10
66.3703703703703809
 20
131.0370370370370381
 30
0.0
 11
66.3703703703703809
 21
126.4444444444444571
 31
0.0
  0
LINE
  5
112
100
AcDbEntity
  8
Polje
 62
256
370
-1
 48
1.0
  6
BYLAYER
100
AcDbLine
 10
72.2962962962963047
 20
131.0370370370370381
 30
0.0
 11
72.2962962962963047
 21
126.4444444444444571
 31
0.0
  0
LINE
  5
113
100
AcDbEntity
  8
Polje
 62
256
370
-1
 48
1.0
  6
BYLAYER
100
AcDbLine
 10
78.2222222222222285
 20
131.0370370370370381
 30
0.0
 11
78.2222222222222285
 21
126.4444444444444571
 31
0.0
  0
LINE
  5
114
100
AcDbEntity
  8
Polje
 62
256
370
-1
 48
1.0
  6
BYLAYER
100
AcDbLine
 10
84.1481481481481524
 20
131.0370370370370381
 30
0.0
 11
84.1481481481481524
 21
126.4444444444444571
 31
0.0
  0
LINE
  5
115
100
AcDbEntity
  8
Polje
 62
256
370
-1
 48
1.0
  6
BYLAYER
100
AcDbLine
 10
90.0740740740740762
 20
131.0370370370370097
 30
0.0
 11
90.0740740740740762
 21
126.4444444444444429
 31
0.0
  0
LINE
  5
116
100
AcDbEntity
  8
Polje
 62
256
370
-1
 48
1.0
  6
BYLAYER
100
AcDbLine
 10
96.0
 20
131.0370370370370097
 30
0.0
 11
96.0
 21
126.4444444444444429
 31
0.0
  0
LINE
  5
117
100
AcDbEntity
  8
Polje
 62
256
370
-1
 48
1.0
  6
BYLAYER
100
AcDbLine
 10
48.5925925925925952
 20
125.1111111111111143
 30
0.0
 11
48.5925925925925952
 21
120.5185185185185333
 31
0.0
  0
LINE
  5
118
100
AcDbEntity
  8
Polje
 62
256
370
-1
 48
1.0
  6
BYLAYER
100
AcDbLine
 10
54.518518518518519
 20
125.1111111111111143
 30
0.0
 11
54.518518518518519
 21
120.5185185185185333
 31
0.0
  0
LINE
  5
119
100
AcDbEntity
  8
Polje
 62
256
370
-1
 48
1.0
  6
BYLAYER
100
AcDbLine
 10
60.44444444444445
 20
125.1111111111111143
 30
0.0
 11
60.44444444444445
 21
120.5185185185185333
 31
0.0
  0
LINE
  5
11A
100
AcDbEntity
  8
Polje
 62
256
370
-1
 48
1.0
  6
BYLAYER
100
AcDbLine
 10
66.3703703703703809
 20
125.1111111111111143
 30
0.0
 11
66.3703703703703809
 21
120.5185185185185333
 31
0.0
  0
LINE
  5
11B
100
AcDbEntity
  8
Polje
 62
256
370
-1
 48
1.0
  6
BYLAYER
100
AcDbLine
 10
72.2962962962963047
 20
125.1111111111111143
 30
0.0
 11
72.2962962962963047
 21
120.5185185185185333
 31
0.0
  0
LINE
  5
11C
100
AcDbEntity
  8
Polje
 62
256
370
-1
 48
1.0
  6
BYLAYER
100
AcDbLine
 10
78.2222222222222285
 20
125.1111111111111143
 30
0.0
 11
78.2222222222222285
 21
120.5185185185185333
 31
0.0
  0
LINE
  5
11D
100
AcDbEntity
  8
Polje
 62
256
370
-1
 48
1.0
  6
BYLAYER
100
AcDbLine
 10
84.1481481481481524
 20
125.1111111111111143
 30
0.0
 11
84.1481481481481524
 21
120.5185185185185333
 31
0.0
  0
LINE
  5
11E
100
AcDbEntity
  8
Polje
 62
256
370
-1
 48
1.0
  6
BYLAYER
100
AcDbLine
 10
90.0740740740740762
 20
125.1111111111111143
 30
0.0
 11
90.0740740740740762
 21
120.5185185185185333
 31
0.0
  0
LINE
  5
11F
100
AcDbEntity
  8
Polje
 62
256
370
-1
 48
1.0
  6
BYLAYER
100
AcDbLine
 10
96.0
 20
125.1111111111111143
 30
0.0
 11
96.0
 21
120.5185185185185333
 31
0.0
  0
LINE
  5
120
100
AcDbEntity
  8
Polje
 62
256
370
-1
 48
1.0
  6
BYLAYER
100
AcDbLine
 10
48.5925925925925952
 20
119.1851851851851904
 30
0.0
 11
48.5925925925925952
 21
114.5925925925926094
 31
0.0
  0
LINE
  5
121
100
AcDbEntity
  8
Polje
 62
256
370
-1
 48
1.0
  6
BYLAYER
100
AcDbLine
 10
54.518518518518519
 20
119.1851851851851904
 30
0.0
 11
54.518518518518519
 21
114.5925925925926094
 31
0.0
  0
LINE
  5
122
100
AcDbEntity
  8
Polje
 62
256
370
-1
 48
1.0
  6
BYLAYER
100
AcDbLine
 10
60.44444444444445
 20
119.1851851851851904
 30
0.0
 11
60.44444444444445
 21
114.5925925925926094
 31
0.0
  0
LINE
  5
123
100
AcDbEntity
  8
Polje
 62
256
370
-1
 48
1.0
  6
BYLAYER
100
AcDbLine
 10
66.3703703703703809
 20
119.1851851851851904
 30
0.0
 11
66.3703703703703809
 21
114.5925925925926094
 31
0.0
  0
LINE
  5
124
100
AcDbEntity
  8
Polje
 62
256
370
-1
 48
1.0
  6
BYLAYER
100
AcDbLine
 10
72.2962962962963047
 20
119.1851851851851904
 30
0.0
 11
72.2962962962963047
 21
114.5925925925926094
 31
0.0
  0
LINE
  5
125
100
AcDbEntity
  8
Polje
 62
256
370
-1
 48
1.0
  6
BYLAYER
100
AcDbLine
 10
78.2222222222222285
 20
119.1851851851851904
 30
0.0
 11
78.2222222222222285
 21
114.5925925925926094
 31
0.0
  0
LINE
  5
126
100
AcDbEntity
  8
Polje
 62
256
370
-1
 48
1.0
  6
BYLAYER
100
AcDbLine
 10
84.1481481481481524
 20
119.1851851851851904
 30
0.0
 11
84.1481481481481524
 21
114.5925925925926094
 31
0.0
  0
LINE
  5
127
100
AcDbEntity
  8
Polje
 62
256
370
-1
 48
1.0
  6
BYLAYER
100
AcDbLine
 10
90.0740740740740762
 20
119.1851851851851904
 30
0.0
 11
90.0740740740740762
 21
114.5925925925926094
 31
0.0
  0
LINE
  5
128
100
AcDbEntity
  8
Polje
 62
256
370
-1
 48
1.0
  6
BYLAYER
100
AcDbLine
 10
96.0
 20
119.1851851851851904
 30
0.0
 11
96.0
 21
114.5925925925926094
 31
0.0
  0
LINE
  5
129
100
AcDbEntity
  8
Polje
 62
256
370
-1
 48
1.0
  6
BYLAYER
100
AcDbLine
 10
48.5925925925925952
 20
113.2592592592592666
 30
0.0
 11
48.5925925925925952
 21
108.6666666666666856
 31
0.0
  0
LINE
  5
12A
100
AcDbEntity
  8
Polje
 62
256
370
-1
 48
1.0
  6
BYLAYER
100
AcDbLine
 10
54.518518518518519
 20
113.2592592592592666
 30
0.0
 11
54.518518518518519
 21
108.6666666666666856
 31
0.0
  0
LINE
  5
12B
100
AcDbEntity
  8
Polje
 62
256
370
-1
 48
1.0
  6
BYLAYER
100
AcDbLine
 10
60.44444444444445
 20
113.2592592592592666
 30
0.0
 11
60.44444444444445
 21
108.6666666666666856
 31
0.0
  0
LINE
  5
12C
100
AcDbEntity
  8
Polje
 62
256
370
-1
 48
1.0
  6
BYLAYER
100
AcDbLine
 10
66.3703703703703809
 20
113.2592592592592666
 30
0.0
 11
66.3703703703703809
 21
108.6666666666666856
 31
0.0
  0
LINE
  5
12D
100
AcDbEntity
  8
Polje
 62
256
370
-1
 48
1.0
  6
BYLAYER
100
AcDbLine
 10
72.2962962962963047
 20
113.2592592592592666
 30
0.0
 11
72.2962962962963047
 21
108.6666666666666856
 31
0.0
  0
LINE
  5
12E
100
AcDbEntity
  8
Polje
 62
256
370
-1
 48
1.0
  6
BYLAYER
100
AcDbLine
 10
78.2222222222222285
 20
113.2592592592592666
 30
0.0
 11
78.2222222222222285
 21
108.6666666666666856
 31
0.0
  0
LINE
  5
12F
100
AcDbEntity
  8
Polje
 62
256
370
-1
 48
1.0
  6
BYLAYER
100
AcDbLine
 10
84.1481481481481524
 20
113.2592592592592666
 30
0.0
 11
84.1481481481481524
 21
108.6666666666666856
 31
0.0
  0
LINE
  5
130
100
AcDbEntity
  8
Polje
 62
256
370
-1
 48
1.0
  6
BYLAYER
100
AcDbLine
 10
90.0740740740740762
 20
113.2592592592592524
 30
0.0
 11
90.0740740740740762
 21
108.6666666666666714
 31
0.0
  0
LINE
  5
131
100
AcDbEntity
  8
Polje
 62
256
370
-1
 48
1.0
  6
BYLAYER
100
AcDbLine
 10
96.0
 20
113.2592592592592524
 30
0.0
 11
96.0
 21
108.6666666666666714
 31
0.0
  0
LINE
  5
132
100
AcDbEntity
  8
Polje
 62
256
370
-1
 48
1.0
  6
BYLAYER
100
AcDbLine
 10
48.5925925925925952
 20
107.3333333333333428
 30
0.0
 11
48.5925925925925952
 21
102.7407407407407618
 31
0.0
  0
LINE
  5
133
100
AcDbEntity
  8
Polje
 62
256
370
-1
 48
1.0
  6
BYLAYER
100
AcDbLine
 10
54.518518518518519
 20
107.3333333333333428
 30
0.0
 11
54.518518518518519
 21
102.7407407407407618
 31
0.0
  0
LINE
  5
134
100
AcDbEntity
  8
Polje
 62
256
370
-1
 48
1.0
  6
BYLAYER
100
AcDbLine
 10
60.44444444444445
 20
107.3333333333333428
 30
0.0
 11
60.44444444444445
 21
102.7407407407407618
 31
0.0
  0
LINE
  5
135
100
AcDbEntity
  8
Polje
 62
256
370
-1
 48
1.0
  6
BYLAYER
100
AcDbLine
 10
66.3703703703703809
 20
107.3333333333333428
 30
0.0
 11
66.3703703703703809
 21
102.7407407407407618
 31
0.0
  0
LINE
  5
136
100
AcDbEntity
  8
Polje
 62
256
370
-1
 48
1.0
  6
BYLAYER
100
AcDbLine
 10
72.2962962962963047
 20
107.3333333333333428
 30
0.0
 11
72.2962962962963047
 21
102.7407407407407618
 31
0.0
  0
LINE
  5
137
100
AcDbEntity
  8
Polje
 62
256
370
-1
 48
1.0
  6
BYLAYER
100
AcDbLine
 10
78.2222222222222285
 20
107.3333333333333428
 30
0.0
 11
78.2222222222222285
 21
102.7407407407407618
 31
0.0
  0
LINE
  5
138
100
AcDbEntity
  8
Polje
 62
256
370
-1
 48
1.0
  6
BYLAYER
100
AcDbLine
 10
84.1481481481481524
 20
107.3333333333333428
 30
0.0
 11
84.1481481481481524
 21
102.7407407407407618
 31
0.0
  0
LINE
  5
139
100
AcDbEntity
  8
Polje
 62
256
370
-1
 48
1.0
  6
BYLAYER
100
AcDbLine
 10
90.0740740740740762
 20
107.3333333333333286
 30
0.0
 11
90.0740740740740762
 21
102.7407407407407476
 31
0.0
  0
LINE
  5
13A
100
AcDbEntity
  8
Polje
 62
256
370
-1
 48
1.0
  6
BYLAYER
100
AcDbLine
 10
96.0
 20
107.3333333333333286
 30
0.0
 11
96.0
 21
102.7407407407407476
 31
0.0
  0
LINE
  5
13B
100
AcDbEntity
  8
Polje
 62
256
370
-1
 48
1.0
  6
BYLAYER
100
AcDbLine
 10
48.5925925925925952
 20
101.407407407407419
 30
0.0
 11
48.5925925925925952
 21
96.814814814814838
 31
0.0
  0
LINE
  5
13C
100
AcDbEntity
  8
Polje
 62
256
370
-1
 48
1.0
  6
BYLAYER
100
AcDbLine
 10
54.518518518518519
 20
101.407407407407419
 30
0.0
 11
54.518518518518519
 21
96.814814814814838
 31
0.0
  0
LINE
  5
13D
100
AcDbEntity
  8
Polje
 62
256
370
-1
 48
1.0
  6
BYLAYER
100
AcDbLine
 10
60.44444444444445
 20
101.407407407407419
 30
0.0
 11
60.44444444444445
 21
96.814814814814838
 31
0.0
  0
LINE
  5
13E
100
AcDbEntity
  8
Polje
 62
256
370
-1
 48
1.0
  6
BYLAYER
100
AcDbLine
 10
66.3703703703703809
 20
101.407407407407419
 30
0.0
 11
66.3703703703703809
 21
96.814814814814838
 31
0.0
  0
LINE
  5
13F
100
AcDbEntity
  8
Polje
 62
256
370
-1
 48
1.0
  6
BYLAYER
100
AcDbLine
 10
72.2962962962963047
 20
101.407407407407419
 30
0.0
 11
72.2962962962963047
 21
96.814814814814838
 31
0.0
  0
LINE
  5
140
100
AcDbEntity
  8
Polje
 62
256
370
-1
 48
1.0
  6
BYLAYER
100
AcDbLine
 10
78.2222222222222285
 20
101.407407407407419
 30
0.0
 11
78.2222222222222285
 21
96.814814814814838
 31
0.0
  0
LINE
  5
141
100
AcDbEntity
  8
Polje
 62
256
370
-1
 48
1.0
  6
BYLAYER
100
AcDbLine
 10
84.1481481481481524
 20
101.407407407407419
 30
0.0
 11
84.1481481481481524
 21
96.814814814814838
 31
0.0
  0
LINE
  5
142
100
AcDbEntity
  8
Polje
 62
256
370
-1
 48
1.0
  6
BYLAYER
100
AcDbLine
 10
90.0740740740740762
 20
101.4074074074074048
 30
0.0
 11
90.0740740740740762
 21
96.8148148148148238
 31
0.0
  0
LINE
  5
143
100
AcDbEntity
  8
Polje
 62
256
370
-1
 48
1.0
  6
BYLAYER
100
AcDbLine
 10
96.0
 20
101.4074074074074048
 30
0.0
 11
96.0
 21
96.8148148148148238
 31
0.0
  0
LINE
  5
144
100
AcDbEntity
  8
Polje
 62
256
370
-1
 48
1.0
  6
BYLAYER
100
AcDbLine
 10
48.5925925925925952
 20
144.2222222222222285
 30
0.0
 11
44.0
 21
144.2222222222222285
 31
0.0
  0
LINE
  5
145
100
AcDbEntity
  8
Polje
 62
256
370
-1
 48
1.0
  6
BYLAYER
100
AcDbLine
 10
54.518518518518519
 20
144.2222222222222285
 30
0.0
 11
49.9259259259259238
 21
144.2222222222222285
 31
0.0
  0
LINE
  5
146
100
AcDbEntity
  8
Polje
 62
256
370
-1
 48
1.0
  6
BYLAYER
100
AcDbLine
 10
60.44444444444445
 20
144.2222222222222285
 30
0.0
 11
55.8518518518518476
 21
144.2222222222222285
 31
0.0
  0
LINE
  5
147
100
AcDbEntity
  8
Polje
 62
256
370
-1
 48
1.0
  6
BYLAYER
100
AcDbLine
 10
66.3703703703703809
 20
144.2222222222222285
 30
0.0
 11
61.7777777777777857
 21
144.2222222222222285
 31
0.0
  0
LINE
  5
148
100
AcDbEntity
  8
Polje
 62
256
370
-1
 48
1.0
  6
BYLAYER
100
AcDbLine
 10
72.2962962962963047
 20
144.2222222222222285
 30
0.0
 11
67.7037037037037095
 21
144.2222222222222285
 31
0.0
  0
LINE
  5
149
100
AcDbEntity
  8
Polje
 62
256
370
-1
 48
1.0
  6
BYLAYER
100
AcDbLine
 10
78.2222222222222285
 20
144.2222222222222285
 30
0.0
 11
73.6296296296296333
 21
144.2222222222222285
 31
0.0
  0
LINE
  5
14A
100
AcDbEntity
  8
Polje
 62
256
370
-1
 48
1.0
  6
BYLAYER
100
AcDbLine
 10
84.1481481481481524
 20
144.2222222222222285
 30
0.0
 11
79.5555555555555713
 21
144.2222222222222285
 31
0.0
  0
LINE
  5
14B
100
AcDbEntity
  8
Polje
 62
256
370
-1
 48
1.0
  6
BYLAYER
100
AcDbLine
 10
90.0740740740740762
 20
144.2222222222222285
 30
0.0
 11
85.481481481481481
 21
144.2222222222222285
 31
0.0
  0
LINE
  5
14C
100
AcDbEntity
  8
Polje
 62
256
370
-1
 48
1.0
  6
BYLAYER
100
AcDbLine
 10
96.0
 20
144.2222222222222285
 30
0.0
 11
91.4074074074074048
 21
144.2222222222222285
 31
0.0
  0
LINE
  5
14D
100
AcDbEntity
  8
Polje
 62
256
370
-1
 48
1.0
  6
BYLAYER
100
AcDbLine
 10
48.5925925925925952
 20
138.2962962962963331
 30
0.0
 11
44.0
 21
138.2962962962963331
 31
0.0
  0
LINE
  5
14E
100
AcDbEntity
  8
Polje
 62
256
370
-1
 48
1.0
  6
BYLAYER
100
AcDbLine
 10
54.518518518518519
 20
138.2962962962963331
 30
0.0
 11
49.9259259259259238
 21
138.2962962962963331
 31
0.0
  0
LINE
  5
14F
100
AcDbEntity
  8
Polje
 62
256
370
-1
 48
1.0
  6
BYLAYER
100
AcDbLine
 10
60.44444444444445
 20
138.2962962962963331
 30
0.0
 11
55.8518518518518476
 21
138.2962962962963331
 31
0.0
  0
LINE
  5
150
100
AcDbEntity
  8
Polje
 62
256
370
-1
 48
1.0
  6
BYLAYER
100
AcDbLine
 10
66.3703703703703809
 20
138.2962962962963331
 30
0.0
 11
61.7777777777777857
 21
138.2962962962963331
 31
0.0
  0
LINE
  5
151
100
AcDbEntity
  8
Polje
 62
256
370
-1
 48
1.0
  6
BYLAYER
100
AcDbLine
 10
72.2962962962963047
 20
138.2962962962963331
 30
0.0
 11
67.7037037037037095
 21
138.2962962962963331
 31
0.0
  0
LINE
  5
152
100
AcDbEntity
  8
Polje
 62
256
370
-1
 48
1.0
  6
BYLAYER
100
AcDbLine
 10
78.2222222222222285
 20
138.2962962962963331
 30
0.0
 11
73.6296296296296333
 21
138.2962962962963331
 31
0.0
  0
LINE
  5
153
100
AcDbEntity
  8
Polje
 62
256
370
-1
 48
1.0
  6
BYLAYER
100
AcDbLine
 10
84.1481481481481524
 20
138.2962962962963331
 30
0.0
 11
79.5555555555555713
 21
138.2962962962963331
 31
0.0
  0
LINE
  5
154
100
AcDbEntity
  8
Polje
 62
256
370
-1
 48
1.0
  6
BYLAYER
100
AcDbLine
 10
90.0740740740740762
 20
138.2962962962963047
 30
0.0
 11
85.481481481481481
 21
138.2962962962963047
 31
0.0
  0
LINE
  5
155
100
AcDbEntity
  8
Polje
 62
256
370
-1
 48
1.0
  6
BYLAYER
100
AcDbLine
 10
96.0
 20
138.2962962962963047
 30
0.0
 11
91.4074074074074048
 21
138.2962962962963047
 31
0.0
  0
LINE
  5
156
100
AcDbEntity
  8
Polje
 62
256
370
-1
 48
1.0
  6
BYLAYER
100
AcDbLine
 10
48.5925925925925952
 20
132.3703703703703809
 30
0.0
 11
44.0
 21
132.3703703703703809
 31
0.0
  0
LINE
  5
157
100
AcDbEntity
  8
Polje
 62
256
370
-1
 48
1.0
  6
BYLAYER
100
AcDbLine
 10
54.518518518518519
 20
132.3703703703703809
 30
0.0
 11
49.9259259259259238
 21
132.3703703703703809
 31
0.0
  0
LINE
  5
158
100
AcDbEntity
  8
Polje
 62
256
370
-1
 48
1.0
  6
BYLAYER
100
AcDbLine
 10
60.44444444444445
 20
132.3703703703703809
 30
0.0
 11
55.8518518518518476
 21
132.3703703703703809
 31
0.0
  0
LINE
  5
159
100
AcDbEntity
  8
Polje
 62
256
370
-1
 48
1.0
  6
BYLAYER
100
AcDbLine
 10
66.3703703703703809
 20
132.3703703703703809
 30
0.0
 11
61.7777777777777857
 21
132.3703703703703809
 31
0.0
  0
LINE
  5
15A
100
AcDbEntity
  8
Polje
 62
256
370
-1
 48
1.0
  6
BYLAYER
100
AcDbLine
 10
72.2962962962963047
 20
132.3703703703703809
 30
0.0
 11
67.7037037037037095
 21
132.3703703703703809
 31
0.0
  0
LINE
  5
15B
100
AcDbEntity
  8
Polje
 62
256
370
-1
 48
1.0
  6
BYLAYER
100
AcDbLine
 10
78.2222222222222285
 20
132.3703703703703809
 30
0.0
 11
73.6296296296296333
 21
132.3703703703703809
 31
0.0
  0
LINE
  5
15C
100
AcDbEntity
  8
Polje
 62
256
370
-1
 48
1.0
  6
BYLAYER
100
AcDbLine
 10
84.1481481481481524
 20
132.3703703703703809
 30
0.0
 11
79.5555555555555713
 21
132.3703703703703809
 31
0.0
  0
LINE
  5
15D
100
AcDbEntity
  8
Polje
 62
256
370
-1
 48
1.0
  6
BYLAYER
100
AcDbLine
 10
90.0740740740740762
 20
132.3703703703703809
 30
0.0
 11
85.481481481481481
 21
132.3703703703703809
 31
0.0
  0
LINE
  5
15E
100
AcDbEntity
  8
Polje
 62
256
370
-1
 48
1.0
  6
BYLAYER
100
AcDbLine
 10
96.0
 20
132.3703703703703809
 30
0.0
 11
91.4074074074074048
 21
132.3703703703703809
 31
0.0
  0
LINE
  5
15F
100
AcDbEntity
  8
Polje
 62
256
370
-1
 48
1.0
  6
BYLAYER
100
AcDbLine
 10
48.5925925925925952
 20
126.4444444444444571
 30
0.0
 11
44.0
 21
126.4444444444444571
 31
0.0
  0
LINE
  5
160
100
AcDbEntity
  8
Polje
 62
256
370
-1
 48
1.0
  6
BYLAYER
100
AcDbLine
 10
54.518518518518519
 20
126.4444444444444571
 30
0.0
 11
49.9259259259259238
 21
126.4444444444444571
 31
0.0
  0
LINE
  5
161
100
AcDbEntity
  8
Polje
 62
256
370
-1
 48
1.0
  6
BYLAYER
100
AcDbLine
 10
60.44444444444445
 20
126.4444444444444571
 30
0.0
 11
55.8518518518518476
 21
126.4444444444444571
 31
0.0
  0
LINE
  5
162
100
AcDbEntity
  8
Polje
 62
256
370
-1
 48
1.0
  6
BYLAYER
100
AcDbLine
 10
66.3703703703703809
 20
126.4444444444444571
 30
0.0
 11
61.7777777777777857
 21
126.4444444444444571
 31
0.0
  0
LINE
  5
163
100
AcDbEntity
  8
Polje
 62
256
370
-1
 48
1.0
  6
BYLAYER
100
AcDbLine
 10
72.2962962962963047
 20
126.4444444444444571
 30
0.0
 11
67.7037037037037095
 21
126.4444444444444571
 31
0.0
  0
LINE
  5
164
100
AcDbEntity
  8
Polje
 62
256
370
-1
 48
1.0
  6
BYLAYER
100
AcDbLine
 10
78.2222222222222285
 20
126.4444444444444571
 30
0.0
 11
73.6296296296296333
 21
126.4444444444444571
 31
0.0
  0
LINE
  5
165
100
AcDbEntity
  8
Polje
 62
256
370
-1
 48
1.0
  6
BYLAYER
100
AcDbLine
 10
84.1481481481481524
 20
126.4444444444444571
 30
0.0
 11
79.5555555555555713
 21
126.4444444444444571
 31
0.0
  0
LINE
  5
166
100
AcDbEntity
  8
Polje
 62
256
370
-1
 48
1.0
  6
BYLAYER
100
AcDbLine
 10
90.0740740740740762
 20
126.4444444444444429
 30
0.0
 11
85.481481481481481
 21
126.4444444444444429
 31
0.0
  0
LINE
  5
167
100
AcDbEntity
  8
Polje
 62
256
370
-1
 48
1.0
  6
BYLAYER
100
AcDbLine
 10
96.0
 20
126.4444444444444429
 30
0.0
 11
91.4074074074074048
 21
126.4444444444444429
 31
0.0
  0
LINE
  5
168
100
AcDbEntity
  8
Polje
 62
256
370
-1
 48
1.0
  6
BYLAYER
100
AcDbLine
 10
48.5925925925925952
 20
120.5185185185185333
 30
0.0
 11
44.0
 21
120.5185185185185333
 31
0.0
  0
LINE
  5
169
100
AcDbEntity
  8
Polje
 62
256
370
-1
 48
1.0
  6
BYLAYER
100
AcDbLine
 10
54.518518518518519
 20
120.5185185185185333
 30
0.0
 11
49.9259259259259238
 21
120.5185185185185333
 31
0.0
  0
LINE
  5
16A
100
AcDbEntity
  8
Polje
 62
256
370
-1
 48
1.0
  6
BYLAYER
100
AcDbLine
 10
60.44444444444445
 20
120.5185185185185333
 30
0.0
 11
55.8518518518518476
 21
120.5185185185185333
 31
0.0
  0
LINE
  5
16B
100
AcDbEntity
  8
Polje
 62
256
370
-1
 48
1.0
  6
BYLAYER
100
AcDbLine
 10
66.3703703703703809
 20
120.5185185185185333
 30
0.0
 11
61.7777777777777857
 21
120.5185185185185333
 31
0.0
  0
LINE
  5
16C
100
AcDbEntity
  8
Polje
 62
256
370
-1
 48
1.0
  6
BYLAYER
100
AcDbLine
 10
72.2962962962963047
 20
120.5185185185185333
 30
0.0
 11
67.7037037037037095
 21
120.5185185185185333
 31
0.0
  0
LINE
  5
16D
100
AcDbEntity
  8
Polje
 62
256
370
-1
 48
1.0
  6
BYLAYER
100
AcDbLine
 10
78.2222222222222285
 20
120.5185185185185333
 30
0.0
 11
73.6296296296296333
 21
120.5185185185185333
 31
0.0
  0
LINE
  5
16E
100
AcDbEntity
  8
Polje
 62
256
370
-1
 48
1.0
  6
BYLAYER
100
AcDbLine
 10
84.1481481481481524
 20
120.5185185185185333
 30
0.0
 11
79.5555555555555713
 21
120.5185185185185333
 31
0.0
  0
LINE
  5
16F
100
AcDbEntity
  8
Polje
 62
256
370
-1
 48
1.0
  6
BYLAYER
100
AcDbLine
 10
90.0740740740740762
 20
120.5185185185185333
 30
0.0
 11
85.481481481481481
 21
120.5185185185185333
 31
0.0
  0
LINE
  5
170
100
AcDbEntity
  8
Polje
 62
256
370
-1
 48
1.0
  6
BYLAYER
100
AcDbLine
 10
96.0
 20
120.5185185185185333
 30
0.0
 11
91.4074074074074048
 21
120.5185185185185333
 31
0.0
  0
LINE
  5
171
100
AcDbEntity
  8
Polje
 62
256
370
-1
 48
1.0
  6
BYLAYER
100
AcDbLine
 10
48.5925925925925952
 20
114.5925925925926094
 30
0.0
 11
44.0
 21
114.5925925925926094
 31
0.0
  0
LINE
  5
172
100
AcDbEntity
  8
Polje
 62
256
370
-1
 48
1.0
  6
BYLAYER
100
AcDbLine
 10
54.518518518518519
 20
114.5925925925926094
 30
0.0
 11
49.9259259259259238
 21
114.5925925925926094
 31
0.0
  0
LINE
  5
173
100
AcDbEntity
  8
Polje
 62
256
370
-1
 48
1.0
  6
BYLAYER
100
AcDbLine
 10
60.44444444444445
 20
114.5925925925926094
 30
0.0
 11
55.8518518518518476
 21
114.5925925925926094
 31
0.0
  0
LINE
  5
174
100
AcDbEntity
  8
Polje
 62
256
370
-1
 48
1.0
  6
BYLAYER
100
AcDbLine
 10
66.3703703703703809
 20
114.5925925925926094
 30
0.0
 11
61.7777777777777857
 21
114.5925925925926094
 31
0.0
  0
LINE
  5
175
100
AcDbEntity
  8
Polje
 62
256
370
-1
 48
1.0
  6
BYLAYER
100
AcDbLine
 10
72.2962962962963047
 20
114.5925925925926094
 30
0.0
 11
67.7037037037037095
 21
114.5925925925926094
 31
0.0
  0
LINE
  5
176
100
AcDbEntity
  8
Polje
 62
256
370
-1
 48
1.0
  6
BYLAYER
100
AcDbLine
 10
78.2222222222222285
 20
114.5925925925926094
 30
0.0
 11
73.6296296296296333
 21
114.5925925925926094
 31
0.0
  0
LINE
  5
177
100
AcDbEntity
  8
Polje
 62
256
370
-1
 48
1.0
  6
BYLAYER
100
AcDbLine
 10
84.1481481481481524
 20
114.5925925925926094
 30
0.0
 11
79.5555555555555713
 21
114.5925925925926094
 31
0.0
  0
LINE
  5
178
100
AcDbEntity
  8
Polje
 62
256
370
-1
 48
1.0
  6
BYLAYER
100
AcDbLine
 10
90.0740740740740762
 20
114.5925925925926094
 30
0.0
 11
85.481481481481481
 21
114.5925925925926094
 31
0.0
  0
LINE
  5
179
100
AcDbEntity
  8
Polje
 62
256
370
-1
 48
1.0
  6
BYLAYER
100
AcDbLine
 10
96.0
 20
114.5925925925926094
 30
0.0
 11
91.4074074074074048
 21
114.5925925925926094
 31
0.0
  0
LINE
  5
17A
100
AcDbEntity
  8
Polje
 62
256
370
-1
 48
1.0
  6
BYLAYER
100
AcDbLine
 10
48.5925925925925952
 20
108.6666666666666856
 30
0.0
 11
44.0
 21
108.6666666666666856
 31
0.0
  0
LINE
  5
17B
100
AcDbEntity
  8
Polje
 62
256
370
-1
 48
1.0
  6
BYLAYER
100
AcDbLine
 10
54.518518518518519
 20
108.6666666666666856
 30
0.0
 11
49.9259259259259238
 21
108.6666666666666856
 31
0.0
  0
LINE
  5
17C
100
AcDbEntity
  8
Polje
 62
256
370
-1
 48
1.0
  6
BYLAYER
100
AcDbLine
 10
60.44444444444445
 20
108.6666666666666856
 30
0.0
 11
55.8518518518518476
 21
108.6666666666666856
 31
0.0
  0
LINE
  5
17D
100
AcDbEntity
  8
Polje
 62
256
370
-1
 48
1.0
  6
BYLAYER
100
AcDbLine
 10
66.3703703703703809
 20
108.6666666666666856
 30
0.0
 11
61.7777777777777857
 21
108.6666666666666856
 31
0.0
  0
LINE
  5
17E
100
AcDbEntity
  8
Polje
 62
256
370
-1
 48
1.0
  6
BYLAYER
100
AcDbLine
 10
72.2962962962963047
 20
108.6666666666666856
 30
0.0
 11
67.7037037037037095
 21
108.6666666666666856
 31
0.0
  0
LINE
  5
17F
100
AcDbEntity
  8
Polje
 62
256
370
-1
 48
1.0
  6
BYLAYER
100
AcDbLine
 10
78.2222222222222285
 20
108.6666666666666856
 30
0.0
 11
73.6296296296296333
 21
108.6666666666666856
 31
0.0
  0
LINE
  5
180
100
AcDbEntity
  8
Polje
 62
256
370
-1
 48
1.0
  6
BYLAYER
100
AcDbLine
 10
84.1481481481481524
 20
108.6666666666666856
 30
0.0
 11
79.5555555555555713
 21
108.6666666666666856
 31
0.0
  0
LINE
  5
181
100
AcDbEntity
  8
Polje
 62
256
370
-1
 48
1.0
  6
BYLAYER
100
AcDbLine
 10
90.0740740740740762
 20
108.6666666666666714
 30
0.0
 11
85.481481481481481
 21
108.6666666666666714
 31
0.0
  0
LINE
  5
182
100
AcDbEntity
  8
Polje
 62
256
370
-1
 48
1.0
  6
BYLAYER
100
AcDbLine
 10
96.0
 20
108.6666666666666714
 30
0.0
 11
91.4074074074074048
 21
108.6666666666666714
 31
0.0
  0
LINE
  5
183
100
AcDbEntity
  8
Polje
 62
256
370
-1
 48
1.0
  6
BYLAYER
100
AcDbLine
 10
48.5925925925925952
 20
102.7407407407407618
 30
0.0
 11
44.0
 21
102.7407407407407618
 31
0.0
  0
LINE
  5
184
100
AcDbEntity
  8
Polje
 62
256
370
-1
 48
1.0
  6
BYLAYER
100
AcDbLine
 10
54.518518518518519
 20
102.7407407407407618
 30
0.0
 11
49.9259259259259238
 21
102.7407407407407618
 31
0.0
  0
LINE
  5
185
100
AcDbEntity
  8
Polje
 62
256
370
-1
 48
1.0
  6
BYLAYER
100
AcDbLine
 10
60.44444444444445
 20
102.7407407407407618
 30
0.0
 11
55.8518518518518476
 21
102.7407407407407618
 31
0.0
  0
LINE
  5
186
100
AcDbEntity
  8
Polje
 62
256
370
-1
 48
1.0
  6
BYLAYER
100
AcDbLine
 10
66.3703703703703809
 20
102.7407407407407618
 30
0.0
 11
61.7777777777777857
 21
102.7407407407407618
 31
0.0
  0
LINE
  5
187
100
AcDbEntity
  8
Polje
 62
256
370
-1
 48
1.0
  6
BYLAYER
100
AcDbLine
 10
72.2962962962963047
 20
102.7407407407407618
 30
0.0
 11
67.7037037037037095
 21
102.7407407407407618
 31
0.0
  0
LINE
  5
188
100
AcDbEntity
  8
Polje
 62
256
370
-1
 48
1.0
  6
BYLAYER
100
AcDbLine
 10
78.2222222222222285
 20
102.7407407407407618
 30
0.0
 11
73.6296296296296333
 21
102.7407407407407618
 31
0.0
  0
LINE
  5
189
100
AcDbEntity
  8
Polje
 62
256
370
-1
 48
1.0
  6
BYLAYER
100
AcDbLine
 10
84.1481481481481524
 20
102.7407407407407618
 30
0.0
 11
79.5555555555555713
 21
102.7407407407407618
 31
0.0
  0
LINE
  5
18A
100
AcDbEntity
  8
Polje
 62
256
370
-1
 48
1.0
  6
BYLAYER
100
AcDbLine
 10
90.0740740740740762
 20
102.7407407407407476
 30
0.0
 11
85.481481481481481
 21
102.7407407407407476
 31
0.0
  0
LINE
  5
18B
100
AcDbEntity
  8
Polje
 62
256
370
-1
 48
1.0
  6
BYLAYER
100
AcDbLine
 10
96.0
 20
102.7407407407407476
 30
0.0
 11
91.4074074074074048
 21
102.7407407407407476
 31
0.0
  0
LINE
  5
18C
100
AcDbEntity
  8
Polje
 62
256
370
-1
 48
1.0
  6
BYLAYER
100
AcDbLine
 10
48.5925925925925952
 20
96.814814814814838
 30
0.0
 11
44.0
 21
96.814814814814838
 31
0.0
  0
LINE
  5
18D
100
AcDbEntity
  8
Polje
 62
256
370
-1
 48
1.0
  6
BYLAYER
100
AcDbLine
 10
54.518518518518519
 20
96.814814814814838
 30
0.0
 11
49.9259259259259238
 21
96.814814814814838
 31
0.0
  0
LINE
  5
18E
100
AcDbEntity
  8
Polje
 62
256
370
-1
 48
1.0
  6
BYLAYER
100
AcDbLine
 10
60.44444444444445
 20
96.814814814814838
 30
0.0
 11
55.8518518518518476
 21
96.814814814814838
 31
0.0
  0
LINE
  5
18F
100
AcDbEntity
  8
Polje
 62
256
370
-1
 48
1.0
  6
BYLAYER
100
AcDbLine
 10
66.3703703703703809
 20
96.814814814814838
 30
0.0
 11
61.7777777777777857
 21
96.814814814814838
 31
0.0
  0
LINE
  5
190
100
AcDbEntity
  8
Polje
 62
256
370
-1
 48
1.0
  6
BYLAYER
100
AcDbLine
 10
72.2962962962963047
 20
96.814814814814838
 30
0.0
 11
67.7037037037037095
 21
96.814814814814838
 31
0.0
  0
LINE
  5
191
100
AcDbEntity
  8
Polje
 62
256
370
-1
 48
1.0
  6
BYLAYER
100
AcDbLine
 10
78.2222222222222285
 20
96.814814814814838
 30
0.0
 11
73.6296296296296333
 21
96.814814814814838
 31
0.0
  0
LINE
  5
192
100
AcDbEntity
  8
Polje
 62
256
370
-1
 48
1.0
  6
BYLAYER
100
AcDbLine
 10
84.1481481481481524
 20
96.814814814814838
 30
0.0
 11
79.5555555555555713
 21
96.814814814814838
 31
0.0
  0
LINE
  5
193
100
AcDbEntity
  8
Polje
 62
256
370
-1
 48
1.0
  6
BYLAYER
100
AcDbLine
 10
90.0740740740740762
 20
96.8148148148148238
 30
0.0
 11
85.481481481481481
 21
96.8148148148148238
 31
0.0
  0
LINE
  5
194
100
AcDbEntity
  8
Polje
 62
256
370
-1
 48
1.0
  6
BYLAYER
100
AcDbLine
 10
96.0
 20
96.8148148148148238
 30
0.0
 11
91.4074074074074048
 21
96.8148148148148238
 31
0.0
  0
LINE
  5
195
100
AcDbEntity
  8
Polje
 62
256
370
-1
 48
1.0
  6
BYLAYER
100
AcDbLine
 10
44.0
 20
144.2222222222222285
 30
0.0
 11
44.0
 21
148.8148148148148096
 31
0.0
  0
LINE
  5
196
100
AcDbEntity
  8
Polje
 62
256
370
-1
 48
1.0
  6
BYLAYER
100
AcDbLine
 10
49.9259259259259238
 20
144.2222222222222285
 30
0.0
 11
49.9259259259259238
 21
148.8148148148148096
 31
0.0
  0
LINE
  5
197
100
AcDbEntity
  8
Polje
 62
256
370
-1
 48
1.0
  6
BYLAYER
100
AcDbLine
 10
55.8518518518518476
 20
144.2222222222222285
 30
0.0
 11
55.8518518518518476
 21
148.8148148148148096
 31
0.0
  0
LINE
  5
198
100
AcDbEntity
  8
Polje
 62
256
370
-1
 48
1.0
  6
BYLAYER
100
AcDbLine
 10
61.7777777777777857
 20
144.2222222222222285
 30
0.0
 11
61.7777777777777857
 21
148.8148148148148096
 31
0.0
  0
LINE
  5
199
100
AcDbEntity
  8
Polje
 62
256
370
-1
 48
1.0
  6
BYLAYER
100
AcDbLine
 10
67.7037037037037095
 20
144.2222222222222285
 30
0.0
 11
67.7037037037037095
 21
148.8148148148148096
 31
0.0
  0
LINE
  5
19A
100
AcDbEntity
  8
Polje
 62
256
370
-1
 48
1.0
  6
BYLAYER
100
AcDbLine
 10
73.6296296296296333
 20
144.2222222222222285
 30
0.0
 11
73.6296296296296333
 21
148.8148148148148096
 31
0.0
  0
LINE
  5
19B
100
AcDbEntity
  8
Polje
 62
256
370
-1
 48
1.0
  6
BYLAYER
100
AcDbLine
 10
79.5555555555555713
 20
144.2222222222222285
 30
0.0
 11
79.5555555555555713
 21
148.8148148148148096
 31
0.0
  0
LINE
  5
19C
100
AcDbEntity
  8
Polje
 62
256
370
-1
 48
1.0
  6
BYLAYER
100
AcDbLine
 10
85.481481481481481
 20
144.2222222222222285
 30
0.0
 11
85.481481481481481
 21
148.8148148148148096
 31
0.0
  0
LINE
  5
19D
100
AcDbEntity
  8
Polje
 62
256
370
-1
 48
1.0
  6
BYLAYER
100
AcDbLine
 10
91.4074074074074048
 20
144.2222222222222285
 30
0.0
 11
91.4074074074074048
 21
148.8148148148148096
 31
0.0
  0
LINE
  5
19E
100
AcDbEntity
  8
Polje
 62
256
370
-1
 48
1.0
  6
BYLAYER
100
AcDbLine
 10
44.0
 20
138.2962962962963331
 30
0.0
 11
44.0
 21
142.8888888888889142
 31
0.0
  0
LINE
  5
19F
100
AcDbEntity
  8
Polje
 62
256
370
-1
 48
1.0
  6
BYLAYER
100
AcDbLine
 10
49.9259259259259238
 20
138.2962962962963331
 30
0.0
 11
49.9259259259259238
 21
142.8888888888889142
 31
0.0
  0
LINE
  5
1A0
100
AcDbEntity
  8
Polje
 62
256
370
-1
 48
1.0
  6
BYLAYER
100
AcDbLine
 10
55.8518518518518476
 20
138.2962962962963331
 30
0.0
 11
55.8518518518518476
 21
142.8888888888889142
 31
0.0
  0
LINE
  5
1A1
100
AcDbEntity
  8
Polje
 62
256
370
-1
 48
1.0
  6
BYLAYER
100
AcDbLine
 10
61.7777777777777857
 20
138.2962962962963331
 30
0.0
 11
61.7777777777777857
 21
142.8888888888889142
 31
0.0
  0
LINE
  5
1A2
100
AcDbEntity
  8
Polje
 62
256
370
-1
 48
1.0
  6
BYLAYER
100
AcDbLine
 10
67.7037037037037095
 20
138.2962962962963331
 30
0.0
 11
67.7037037037037095
 21
142.8888888888889142
 31
0.0
  0
LINE
  5
1A3
100
AcDbEntity
  8
Polje
 62
256
370
-1
 48
1.0
  6
BYLAYER
100
AcDbLine
 10
73.6296296296296333
 20
138.2962962962963331
 30
0.0
 11
73.6296296296296333
 21
142.8888888888889142
 31
0.0
  0
LINE
  5
1A4
100
AcDbEntity
  8
Polje
 62
256
370
-1
 48
1.0
  6
BYLAYER
100
AcDbLine
 10
79.5555555555555713
 20
138.2962962962963331
 30
0.0
 11
79.5555555555555713
 21
142.8888888888889142
 31
0.0
  0
LINE
  5
1A5
100
AcDbEntity
  8
Polje
 62
256
370
-1
 48
1.0
  6
BYLAYER
100
AcDbLine
 10
85.481481481481481
 20
138.2962962962963047
 30
0.0
 11
85.481481481481481
 21
142.8888888888888857
 31
0.0
  0
LINE
  5
1A6
100
AcDbEntity
  8
Polje
 62
256
370
-1
 48
1.0
  6
BYLAYER
100
AcDbLine
 10
91.4074074074074048
 20
138.2962962962963047
 30
0.0
 11
91.4074074074074048
 21
142.8888888888888857
 31
0.0
  0
LINE
  5
1A7
100
AcDbEntity
  8
Polje
 62
256
370
-1
 48
1.0
  6
BYLAYER
100
AcDbLine
 10
44.0
 20
132.3703703703703809
 30
0.0
 11
44.0
 21
136.9629629629629619
 31
0.0
  0
LINE
  5
1A8
100
AcDbEntity
  8
Polje
 62
256
370
-1
 48
1.0
  6
BYLAYER
100
AcDbLine
 10
49.9259259259259238
 20
132.3703703703703809
 30
0.0
 11
49.9259259259259238
 21
136.9629629629629619
 31
0.0
  0
LINE
  5
1A9
100
AcDbEntity
  8
Polje
 62
256
370
-1
 48
1.0
  6
BYLAYER
100
AcDbLine
 10
55.8518518518518476
 20
132.3703703703703809
 30
0.0
 11
55.8518518518518476
 21
136.9629629629629619
 31
0.0
  0
LINE
  5
1AA
100
AcDbEntity
  8
Polje
 62
256
370
-1
 48
1.0
  6
BYLAYER
100
AcDbLine
 10
61.7777777777777857
 20
132.3703703703703809
 30
0.0
 11
61.7777777777777857
 21
136.9629629629629619
 31
0.0
  0
LINE
  5
1AB
100
AcDbEntity
  8
Polje
 62
256
370
-1
 48
1.0
  6
BYLAYER
100
AcDbLine
 10
67.7037037037037095
 20
132.3703703703703809
 30
0.0
 11
67.7037037037037095
 21
136.9629629629629619
 31
0.0
  0
LINE
  5
1AC
100
AcDbEntity
  8
Polje
 62
256
370
-1
 48
1.0
  6
BYLAYER
100
AcDbLine
 10
73.6296296296296333
 20
132.3703703703703809
 30
0.0
 11
73.6296296296296333
 21
136.9629629629629619
 31
0.0
  0
LINE
  5
1AD
100
AcDbEntity
  8
Polje
 62
256
370
-1
 48
1.0
  6
BYLAYER
100
AcDbLine
 10
79.5555555555555713
 20
132.3703703703703809
 30
0.0
 11
79.5555555555555713
 21
136.9629629629629619
 31
0.0
  0
LINE
  5
1AE
100
AcDbEntity
  8
Polje
 62
256
370
-1
 48
1.0
  6
BYLAYER
100
AcDbLine
 10
85.481481481481481
 20
132.3703703703703809
 30
0.0
 11
85.481481481481481
 21
136.9629629629629619
 31
0.0
  0
LINE
  5
1AF
100
AcDbEntity
  8
Polje
 62
256
370
-1
 48
1.0
  6
BYLAYER
100
AcDbLine
 10
91.4074074074074048
 20
132.3703703703703809
 30
0.0
 11
91.4074074074074048
 21
136.9629629629629619
 31
0.0
  0
LINE
  5
1B0
100
AcDbEntity
  8
Polje
 62
256
370
-1
 48
1.0
  6
BYLAYER
100
AcDbLine
 10
44.0
 20
126.4444444444444571
 30
0.0
 11
44.0
 21
131.0370370370370381
 31
0.0
  0
LINE
  5
1B1
100
AcDbEntity
  8
Polje
 62
256
370
-1
 48
1.0
  6
BYLAYER
100
AcDbLine
 10
49.9259259259259238
 20
126.4444444444444571
 30
0.0
 11
49.9259259259259238
 21
131.0370370370370381
 31
0.0
  0
LINE
  5
1B2
100
AcDbEntity
  8
Polje
 62
256
370
-1
 48
1.0
  6
BYLAYER
100
AcDbLine
 10
55.8518518518518476
 20
126.4444444444444571
 30
0.0
 11
55.8518518518518476
 21
131.0370370370370381
 31
0.0
  0
LINE
  5
1B3
100
AcDbEntity
  8
Polje
 62
256
370
-1
 48
1.0
  6
BYLAYER
100
AcDbLine
 10
61.7777777777777857
 20
126.4444444444444571
 30
0.0
 11
61.7777777777777857
 21
131.0370370370370381
 31
0.0
  0
LINE
  5
1B4
100
AcDbEntity
  8
Polje
 62
256
370
-1
 48
1.0
  6
BYLAYER
100
AcDbLine
 10
67.7037037037037095
 20
126.4444444444444571
 30
0.0
 11
67.7037037037037095
 21
131.0370370370370381
 31
0.0
  0
LINE
  5
1B5
100
AcDbEntity
  8
Polje
 62
256
370
-1
 48
1.0
  6
BYLAYER
100
AcDbLine
 10
73.6296296296296333
 20
126.4444444444444571
 30
0.0
 11
73.6296296296296333
 21
131.0370370370370381
 31
0.0
  0
LINE
  5
1B6
100
AcDbEntity
  8
Polje
 62
256
370
-1
 48
1.0
  6
BYLAYER
100
AcDbLine
 10
79.5555555555555713
 20
126.4444444444444571
 30
0.0
 11
79.5555555555555713
 21
131.0370370370370381
 31
0.0
  0
LINE
  5
1B7
100
AcDbEntity
  8
Polje
 62
256
370
-1
 48
1.0
  6
BYLAYER
100
AcDbLine
 10
85.481481481481481
 20
126.4444444444444429
 30
0.0
 11
85.481481481481481
 21
131.0370370370370097
 31
0.0
  0
LINE
  5
1B8
100
AcDbEntity
  8
Polje
 62
256
370
-1
 48
1.0
  6
BYLAYER
100
AcDbLine
 10
91.4074074074074048
 20
126.4444444444444429
 30
0.0
 11
91.4074074074074048
 21
131.0370370370370097
 31
0.0
  0
LINE
  5
1B9
100
AcDbEntity
  8
Polje
 62
256
370
-1
 48
1.0
  6
BYLAYER
100
AcDbLine
 10
44.0
 20
120.5185185185185333
 30
0.0
 11
44.0
 21
125.1111111111111143
 31
0.0
  0
LINE
  5
1BA
100
AcDbEntity
  8
Polje
 62
256
370
-1
 48
1.0
  6
BYLAYER
100
AcDbLine
 10
49.9259259259259238
 20
120.5185185185185333
 30
0.0
 11
49.9259259259259238
 21
125.1111111111111143
 31
0.0
  0
LINE
  5
1BB
100
AcDbEntity
  8
Polje
 62
256
370
-1
 48
1.0
  6
BYLAYER
100
AcDbLine
 10
55.8518518518518476
 20
120.5185185185185333
 30
0.0
 11
55.8518518518518476
 21
125.1111111111111143
 31
0.0
  0
LINE
  5
1BC
100
AcDbEntity
  8
Polje
 62
256
370
-1
 48
1.0
  6
BYLAYER
100
AcDbLine
 10
61.7777777777777857
 20
120.5185185185185333
 30
0.0
 11
61.7777777777777857
 21
125.1111111111111143
 31
0.0
  0
LINE
  5
1BD
100
AcDbEntity
  8
Polje
 62
256
370
-1
 48
1.0
  6
BYLAYER
100
AcDbLine
 10
67.7037037037037095
 20
120.5185185185185333
 30
0.0
 11
67.7037037037037095
 21
125.1111111111111143
 31
0.0
  0
LINE
  5
1BE
100
AcDbEntity
  8
Polje
 62
256
370
-1
 48
1.0
  6
BYLAYER
100
AcDbLine
 10
73.6296296296296333
 20
120.5185185185185333
 30
0.0
 11
73.6296296296296333
 21
125.1111111111111143
 31
0.0
  0
LINE
  5
1BF
100
AcDbEntity
  8
Polje
 62
256
370
-1
 48
1.0
  6
BYLAYER
100
AcDbLine
 10
79.5555555555555713
 20
120.5185185185185333
 30
0.0
 11
79.5555555555555713
 21
125.1111111111111143
 31
0.0
  0
LINE
  5
1C0
100
AcDbEntity
  8
Polje
 62
256
370
-1
 48
1.0
  6
BYLAYER
100
AcDbLine
 10
85.481481481481481
 20
120.5185185185185333
 30
0.0
 11
85.481481481481481
 21
125.1111111111111143
 31
0.0
  0
LINE
  5
1C1
100
AcDbEntity
  8
Polje
 62
256
370
-1
 48
1.0
  6
BYLAYER
100
AcDbLine
 10
91.4074074074074048
 20
120.5185185185185333
 30
0.0
 11
91.4074074074074048
 21
125.1111111111111143
 31
0.0
  0
LINE
  5
1C2
100
AcDbEntity
  8
Polje
 62
256
370
-1
 48
1.0
  6
BYLAYER
100
AcDbLine
 10
44.0
 20
114.5925925925926094
 30
0.0
 11
44.0
 21
119.1851851851851904
 31
0.0
  0
LINE
  5
1C3
100
AcDbEntity
  8
Polje
 62
256
370
-1
 48
1.0
  6
BYLAYER
100
AcDbLine
 10
49.9259259259259238
 20
114.5925925925926094
 30
0.0
 11
49.9259259259259238
 21
119.1851851851851904
 31
0.0
  0
LINE
  5
1C4
100
AcDbEntity
  8
Polje
 62
256
370
-1
 48
1.0
  6
BYLAYER
100
AcDbLine
 10
55.8518518518518476
 20
114.5925925925926094
 30
0.0
 11
55.8518518518518476
 21
119.1851851851851904
 31
0.0
  0
LINE
  5
1C5
100
AcDbEntity
  8
Polje
 62
256
370
-1
 48
1.0
  6
BYLAYER
100
AcDbLine
 10
61.7777777777777857
 20
114.5925925925926094
 30
0.0
 11
61.7777777777777857
 21
119.1851851851851904
 31
0.0
  0
LINE
  5
1C6
100
AcDbEntity
  8
Polje
 62
256
370
-1
 48
1.0
  6
BYLAYER
100
AcDbLine
 10
67.7037037037037095
 20
114.5925925925926094
 30
0.0
 11
67.7037037037037095
 21
119.1851851851851904
 31
0.0
  0
LINE
  5
1C7
100
AcDbEntity
  8
Polje
 62
256
370
-1
 48
1.0
  6
BYLAYER
100
AcDbLine
 10
73.6296296296296333
 20
114.5925925925926094
 30
0.0
 11
73.6296296296296333
 21
119.1851851851851904
 31
0.0
  0
LINE
  5
1C8
100
AcDbEntity
  8
Polje
 62
256
370
-1
 48
1.0
  6
BYLAYER
100
AcDbLine
 10
79.5555555555555713
 20
114.5925925925926094
 30
0.0
 11
79.5555555555555713
 21
119.1851851851851904
 31
0.0
  0
LINE
  5
1C9
100
AcDbEntity
  8
Polje
 62
256
370
-1
 48
1.0
  6
BYLAYER
100
AcDbLine
 10
85.481481481481481
 20
114.5925925925926094
 30
0.0
 11
85.481481481481481
 21
119.1851851851851904
 31
0.0
  0
LINE
  5
1CA
100
AcDbEntity
  8
Polje
 62
256
370
-1
 48
1.0
  6
BYLAYER
100
AcDbLine
 10
91.4074074074074048
 20
114.5925925925926094
 30
0.0
 11
91.4074074074074048
 21
119.1851851851851904
 31
0.0
  0
LINE
  5
1CB
100
AcDbEntity
  8
Polje
 62
256
370
-1
 48
1.0
  6
BYLAYER
100
AcDbLine
 10
44.0
 20
108.6666666666666856
 30
0.0
 11
44.0
 21
113.2592592592592666
 31
0.0
  0
LINE
  5
1CC
100
AcDbEntity
  8
Polje
 62
256
370
-1
 48
1.0
  6
BYLAYER
100
AcDbLine
 10
49.9259259259259238
 20
108.6666666666666856
 30
0.0
 11
49.9259259259259238
 21
113.2592592592592666
 31
0.0
  0
LINE
  5
1CD
100
AcDbEntity
  8
Polje
 62
256
370
-1
 48
1.0
  6
BYLAYER
100
AcDbLine
 10
55.8518518518518476
 20
108.6666666666666856
 30
0.0
 11
55.8518518518518476
 21
113.2592592592592666
 31
0.0
  0
LINE
  5
1CE
100
AcDbEntity
  8
Polje
 62
256
370
-1
 48
1.0
  6
BYLAYER
100
AcDbLine
 10
61.7777777777777857
 20
108.6666666666666856
 30
0.0
 11
61.7777777777777857
 21
113.2592592592592666
 31
0.0
  0
LINE
  5
1CF
100
AcDbEntity
  8
Polje
 62
256
370
-1
 48
1.0
  6
BYLAYER
100
AcDbLine
 10
67.7037037037037095
 20
108.6666666666666856
 30
0.0
 11
67.7037037037037095
 21
113.2592592592592666
 31
0.0
  0
LINE
  5
1D0
100
AcDbEntity
  8
Polje
 62
256
370
-1
 48
1.0
  6
BYLAYER
100
AcDbLine
 10
73.6296296296296333
 20
108.6666666666666856
 30
0.0
 11
73.6296296296296333
 21
113.2592592592592666
 31
0.0
  0
LINE
  5
1D1
100
AcDbEntity
  8
Polje
 62
256
370
-1
 48
1.0
  6
BYLAYER
100
AcDbLine
 10
79.5555555555555713
 20
108.6666666666666856
 30
0.0
 11
79.5555555555555713
 21
113.2592592592592666
 31
0.0
  0
LINE
  5
1D2
100
AcDbEntity
  8
Polje
 62
256
370
-1
 48
1.0
  6
BYLAYER
100
AcDbLine
 10
85.481481481481481
 20
108.6666666666666714
 30
0.0
 11
85.481481481481481
 21
113.2592592592592524
 31
0.0
  0
LINE
  5
1D3
100
AcDbEntity
  8
Polje
 62
256
370
-1
 48
1.0
  6
BYLAYER
100
AcDbLine
 10
91.4074074074074048
 20
108.6666666666666714
 30
0.0
 11
91.4074074074074048
 21
113.2592592592592524
 31
0.0
  0
LINE
  5
1D4
100
AcDbEntity
  8
Polje
 62
256
370
-1
 48
1.0
  6
BYLAYER
100
AcDbLine
 10
44.0
 20
102.7407407407407618
 30
0.0
 11
44.0
 21
107.3333333333333428
 31
0.0
  0
LINE
  5
1D5
100
AcDbEntity
  8
Polje
 62
256
370
-1
 48
1.0
  6
BYLAYER
100
AcDbLine
 10
49.9259259259259238
 20
102.7407407407407618
 30
0.0
 11
49.9259259259259238
 21
107.3333333333333428
 31
0.0
  0
LINE
  5
1D6
100
AcDbEntity
  8
Polje
 62
256
370
-1
 48
1.0
  6
BYLAYER
100
AcDbLine
 10
55.8518518518518476
 20
102.7407407407407618
 30
0.0
 11
55.8518518518518476
 21
107.3333333333333428
 31
0.0
  0
LINE
  5
1D7
100
AcDbEntity
  8
Polje
 62
256
370
-1
 48
1.0
  6
BYLAYER
100
AcDbLine
 10
61.7777777777777857
 20
102.7407407407407618
 30
0.0
 11
61.7777777777777857
 21
107.3333333333333428
 31
0.0
  0
LINE
  5
1D8
100
AcDbEntity
  8
Polje
 62
256
370
-1
 48
1.0
  6
BYLAYER
100
AcDbLine
 10
67.7037037037037095
 20
102.7407407407407618
 30
0.0
 11
67.7037037037037095
 21
107.3333333333333428
 31
0.0
  0
LINE
  5
1D9
100
AcDbEntity
  8
Polje
 62
256
370
-1
 48
1.0
  6
BYLAYER
100
AcDbLine
 10
73.6296296296296333
 20
102.7407407407407618
 30
0.0
 11
73.6296296296296333
 21
107.3333333333333428
 31
0.0
  0
LINE
  5
1DA
100
AcDbEntity
  8
Polje
 62
256
370
-1
 48
1.0
  6
BYLAYER
100
AcDbLine
 10
79.5555555555555713
 20
102.7407407407407618
 30
0.0
 11
79.5555555555555713
 21
107.3333333333333428
 31
0.0
  0
LINE
  5
1DB
100
AcDbEntity
  8
Polje
 62
256
370
-1
 48
1.0
  6
BYLAYER
100
AcDbLine
 10
85.481481481481481
 20
102.7407407407407476
 30
0.0
 11
85.481481481481481
 21
107.3333333333333286
 31
0.0
  0
LINE
  5
1DC
100
AcDbEntity
  8
Polje
 62
256
370
-1
 48
1.0
  6
BYLAYER
100
AcDbLine
 10
91.4074074074074048
 20
102.7407407407407476
 30
0.0
 11
91.4074074074074048
 21
107.3333333333333286
 31
0.0
  0
LINE
  5
1DD
100
AcDbEntity
  8
Polje
 62
256
370
-1
 48
1.0
  6
BYLAYER
100
AcDbLine
 10
44.0
 20
96.814814814814838
 30
0.0
 11
44.0
 21
101.407407407407419
 31
0.0
  0
LINE
  5
1DE
100
AcDbEntity
  8
Polje
 62
256
370
-1
 48
1.0
  6
BYLAYER
100
AcDbLine
 10
49.9259259259259238
 20
96.814814814814838
 30
0.0
 11
49.9259259259259238
 21
101.407407407407419
 31
0.0
  0
LINE
  5
1DF
100
AcDbEntity
  8
Polje
 62
256
370
-1
 48
1.0
  6
BYLAYER
100
AcDbLine
 10
55.8518518518518476
 20
96.814814814814838
 30
0.0
 11
55.8518518518518476
 21
101.407407407407419
 31
0.0
  0
LINE
  5
1E0
100
AcDbEntity
  8
Polje
 62
256
370
-1
 48
1.0
  6
BYLAYER
100
AcDbLine
 10
61.7777777777777857
 20
96.814814814814838
 30
0.0
 11
61.7777777777777857
 21
101.407407407407419
 31
0.0
  0
LINE
  5
1E1
100
AcDbEntity
  8
Polje
 62
256
370
-1
 48
1.0
  6
BYLAYER
100
AcDbLine
 10
67.7037037037037095
 20
96.814814814814838
 30
0.0
 11
67.7037037037037095
 21
101.407407407407419
 31
0.0
  0
LINE
  5
1E2
100
AcDbEntity
  8
Polje
 62
256
370
-1
 48
1.0
  6
BYLAYER
100
AcDbLine
 10
73.6296296296296333
 20
96.814814814814838
 30
0.0
 11
73.6296296296296333
 21
101.407407407407419
 31
0.0
  0
LINE
  5
1E3
100
AcDbEntity
  8
Polje
 62
256
370
-1
 48
1.0
  6
BYLAYER
100
AcDbLine
 10
79.5555555555555713
 20
96.814814814814838
 30
0.0
 11
79.5555555555555713
 21
101.407407407407419
 31
0.0
  0
LINE
  5
1E4
100
AcDbEntity
  8
Polje
 62
256
370
-1
 48
1.0
  6
BYLAYER
100
AcDbLine
 10
85.481481481481481
 20
96.8148148148148238
 30
0.0
 11
85.481481481481481
 21
101.4074074074074048
 31
0.0
  0
LINE
  5
1E5
100
AcDbEntity
  8
Polje
 62
256
370
-1
 48
1.0
  6
BYLAYER
100
AcDbLine
 10
91.4074074074074048
 20
96.8148148148148238
 30
0.0
 11
91.4074074074074048
 21
101.4074074074074048
 31
0.0
  0
LINE
  5
1E6
100
AcDbEntity
  8
Stene
 62
256
370
-1
 48
1.0
  6
BYLAYER
100
AcDbLine
 10
44.0
 20
160.0
 30
0.0
 11
48.5925925925925952
 21
160.0
 31
0.0
  0
LINE
  5
1E7
100
AcDbEntity
  8
Stene
 62
256
370
-1
 48
1.0
  6
BYLAYER
100
AcDbLine
 10
49.9259259259259238
 20
160.0
 30
0.0
 11
54.518518518518519
 21
160.0
 31
0.0
  0
LINE
  5
1E8
100
AcDbEntity
  8
Stene
 62
256
370
-1
 48
1.0
  6
BYLAYER
100
AcDbLine
 10
55.8518518518518476
 20
160.0
 30
0.0
 11
60.4444444444444429
 21
160.0
 31
0.0
  0
LINE
  5
1E9
100
AcDbEntity
  8
Stene
 62
256
370
-1
 48
1.0
  6
BYLAYER
100
AcDbLine
 10
61.7777777777777857
 20
160.0
 30
0.0
 11
66.3703703703703809
 21
160.0
 31
0.0
  0
LINE
  5
1EA
100
AcDbEntity
  8
Stene
 62
256
370
-1
 48
1.0
  6
BYLAYER
100
AcDbLine
 10
67.7037037037037095
 20
160.0
 30
0.0
 11
72.2962962962963047
 21
160.0
 31
0.0
  0
LINE
  5
1EB
100
AcDbEntity
  8
Stene
 62
256
370
-1
 48
1.0
  6
BYLAYER
100
AcDbLine
 10
73.6296296296296333
 20
160.0
 30
0.0
 11
78.2222222222222285
 21
160.0
 31
0.0
  0
LINE
  5
1EC
100
AcDbEntity
  8
Stene
 62
256
370
-1
 48
1.0
  6
BYLAYER
100
AcDbLine
 10
79.5555555555555713
 20
160.0
 30
0.0
 11
84.1481481481481524
 21
160.0
 31
0.0
  0
LINE
  5
1ED
100
AcDbEntity
  8
Stene
 62
256
370
-1
 48
1.0
  6
BYLAYER
100
AcDbLine
 10
85.4814814814814952
 20
160.0
 30
0.0
 11
90.0740740740740904
 21
160.0
 31
0.0
  0
LINE
  5
1EE
100
AcDbEntity
  8
Stene
 62
256
370
-1
 48
1.0
  6
BYLAYER
100
AcDbLine
 10
91.4074074074074048
 20
160.0
 30
0.0
 11
96.0
 21
160.0
 31
0.0
  0
LINE
  5
1EF
100
AcDbEntity
  8
Stene
 62
256
370
-1
 48
1.0
  6
BYLAYER
100
AcDbLine
 10
44.0
 20
96.1481481481481524
 30
0.0
 11
48.5925925925925952
 21
96.1481481481481524
 31
0.0
  0
LINE
  5
1F0
100
AcDbEntity
  8
Stene
 62
256
370
-1
 48
1.0
  6
BYLAYER
100
AcDbLine
 10
49.9259259259259238
 20
96.1481481481481524
 30
0.0
 11
54.518518518518519
 21
96.1481481481481524
 31
0.0
  0
LINE
  5
1F1
100
AcDbEntity
  8
Stene
 62
256
370
-1
 48
1.0
  6
BYLAYER
100
AcDbLine
 10
55.8518518518518476
 20
96.1481481481481524
 30
0.0
 11
60.4444444444444429
 21
96.1481481481481524
 31
0.0
  0
LINE
  5
1F2
100
AcDbEntity
  8
Stene
 62
256
370
-1
 48
1.0
  6
BYLAYER
100
AcDbLine
 10
61.7777777777777857
 20
96.1481481481481524
 30
0.0
 11
66.3703703703703809
 21
96.1481481481481524
 31
0.0
  0
LINE
  5
1F3
100
AcDbEntity
  8
Stene
 62
256
370
-1
 48
1.0
  6
BYLAYER
100
AcDbLine
 10
67.7037037037037095
 20
96.1481481481481524
 30
0.0
 11
72.2962962962963047
 21
96.1481481481481524
 31
0.0
  0
LINE
  5
1F4
100
AcDbEntity
  8
Stene
 62
256
370
-1
 48
1.0
  6
BYLAYER
100
AcDbLine
 10
73.6296296296296333
 20
96.1481481481481524
 30
0.0
 11
78.2222222222222285
 21
96.1481481481481524
 31
0.0
  0
LINE
  5
1F5
100
AcDbEntity
  8
Stene
 62
256
370
-1
 48
1.0
  6
BYLAYER
100
AcDbLine
 10
79.5555555555555713
 20
96.1481481481481524
 30
0.0
 11
84.1481481481481524
 21
96.1481481481481524
 31
0.0
  0
LINE
  5
1F6
100
AcDbEntity
  8
Stene
 62
256
370
-1
 48
1.0
  6
BYLAYER
100
AcDbLine
 10
85.481481481481481
 20
96.1481481481481524
 30
0.0
 11
90.0740740740740762
 21
96.1481481481481524
 31
0.0
  0
LINE
  5
1F7
100
AcDbEntity
  8
Stene
 62
256
370
-1
 48
1.0
  6
BYLAYER
100
AcDbLine
 10
91.4074074074074048
 20
96.1481481481481524
 30
0.0
 11
96.0
 21
96.1481481481481524
 31
0.0
  0
LINE
  5
1F8
100
AcDbEntity
  8
Stene
 62
256
370
-1
 48
1.0
  6
BYLAYER
100
AcDbLine
 10
48.5925925925925952
 20
160.0
 30
0.0
 11
48.5925925925925952
 21
149.4814814814814667
 31
0.0
  0
LINE
  5
1F9
100
AcDbEntity
  8
Stene
 62
256
370
-1
 48
1.0
  6
BYLAYER
100
AcDbLine
 10
54.518518518518519
 20
160.0
 30
0.0
 11
54.518518518518519
 21
149.4814814814814667
 31
0.0
  0
LINE
  5
1FA
100
AcDbEntity
  8
Stene
 62
256
370
-1
 48
1.0
  6
BYLAYER
100
AcDbLine
 10
60.4444444444444429
 20
160.0
 30
0.0
 11
60.4444444444444429
 21
149.4814814814814667
 31
0.0
  0
LINE
  5
1FB
100
AcDbEntity
  8
Stene
 62
256
370
-1
 48
1.0
  6
BYLAYER
100
AcDbLine
 10
66.3703703703703809
 20
160.0
 30
0.0
 11
66.3703703703703809
 21
149.4814814814814667
 31
0.0
  0
LINE
  5
1FC
100
AcDbEntity
  8
Stene
 62
256
370
-1
 48
1.0
  6
BYLAYER
100
AcDbLine
 10
72.2962962962963047
 20
160.0
 30
0.0
 11
72.2962962962963047
 21
149.4814814814814667
 31
0.0
  0
LINE
  5
1FD
100
AcDbEntity
  8
Stene
 62
256
370
-1
 48
1.0
  6
BYLAYER
100
AcDbLine
 10
78.2222222222222285
 20
160.0
 30
0.0
 11
78.2222222222222285
 21
149.4814814814814667
 31
0.0
  0
LINE
  5
1FE
100
AcDbEntity
  8
Stene
 62
256
370
-1
 48
1.0
  6
BYLAYER
100
AcDbLine
 10
84.1481481481481524
 20
160.0
 30
0.0
 11
84.1481481481481524
 21
149.4814814814814667
 31
0.0
  0
LINE
  5
1FF
100
AcDbEntity
  8
Stene
 62
256
370
-1
 48
1.0
  6
BYLAYER
100
AcDbLine
 10
90.0740740740740904
 20
160.0
 30
0.0
 11
90.0740740740740904
 21
149.4814814814814667
 31
0.0
  0
LINE
  5
200
100
AcDbEntity
  8
Stene
 62
256
370
-1
 48
1.0
  6
BYLAYER
100
AcDbLine
 10
96.0
 20
160.0
 30
0.0
 11
96.0
 21
149.4814814814814667
 31
0.0
  0
LINE
  5
201
100
AcDbEntity
  8
Stene
 62
256
370
-1
 48
1.0
  6
BYLAYER
100
AcDbLine
 10
48.5925925925925952
 20
96.1481481481481524
 30
0.0
 11
48.5925925925925952
 21
85.6296296296296333
 31
0.0
  0
LINE
  5
202
100
AcDbEntity
  8
Stene
 62
256
370
-1
 48
1.0
  6
BYLAYER
100
AcDbLine
 10
54.518518518518519
 20
96.1481481481481524
 30
0.0
 11
54.518518518518519
 21
85.6296296296296333
 31
0.0
  0
LINE
  5
203
100
AcDbEntity
  8
Stene
 62
256
370
-1
 48
1.0
  6
BYLAYER
100
AcDbLine
 10
60.4444444444444429
 20
96.1481481481481524
 30
0.0
 11
60.4444444444444429
 21
85.6296296296296333
 31
0.0
  0
LINE
  5
204
100
AcDbEntity
  8
Stene
 62
256
370
-1
 48
1.0
  6
BYLAYER
100
AcDbLine
 10
66.3703703703703809
 20
96.1481481481481524
 30
0.0
 11
66.3703703703703809
 21
85.6296296296296333
 31
0.0
  0
LINE
  5
205
100
AcDbEntity
  8
Stene
 62
256
370
-1
 48
1.0
  6
BYLAYER
100
AcDbLine
 10
72.2962962962963047
 20
96.1481481481481524
 30
0.0
 11
72.2962962962963047
 21
85.6296296296296333
 31
0.0
  0
LINE
  5
206
100
AcDbEntity
  8
Stene
 62
256
370
-1
 48
1.0
  6
BYLAYER
100
AcDbLine
 10
78.2222222222222285
 20
96.1481481481481524
 30
0.0
 11
78.2222222222222285
 21
85.6296296296296333
 31
0.0
  0
LINE
  5
207
100
AcDbEntity
  8
Stene
 62
256
370
-1
 48
1.0
  6
BYLAYER
100
AcDbLine
 10
84.1481481481481524
 20
96.1481481481481524
 30
0.0
 11
84.1481481481481524
 21
85.6296296296296333
 31
0.0
  0
LINE
  5
208
100
AcDbEntity
  8
Stene
 62
256
370
-1
 48
1.0
  6
BYLAYER
100
AcDbLine
 10
90.0740740740740762
 20
96.1481481481481524
 30
0.0
 11
90.0740740740740762
 21
85.6296296296296191
 31
0.0
  0
LINE
  5
209
100
AcDbEntity
  8
Stene
 62
256
370
-1
 48
1.0
  6
BYLAYER
100
AcDbLine
 10
96.0
 20
96.1481481481481524
 30
0.0
 11
96.0
 21
85.6296296296296191
 31
0.0
  0
LINE
  5
20A
100
AcDbEntity
  8
Stene
 62
256
370
-1
 48
1.0
  6
BYLAYER
100
AcDbLine
 10
48.5925925925925952
 20
149.4814814814814667
 30
0.0
 11
44.0
 21
149.4814814814814667
 31
0.0
  0
LINE
  5
20B
100
AcDbEntity
  8
Stene
 62
256
370
-1
 48
1.0
  6
BYLAYER
100
AcDbLine
 10
54.518518518518519
 20
149.4814814814814667
 30
0.0
 11
49.9259259259259238
 21
149.4814814814814667
 31
0.0
  0
LINE
  5
20C
100
AcDbEntity
  8
Stene
 62
256
370
-1
 48
1.0
  6
BYLAYER
100
AcDbLine
 10
60.4444444444444429
 20
149.4814814814814667
 30
0.0
 11
55.8518518518518476
 21
149.4814814814814667
 31
0.0
  0
LINE
  5
20D
100
AcDbEntity
  8
Stene
 62
256
370
-1
 48
1.0
  6
BYLAYER
100
AcDbLine
 10
66.3703703703703809
 20
149.4814814814814667
 30
0.0
 11
61.7777777777777857
 21
149.4814814814814667
 31
0.0
  0
LINE
  5
20E
100
AcDbEntity
  8
Stene
 62
256
370
-1
 48
1.0
  6
BYLAYER
100
AcDbLine
 10
72.2962962962963047
 20
149.4814814814814667
 30
0.0
 11
67.7037037037037095
 21
149.4814814814814667
 31
0.0
  0
LINE
  5
20F
100
AcDbEntity
  8
Stene
 62
256
370
-1
 48
1.0
  6
BYLAYER
100
AcDbLine
 10
78.2222222222222285
 20
149.4814814814814667
 30
0.0
 11
73.6296296296296333
 21
149.4814814814814667
 31
0.0
  0
LINE
  5
210
100
AcDbEntity
  8
Stene
 62
256
370
-1
 48
1.0
  6
BYLAYER
100
AcDbLine
 10
84.1481481481481524
 20
149.4814814814814667
 30
0.0
 11
79.5555555555555713
 21
149.4814814814814667
 31
0.0
  0
LINE
  5
211
100
AcDbEntity
  8
Stene
 62
256
370
-1
 48
1.0
  6
BYLAYER
100
AcDbLine
 10
90.0740740740740904
 20
149.4814814814814667
 30
0.0
 11
85.4814814814814952
 21
149.4814814814814667
 31
0.0
  0
LINE
  5
212
100
AcDbEntity
  8
Stene
 62
256
370
-1
 48
1.0
  6
BYLAYER
100
AcDbLine
 10
96.0
 20
149.4814814814814667
 30
0.0
 11
91.4074074074074048
 21
149.4814814814814667
 31
0.0
  0
LINE
  5
213
100
AcDbEntity
  8
Stene
 62
256
370
-1
 48
1.0
  6
BYLAYER
100
AcDbLine
 10
48.5925925925925952
 20
85.6296296296296333
 30
0.0
 11
44.0
 21
85.6296296296296333
 31
0.0
  0
LINE
  5
214
100
AcDbEntity
  8
Stene
 62
256
370
-1
 48
1.0
  6
BYLAYER
100
AcDbLine
 10
54.518518518518519
 20
85.6296296296296333
 30
0.0
 11
49.9259259259259238
 21
85.6296296296296333
 31
0.0
  0
LINE
  5
215
100
AcDbEntity
  8
Stene
 62
256
370
-1
 48
1.0
  6
BYLAYER
100
AcDbLine
 10
60.4444444444444429
 20
85.6296296296296333
 30
0.0
 11
55.8518518518518476
 21
85.6296296296296333
 31
0.0
  0
LINE
  5
216
100
AcDbEntity
  8
Stene
 62
256
370
-1
 48
1.0
  6
BYLAYER
100
AcDbLine
 10
66.3703703703703809
 20
85.6296296296296333
 30
0.0
 11
61.7777777777777857
 21
85.6296296296296333
 31
0.0
  0
LINE
  5
217
100
AcDbEntity
  8
Stene
 62
256
370
-1
 48
1.0
  6
BYLAYER
100
AcDbLine
 10
72.2962962962963047
 20
85.6296296296296333
 30
0.0
 11
67.7037037037037095
 21
85.6296296296296333
 31
0.0
  0
LINE
  5
218
100
AcDbEntity
  8
Stene
 62
256
370
-1
 48
1.0
  6
BYLAYER
100
AcDbLine
 10
78.2222222222222285
 20
85.6296296296296333
 30
0.0
 11
73.6296296296296333
 21
85.6296296296296333
 31
0.0
  0
LINE
  5
219
100
AcDbEntity
  8
Stene
 62
256
370
-1
 48
1.0
  6
BYLAYER
100
AcDbLine
 10
84.1481481481481524
 20
85.6296296296296333
 30
0.0
 11
79.5555555555555713
 21
85.6296296296296333
 31
0.0
  0
LINE
  5
21A
100
AcDbEntity
  8
Stene
 62
256
370
-1
 48
1.0
  6
BYLAYER
100
AcDbLine
 10
90.0740740740740762
 20
85.6296296296296191
 30
0.0
 11
85.481481481481481
 21
85.6296296296296191
 31
0.0
  0
LINE
  5
21B
100
AcDbEntity
  8
Stene
 62
256
370
-1
 48
1.0
  6
BYLAYER
100
AcDbLine
 10
96.0
 20
85.6296296296296191
 30
0.0
 11
91.4074074074074048
 21
85.6296296296296191
 31
0.0
  0
LINE
  5
21C
100
AcDbEntity
  8
Stene
 62
256
370
-1
 48
1.0
  6
BYLAYER
100
AcDbLine
 10
44.0
 20
149.4814814814814667
 30
0.0
 11
44.0
 21
160.0
 31
0.0
  0
LINE
  5
21D
100
AcDbEntity
  8
Stene
 62
256
370
-1
 48
1.0
  6
BYLAYER
100
AcDbLine
 10
49.9259259259259238
 20
149.4814814814814667
 30
0.0
 11
49.9259259259259238
 21
160.0
 31
0.0
  0
LINE
  5
21E
100
AcDbEntity
  8
Stene
 62
256
370
-1
 48
1.0
  6
BYLAYER
100
AcDbLine
 10
55.8518518518518476
 20
149.4814814814814667
 30
0.0
 11
55.8518518518518476
 21
160.0
 31
0.0
  0
LINE
  5
21F
100
AcDbEntity
  8
Stene
 62
256
370
-1
 48
1.0
  6
BYLAYER
100
AcDbLine
 10
61.7777777777777857
 20
149.4814814814814667
 30
0.0
 11
61.7777777777777857
 21
160.0
 31
0.0
  0
LINE
  5
220
100
AcDbEntity
  8
Stene
 62
256
370
-1
 48
1.0
  6
BYLAYER
100
AcDbLine
 10
67.7037037037037095
 20
149.4814814814814667
 30
0.0
 11
67.7037037037037095
 21
160.0
 31
0.0
  0
LINE
  5
221
100
AcDbEntity
  8
Stene
 62
256
370
-1
 48
1.0
  6
BYLAYER
100
AcDbLine
 10
73.6296296296296333
 20
149.4814814814814667
 30
0.0
 11
73.6296296296296333
 21
160.0
 31
0.0
  0
LINE
  5
222
100
AcDbEntity
  8
Stene
 62
256
370
-1
 48
1.0
  6
BYLAYER
100
AcDbLine
 10
79.5555555555555713
 20
149.4814814814814667
 30
0.0
 11
79.5555555555555713
 21
160.0
 31
0.0
  0
LINE
  5
223
100
AcDbEntity
  8
Stene
 62
256
370
-1
 48
1.0
  6
BYLAYER
100
AcDbLine
 10
85.4814814814814952
 20
149.4814814814814667
 30
0.0
 11
85.4814814814814952
 21
160.0
 31
0.0
  0
LINE
  5
224
100
AcDbEntity
  8
Stene
 62
256
370
-1
 48
1.0
  6
BYLAYER
100
AcDbLine
 10
91.4074074074074048
 20
149.4814814814814667
 30
0.0
 11
91.4074074074074048
 21
160.0
 31
0.0
  0
LINE
  5
225
100
AcDbEntity
  8
Stene
 62
256
370
-1
 48
1.0
  6
BYLAYER
100
AcDbLine
 10
44.0
 20
85.6296296296296333
 30
0.0
 11
44.0
 21
96.1481481481481524
 31
0.0
  0
LINE
  5
226
100
AcDbEntity
  8
Stene
 62
256
370
-1
 48
1.0
  6
BYLAYER
100
AcDbLine
 10
49.9259259259259238
 20
85.6296296296296333
 30
0.0
 11
49.9259259259259238
 21
96.1481481481481524
 31
0.0
  0
LINE
  5
227
100
AcDbEntity
  8
Stene
 62
256
370
-1
 48
1.0
  6
BYLAYER
100
AcDbLine
 10
55.8518518518518476
 20
85.6296296296296333
 30
0.0
 11
55.8518518518518476
 21
96.1481481481481524
 31
0.0
  0
LINE
  5
228
100
AcDbEntity
  8
Stene
 62
256
370
-1
 48
1.0
  6
BYLAYER
100
AcDbLine
 10
61.7777777777777857
 20
85.6296296296296333
 30
0.0
 11
61.7777777777777857
 21
96.1481481481481524
 31
0.0
  0
LINE
  5
229
100
AcDbEntity
  8
Stene
 62
256
370
-1
 48
1.0
  6
BYLAYER
100
AcDbLine
 10
67.7037037037037095
 20
85.6296296296296333
 30
0.0
 11
67.7037037037037095
 21
96.1481481481481524
 31
0.0
  0
LINE
  5
22A
100
AcDbEntity
  8
Stene
 62
256
370
-1
 48
1.0
  6
BYLAYER
100
AcDbLine
 10
73.6296296296296333
 20
85.6296296296296333
 30
0.0
 11
73.6296296296296333
 21
96.1481481481481524
 31
0.0
  0
LINE
  5
22B
100
AcDbEntity
  8
Stene
 62
256
370
-1
 48
1.0
  6
BYLAYER
100
AcDbLine
 10
79.5555555555555713
 20
85.6296296296296333
 30
0.0
 11
79.5555555555555713
 21
96.1481481481481524
 31
0.0
  0
LINE
  5
22C
100
AcDbEntity
  8
Stene
 62
256
370
-1
 48
1.0
  6
BYLAYER
100
AcDbLine
 10
85.481481481481481
 20
85.6296296296296191
 30
0.0
 11
85.481481481481481
 21
96.1481481481481524
 31
0.0
  0
LINE
  5
22D
100
AcDbEntity
  8
Stene
 62
256
370
-1
 48
1.0
  6
BYLAYER
100
AcDbLine
 10
91.4074074074074048
 20
85.6296296296296191
 30
0.0
 11
91.4074074074074048
 21
96.1481481481481524
 31
0.0
  0
LINE
  5
22E
100
AcDbEntity
  8
Stene
 62
256
370
-1
 48
1.0
  6
BYLAYER
100
AcDbLine
 10
42.6666666666666714
 20
149.482006377898017
 30
0.0
 11
40.6627092962544907
 21
149.4835841829619767
 31
0.0
  0
LINE
  5
22F
100
AcDbEntity
  8
Stene
 62
256
370
-1
 48
1.0
  6
BYLAYER
100
AcDbLine
 10
42.6666666666666714
 20
96.1476232517318152
 30
0.0
 11
40.6627092962544907
 21
96.1460454466675003
 31
0.0
  0
LINE
  5
230
100
AcDbEntity
  8
Stene
 62
256
370
-1
 48
1.0
  6
BYLAYER
100
AcDbLine
 10
97.3333333333333286
 20
96.147623251731801
 30
0.0
 11
99.3372907037454951
 21
96.1460454466675003
 31
0.0
  0
LINE
  5
231
100
AcDbEntity
  8
Stene
 62
256
370
-1
 48
1.0
  6
BYLAYER
100
AcDbLine
 10
97.3333333333333286
 20
149.4820063778978181
 30
0.0
 11
99.3372907037454951
 21
149.4835841829621188
 31
0.0
  0
SPLINE
  5
232
100
AcDbEntity
  8
Stene
 62
256
370
-1
 48
1.0
  6
BYLAYER
100
AcDbSpline
 70
8
 71
3
 72
19
 73
15
 74
0
 40
0.0
 40
0.0
 40
0.0
 40
0.0
 40
1.0
 40
2.0
 40
3.0
 40
4.0
 40
5.0
 40
6.0
 40
7.0
 40
8.0
 40
9.0
 40
10.0
 40
11.0
 40
12.0
 40
12.0
 40
12.0
 40
12.0
 10
42.6576313114881032
 20
159.9504550410947274
 30
0.0
 10
42.2154683513638105
 20
159.8950803348660088
 30
0.0
 10
41.7666666666666728
 20
159.7333333333333201
 30
0.0
 10
41.13333333333334
 20
159.2999999999999829
 30
0.0
 10
40.7333333333333343
 20
158.6999999999999886
 30
0.0
 10
40.5333333333333314
 20
158.0333333333333314
 30
0.0
 10
40.3666666666666671
 20
157.1666666666666572
 30
0.0
 10
40.3000000000000043
 20
156.3666666666666458
 30
0.0
 10
40.3000000000000043
 20
154.4333333333333087
 30
0.0
 10
40.3333333333333357
 20
153.7666666666666515
 30
0.0
 10
40.3999999999999986
 20
152.7333333333333201
 30
0.0
 10
40.4666666666666686
 20
151.8333333333333144
 30
0.0
 10
40.5333333333333314
 20
151.0
 30
0.0
 10
40.6000000000000085
 20
150.1999999999999886
 30
0.0
 10
40.6627092962544907
 20
149.4835841829619767
 30
0.0
  0
SPLINE
  5
233
100
AcDbEntity
  8
Stene
 62
256
370
-1
 48
1.0
  6
BYLAYER
100
AcDbSpline
 70
8
 71
3
 72
19
 73
15
 74
0
 40
0.0
 40
0.0
 40
0.0
 40
0.0
 40
1.0
 40
2.0
 40
3.0
 40
4.0
 40
5.0
 40
6.0
 40
7.0
 40
8.0
 40
9.0
 40
10.0
 40
11.0
 40
12.0
 40
12.0
 40
12.0
 40
12.0
 10
42.6576313114881032
 20
85.6791745885348917
 30
0.0
 10
42.2154683513638105
 20
85.7345492947636245
 30
0.0
 10
41.7666666666666657
 20
85.896296296296299
 30
0.0
 10
41.1333333333333258
 20
86.3296296296296362
 30
0.0
 10
40.7333333333333343
 20
86.9296296296296447
 30
0.0
 10
40.5333333333333314
 20
87.5962962962963161
 30
0.0
 10
40.3666666666666671
 20
88.4629629629629619
 30
0.0
 10
40.3000000000000043
 20
89.2629629629629733
 30
0.0
 10
40.3000000000000043
 20
91.1962962962963104
 30
0.0
 10
40.3333333333333357
 20
91.8629629629629818
 30
0.0
 10
40.3999999999999986
 20
92.896296296296299
 30
0.0
 10
40.4666666666666686
 20
93.7962962962963047
 30
0.0
 10
40.5333333333333314
 20
94.6296296296296475
 30
0.0
 10
40.5999999999999943
 20
95.4296296296296447
 30
0.0
 10
40.6627092962544907
 20
96.1460454466675003
 30
0.0
  0
SPLINE
  5
234
100
AcDbEntity
  8
Stene
 62
256
370
-1
 48
1.0
  6
BYLAYER
100
AcDbSpline
 70
8
 71
3
 72
19
 73
15
 74
0
 40
0.0
 40
0.0
 40
0.0
 40
0.0
 40
1.0
 40
2.0
 40
3.0
 40
4.0
 40
5.0
 40
6.0
 40
7.0
 40
8.0
 40
9.0
 40
10.0
 40
11.0
 40
12.0
 40
12.0
 40
12.0
 40
12.0
 10
97.3423686885118826
 20
85.6791745885348917
 30
0.0
 10
97.7845316486361895
 20
85.7345492947636103
 30
0.0
 10
98.2333333333333343
 20
85.896296296296299
 30
0.0
 10
98.86666666666666
 20
86.3296296296296362
 30
0.0
 10
99.2666666666666657
 20
86.9296296296296305
 30
0.0
 10
99.4666666666666544
 20
87.5962962962963019
 30
0.0
 10
99.6333333333333258
 20
88.4629629629629619
 30
0.0
 10
99.6999999999999886
 20
89.2629629629629733
 30
0.0
 10
99.6999999999999886
 20
91.1962962962963104
 30
0.0
 10
99.6666666666666572
 20
91.8629629629629676
 30
0.0
 10
99.5999999999999943
 20
92.896296296296299
 30
0.0
 10
99.5333333333333172
 20
93.7962962962963047
 30
0.0
 10
99.4666666666666544
 20
94.6296296296296333
 30
0.0
 10
99.3999999999999915
 20
95.4296296296296305
 30
0.0
 10
99.3372907037454951
 20
96.1460454466675003
 30
0.0
  0
SPLINE
  5
235
100
AcDbEntity
  8
Stene
 62
256
370
-1
 48
1.0
  6
BYLAYER
100
AcDbSpline
 70
8
 71
3
 72
19
 73
15
 74
0
 40
0.0
 40
0.0
 40
0.0
 40
0.0
 40
1.0
 40
2.0
 40
3.0
 40
4.0
 40
5.0
 40
6.0
 40
7.0
 40
8.0
 40
9.0
 40
10.0
 40
11.0
 40
12.0
 40
12.0
 40
12.0
 40
12.0
 10
97.3423686885118826
 20
159.9504550410947274
 30
0.0
 10
97.7845316486361895
 20
159.8950803348660088
 30
0.0
 10
98.2333333333333343
 20
159.7333333333333201
 30
0.0
 10
98.86666666666666
 20
159.2999999999999829
 30
0.0
 10
99.2666666666666657
 20
158.6999999999999886
 30
0.0
 10
99.4666666666666544
 20
158.0333333333333314
 30
0.0
 10
99.6333333333333258
 20
157.1666666666666572
 30
0.0
 10
99.6999999999999886
 20
156.3666666666666458
 30
0.0
 10
99.6999999999999886
 20
154.4333333333333087
 30
0.0
 10
99.6666666666666572
 20
153.7666666666666515
 30
0.0
 10
99.5999999999999943
 20
152.7333333333333201
 30
0.0
 10
99.5333333333333172
 20
151.8333333333333144
 30
0.0
 10
99.4666666666666544
 20
151.0
 30
0.0
 10
99.3999999999999915
 20
150.1999999999999886
 30
0.0
 10
99.3372907037454951
 20
149.4835841829621188
 30
0.0
  0
LINE
  5
236
100
AcDbEntity
  8
Stene
 62
256
370
-1
 48
1.0
  6
BYLAYER
100
AcDbLine
 10
42.6666666666666714
 20
149.4814814814814667
 30
0.0
 11
42.6576313114881032
 21
159.9504550410947274
 31
0.0
  0
LINE
  5
237
100
AcDbEntity
  8
Stene
 62
256
370
-1
 48
1.0
  6
BYLAYER
100
AcDbLine
 10
42.6666666666666714
 20
96.1481481481481524
 30
0.0
 11
42.6576313114881032
 21
85.6791745885348917
 31
0.0
  0
LINE
  5
238
100
AcDbEntity
  8
Stene
 62
256
370
-1
 48
1.0
  6
BYLAYER
100
AcDbLine
 10
97.3333333333333286
 20
96.1481481481481524
 30
0.0
 11
97.3423686885118826
 21
85.6791745885348917
 31
0.0
  0
LINE
  5
239
100
AcDbEntity
  8
Stene
 62
256
370
-1
 48
1.0
  6
BYLAYER
100
AcDbLine
 10
97.3333333333333286
 20
149.4814814814814667
 30
0.0
 11
97.3423686885118826
 21
159.9504550410947274
 31
0.0
  0
LINE
  5
23A
100
AcDbEntity
  8
Stene
 62
256
370
-1
 48
1.0
  6
BYLAYER
100
AcDbLine
 10
44.0000000000000071
 20
184.0
 30
0.0
 11
44.0000000000000071
 21
188.0
 31
0.0
  0
LINE
  5
23B
100
AcDbEntity
  8
Stene
 62
256
370
-1
 48
1.0
  6
BYLAYER
100
AcDbLine
 10
95.9999999999999716
 20
184.0
 30
0.0
 11
95.9999999999999716
 21
188.0
 31
0.0
  0
LINE
  5
23C
100
AcDbEntity
  8
Stene
 62
256
370
-1
 48
1.0
  6
BYLAYER
100
AcDbLine
 10
44.0000000000000071
 20
188.0
 30
0.0
 11
48.5925925925926023
 21
188.0
 31
0.0
  0
LINE
  5
23D
100
AcDbEntity
  8
Stene
 62
256
370
-1
 48
1.0
  6
BYLAYER
100
AcDbLine
 10
48.5925925925926023
 20
188.0
 30
0.0
 11
48.5925925925926023
 21
184.0
 31
0.0
  0
LINE
  5
23E
100
AcDbEntity
  8
Stene
 62
256
370
-1
 48
1.0
  6
BYLAYER
100
AcDbLine
 10
49.9259259259259167
 20
184.0
 30
0.0
 11
49.9259259259259167
 21
188.0
 31
0.0
  0
LINE
  5
23F
100
AcDbEntity
  8
Stene
 62
256
370
-1
 48
1.0
  6
BYLAYER
100
AcDbLine
 10
49.9259259259259167
 20
188.0
 30
0.0
 11
54.5185185185185119
 21
188.0
 31
0.0
  0
LINE
  5
240
100
AcDbEntity
  8
Stene
 62
256
370
-1
 48
1.0
  6
BYLAYER
100
AcDbLine
 10
54.5185185185185119
 20
188.0
 30
0.0
 11
54.5185185185185119
 21
184.0
 31
0.0
  0
LINE
  5
241
100
AcDbEntity
  8
Stene
 62
256
370
-1
 48
1.0
  6
BYLAYER
100
AcDbLine
 10
55.8518518518518547
 20
184.0
 30
0.0
 11
55.8518518518518547
 21
188.0
 31
0.0
  0
LINE
  5
242
100
AcDbEntity
  8
Stene
 62
256
370
-1
 48
1.0
  6
BYLAYER
100
AcDbLine
 10
55.8518518518518547
 20
188.0
 30
0.0
 11
60.4444444444444571
 21
188.0
 31
0.0
  0
LINE
  5
243
100
AcDbEntity
  8
Stene
 62
256
370
-1
 48
1.0
  6
BYLAYER
100
AcDbLine
 10
60.4444444444444571
 20
188.0
 30
0.0
 11
60.4444444444444571
 21
184.0
 31
0.0
  0
LINE
  5
244
100
AcDbEntity
  8
Stene
 62
256
370
-1
 48
1.0
  6
BYLAYER
100
AcDbLine
 10
61.7777777777777857
 20
184.0
 30
0.0
 11
61.7777777777777857
 21
188.0
 31
0.0
  0
LINE
  5
245
100
AcDbEntity
  8
Stene
 62
256
370
-1
 48
1.0
  6
BYLAYER
100
AcDbLine
 10
61.7777777777777857
 20
188.0
 30
0.0
 11
66.3703703703703809
 21
188.0
 31
0.0
  0
LINE
  5
246
100
AcDbEntity
  8
Stene
 62
256
370
-1
 48
1.0
  6
BYLAYER
100
AcDbLine
 10
66.3703703703703809
 20
188.0
 30
0.0
 11
66.3703703703703809
 21
184.0
 31
0.0
  0
LINE
  5
247
100
AcDbEntity
  8
Stene
 62
256
370
-1
 48
1.0
  6
BYLAYER
100
AcDbLine
 10
67.7037037037037095
 20
184.0
 30
0.0
 11
67.7037037037037095
 21
188.0
 31
0.0
  0
LINE
  5
248
100
AcDbEntity
  8
Stene
 62
256
370
-1
 48
1.0
  6
BYLAYER
100
AcDbLine
 10
67.7037037037037095
 20
188.0
 30
0.0
 11
72.2962962962963189
 21
188.0
 31
0.0
  0
LINE
  5
249
100
AcDbEntity
  8
Stene
 62
256
370
-1
 48
1.0
  6
BYLAYER
100
AcDbLine
 10
72.2962962962963189
 20
188.0
 30
0.0
 11
72.2962962962963189
 21
184.0
 31
0.0
  0
LINE
  5
24A
100
AcDbEntity
  8
Stene
 62
256
370
-1
 48
1.0
  6
BYLAYER
100
AcDbLine
 10
73.6296296296296475
 20
184.0
 30
0.0
 11
73.6296296296296475
 21
188.0
 31
0.0
  0
LINE
  5
24B
100
AcDbEntity
  8
Stene
 62
256
370
-1
 48
1.0
  6
BYLAYER
100
AcDbLine
 10
73.6296296296296475
 20
188.0
 30
0.0
 11
78.2222222222222285
 21
188.0
 31
0.0
  0
LINE
  5
24C
100
AcDbEntity
  8
Stene
 62
256
370
-1
 48
1.0
  6
BYLAYER
100
AcDbLine
 10
78.2222222222222285
 20
188.0
 30
0.0
 11
78.2222222222222285
 21
184.0
 31
0.0
  0
LINE
  5
24D
100
AcDbEntity
  8
Stene
 62
256
370
-1
 48
1.0
  6
BYLAYER
100
AcDbLine
 10
79.5555555555555713
 20
184.0
 30
0.0
 11
79.5555555555555713
 21
188.0
 31
0.0
  0
LINE
  5
24E
100
AcDbEntity
  8
Stene
 62
256
370
-1
 48
1.0
  6
BYLAYER
100
AcDbLine
 10
79.5555555555555713
 20
188.0
 30
0.0
 11
84.1481481481481666
 21
188.0
 31
0.0
  0
LINE
  5
24F
100
AcDbEntity
  8
Stene
 62
256
370
-1
 48
1.0
  6
BYLAYER
100
AcDbLine
 10
84.1481481481481666
 20
188.0
 30
0.0
 11
84.1481481481481666
 21
184.0
 31
0.0
  0
LINE
  5
250
100
AcDbEntity
  8
Stene
 62
256
370
-1
 48
1.0
  6
BYLAYER
100
AcDbLine
 10
85.4814814814814952
 20
184.0
 30
0.0
 11
85.4814814814814952
 21
188.0
 31
0.0
  0
LINE
  5
251
100
AcDbEntity
  8
Stene
 62
256
370
-1
 48
1.0
  6
BYLAYER
100
AcDbLine
 10
85.4814814814814952
 20
188.0
 30
0.0
 11
90.0740740740740762
 21
188.0
 31
0.0
  0
LINE
  5
252
100
AcDbEntity
  8
Stene
 62
256
370
-1
 48
1.0
  6
BYLAYER
100
AcDbLine
 10
90.0740740740740762
 20
188.0
 30
0.0
 11
90.0740740740740762
 21
184.0
 31
0.0
  0
LINE
  5
253
100
AcDbEntity
  8
Stene
 62
256
370
-1
 48
1.0
  6
BYLAYER
100
AcDbLine
 10
91.4074074074074048
 20
184.0
 30
0.0
 11
91.4074074074074048
 21
188.0
 31
0.0
  0
LINE
  5
254
100
AcDbEntity
  8
Stene
 62
256
370
-1
 48
1.0
  6
BYLAYER
100
AcDbLine
 10
91.4074074074074048
 20
188.0
 30
0.0
 11
96.0
 21
188.0
 31
0.0
  0
LINE
  5
255
100
AcDbEntity
  8
Stene
 62
256
370
-1
 48
1.0
  6
BYLAYER
100
AcDbLine
 10
97.3423686885118826
 20
184.0
 30
0.0
 11
97.3423686885118826
 21
188.0
 31
0.0
  0
LINE
  5
256
100
AcDbEntity
  8
Dno
 62
256
370
-1
 48
1.0
  6
BYLAYER
100
AcDbLine
 10
40.0
 20
184.0
 30
0.0
 11
40.0
 21
181.0
 31
0.0
  0
LINE
  5
257
100
AcDbEntity
  8
Dno
 62
256
370
-1
 48
1.0
  6
BYLAYER
100
AcDbLine
 10
41.0
 20
180.0
 30
0.0
 11
99.0
 21
180.0
 31
0.0
  0
LINE
  5
258
100
AcDbEntity
  8
Dno
 62
256
370
-1
 48
1.0
  6
BYLAYER
100
AcDbLine
 10
100.0
 20
181.0
 30
0.0
 11
100.0
 21
184.0
 31
0.0
  0
LINE
  5
259
100
AcDbEntity
  8
Dno
 62
256
370
-1
 48
1.0
  6
BYLAYER
100
AcDbLine
 10
100.0
 20
184.0
 30
0.0
 11
40.0
 21
184.0
 31
0.0
  0
LINE
  5
25A
100
AcDbEntity
  8
Stene
 62
256
370
-1
 48
1.0
  6
BYLAYER
100
AcDbLine
 10
42.6576313114881032
 20
184.0
 30
0.0
 11
42.6576313114881032
 21
188.0
 31
0.0
  0
LINE
  5
25B
100
AcDbEntity
  8
Stene
 62
256
370
-1
 48
1.0
  6
BYLAYER
100
AcDbLine
 10
42.6576313114881032
 20
188.0
 30
0.0
 11
41.0
 21
188.0
 31
0.0
  0
LINE
  5
25C
100
AcDbEntity
  8
Stene
 62
256
370
-1
 48
1.0
  6
BYLAYER
100
AcDbLine
 10
40.0
 20
187.0
 30
0.0
 11
40.0
 21
184.0
 31
0.0
  0
ARC
  5
25D
100
AcDbEntity
  8
Stene
 62
256
370
-1
 48
1.0
  6
BYLAYER
100
AcDbCircle
 10
41.0
 20
187.0
 30
0.0
 40
1.0
100
AcDbArc
 50
90.0
 51
180.0
  0
LINE
  5
25E
100
AcDbEntity
  8
Stene
 62
256
370
-1
 48
1.0
  6
BYLAYER
100
AcDbLine
 10
97.3423686885118826
 20
188.0
 30
0.0
 11
99.0
 21
188.0
 31
0.0
  0
LINE
  5
25F
100
AcDbEntity
  8
Stene
 62
256
370
-1
 48
1.0
  6
BYLAYER
100
AcDbLine
 10
100.0
 20
187.0
 30
0.0
 11
100.0
 21
184.0
 31
0.0
  0
ARC
  5
260
100
AcDbEntity
  8
Stene
 62
256
370
-1
 48
1.0
  6
BYLAYER
100
AcDbCircle
 10
99.0
 20
187.0
 30
0.0
 40
1.0
100
AcDbArc
 50
0.0
 51
90.0
  0
ARC
  5
261
100
AcDbEntity
  8
Dno
 62
256
370
-1
 48
1.0
  6
BYLAYER
100
AcDbCircle
 10
41.0
 20
181.0
 30
0.0
 40
1.0
100
AcDbArc
 50
180.0
 51
270.0
  0
ARC
  5
262
100
AcDbEntity
  8
Dno
 62
256
370
-1
 48
1.0
  6
BYLAYER
100
AcDbCircle
 10
99.0
 20
181.0
 30
0.0
 40
1.0
100
AcDbArc
 50
270.0
 51
0.0
  0
LINE
  5
263
100
AcDbEntity
  8
Dno
 62
256
370
-1
 48
1.0
  6
BYLAYER
100
AcDbLine
 10
120.0
 20
184.0
 30
0.0
 11
120.0
 21
181.0
 31
0.0
  0
LINE
  5
264
100
AcDbEntity
  8
Dno
 62
256
370
-1
 48
1.0
  6
BYLAYER
100
AcDbLine
 10
121.0
 20
180.0
 30
0.0
 11
193.3703703703703809
 21
180.0
 31
0.0
  0
LINE
  5
265
100
AcDbEntity
  8
Dno
 62
256
370
-1
 48
1.0
  6
BYLAYER
100
AcDbLine
 10
120.0
 20
184.0
 30
0.0
 11
194.3703703703703809
 21
184.0
 31
0.0
  0
LINE
  5
266
100
AcDbEntity
  8
Dno
 62
256
370
-1
 48
1.0
  6
BYLAYER
100
AcDbLine
 10
194.3703703703703809
 20
184.0
 30
0.0
 11
194.3703703703703809
 21
181.0
 31
0.0
  0
LINE
  5
267
100
AcDbEntity
  8
Stene
 62
256
370
-1
 48
1.0
  6
BYLAYER
100
AcDbLine
 10
120.0
 20
184.0
 30
0.0
 11
120.0
 21
187.0
 31
0.0
  0
LINE
  5
268
100
AcDbEntity
  8
Stene
 62
256
370
-1
 48
1.0
  6
BYLAYER
100
AcDbLine
 10
120.9999999999999858
 20
188.0
 30
0.0
 11
130.5179936217455747
 21
188.0
 31
0.0
  0
LINE
  5
269
100
AcDbEntity
  8
Stene
 62
256
370
-1
 48
1.0
  6
BYLAYER
100
AcDbLine
 10
130.5179936217455747
 20
188.0
 30
0.0
 11
130.5179936217455463
 21
184.0
 31
0.0
  0
LINE
  5
26A
100
AcDbEntity
  8
Stene
 62
256
370
-1
 48
1.0
  6
BYLAYER
100
AcDbLine
 10
183.8518518518518761
 20
184.0
 30
0.0
 11
183.8518518518518761
 21
188.0
 31
0.0
  0
LINE
  5
26B
100
AcDbEntity
  8
Stene
 62
256
370
-1
 48
1.0
  6
BYLAYER
100
AcDbLine
 10
183.8518518518518761
 20
188.0
 30
0.0
 11
193.3703703703703809
 21
188.0
 31
0.0
  0
LINE
  5
26C
100
AcDbEntity
  8
Stene
 62
256
370
-1
 48
1.0
  6
BYLAYER
100
AcDbLine
 10
194.3703703703703809
 20
187.0
 30
0.0
 11
194.3703703703703809
 21
184.0
 31
0.0
  0
LINE
  5
26D
100
AcDbEntity
  8
Stene
 62
256
370
-1
 48
1.0
  6
BYLAYER
100
AcDbLine
 10
131.1851851851852189
 20
184.0
 30
0.0
 11
131.1851851851852189
 21
188.0
 31
0.0
  0
LINE
  5
26E
100
AcDbEntity
  8
Stene
 62
256
370
-1
 48
1.0
  6
BYLAYER
100
AcDbLine
 10
131.1851851851852189
 20
188.0
 30
0.0
 11
135.7777777777777999
 21
188.0
 31
0.0
  0
LINE
  5
26F
100
AcDbEntity
  8
Stene
 62
256
370
-1
 48
1.0
  6
BYLAYER
100
AcDbLine
 10
135.7777777777777999
 20
188.0
 30
0.0
 11
135.7777777777777999
 21
184.0
 31
0.0
  0
LINE
  5
270
100
AcDbEntity
  8
Stene
 62
256
370
-1
 48
1.0
  6
BYLAYER
100
AcDbLine
 10
137.1111111111111143
 20
184.0
 30
0.0
 11
137.1111111111111143
 21
188.0
 31
0.0
  0
LINE
  5
271
100
AcDbEntity
  8
Stene
 62
256
370
-1
 48
1.0
  6
BYLAYER
100
AcDbLine
 10
137.1111111111111143
 20
188.0
 30
0.0
 11
141.7037037037036669
 21
188.0
 31
0.0
  0
LINE
  5
272
100
AcDbEntity
  8
Stene
 62
256
370
-1
 48
1.0
  6
BYLAYER
100
AcDbLine
 10
141.7037037037036669
 20
188.0
 30
0.0
 11
141.7037037037036669
 21
184.0
 31
0.0
  0
LINE
  5
273
100
AcDbEntity
  8
Stene
 62
256
370
-1
 48
1.0
  6
BYLAYER
100
AcDbLine
 10
143.0370370370370665
 20
184.0
 30
0.0
 11
143.0370370370370665
 21
188.0
 31
0.0
  0
LINE
  5
274
100
AcDbEntity
  8
Stene
 62
256
370
-1
 48
1.0
  6
BYLAYER
100
AcDbLine
 10
143.0370370370370665
 20
188.0
 30
0.0
 11
147.6296296296296191
 21
188.0
 31
0.0
  0
LINE
  5
275
100
AcDbEntity
  8
Stene
 62
256
370
-1
 48
1.0
  6
BYLAYER
100
AcDbLine
 10
147.6296296296296191
 20
188.0
 30
0.0
 11
147.6296296296296191
 21
184.0
 31
0.0
  0
LINE
  5
276
100
AcDbEntity
  8
Stene
 62
256
370
-1
 48
1.0
  6
BYLAYER
100
AcDbLine
 10
148.9629629629629903
 20
184.0
 30
0.0
 11
148.9629629629629903
 21
188.0
 31
0.0
  0
LINE
  5
277
100
AcDbEntity
  8
Stene
 62
256
370
-1
 48
1.0
  6
BYLAYER
100
AcDbLine
 10
148.9629629629629903
 20
188.0
 30
0.0
 11
153.5555555555555429
 21
188.0
 31
0.0
  0
LINE
  5
278
100
AcDbEntity
  8
Stene
 62
256
370
-1
 48
1.0
  6
BYLAYER
100
AcDbLine
 10
153.5555555555555429
 20
188.0
 30
0.0
 11
153.5555555555555429
 21
184.0
 31
0.0
  0
LINE
  5
279
100
AcDbEntity
  8
Stene
 62
256
370
-1
 48
1.0
  6
BYLAYER
100
AcDbLine
 10
154.8888888888889142
 20
184.0
 30
0.0
 11
154.8888888888889142
 21
188.0
 31
0.0
  0
LINE
  5
27A
100
AcDbEntity
  8
Stene
 62
256
370
-1
 48
1.0
  6
BYLAYER
100
AcDbLine
 10
154.8888888888889142
 20
188.0
 30
0.0
 11
159.4814814814814952
 21
188.0
 31
0.0
  0
LINE
  5
27B
100
AcDbEntity
  8
Stene
 62
256
370
-1
 48
1.0
  6
BYLAYER
100
AcDbLine
 10
159.4814814814814952
 20
188.0
 30
0.0
 11
159.4814814814814952
 21
184.0
 31
0.0
  0
LINE
  5
27C
100
AcDbEntity
  8
Stene
 62
256
370
-1
 48
1.0
  6
BYLAYER
100
AcDbLine
 10
160.8148148148148664
 20
184.0
 30
0.0
 11
160.8148148148148664
 21
188.0
 31
0.0
  0
LINE
  5
27D
100
AcDbEntity
  8
Stene
 62
256
370
-1
 48
1.0
  6
BYLAYER
100
AcDbLine
 10
160.8148148148148664
 20
188.0
 30
0.0
 11
165.407407407407419
 21
188.0
 31
0.0
  0
LINE
  5
27E
100
AcDbEntity
  8
Stene
 62
256
370
-1
 48
1.0
  6
BYLAYER
100
AcDbLine
 10
165.407407407407419
 20
188.0
 30
0.0
 11
165.407407407407419
 21
184.0
 31
0.0
  0
LINE
  5
27F
100
AcDbEntity
  8
Stene
 62
256
370
-1
 48
1.0
  6
BYLAYER
100
AcDbLine
 10
166.7407407407407334
 20
184.0
 30
0.0
 11
166.7407407407407618
 21
188.0
 31
0.0
  0
LINE
  5
280
100
AcDbEntity
  8
Stene
 62
256
370
-1
 48
1.0
  6
BYLAYER
100
AcDbLine
 10
166.7407407407407618
 20
188.0
 30
0.0
 11
171.3333333333333712
 21
188.0
 31
0.0
  0
LINE
  5
281
100
AcDbEntity
  8
Stene
 62
256
370
-1
 48
1.0
  6
BYLAYER
100
AcDbLine
 10
171.3333333333333712
 20
188.0
 30
0.0
 11
171.3333333333333712
 21
184.0
 31
0.0
  0
LINE
  5
282
100
AcDbEntity
  8
Stene
 62
256
370
-1
 48
1.0
  6
BYLAYER
100
AcDbLine
 10
172.6666666666666856
 20
184.0
 30
0.0
 11
172.666666666666714
 21
188.0
 31
0.0
  0
LINE
  5
283
100
AcDbEntity
  8
Stene
 62
256
370
-1
 48
1.0
  6
BYLAYER
100
AcDbLine
 10
172.666666666666714
 20
188.0
 30
0.0
 11
177.2592592592592382
 21
188.0
 31
0.0
  0
LINE
  5
284
100
AcDbEntity
  8
Stene
 62
256
370
-1
 48
1.0
  6
BYLAYER
100
AcDbLine
 10
177.2592592592592382
 20
188.0
 30
0.0
 11
177.2592592592592666
 21
184.0
 31
0.0
  0
LINE
  5
285
100
AcDbEntity
  8
Stene
 62
256
370
-1
 48
1.0
  6
BYLAYER
100
AcDbLine
 10
178.5925925925925526
 20
184.0
 30
0.0
 11
178.592592592592581
 21
188.0
 31
0.0
  0
LINE
  5
286
100
AcDbEntity
  8
Stene
 62
256
370
-1
 48
1.0
  6
BYLAYER
100
AcDbLine
 10
178.592592592592581
 20
188.0
 30
0.0
 11
183.185185185185162
 21
188.0
 31
0.0
  0
LINE
  5
287
100
AcDbEntity
  8
Stene
 62
256
370
-1
 48
1.0
  6
BYLAYER
100
AcDbLine
 10
183.185185185185162
 20
188.0
 30
0.0
 11
183.1851851851851904
 21
184.0
 31
0.0
  0
ARC
  5
288
100
AcDbEntity
  8
Stene
 62
256
370
-1
 48
1.0
  6
BYLAYER
100
AcDbCircle
 10
193.3703703703703809
 20
187.0
 30
0.0
 40
1.0
100
AcDbArc
 50
0.0
 51
90.0
  0
ARC
  5
289
100
AcDbEntity
  8
Stene
 62
256
370
-1
 48
1.0
  6
BYLAYER
100
AcDbCircle
 10
120.9999999999999858
 20
187.0
 30
0.0
 40
1.0
100
AcDbArc
 50
90.0
 51
180.0
  0
ARC
  5
28A
100
AcDbEntity
  8
Dno
 62
256
370
-1
 48
1.0
  6
BYLAYER
100
AcDbCircle
 10
193.3703703703703809
 20
181.0
 30
0.0
 40
1.0
100
AcDbArc
 50
270.0
 51
0.0
  0
ARC
  5
28B
100
AcDbEntity
  8
Dno
 62
256
370
-1
 48
1.0
  6
BYLAYER
100
AcDbCircle
 10
121.0
 20
181.0
 30
0.0
 40
1.0
100
AcDbArc
 50
180.0
 51
270.0
  0
LINE
  5
28C
100
AcDbEntity
  8
Dno
 62
256
370
-1
 48
1.0
  6
BYLAYER
100
AcDbLine
 10
42.6576313114881032
 20
184.0
 30
0.0
 11
42.6576313114881032
 21
190.0
 31
0.0
  0
LINE
  5
28D
100
AcDbEntity
  8
Dno
 62
256
370
-1
 48
1.0
  6
BYLAYER
100
AcDbLine
 10
97.3423686885118826
 20
184.0
 30
0.0
 11
97.3423686885118826
 21
190.0
 31
0.0
  0
LINE
  5
28E
100
AcDbEntity
  8
Dno
 62
256
370
-1
 48
1.0
  6
BYLAYER
100
AcDbLine
 10
42.6576313114881032
 20
190.0
 30
0.0
 11
44.0
 21
190.0
 31
0.0
  0
LINE
  5
28F
100
AcDbEntity
  8
Dno
 62
256
370
-1
 48
1.0
  6
BYLAYER
100
AcDbLine
 10
97.3423686885118826
 20
190.0
 30
0.0
 11
95.9999999999999858
 21
190.0
 31
0.0
  0
LINE
  5
290
100
AcDbEntity
  8
Dno
 62
256
370
-1
 48
1.0
  6
BYLAYER
100
AcDbLine
 10
44.0
 20
190.0
 30
0.0
 11
44.0000000000000071
 21
184.0
 31
0.0
  0
LINE
  5
291
100
AcDbEntity
  8
Dno
 62
256
370
-1
 48
1.0
  6
BYLAYER
100
AcDbLine
 10
95.9999999999999858
 20
190.0
 30
0.0
 11
95.9999999999999716
 21
184.0
 31
0.0
  0
LINE
  5
292
100
AcDbEntity
  8
Dno
 62
256
370
-1
 48
1.0
  6
BYLAYER
100
AcDbLine
 10
130.5179936217455747
 20
188.0
 30
0.0
 11
130.5179936217455747
 21
190.0
 31
0.0
  0
LINE
  5
293
100
AcDbEntity
  8
Dno
 62
256
370
-1
 48
1.0
  6
BYLAYER
100
AcDbLine
 10
183.8518518518518761
 20
188.0
 30
0.0
 11
183.8518518518518761
 21
190.0
 31
0.0
  0
LINE
  5
294
100
AcDbEntity
  8
Dno
 62
256
370
-1
 48
1.0
  6
BYLAYER
100
AcDbLine
 10
130.5179936217455747
 20
190.0
 30
0.0
 11
120.0
 21
190.0
 31
0.0
  0
LINE
  5
295
100
AcDbEntity
  8
Dno
 62
256
370
-1
 48
1.0
  6
BYLAYER
100
AcDbLine
 10
183.8518518518518761
 20
190.0
 30
0.0
 11
194.3698454735974508
 21
190.0
 31
0.0
  0
LINE
  5
296
100
AcDbEntity
  8
Dno
 62
256
370
-1
 48
1.0
  6
BYLAYER
100
AcDbLine
 10
120.0
 20
190.0
 30
0.0
 11
120.0
 21
184.0
 31
0.0
  0
LINE
  5
297
100
AcDbEntity
  8
Dno
 62
256
370
-1
 48
1.0
  6
BYLAYER
100
AcDbLine
 10
194.3698454735974508
 20
190.0
 30
0.0
 11
194.3698454735974508
 21
184.0
 31
0.0
  0
LINE
  5
298
100
AcDbEntity
  8
Dno
 62
256
370
-1
 48
1.0
  6
BYLAYER
100
AcDbLine
 10
42.6666662136491226
 20
149.4820063782547379
 30
0.0
 11
44.0
 21
149.4814814814814667
 31
0.0
  0
LINE
  5
299
100
AcDbEntity
  8
Dno
 62
256
370
-1
 48
1.0
  6
BYLAYER
100
AcDbLine
 10
48.5925925925925952
 20
149.4814814814814667
 30
0.0
 11
49.9259259259259167
 21
149.4814814814814667
 31
0.0
  0
LINE
  5
29A
100
AcDbEntity
  8
Dno
 62
256
370
-1
 48
1.0
  6
BYLAYER
100
AcDbLine
 10
54.5185185185185119
 20
149.4814814814814667
 30
0.0
 11
55.8518518518518547
 21
149.4814814814814667
 31
0.0
  0
LINE
  5
29B
100
AcDbEntity
  8
Dno
 62
256
370
-1
 48
1.0
  6
BYLAYER
100
AcDbLine
 10
60.44444444444445
 20
149.4814814814814667
 30
0.0
 11
61.7777777777777786
 21
149.4814814814814667
 31
0.0
  0
LINE
  5
29C
100
AcDbEntity
  8
Dno
 62
256
370
-1
 48
1.0
  6
BYLAYER
100
AcDbLine
 10
66.3703703703703809
 20
149.4814814814814667
 30
0.0
 11
67.7037037037037095
 21
149.4814814814814667
 31
0.0
  0
LINE
  5
29D
100
AcDbEntity
  8
Dno
 62
256
370
-1
 48
1.0
  6
BYLAYER
100
AcDbLine
 10
72.2962962962963047
 20
149.4814814814814667
 30
0.0
 11
73.6296296296296333
 21
149.4814814814814667
 31
0.0
  0
LINE
  5
29E
100
AcDbEntity
  8
Dno
 62
256
370
-1
 48
1.0
  6
BYLAYER
100
AcDbLine
 10
78.2222222222222285
 20
149.4814814814814667
 30
0.0
 11
79.5555555555555713
 21
149.4814814814814667
 31
0.0
  0
LINE
  5
29F
100
AcDbEntity
  8
Dno
 62
256
370
-1
 48
1.0
  6
BYLAYER
100
AcDbLine
 10
84.1481481481481524
 20
149.4814814814814667
 30
0.0
 11
85.4814814814814952
 21
149.4814814814814667
 31
0.0
  0
LINE
  5
2A0
100
AcDbEntity
  8
Dno
 62
256
370
-1
 48
1.0
  6
BYLAYER
100
AcDbLine
 10
90.0740740740740904
 20
149.4814814814814667
 30
0.0
 11
91.4074074074073906
 21
149.4814814814814667
 31
0.0
  0
LINE
  5
2A1
100
AcDbEntity
  8
Dno
 62
256
370
-1
 48
1.0
  6
BYLAYER
100
AcDbLine
 10
96.0
 20
149.4814814814814667
 30
0.0
 11
97.3333337863508774
 21
149.4820063782545105
 31
0.0
  0
LINE
  5
2A2
100
AcDbEntity
  8
Dno
 62
256
370
-1
 48
1.0
  6
BYLAYER
100
AcDbLine
 10
42.6666662136491155
 20
96.1476232513751086
 30
0.0
 11
43.9999999999999929
 21
96.1481481481481524
 31
0.0
  0
LINE
  5
2A3
100
AcDbEntity
  8
Dno
 62
256
370
-1
 48
1.0
  6
BYLAYER
100
AcDbLine
 10
48.5925925925925952
 20
96.1481481481481524
 30
0.0
 11
49.9259259259259167
 21
96.1481481481481524
 31
0.0
  0
LINE
  5
2A4
100
AcDbEntity
  8
Dno
 62
256
370
-1
 48
1.0
  6
BYLAYER
100
AcDbLine
 10
54.5185185185185119
 20
96.1481481481481524
 30
0.0
 11
55.8518518518518547
 21
96.1481481481481524
 31
0.0
  0
LINE
  5
2A5
100
AcDbEntity
  8
Dno
 62
256
370
-1
 48
1.0
  6
BYLAYER
100
AcDbLine
 10
60.4444444444444429
 20
96.1481481481481524
 30
0.0
 11
61.7777777777777857
 21
96.1481481481481524
 31
0.0
  0
LINE
  5
2A6
100
AcDbEntity
  8
Dno
 62
256
370
-1
 48
1.0
  6
BYLAYER
100
AcDbLine
 10
66.3703703703703809
 20
96.1481481481481524
 30
0.0
 11
67.7037037037036953
 21
96.1481481481481524
 31
0.0
  0
LINE
  5
2A7
100
AcDbEntity
  8
Dno
 62
256
370
-1
 48
1.0
  6
BYLAYER
100
AcDbLine
 10
72.2962962962963047
 20
96.1481481481481524
 30
0.0
 11
73.6296296296296333
 21
96.1481481481481524
 31
0.0
  0
LINE
  5
2A8
100
AcDbEntity
  8
Dno
 62
256
370
-1
 48
1.0
  6
BYLAYER
100
AcDbLine
 10
78.2222222222222285
 20
96.1481481481481524
 30
0.0
 11
79.5555555555555713
 21
96.1481481481481524
 31
0.0
  0
LINE
  5
2A9
100
AcDbEntity
  8
Dno
 62
256
370
-1
 48
1.0
  6
BYLAYER
100
AcDbLine
 10
84.1481481481481524
 20
96.1481481481481524
 30
0.0
 11
85.481481481481481
 21
96.1481481481481524
 31
0.0
  0
LINE
  5
2AA
100
AcDbEntity
  8
Dno
 62
256
370
-1
 48
1.0
  6
BYLAYER
100
AcDbLine
 10
90.0740740740740762
 20
96.1481481481481524
 30
0.0
 11
91.4074074074073906
 21
96.1481481481481524
 31
0.0
  0
LINE
  5
2AB
100
AcDbEntity
  8
Dno
 62
256
370
-1
 48
1.0
  6
BYLAYER
100
AcDbLine
 10
96.0
 20
96.1481481481481524
 30
0.0
 11
97.3333337863508774
 21
96.1476232513751086
 31
0.0
  0
ENDSEC
  0
SECTION
  2
OBJECTS
  0
DICTIONARY
  5
C
100
AcDbDictionary
280
0
281
1
  3
ACAD_GROUP
350
D
  3
ACAD_LAYOUT
350
1A
  3
ACAD_MLINESTYLE
350
17
  3
ACAD_PLOTSETTINGS
350
19
  3
ACAD_PLOTSTYLENAME
350
E
  3
AcDbVariableDictionary
350
2AC
  3
QCAD_OBJECTS
350
2AD
  0
DICTIONARY
  5
D
100
AcDbDictionary
280
0
281
1
  0
ACDBDICTIONARYWDFLT
  5
E
100
AcDbDictionary
281
1
  3
Normal
350
F
100
AcDbDictionaryWithDefault
340
F
  0
ACDBPLACEHOLDER
  5
F
  0
DICTIONARY
  5
17
100
AcDbDictionary
280
0
281
1
  3
Standard
350
18
  0
MLINESTYLE
  5
18
100
AcDbMlineStyle
  2
STANDARD
 70
0
  3

 62
256
 51
90.0
 52
90.0
 71
2
 49
0.5
 62
256
  6
BYLAYER
 49
-0.5
 62
256
  6
BYLAYER
  0
DICTIONARY
  5
19
100
AcDbDictionary
280
0
281
1
  0
DICTIONARY
  5
1A
100
AcDbDictionary
281
1
  3
Layout1
350
1E
  3
Layout2
350
26
  3
Model
350
22
  0
LAYOUT
  5
1E
100
AcDbPlotSettings
  1

  2
none_device
  4

  6

 40
0.0
 41
0.0
 42
0.0
 43
0.0
 44
0.0
 45
0.0
 46
0.0
 47
0.0
 48
0.0
 49
0.0
140
0.0
141
0.0
142
1.0
143
1.0
 70
688
 72
0
 73
0
 74
5
  7

 75
16
147
1.0
148
0.0
149
0.0
100
AcDbLayout
  1
Layout1
 70
1
 71
1
 10
0.0
 20
0.0
 11
420.0
 21
297.0
 12
0.0
 22
0.0
 32
0.0
 14
100000000000000000000.0
 24
100000000000000000000.0
 34
100000000000000000000.0
 15
-100000000000000000000.0
 25
-100000000000000000000.0
 35
-100000000000000000000.0
146
0.0
 13
0.0
 23
0.0
 33
0.0
 16
1.0
 26
0.0
 36
0.0
 17
0.0
 27
1.0
 37
0.0
 76
0
330
1B
  0
LAYOUT
  5
22
100
AcDbPlotSettings
  1

  2
none_device
  4

  6

 40
0.0
 41
0.0
 42
0.0
 43
0.0
 44
0.0
 45
0.0
 46
0.0
 47
0.0
 48
0.0
 49
0.0
140
0.0
141
0.0
142
1.0
143
1.0
 70
1712
 72
0
 73
0
 74
0
  7

 75
0
147
1.0
148
0.0
149
0.0
100
AcDbLayout
  1
Model
 70
1
 71
0
 10
0.0
 20
0.0
 11
12.0
 21
9.0
 12
0.0
 22
0.0
 32
0.0
 14
0.0
 24
0.0
 34
0.0
 15
0.0
 25
0.0
 35
0.0
146
0.0
 13
0.0
 23
0.0
 33
0.0
 16
1.0
 26
0.0
 36
0.0
 17
0.0
 27
1.0
 37
0.0
 76
0
330
1F
  0
LAYOUT
  5
26
100
AcDbPlotSettings
  1

  2
none_device
  4

  6

 40
0.0
 41
0.0
 42
0.0
 43
0.0
 44
0.0
 45
0.0
 46
0.0
 47
0.0
 48
0.0
 49
0.0
140
0.0
141
0.0
142
1.0
143
1.0
 70
688
 72
0
 73
0
 74
5
  7

 75
16
147
1.0
148
0.0
149
0.0
100
AcDbLayout
  1
Layout2
 70
1
 71
2
 10
0.0
 20
0.0
 11
12.0
 21
9.0
 12
0.0
 22
0.0
 32
0.0
 14
0.0
 24
0.0
 34
0.0
 15
0.0
 25
0.0
 35
0.0
146
0.0
 13
0.0
 23
0.0
 33
0.0
 16
1.0
 26
0.0
 36
0.0
 17
0.0
 27
1.0
 37
0.0
 76
0
330
23
  0
DICTIONARY
  5
2AC
100
AcDbDictionary
281
1
  3
DIMASSOC
350
2AF
  3
HIDETEXT
350
2AE
  0
DICTIONARYVAR
  5
2AE
100
DictionaryVariables
280
0
  1
2
  0
DICTIONARYVAR
  5
2AF
100
DictionaryVariables
280
0
  1
1
  0
DICTIONARY
  5
2AD
100
AcDbDictionary
281
1
  3
ColorSettings/BackgroundColor
350
2B0
  3
ColorSettings/ColorMode
350
2B1
  3
DimensionSettings/AngularFormat
350
2B2
  3
DimensionSettings/AngularPrecision
350
2B3
  3
DimensionSettings/DecimalPoint
350
2B4
  3
DimensionSettings/DimensionFont
350
2B5
  3
DimensionSettings/KeepProportions
350
2B6
  3
DimensionSettings/LinearFormat
350
2B7
  3
DimensionSettings/LinearPrecision
350
2B8
  3
Grid/DisplayGrid00
350
2B9
  3
Grid/DisplayGrid01
350
2BA
  3
Grid/DisplayGrid02
350
2BB
  3
Grid/DisplayGrid03
350
2BC
  3
Grid/GridSpacingX00
350
2BD
  3
Grid/GridSpacingX01
350
2BE
  3
Grid/GridSpacingX02
350
2BF
  3
Grid/GridSpacingX03
350
2C0
  3
Grid/GridSpacingY00
350
2C1
  3
Grid/GridSpacingY01
350
2C2
  3
Grid/GridSpacingY02
350
2C3
  3
Grid/GridSpacingY03
350
2C4
  3
Grid/IsometricGrid00
350
2C5
  3
Grid/IsometricGrid01
350
2C6
  3
Grid/IsometricGrid02
350
2C7
  3
Grid/IsometricGrid03
350
2C8
  3
Grid/IsometricProjection00
350
2C9
  3
Grid/IsometricProjection01
350
2CA
  3
Grid/IsometricProjection02
350
2CB
  3
Grid/IsometricProjection03
350
2CC
  3
Grid/MetaGridSpacingX00
350
2CD
  3
Grid/MetaGridSpacingX01
350
2CE
  3
Grid/MetaGridSpacingX02
350
2CF
  3
Grid/MetaGridSpacingX03
350
2D0
  3
Grid/MetaGridSpacingY00
350
2D1
  3
Grid/MetaGridSpacingY01
350
2D2
  3
Grid/MetaGridSpacingY02
350
2D3
  3
Grid/MetaGridSpacingY03
350
2D4
  3
MultiPageSettings/Columns
350
2D5
  3
MultiPageSettings/GlueMarginsBottom
350
2D6
  3
MultiPageSettings/GlueMarginsLeft
350
2D7
  3
MultiPageSettings/GlueMarginsRight
350
2D8
  3
MultiPageSettings/GlueMarginsTop
350
2D9
  3
MultiPageSettings/PrintCropMarks
350
2DA
  3
MultiPageSettings/Rows
350
2DB
  3
PageSettings/OffsetX
350
2DC
  3
PageSettings/OffsetY
350
2DD
  3
PageSettings/PageOrientation
350
2DE
  3
PageSettings/PaperHeight
350
2DF
  3
PageSettings/PaperWidth
350
2E0
  3
PageSettings/Scale
350
2E1
  3
PageSettings/ShowPaperBorders
350
2E2
  3
QCADVersion
350
2E3
  3
UnitSettings/PaperUnit
350
2E4
  3
ViewportCenter
350
2E5
  3
ViewportHeight
350
2E6
  3
ViewportWidth
350
2E7
  0
XRECORD
  5
2B0
330
2AD
100
AcDbXrecord
280
1
1000
Bela
  0
XRECORD
  5
2B1
330
2AD
100
AcDbXrecord
280
1
1000
FullColor
  0
XRECORD
  5
2B2
330
2AD
100
AcDbXrecord
280
1
 90
0
  0
XRECORD
  5
2B3
330
2AD
100
AcDbXrecord
280
1
 90
0
  0
XRECORD
  5
2B4
330
2AD
100
AcDbXrecord
280
1
 90
46
  0
XRECORD
  5
2B5
330
2AD
100
AcDbXrecord
280
1
1000
DejaVu Sans
  0
XRECORD
  5
2B6
330
2AD
100
AcDbXrecord
280
1
290
1
  0
XRECORD
  5
2B7
330
2AD
100
AcDbXrecord
280
1
 90
2
  0
XRECORD
  5
2B8
330
2AD
100
AcDbXrecord
280
1
 90
4
  0
XRECORD
  5
2B9
330
2AD
100
AcDbXrecord
280
1
290
1
  0
XRECORD
  5
2BA
330
2AD
100
AcDbXrecord
280
1
290
1
  0
XRECORD
  5
2BB
330
2AD
100
AcDbXrecord
280
1
290
1
  0
XRECORD
  5
2BC
330
2AD
100
AcDbXrecord
280
1
290
1
  0
XRECORD
  5
2BD
330
2AD
100
AcDbXrecord
280
1
1000
auto
  0
XRECORD
  5
2BE
330
2AD
100
AcDbXrecord
280
1
1000
auto
  0
XRECORD
  5
2BF
330
2AD
100
AcDbXrecord
280
1
1000
auto
  0
XRECORD
  5
2C0
330
2AD
100
AcDbXrecord
280
1
1000
auto
  0
XRECORD
  5
2C1
330
2AD
100
AcDbXrecord
280
1
1000
auto
  0
XRECORD
  5
2C2
330
2AD
100
AcDbXrecord
280
1
1000
auto
  0
XRECORD
  5
2C3
330
2AD
100
AcDbXrecord
280
1
1000
auto
  0
XRECORD
  5
2C4
330
2AD
100
AcDbXrecord
280
1
1000
auto
  0
XRECORD
  5
2C5
330
2AD
100
AcDbXrecord
280
1
290
0
  0
XRECORD
  5
2C6
330
2AD
100
AcDbXrecord
280
1
290
0
  0
XRECORD
  5
2C7
330
2AD
100
AcDbXrecord
280
1
290
0
  0
XRECORD
  5
2C8
330
2AD
100
AcDbXrecord
280
1
290
0
  0
XRECORD
  5
2C9
330
2AD
100
AcDbXrecord
280
1
 90
65537
  0
XRECORD
  5
2CA
330
2AD
100
AcDbXrecord
280
1
 90
65537
  0
XRECORD
  5
2CB
330
2AD
100
AcDbXrecord
280
1
 90
65537
  0
XRECORD
  5
2CC
330
2AD
100
AcDbXrecord
280
1
 90
65537
  0
XRECORD
  5
2CD
330
2AD
100
AcDbXrecord
280
1
1000
auto
  0
XRECORD
  5
2CE
330
2AD
100
AcDbXrecord
280
1
1000
auto
  0
XRECORD
  5
2CF
330
2AD
100
AcDbXrecord
280
1
1000
auto
  0
XRECORD
  5
2D0
330
2AD
100
AcDbXrecord
280
1
1000
auto
  0
XRECORD
  5
2D1
330
2AD
100
AcDbXrecord
280
1
1000
auto
  0
XRECORD
  5
2D2
330
2AD
100
AcDbXrecord
280
1
1000
auto
  0
XRECORD
  5
2D3
330
2AD
100
AcDbXrecord
280
1
1000
auto
  0
XRECORD
  5
2D4
330
2AD
100
AcDbXrecord
280
1
1000
auto
  0
XRECORD
  5
2D5
330
2AD
100
AcDbXrecord
280
1
 90
1
  0
XRECORD
  5
2D6
330
2AD
100
AcDbXrecord
280
1
 40
10.0
  0
XRECORD
  5
2D7
330
2AD
100
AcDbXrecord
280
1
 40
10.0
  0
XRECORD
  5
2D8
330
2AD
100
AcDbXrecord
280
1
 40
10.0
  0
XRECORD
  5
2D9
330
2AD
100
AcDbXrecord
280
1
 40
10.0
  0
XRECORD
  5
2DA
330
2AD
100
AcDbXrecord
280
1
290
0
  0
XRECORD
  5
2DB
330
2AD
100
AcDbXrecord
280
1
 90
1
  0
XRECORD
  5
2DC
330
2AD
100
AcDbXrecord
280
1
 40
0.0
  0
XRECORD
  5
2DD
330
2AD
100
AcDbXrecord
280
1
 40
0.0
  0
XRECORD
  5
2DE
330
2AD
100
AcDbXrecord
280
1
1000
Portrait
  0
XRECORD
  5
2DF
330
2AD
100
AcDbXrecord
280
1
 40
297.0
  0
XRECORD
  5
2E0
330
2AD
100
AcDbXrecord
280
1
 40
210.0
  0
XRECORD
  5
2E1
330
2AD
100
AcDbXrecord
280
1
1000
1:1
  0
XRECORD
  5
2E2
330
2AD
100
AcDbXrecord
280
1
290
1
  0
XRECORD
  5
2E3
330
2AD
100
AcDbXrecord
280
1
1000
3.19.1
  0
XRECORD
  5
2E4
330
2AD
100
AcDbXrecord
280
1
 90
4
  0
XRECORD
  5
2E6
330
2AD
100
AcDbXrecord
280
1
 40
237.2065689599999132
  0
XRECORD
  5
2E7
330
2AD
100
AcDbXrecord
280
1
 40
515.9780351999997947
  0
ENDSEC
  0
EOF
